<?xml version="1.0" encoding="UTF-8" standalone="no"?><svg xmlns="http://www.w3.org/2000/svg" xmlns:xlink="http://www.w3.org/1999/xlink" contentStyleType="text/css" height="495px" preserveAspectRatio="none" style="width:637px;height:495px;background:#FFFFFF;" version="1.1" viewBox="0 0 637 495" width="637px" zoomAndPan="magnify"><defs/><g><rect fill="none" height="26.2969" id="_title" style="stroke:none;stroke-width:1.0;" width="305" x="167.25" y="10"/><text fill="#000000" font-family="sans-serif" font-size="14" font-weight="bold" lengthAdjust="spacing" textLength="295" x="172.25" y="27.9951">US1 System Sequence Diagram (SSD)</text><rect fill="#FFFFFF" height="275.8672" style="stroke:#181818;stroke-width:1.0;" width="10" x="114" y="128.5938"/><rect fill="#FFFFFF" height="254.7344" style="stroke:#181818;stroke-width:1.0;" width="10" x="362" y="149.7266"/><rect fill="#FFFFFF" height="29.1328" style="stroke:#181818;stroke-width:1.0;" width="10" x="565" y="245.125"/><rect fill="none" height="190.6016" style="stroke:#000000;stroke-width:1.5;" width="620.5" x="10" y="206.8594"/><line style="stroke:#181818;stroke-width:0.5;stroke-dasharray:5.0,5.0;" x1="119" x2="119" y1="118.5938" y2="414.4609"/><line style="stroke:#181818;stroke-width:0.5;stroke-dasharray:5.0,5.0;" x1="366.5" x2="366.5" y1="118.5938" y2="414.4609"/><line style="stroke:#181818;stroke-width:0.5;stroke-dasharray:5.0,5.0;" x1="569.5" x2="569.5" y1="118.5938" y2="414.4609"/><text fill="#000000" font-family="sans-serif" font-size="14" lengthAdjust="spacing" textLength="192" x="20" y="115.292">Human Resources Manager</text><ellipse cx="119" cy="50.7969" fill="#E2E2F0" rx="8" ry="8" style="stroke:#181818;stroke-width:0.5;"/><path d="M119,58.7969 L119,85.7969 M106,66.7969 L132,66.7969 M119,85.7969 L106,100.7969 M119,85.7969 L132,100.7969 " fill="none" style="stroke:#181818;stroke-width:0.5;"/><text fill="#000000" font-family="sans-serif" font-size="14" lengthAdjust="spacing" textLength="192" x="20" y="426.4561">Human Resources Manager</text><ellipse cx="119" cy="438.2578" fill="#E2E2F0" rx="8" ry="8" style="stroke:#181818;stroke-width:0.5;"/><path d="M119,446.2578 L119,473.2578 M106,454.2578 L132,454.2578 M119,473.2578 L106,488.2578 M119,473.2578 L132,488.2578 " fill="none" style="stroke:#181818;stroke-width:0.5;"/><rect fill="#E2E2F0" height="30.2969" rx="2.5" ry="2.5" style="stroke:#181818;stroke-width:0.5;" width="65" x="334.5" y="87.2969"/><text fill="#000000" font-family="sans-serif" font-size="14" lengthAdjust="spacing" textLength="51" x="341.5" y="107.292">System</text><rect fill="#E2E2F0" height="30.2969" rx="2.5" ry="2.5" style="stroke:#181818;stroke-width:0.5;" width="65" x="334.5" y="413.4609"/><text fill="#000000" font-family="sans-serif" font-size="14" lengthAdjust="spacing" textLength="51" x="341.5" y="433.4561">System</text><rect fill="#E2E2F0" height="30.2969" rx="2.5" ry="2.5" style="stroke:#181818;stroke-width:0.5;" width="101" x="519.5" y="87.2969"/><text fill="#000000" font-family="sans-serif" font-size="14" lengthAdjust="spacing" textLength="87" x="526.5" y="107.292">Organization</text><rect fill="#E2E2F0" height="30.2969" rx="2.5" ry="2.5" style="stroke:#181818;stroke-width:0.5;" width="101" x="519.5" y="413.4609"/><text fill="#000000" font-family="sans-serif" font-size="14" lengthAdjust="spacing" textLength="87" x="526.5" y="433.4561">Organization</text><rect fill="#FFFFFF" height="275.8672" style="stroke:#181818;stroke-width:1.0;" width="10" x="114" y="128.5938"/><rect fill="#FFFFFF" height="254.7344" style="stroke:#181818;stroke-width:1.0;" width="10" x="362" y="149.7266"/><rect fill="#FFFFFF" height="29.1328" style="stroke:#181818;stroke-width:1.0;" width="10" x="565" y="245.125"/><polygon fill="#181818" points="350,145.7266,360,149.7266,350,153.7266,354,149.7266" style="stroke:#181818;stroke-width:1.0;"/><line style="stroke:#181818;stroke-width:1.0;" x1="124" x2="356" y1="149.7266" y2="149.7266"/><text fill="#000000" font-family="sans-serif" font-size="13" lengthAdjust="spacing" textLength="194" x="131" y="144.6606">requests to register a new skill</text><line style="stroke:#181818;stroke-width:1.0;" x1="372" x2="414" y1="178.8594" y2="178.8594"/><line style="stroke:#181818;stroke-width:1.0;" x1="414" x2="414" y1="178.8594" y2="191.8594"/><line style="stroke:#181818;stroke-width:1.0;" x1="373" x2="414" y1="191.8594" y2="191.8594"/><polygon fill="#181818" points="383,187.8594,373,191.8594,383,195.8594,379,191.8594" style="stroke:#181818;stroke-width:1.0;"/><text fill="#000000" font-family="sans-serif" font-size="13" lengthAdjust="spacing" textLength="125" x="379" y="173.7935">Validate skill details</text><path d="M10,206.8594 L74,206.8594 L74,213.9922 L64,223.9922 L10,223.9922 L10,206.8594 " fill="#EEEEEE" style="stroke:#000000;stroke-width:1.5;"/><rect fill="none" height="190.6016" style="stroke:#000000;stroke-width:1.5;" width="620.5" x="10" y="206.8594"/><text fill="#000000" font-family="sans-serif" font-size="13" font-weight="bold" lengthAdjust="spacing" textLength="19" x="25" y="219.9263">alt</text><text fill="#000000" font-family="sans-serif" font-size="11" font-weight="bold" lengthAdjust="spacing" textLength="145" x="89" y="219.0698">[Skill details are valid]</text><polygon fill="#181818" points="553,241.125,563,245.125,553,249.125,557,245.125" style="stroke:#181818;stroke-width:1.0;"/><line style="stroke:#181818;stroke-width:1.0;" x1="372" x2="559" y1="245.125" y2="245.125"/><text fill="#000000" font-family="sans-serif" font-size="13" lengthAdjust="spacing" textLength="168" x="379" y="240.0591">Check organization details</text><polygon fill="#181818" points="383,270.2578,373,274.2578,383,278.2578,379,274.2578" style="stroke:#181818;stroke-width:1.0;"/><line style="stroke:#181818;stroke-width:1.0;stroke-dasharray:2.0,2.0;" x1="377" x2="569" y1="274.2578" y2="274.2578"/><text fill="#000000" font-family="sans-serif" font-size="13" lengthAdjust="spacing" textLength="169" x="389" y="269.1919">Sends organization details</text><line style="stroke:#181818;stroke-width:1.0;" x1="372" x2="414" y1="303.3906" y2="303.3906"/><line style="stroke:#181818;stroke-width:1.0;" x1="414" x2="414" y1="303.3906" y2="316.3906"/><line style="stroke:#181818;stroke-width:1.0;" x1="373" x2="414" y1="316.3906" y2="316.3906"/><polygon fill="#181818" points="383,312.3906,373,316.3906,383,320.3906,379,316.3906" style="stroke:#181818;stroke-width:1.0;"/><text fill="#000000" font-family="sans-serif" font-size="13" lengthAdjust="spacing" textLength="170" x="379" y="298.3247">Register skill in the system</text><polygon fill="#181818" points="135,341.5234,125,345.5234,135,349.5234,131,345.5234" style="stroke:#181818;stroke-width:1.0;"/><line style="stroke:#181818;stroke-width:1.0;" x1="129" x2="361" y1="345.5234" y2="345.5234"/><text fill="#000000" font-family="sans-serif" font-size="13" lengthAdjust="spacing" textLength="161" x="141" y="340.4575">Confirms skill registration</text><line style="stroke:#000000;stroke-width:1.0;stroke-dasharray:2.0,2.0;" x1="10" x2="630.5" y1="354.5234" y2="354.5234"/><text fill="#000000" font-family="sans-serif" font-size="11" font-weight="bold" lengthAdjust="spacing" textLength="170" x="15" y="364.7339">[Skill details are not valid]</text><polygon fill="#181818" points="135,385.4609,125,389.4609,135,393.4609,131,389.4609" style="stroke:#181818;stroke-width:1.0;"/><line style="stroke:#181818;stroke-width:1.0;" x1="129" x2="361" y1="389.4609" y2="389.4609"/><text fill="#000000" font-family="sans-serif" font-size="13" lengthAdjust="spacing" textLength="214" x="141" y="384.395">Informs HRM of invalid skill details</text><!--MD5=[bd5d716e1c71cd4b97b8140361a90349]
@startuml
title US1 System Sequence Diagram (SSD)

actor "Human Resources Manager" as HRM
participant System
participant Organization

activate HRM
HRM -> System : requests to register a new skill
activate System
System -> System : Validate skill details
alt Skill details are valid
    System -> Organization : Check organization details
    activate Organization
    Organization - -> System : Sends organization details
    deactivate Organization
    System -> System : Register skill in the system
    System -> HRM : Confirms skill registration
else Skill details are not valid
    System -> HRM : Informs HRM of invalid skill details
end
deactivate System
deactivate HRM
@enduml

PlantUML version 1.2022.7(Mon Aug 22 17:01:30 UTC 2022)
(GPL source distribution)
Java Runtime: OpenJDK Runtime Environment
JVM: OpenJDK 64-Bit Server VM
Default Encoding: UTF-8
Language: en
Country: null
--></g></svg>