<?xml version="1.0" encoding="UTF-8" standalone="no"?><svg xmlns="http://www.w3.org/2000/svg" xmlns:xlink="http://www.w3.org/1999/xlink" contentStyleType="text/css" height="673px" preserveAspectRatio="none" style="width:707px;height:673px;background:#FFFFFF;" version="1.1" viewBox="0 0 707 673" width="707px" zoomAndPan="magnify"><defs/><g><!--MD5=[0a3255c0c72c97830fc8df5cd6a0b864]
entity HRM--><g id="elem_HRM"><ellipse cx="125" cy="418" fill="#F1F1F1" rx="8" ry="8" style="stroke:#181818;stroke-width:0.5;"/><path d="M125,426 L125,453 M112,434 L138,434 M125,453 L112,468 M125,453 L138,468 " fill="none" style="stroke:#181818;stroke-width:0.5;"/><text fill="#000000" font-family="sans-serif" font-size="14" lengthAdjust="spacing" textLength="238" x="6" y="482.4951">Human Resources Manager (HRM)</text></g><!--MD5=[a89ee74bb4979dbed373b93afc1c36e4]
entity FM--><g id="elem_FM"><ellipse cx="125" cy="80" fill="#F1F1F1" rx="8" ry="8" style="stroke:#181818;stroke-width:0.5;"/><path d="M125,88 L125,115 M112,96 L138,96 M125,115 L112,130 M125,115 L138,130 " fill="none" style="stroke:#181818;stroke-width:0.5;"/><text fill="#000000" font-family="sans-serif" font-size="14" lengthAdjust="spacing" textLength="132" x="59" y="144.4951">Fleet Manager (FM)</text></g><g id="elem_UC1"><ellipse cx="502.9263" cy="279.2853" fill="#F1F1F1" rx="84.4263" ry="19.2853" style="stroke:#181818;stroke-width:0.5;"/><text fill="#000000" font-family="sans-serif" font-size="14" lengthAdjust="spacing" textLength="129" x="438.305" y="282.1739">UC1 Register Skills</text></g><g id="elem_UC2"><ellipse cx="502.9652" cy="352.693" fill="#F1F1F1" rx="78.9652" ry="18.193" style="stroke:#181818;stroke-width:0.5;"/><text fill="#000000" font-family="sans-serif" font-size="14" lengthAdjust="spacing" textLength="116" x="442.9" y="356.1886">UC2 Register Job</text></g><g id="elem_UC3"><ellipse cx="502.786" cy="447.6572" fill="#F1F1F1" rx="198.786" ry="42.1572" style="stroke:#181818;stroke-width:0.5;"/><text fill="#000000" font-family="sans-serif" font-size="14" lengthAdjust="spacing" textLength="371" x="317.286" y="450.5039">UC3 Register Collaborator with Job and Characteristics</text></g><g id="elem_UC4"><ellipse cx="502.8908" cy="552.2782" fill="#F1F1F1" rx="126.8908" ry="27.7782" style="stroke:#181818;stroke-width:0.5;"/><text fill="#000000" font-family="sans-serif" font-size="14" lengthAdjust="spacing" textLength="222" x="391.8908" y="555.1248">UC4 Assign Skills to Collaborator</text></g><g id="elem_UC5"><ellipse cx="502.8973" cy="641.6795" fill="#F1F1F1" rx="118.8973" ry="26.1795" style="stroke:#181818;stroke-width:0.5;"/><text fill="#000000" font-family="sans-serif" font-size="14" lengthAdjust="spacing" textLength="205" x="400.3973" y="644.5261">UC5 Generate Team Proposal</text></g><g id="elem_UC6"><ellipse cx="502.9431" cy="26.6886" fill="#F1F1F1" rx="91.4431" ry="20.6886" style="stroke:#181818;stroke-width:0.5;"/><text fill="#000000" font-family="sans-serif" font-size="14" lengthAdjust="spacing" textLength="145" x="430.4431" y="29.5353">UC6 Register Vehicle</text></g><g id="elem_UC7"><ellipse cx="503.0617" cy="109.7123" fill="#F1F1F1" rx="124.0617" ry="27.2123" style="stroke:#181818;stroke-width:0.5;"/><text fill="#000000" font-family="sans-serif" font-size="14" lengthAdjust="spacing" textLength="216" x="395.0617" y="112.559">UC7 Register Vehicle Check-up</text></g><g id="elem_UC8"><ellipse cx="503.2105" cy="198.7421" fill="#F1F1F1" rx="121.7105" ry="26.7421" style="stroke:#181818;stroke-width:0.5;"/><text fill="#000000" font-family="sans-serif" font-size="14" lengthAdjust="spacing" textLength="211" x="397.7105" y="201.5888">UC8 List Vehicles for Check-up</text></g><!--MD5=[27e4d56a8e568d573b0dfa85d6aaf132]
link HRM to UC1--><g id="link_HRM_UC1"><path d="M166.93,409.37 C201.03,379.74 252.24,340.01 304,317.5 C339.95,301.87 382.34,292.64 418.65,287.21 " fill="none" id="HRM-to-UC1" style="stroke:#181818;stroke-width:1.0;"/><polygon fill="#181818" points="423.96,286.43,414.4729,283.7852,419.0134,287.1591,415.6395,291.6997,423.96,286.43" style="stroke:#181818;stroke-width:1.0;"/></g><!--MD5=[7822de623de353e298758a9a3dbf85c5]
link HRM to UC2--><g id="link_HRM_UC2"><path d="M232.58,409.48 C255.94,401.9 280.66,394.46 304,388.5 C345.63,377.87 392.96,369.15 430.9,362.95 " fill="none" id="HRM-to-UC2" style="stroke:#181818;stroke-width:1.0;"/><polygon fill="#181818" points="435.95,362.13,426.4265,359.6193,431.0142,362.9289,427.7047,367.5166,435.95,362.13" style="stroke:#181818;stroke-width:1.0;"/></g><!--MD5=[cfa38e1d19ce6de1c4dcc9ef834f7250]
link HRM to UC3--><g id="link_HRM_UC3"><path d="M244.19,447.5 C261.61,447.5 279.96,447.5 298.51,447.5 " fill="none" id="HRM-to-UC3" style="stroke:#181818;stroke-width:1.0;"/><polygon fill="#181818" points="303.75,447.5,294.75,443.5,298.75,447.5,294.75,451.5,303.75,447.5" style="stroke:#181818;stroke-width:1.0;"/></g><!--MD5=[9a33132fc9c443027cd343e8a38cb59b]
link HRM to UC4--><g id="link_HRM_UC4"><path d="M233.23,485.6 C256.43,493.3 280.93,501.01 304,507.5 C336.37,516.61 372.11,525.18 404.22,532.34 " fill="none" id="HRM-to-UC4" style="stroke:#181818;stroke-width:1.0;"/><polygon fill="#181818" points="409.34,533.48,401.422,527.6229,404.4591,532.3953,399.6866,535.4324,409.34,533.48" style="stroke:#181818;stroke-width:1.0;"/></g><!--MD5=[5b116a2a4b7ce589b37eb0a69d34e85a]
link HRM to UC5--><g id="link_HRM_UC5"><path d="M160.32,485.81 C193.62,520.56 247.32,570.51 304,598.5 C331.58,612.12 363.42,621.45 393.39,627.84 " fill="none" id="HRM-to-UC5" style="stroke:#181818;stroke-width:1.0;"/><polygon fill="#181818" points="398.57,628.91,390.5676,623.1687,393.6738,627.8965,388.946,631.0027,398.57,628.91" style="stroke:#181818;stroke-width:1.0;"/></g><!--MD5=[ce4599ff38c0440ce94d3b19b1400abf]
link FM to UC6--><g id="link_FM_UC6"><path d="M191.3,92.03 C224.87,83.29 266.5,72.83 304,64.5 C344.06,55.6 388.95,46.88 425.85,40.05 " fill="none" id="FM-to-UC6" style="stroke:#181818;stroke-width:1.0;"/><polygon fill="#181818" points="430.77,39.14,421.1979,36.8218,425.8513,40.0382,422.635,44.6917,430.77,39.14" style="stroke:#181818;stroke-width:1.0;"/></g><!--MD5=[7cb2863200793b246206c906053c18d5]
link FM to UC7--><g id="link_FM_UC7"><path d="M191.06,109.5 C241.26,109.5 312.26,109.5 373.75,109.5 " fill="none" id="FM-to-UC7" style="stroke:#181818;stroke-width:1.0;"/><polygon fill="#181818" points="378.91,109.5,369.91,105.5,373.91,109.5,369.91,113.5,378.91,109.5" style="stroke:#181818;stroke-width:1.0;"/></g><!--MD5=[f626b506aec25781f2bd47cd80624a03]
link FM to UC8--><g id="link_FM_UC8"><path d="M191.03,125.89 C224.71,134.29 266.52,144.61 304,153.5 C339.31,161.88 378.23,170.79 412.16,178.46 " fill="none" id="FM-to-UC8" style="stroke:#181818;stroke-width:1.0;"/><polygon fill="#181818" points="417.13,179.58,409.2284,173.7009,412.2521,178.4818,407.4712,181.5055,417.13,179.58" style="stroke:#181818;stroke-width:1.0;"/></g><!--MD5=[b1ee5cd65272c66d5db29c5b516b77a2]
@startuml
left to right direction

actor "Human Resources Manager (HRM)" as HRM
actor "Fleet Manager (FM)" as FM

usecase "UC1 Register Skills" as UC1
usecase "UC2 Register Job" as UC2
usecase "UC3 Register Collaborator with Job and Characteristics" as UC3
usecase "UC4 Assign Skills to Collaborator" as UC4
usecase "UC5 Generate Team Proposal" as UC5
usecase "UC6 Register Vehicle" as UC6
usecase "UC7 Register Vehicle Check-up" as UC7
usecase "UC8 List Vehicles for Check-up" as UC8

HRM - -> UC1
HRM - -> UC2
HRM - -> UC3
HRM - -> UC4
HRM - -> UC5

FM - -> UC6
FM - -> UC7
FM - -> UC8
@enduml

PlantUML version 1.2022.7(Mon Aug 22 17:01:30 UTC 2022)
(GPL source distribution)
Java Runtime: OpenJDK Runtime Environment
JVM: OpenJDK 64-Bit Server VM
Default Encoding: UTF-8
Language: en
Country: null
--></g></svg>