<?xml version="1.0" encoding="UTF-8" standalone="no"?><svg xmlns="http://www.w3.org/2000/svg" xmlns:xlink="http://www.w3.org/1999/xlink" contentStyleType="text/css" height="496px" preserveAspectRatio="none" style="width:730px;height:496px;background:#FFFFFF;" version="1.1" viewBox="0 0 730 496" width="730px" zoomAndPan="magnify"><defs/><g><rect fill="none" height="26.2969" id="_title" style="stroke:none;stroke-width:1.0;" width="444" x="142" y="10"/><text fill="#000000" font-family="sans-serif" font-size="14" font-weight="bold" lengthAdjust="spacing" textLength="434" x="147" y="27.9951">US3 System Sequence Diagram (SSD) - Alternative One</text><rect fill="#FFFFFF" height="278.3281" style="stroke:#181818;stroke-width:1.0;" width="10" x="99" y="128.5938"/><rect fill="#FFFFFF" height="29.1328" style="stroke:#181818;stroke-width:1.0;" width="10" x="684" y="149.7266"/><rect fill="#FFFFFF" height="44.2656" style="stroke:#181818;stroke-width:1.0;" width="10" x="684" y="207.9922"/><rect fill="#FFFFFF" height="29.1328" style="stroke:#181818;stroke-width:1.0;" width="10" x="684" y="281.3906"/><rect fill="#FFFFFF" height="29.1328" style="stroke:#181818;stroke-width:1.0;" width="10" x="684" y="339.6563"/><line style="stroke:#181818;stroke-width:0.5;stroke-dasharray:5.0,5.0;" x1="104" x2="104" y1="118.5938" y2="415.9219"/><line style="stroke:#181818;stroke-width:0.5;stroke-dasharray:5.0,5.0;" x1="689" x2="689" y1="118.5938" y2="415.9219"/><text fill="#000000" font-family="sans-serif" font-size="14" lengthAdjust="spacing" textLength="192" x="5" y="115.292">Human Resources Manager</text><ellipse cx="104" cy="50.7969" fill="#E3E3E3" rx="8" ry="8" style="stroke:#181818;stroke-width:0.5;"/><path d="M104,58.7969 L104,85.7969 M91,66.7969 L117,66.7969 M104,85.7969 L91,100.7969 M104,85.7969 L117,100.7969 " fill="none" style="stroke:#181818;stroke-width:0.5;"/><text fill="#000000" font-family="sans-serif" font-size="14" lengthAdjust="spacing" textLength="192" x="5" y="427.917">Human Resources Manager</text><ellipse cx="104" cy="439.7188" fill="#E3E3E3" rx="8" ry="8" style="stroke:#181818;stroke-width:0.5;"/><path d="M104,447.7188 L104,474.7188 M91,455.7188 L117,455.7188 M104,474.7188 L91,489.7188 M104,474.7188 L117,489.7188 " fill="none" style="stroke:#181818;stroke-width:0.5;"/><rect fill="#E3E3E3" height="30.2969" rx="2.5" ry="2.5" style="stroke:#181818;stroke-width:0.5;" width="70" x="654" y="87.2969"/><text fill="#000000" font-family="sans-serif" font-size="14" lengthAdjust="spacing" textLength="56" x="661" y="107.292">:System</text><rect fill="#E3E3E3" height="30.2969" rx="2.5" ry="2.5" style="stroke:#181818;stroke-width:0.5;" width="70" x="654" y="414.9219"/><text fill="#000000" font-family="sans-serif" font-size="14" lengthAdjust="spacing" textLength="56" x="661" y="434.917">:System</text><rect fill="#FFFFFF" height="278.3281" style="stroke:#181818;stroke-width:1.0;" width="10" x="99" y="128.5938"/><rect fill="#FFFFFF" height="29.1328" style="stroke:#181818;stroke-width:1.0;" width="10" x="684" y="149.7266"/><rect fill="#FFFFFF" height="44.2656" style="stroke:#181818;stroke-width:1.0;" width="10" x="684" y="207.9922"/><rect fill="#FFFFFF" height="29.1328" style="stroke:#181818;stroke-width:1.0;" width="10" x="684" y="281.3906"/><rect fill="#FFFFFF" height="29.1328" style="stroke:#181818;stroke-width:1.0;" width="10" x="684" y="339.6563"/><polygon fill="#181818" points="672,145.7266,682,149.7266,672,153.7266,676,149.7266" style="stroke:#181818;stroke-width:1.0;"/><line style="stroke:#181818;stroke-width:1.0;" x1="109" x2="678" y1="149.7266" y2="149.7266"/><text fill="#000000" font-family="sans-serif" font-size="13" font-weight="bold" lengthAdjust="spacing" textLength="9" x="116" y="144.6606">1</text><text fill="#000000" font-family="sans-serif" font-size="13" lengthAdjust="spacing" textLength="220" x="129" y="144.6606">asks to register a new collaborator</text><polygon fill="#181818" points="120,174.8594,110,178.8594,120,182.8594,116,178.8594" style="stroke:#181818;stroke-width:1.0;"/><line style="stroke:#181818;stroke-width:1.0;stroke-dasharray:2.0,2.0;" x1="114" x2="688" y1="178.8594" y2="178.8594"/><text fill="#000000" font-family="sans-serif" font-size="13" font-weight="bold" lengthAdjust="spacing" textLength="9" x="126" y="173.7935">2</text><text fill="#000000" font-family="sans-serif" font-size="13" lengthAdjust="spacing" textLength="372" x="139" y="173.7935">shows an available job category list and asks to select one</text><polygon fill="#181818" points="672,203.9922,682,207.9922,672,211.9922,676,207.9922" style="stroke:#181818;stroke-width:1.0;"/><line style="stroke:#181818;stroke-width:1.0;" x1="109" x2="678" y1="207.9922" y2="207.9922"/><text fill="#000000" font-family="sans-serif" font-size="13" font-weight="bold" lengthAdjust="spacing" textLength="9" x="116" y="202.9263">3</text><text fill="#000000" font-family="sans-serif" font-size="13" lengthAdjust="spacing" textLength="140" x="129" y="202.9263">selects a job category</text><polygon fill="#181818" points="120,248.2578,110,252.2578,120,256.2578,116,252.2578" style="stroke:#181818;stroke-width:1.0;"/><line style="stroke:#181818;stroke-width:1.0;stroke-dasharray:2.0,2.0;" x1="114" x2="688" y1="252.2578" y2="252.2578"/><text fill="#000000" font-family="sans-serif" font-size="13" font-weight="bold" lengthAdjust="spacing" textLength="9" x="126" y="239.6255">4</text><text fill="#000000" font-family="sans-serif" font-size="13" lengthAdjust="spacing" textLength="538" x="139" y="232.0591">requests collaborator data (name, date of birth, date of admission, address, contact</text><text fill="#000000" font-family="sans-serif" font-size="13" lengthAdjust="spacing" textLength="418" x="139" y="247.1919">(telephone and email),identification document and your number.)</text><polygon fill="#181818" points="672,277.3906,682,281.3906,672,285.3906,676,281.3906" style="stroke:#181818;stroke-width:1.0;"/><line style="stroke:#181818;stroke-width:1.0;" x1="109" x2="678" y1="281.3906" y2="281.3906"/><text fill="#000000" font-family="sans-serif" font-size="13" font-weight="bold" lengthAdjust="spacing" textLength="9" x="116" y="276.3247">5</text><text fill="#000000" font-family="sans-serif" font-size="13" lengthAdjust="spacing" textLength="167" x="129" y="276.3247">provides collaborator data</text><polygon fill="#181818" points="120,306.5234,110,310.5234,120,314.5234,116,310.5234" style="stroke:#181818;stroke-width:1.0;"/><line style="stroke:#181818;stroke-width:1.0;stroke-dasharray:2.0,2.0;" x1="114" x2="688" y1="310.5234" y2="310.5234"/><text fill="#000000" font-family="sans-serif" font-size="13" font-weight="bold" lengthAdjust="spacing" textLength="9" x="126" y="305.4575">6</text><text fill="#000000" font-family="sans-serif" font-size="13" lengthAdjust="spacing" textLength="371" x="139" y="305.4575">shows collaborator details and asks to confirm all the data</text><polygon fill="#181818" points="672,335.6563,682,339.6563,672,343.6563,676,339.6563" style="stroke:#181818;stroke-width:1.0;"/><line style="stroke:#181818;stroke-width:1.0;" x1="109" x2="678" y1="339.6563" y2="339.6563"/><text fill="#000000" font-family="sans-serif" font-size="13" font-weight="bold" lengthAdjust="spacing" textLength="9" x="116" y="334.5903">7</text><text fill="#000000" font-family="sans-serif" font-size="13" lengthAdjust="spacing" textLength="88" x="129" y="334.5903">confirms data</text><polygon fill="#181818" points="120,364.7891,110,368.7891,120,372.7891,116,368.7891" style="stroke:#181818;stroke-width:1.0;"/><line style="stroke:#181818;stroke-width:1.0;stroke-dasharray:2.0,2.0;" x1="114" x2="688" y1="368.7891" y2="368.7891"/><text fill="#000000" font-family="sans-serif" font-size="13" font-weight="bold" lengthAdjust="spacing" textLength="9" x="126" y="363.7231">8</text><text fill="#000000" font-family="sans-serif" font-size="13" lengthAdjust="spacing" textLength="136" x="139" y="363.7231">registers collaborator</text><polygon fill="#181818" points="120,393.9219,110,397.9219,120,401.9219,116,397.9219" style="stroke:#181818;stroke-width:1.0;"/><line style="stroke:#181818;stroke-width:1.0;stroke-dasharray:2.0,2.0;" x1="114" x2="688" y1="397.9219" y2="397.9219"/><text fill="#000000" font-family="sans-serif" font-size="13" font-weight="bold" lengthAdjust="spacing" textLength="9" x="126" y="392.856">9</text><text fill="#000000" font-family="sans-serif" font-size="13" lengthAdjust="spacing" textLength="171" x="139" y="392.856">displays operation success</text><!--MD5=[d974811426c680fecb1dcf594234dd57]
@startuml
skinparam monochrome true
skinparam packageStyle rectangle
skinparam shadowing false

title US3 System Sequence Diagram (SSD) - Alternative One


autonumber
actor "Human Resources Manager" as collaborator

participant ":System" as System

activate collaborator



    collaborator -> System : asks to register a new collaborator
    activate System

    System - -> collaborator : shows an available job category list and asks to select one

    deactivate System

    collaborator -> System : selects a job category

    activate System

    System - -> collaborator : requests collaborator data (name, date of birth, date of admission, address, contact\n(telephone and email),identification document and your number.)

       deactivate System

        collaborator -> System : provides collaborator data

               activate System

    System - -> collaborator : shows collaborator details and asks to confirm all the data
        deactivate System

    collaborator -> System : confirms data

       activate System

      System - -> collaborator : registers collaborator

              deactivate System

       System - -> collaborator : displays operation success
@enduml

PlantUML version 1.2022.7(Mon Aug 22 17:01:30 UTC 2022)
(GPL source distribution)
Java Runtime: OpenJDK Runtime Environment
JVM: OpenJDK 64-Bit Server VM
Default Encoding: UTF-8
Language: en
Country: null
--></g></svg>