<?xml version="1.0" encoding="us-ascii" standalone="no"?><svg xmlns="http://www.w3.org/2000/svg" xmlns:xlink="http://www.w3.org/1999/xlink" contentStyleType="text/css" height="345px" preserveAspectRatio="none" style="width:822px;height:345px;background:#FFFFFF;" version="1.1" viewBox="0 0 822 345" width="822px" zoomAndPan="magnify"><defs/><g><text fill="#000000" font-family="sans-serif" font-size="14" font-weight="bold" lengthAdjust="spacing" textLength="163" x="322.5" y="25.1074">Domain Model for US20</text><!--class Organization--><g id="elem_Organization"><rect codeLine="10" fill="#F1F1F1" height="129.7266" id="Organization" rx="2.5" ry="2.5" style="stroke:#181818;stroke-width:0.5;" width="101" x="7" y="127.6211"/><text fill="#000000" font-family="sans-serif" font-size="14" lengthAdjust="spacing" textLength="80" x="17.5" y="147.7285">Organization</text><line style="stroke:#181818;stroke-width:0.5;" x1="8" x2="107" y1="156.2422" y2="156.2422"/><text fill="#000000" font-family="sans-serif" font-size="14" lengthAdjust="spacing" textLength="35" x="13" y="175.3496">name</text><text fill="#000000" font-family="sans-serif" font-size="14" lengthAdjust="spacing" textLength="68" x="13" y="193.9707">vatNumber</text><text fill="#000000" font-family="sans-serif" font-size="14" lengthAdjust="spacing" textLength="47" x="13" y="212.5918">website</text><text fill="#000000" font-family="sans-serif" font-size="14" lengthAdjust="spacing" textLength="89" x="13" y="231.2129">phoneNumber</text><text fill="#000000" font-family="sans-serif" font-size="14" lengthAdjust="spacing" textLength="33" x="13" y="249.834">email</text></g><!--class Employe--><g id="elem_Employe"><rect codeLine="18" fill="#F1F1F1" height="111.1055" id="Employe" rx="2.5" ry="2.5" style="stroke:#181818;stroke-width:0.5;" width="101" x="191" y="57.1211"/><text fill="#000000" font-family="sans-serif" font-size="14" lengthAdjust="spacing" textLength="54" x="214.5" y="77.2285">Employe</text><line style="stroke:#181818;stroke-width:0.5;" x1="192" x2="291" y1="85.7422" y2="85.7422"/><text fill="#000000" font-family="sans-serif" font-size="14" lengthAdjust="spacing" textLength="35" x="197" y="104.8496">name</text><text fill="#000000" font-family="sans-serif" font-size="14" lengthAdjust="spacing" textLength="24" x="197" y="123.4707">role</text><text fill="#000000" font-family="sans-serif" font-size="14" lengthAdjust="spacing" textLength="89" x="197" y="142.0918">phoneNumber</text><text fill="#000000" font-family="sans-serif" font-size="14" lengthAdjust="spacing" textLength="33" x="197" y="160.7129">email</text></g><!--class GSM--><g id="elem_GSM"><rect codeLine="25" fill="#F1F1F1" height="55.2422" id="GSM" rx="2.5" ry="2.5" style="stroke:#181818;stroke-width:0.5;" width="37" x="393" y="99.1211"/><text fill="#000000" font-family="sans-serif" font-size="14" lengthAdjust="spacing" textLength="31" x="396" y="119.2285">GSM</text><line style="stroke:#181818;stroke-width:0.5;" x1="394" x2="429" y1="127.7422" y2="127.7422"/><text fill="#000000" font-family="sans-serif" font-size="14" lengthAdjust="spacing" textLength="12" x="399" y="146.8496">...</text></g><!--class Garden--><g id="elem_Garden"><rect codeLine="29" fill="#F1F1F1" height="73.8633" id="Garden" rx="2.5" ry="2.5" style="stroke:#181818;stroke-width:0.5;" width="54" x="733" y="46.6211"/><text fill="#000000" font-family="sans-serif" font-size="14" lengthAdjust="spacing" textLength="48" x="736" y="66.7285">Garden</text><line style="stroke:#181818;stroke-width:0.5;" x1="734" x2="786" y1="75.2422" y2="75.2422"/><text fill="#000000" font-family="sans-serif" font-size="14" lengthAdjust="spacing" textLength="35" x="739" y="94.3496">name</text><text fill="#000000" font-family="sans-serif" font-size="14" lengthAdjust="spacing" textLength="29" x="739" y="112.9707">area</text></g><!--class MediumSizePark--><g id="elem_MediumSizePark"><rect codeLine="34" fill="#F1F1F1" height="73.8633" id="MediumSizePark" rx="2.5" ry="2.5" style="stroke:#181818;stroke-width:0.5;" width="110" x="705" y="155.6211"/><text fill="#000000" font-family="sans-serif" font-size="14" lengthAdjust="spacing" textLength="104" x="708" y="175.7285">MediumSizePark</text><line style="stroke:#181818;stroke-width:0.5;" x1="706" x2="814" y1="184.2422" y2="184.2422"/><text fill="#000000" font-family="sans-serif" font-size="14" lengthAdjust="spacing" textLength="35" x="711" y="203.3496">name</text><text fill="#000000" font-family="sans-serif" font-size="14" lengthAdjust="spacing" textLength="29" x="711" y="221.9707">area</text></g><!--class LargePark--><g id="elem_LargePark"><rect codeLine="39" fill="#F1F1F1" height="73.8633" id="LargePark" rx="2.5" ry="2.5" style="stroke:#181818;stroke-width:0.5;" width="72" x="724" y="264.6211"/><text fill="#000000" font-family="sans-serif" font-size="14" lengthAdjust="spacing" textLength="66" x="727" y="284.7285">LargePark</text><line style="stroke:#181818;stroke-width:0.5;" x1="725" x2="795" y1="293.2422" y2="293.2422"/><text fill="#000000" font-family="sans-serif" font-size="14" lengthAdjust="spacing" textLength="35" x="730" y="312.3496">name</text><text fill="#000000" font-family="sans-serif" font-size="14" lengthAdjust="spacing" textLength="29" x="730" y="330.9707">area</text></g><!--class Parks--><g id="elem_Parks"><rect codeLine="44" fill="#F1F1F1" height="36.6211" id="Parks" rx="2.5" ry="2.5" style="stroke:#181818;stroke-width:0.5;" width="42" x="535" y="174.1211"/><text fill="#000000" font-family="sans-serif" font-size="14" lengthAdjust="spacing" textLength="36" x="538" y="194.2285">Parks</text><line style="stroke:#181818;stroke-width:0.5;" x1="536" x2="576" y1="202.7422" y2="202.7422"/></g><!--link Organization to Employe--><g id="link_Organization_Employe"><path codeLine="47" d="M108.23,170.7611 C133.91,159.4711 159.6677,148.1567 185.3377,136.8667 " fill="none" id="Organization-to-Employe" style="stroke:#181818;stroke-width:1.0;"/><polygon fill="#181818" points="190.83,134.4511,180.9812,134.4129,186.2531,136.4641,184.202,141.736,190.83,134.4511" style="stroke:#181818;stroke-width:1.0;"/><text fill="#000000" font-family="sans-serif" font-size="13" lengthAdjust="spacing" textLength="21" x="139" y="144.6494">has</text><text fill="#000000" font-family="sans-serif" font-size="13" lengthAdjust="spacing" textLength="7" x="115.8561" y="182.9504">1</text><text fill="#000000" font-family="sans-serif" font-size="13" lengthAdjust="spacing" textLength="5" x="178.0207" y="152.9478">*</text></g><!--link Organization to Parks--><g id="link_Organization_Parks"><path codeLine="48" d="M108.38,192.6211 C215.35,192.6211 456.94,192.6211 528.99,192.6211 " fill="none" id="Organization-to-Parks" style="stroke:#181818;stroke-width:1.0;"/><polygon fill="#181818" points="534.99,192.6211,525.99,188.6211,529.99,192.6211,525.99,196.6211,534.99,192.6211" style="stroke:#181818;stroke-width:1.0;"/><text fill="#000000" font-family="sans-serif" font-size="13" lengthAdjust="spacing" textLength="30" x="327.5" y="188.6494">owns</text><text fill="#000000" font-family="sans-serif" font-size="13" lengthAdjust="spacing" textLength="7" x="116.0272" y="207.8844">1</text><text fill="#000000" font-family="sans-serif" font-size="13" lengthAdjust="spacing" textLength="5" x="521.9084" y="209.6864">*</text></g><!--link Employe to GSM--><g id="link_Employe_GSM"><path codeLine="49" d="M292.45,116.7811 C326.3,119.6011 363.0609,122.6605 386.7109,124.6405 " fill="none" id="Employe-to-GSM" style="stroke:#181818;stroke-width:1.0;"/><polygon fill="#181818" points="392.69,125.1411,384.0551,120.4042,387.7074,124.7239,383.3877,128.3763,392.69,125.1411" style="stroke:#181818;stroke-width:1.0;"/><text fill="#000000" font-family="sans-serif" font-size="13" lengthAdjust="spacing" textLength="39" x="323" y="115.6494">can be</text><text fill="#000000" font-family="sans-serif" font-size="13" lengthAdjust="spacing" textLength="7" x="300.107" y="132.6028">1</text><text fill="#000000" font-family="sans-serif" font-size="13" lengthAdjust="spacing" textLength="7" x="378.0209" y="141.5909">1</text></g><!--link Parks to Garden--><g id="link_Parks_Garden"><path codeLine="50" d="M577.43,181.5811 C586.49,176.6911 597.28,170.8711 607,165.6211 C651.2,141.7711 697.349,116.8691 727.629,100.5391 " fill="none" id="Parks-to-Garden" style="stroke:#181818;stroke-width:1.0;"/><polygon fill="#181818" points="732.91,97.6911,723.0898,98.4425,728.5092,100.0645,726.8872,105.4838,732.91,97.6911" style="stroke:#181818;stroke-width:1.0;"/><text fill="#000000" font-family="sans-serif" font-size="13" lengthAdjust="spacing" textLength="66" x="608" y="125.6494">can include</text><text fill="#000000" font-family="sans-serif" font-size="13" lengthAdjust="spacing" textLength="7" x="585.0648" y="194.9341">1</text><text fill="#000000" font-family="sans-serif" font-size="13" lengthAdjust="spacing" textLength="5" x="719.9577" y="117.8426">*</text></g><!--link Parks to MediumSizePark--><g id="link_Parks_MediumSizePark"><path codeLine="51" d="M577.11,192.6211 C606.65,192.6211 656.82,192.6211 698.97,192.6211 " fill="none" id="Parks-to-MediumSizePark" style="stroke:#181818;stroke-width:1.0;"/><polygon fill="#181818" points="704.97,192.6211,695.97,188.6211,699.97,192.6211,695.97,196.6211,704.97,192.6211" style="stroke:#181818;stroke-width:1.0;"/><text fill="#000000" font-family="sans-serif" font-size="13" lengthAdjust="spacing" textLength="66" x="608" y="188.6494">can include</text><text fill="#000000" font-family="sans-serif" font-size="13" lengthAdjust="spacing" textLength="7" x="584.9544" y="209.4656">1</text><text fill="#000000" font-family="sans-serif" font-size="13" lengthAdjust="spacing" textLength="5" x="691.8798" y="207.8748">*</text></g><!--link Parks to LargePark--><g id="link_Parks_LargePark"><path codeLine="52" d="M577.43,203.6611 C586.49,208.5511 597.28,214.3711 607,219.6211 C647.11,241.2711 687.8886,263.2738 718.6986,279.8838 " fill="none" id="Parks-to-LargePark" style="stroke:#181818;stroke-width:1.0;"/><polygon fill="#181818" points="723.98,282.7311,717.9561,274.9393,719.5788,280.3584,714.1597,281.9811,723.98,282.7311" style="stroke:#181818;stroke-width:1.0;"/><text fill="#000000" font-family="sans-serif" font-size="13" lengthAdjust="spacing" textLength="66" x="608" y="215.6494">can include</text><text fill="#000000" font-family="sans-serif" font-size="13" lengthAdjust="spacing" textLength="7" x="584.1016" y="232.8441">1</text><text fill="#000000" font-family="sans-serif" font-size="13" lengthAdjust="spacing" textLength="5" x="711.0353" y="294.6606">*</text></g><!--link GSM to Parks--><g id="link_GSM_Parks"><path codeLine="53" d="M430.26,134.8511 C456.82,147.1511 501.3056,167.7495 529.2656,180.6995 " fill="none" id="GSM-to-Parks" style="stroke:#181818;stroke-width:1.0;"/><polygon fill="#181818" points="534.71,183.2211,528.2245,175.8091,530.173,181.1197,524.8623,183.0682,534.71,183.2211" style="stroke:#181818;stroke-width:1.0;"/><text fill="#000000" font-family="sans-serif" font-size="13" lengthAdjust="spacing" textLength="43" x="461" y="146.6494">creates</text><text fill="#000000" font-family="sans-serif" font-size="13" lengthAdjust="spacing" textLength="7" x="437.9119" y="154.6387">1</text><text fill="#000000" font-family="sans-serif" font-size="13" lengthAdjust="spacing" textLength="5" x="522.1269" y="174.6506">*</text></g><!--SRC=[ZP3BJiCm44Nt_efHbaYj2iika91028a0KiG7JEnfOjMFQEnGjOX_nqdwI4k1UcDxvjnvtB3Kha562zOxBslsbY1oIoBiCmtA9LPKnBKXO98HNMN6GAXH-PLs5IpGX7566WpXBaRMPHlfINfNw0t1JDHQ4KZDCXNgtvPYxLKGKSVKvTvRr0vohyZ0mZEy5pSpOMWH8NfWNTKHbEvcqTu9qRU1LwxGwGrsCVWKa8v3I_tZ0-DBQqlY_hUYCkWuP9hQEnhbA7KsucjNzC4sng_fj1vxSv7yiSYtqkbqEWeZA_en93BXWSb9wTPsVhqXB_zcdv6h2x2E20b9WIEpikiC9fDRoAwo_S9pg37yZWsbvk1NBeYTPW-akzjy3X8Tb2G6UgpVEZ0GsadJgdFOYGd_uGSVZibkc7FJosHFf22-0G00]--></g></svg>