<?xml version="1.0" encoding="UTF-8" standalone="no"?><svg xmlns="http://www.w3.org/2000/svg" xmlns:xlink="http://www.w3.org/1999/xlink" contentStyleType="text/css" height="284px" preserveAspectRatio="none" style="width:384px;height:284px;background:#FFFFFF;" version="1.1" viewBox="0 0 384 284" width="384px" zoomAndPan="magnify"><defs/><g><!--MD5=[17e00d5ea56ecd111f381cd1084c4da3]
class HumanResourcesManager--><g id="elem_HumanResourcesManager"><rect codeLine="1" fill="#F1F1F1" height="96.8906" id="HumanResourcesManager" rx="2.5" ry="2.5" style="stroke:#181818;stroke-width:0.5;" width="216" x="7" y="23"/><ellipse cx="22" cy="39" fill="#ADD1B2" rx="11" ry="11" style="stroke:#181818;stroke-width:1.0;"/><path d="M24.9688,44.6406 Q24.3906,44.9375 23.75,45.0781 Q23.1094,45.2344 22.4063,45.2344 Q19.9063,45.2344 18.5781,43.5938 Q17.2656,41.9375 17.2656,38.8125 Q17.2656,35.6875 18.5781,34.0313 Q19.9063,32.375 22.4063,32.375 Q23.1094,32.375 23.75,32.5313 Q24.4063,32.6875 24.9688,32.9844 L24.9688,35.7031 Q24.3438,35.125 23.75,34.8594 Q23.1563,34.5781 22.5313,34.5781 Q21.1875,34.5781 20.5,35.6563 Q19.8125,36.7188 19.8125,38.8125 Q19.8125,40.9063 20.5,41.9844 Q21.1875,43.0469 22.5313,43.0469 Q23.1563,43.0469 23.75,42.7813 Q24.3438,42.5 24.9688,41.9219 L24.9688,44.6406 Z " fill="#000000"/><text fill="#000000" font-family="sans-serif" font-size="14" lengthAdjust="spacing" textLength="184" x="36" y="43.8467">HumanResourcesManager</text><line style="stroke:#181818;stroke-width:0.5;" x1="8" x2="222" y1="55" y2="55"/><text fill="#000000" font-family="sans-serif" font-size="14" lengthAdjust="spacing" textLength="39" x="13" y="71.9951">name</text><text fill="#000000" font-family="sans-serif" font-size="14" lengthAdjust="spacing" textLength="36" x="13" y="88.292">email</text><text fill="#000000" font-family="sans-serif" font-size="14" lengthAdjust="spacing" textLength="100" x="13" y="104.5889">phoneNumber</text><line style="stroke:#181818;stroke-width:0.5;" x1="8" x2="222" y1="111.8906" y2="111.8906"/></g><!--MD5=[42e1add689e888dd7b55d3ee3f1dd6d7]
class Skill--><g id="elem_Skill"><rect codeLine="7" fill="#F1F1F1" height="64.2969" id="Skill" rx="2.5" ry="2.5" style="stroke:#181818;stroke-width:0.5;" width="58" x="187" y="213"/><ellipse cx="202" cy="229" fill="#ADD1B2" rx="11" ry="11" style="stroke:#181818;stroke-width:1.0;"/><path d="M204.9688,234.6406 Q204.3906,234.9375 203.75,235.0781 Q203.1094,235.2344 202.4063,235.2344 Q199.9063,235.2344 198.5781,233.5938 Q197.2656,231.9375 197.2656,228.8125 Q197.2656,225.6875 198.5781,224.0313 Q199.9063,222.375 202.4063,222.375 Q203.1094,222.375 203.75,222.5313 Q204.4063,222.6875 204.9688,222.9844 L204.9688,225.7031 Q204.3438,225.125 203.75,224.8594 Q203.1563,224.5781 202.5313,224.5781 Q201.1875,224.5781 200.5,225.6563 Q199.8125,226.7188 199.8125,228.8125 Q199.8125,230.9063 200.5,231.9844 Q201.1875,233.0469 202.5313,233.0469 Q203.1563,233.0469 203.75,232.7813 Q204.3438,232.5 204.9688,231.9219 L204.9688,234.6406 Z " fill="#000000"/><text fill="#000000" font-family="sans-serif" font-size="14" lengthAdjust="spacing" textLength="26" x="216" y="233.8467">Skill</text><line style="stroke:#181818;stroke-width:0.5;" x1="188" x2="244" y1="245" y2="245"/><text fill="#000000" font-family="sans-serif" font-size="14" lengthAdjust="spacing" textLength="39" x="193" y="261.9951">name</text><line style="stroke:#181818;stroke-width:0.5;" x1="188" x2="244" y1="269.2969" y2="269.2969"/></g><!--MD5=[86c7c362de55a38b660185a1328fe18d]
class Organization--><g id="elem_Organization"><rect codeLine="11" fill="#F1F1F1" height="129.4844" id="Organization" rx="2.5" ry="2.5" style="stroke:#181818;stroke-width:0.5;" width="119" x="258.5" y="7"/><ellipse cx="273.5" cy="23" fill="#ADD1B2" rx="11" ry="11" style="stroke:#181818;stroke-width:1.0;"/><path d="M276.4688,28.6406 Q275.8906,28.9375 275.25,29.0781 Q274.6094,29.2344 273.9063,29.2344 Q271.4063,29.2344 270.0781,27.5938 Q268.7656,25.9375 268.7656,22.8125 Q268.7656,19.6875 270.0781,18.0313 Q271.4063,16.375 273.9063,16.375 Q274.6094,16.375 275.25,16.5313 Q275.9063,16.6875 276.4688,16.9844 L276.4688,19.7031 Q275.8438,19.125 275.25,18.8594 Q274.6563,18.5781 274.0313,18.5781 Q272.6875,18.5781 272,19.6563 Q271.3125,20.7188 271.3125,22.8125 Q271.3125,24.9063 272,25.9844 Q272.6875,27.0469 274.0313,27.0469 Q274.6563,27.0469 275.25,26.7813 Q275.8438,26.5 276.4688,25.9219 L276.4688,28.6406 Z " fill="#000000"/><text fill="#000000" font-family="sans-serif" font-size="14" lengthAdjust="spacing" textLength="87" x="287.5" y="27.8467">Organization</text><line style="stroke:#181818;stroke-width:0.5;" x1="259.5" x2="376.5" y1="39" y2="39"/><text fill="#000000" font-family="sans-serif" font-size="14" lengthAdjust="spacing" textLength="39" x="264.5" y="55.9951">name</text><text fill="#000000" font-family="sans-serif" font-size="14" lengthAdjust="spacing" textLength="75" x="264.5" y="72.292">vatNumber</text><text fill="#000000" font-family="sans-serif" font-size="14" lengthAdjust="spacing" textLength="54" x="264.5" y="88.5889">website</text><text fill="#000000" font-family="sans-serif" font-size="14" lengthAdjust="spacing" textLength="100" x="264.5" y="104.8857">phoneNumber</text><text fill="#000000" font-family="sans-serif" font-size="14" lengthAdjust="spacing" textLength="36" x="264.5" y="121.1826">email</text><line style="stroke:#181818;stroke-width:0.5;" x1="259.5" x2="376.5" y1="128.4844" y2="128.4844"/></g><!--MD5=[6f28e58bd08eeb2113be648be8ec5f74]
link HumanResourcesManager to Skill--><g id="link_HumanResourcesManager_Skill"><path codeLine="19" d="M143.13,120.27 C160.59,149.91 182.51,187.12 197.72,212.96 " fill="none" id="HumanResourcesManager-Skill" style="stroke:#181818;stroke-width:1.0;"/><polygon fill="#000000" points="185.5374,178.8747,183.4796,169.5895,178.4148,172.5723,185.5374,178.8747" style="stroke:#000000;stroke-width:1.0;"/><text fill="#000000" font-family="sans-serif" font-size="13" lengthAdjust="spacing" textLength="56" x="192" y="179.0669">registers</text><text fill="#000000" font-family="sans-serif" font-size="13" lengthAdjust="spacing" textLength="8" x="138.3725" y="139.9144">1</text><text fill="#000000" font-family="sans-serif" font-size="13" lengthAdjust="spacing" textLength="7" x="186.2279" y="201.8549">*</text></g><!--MD5=[6fb76a030decfddf78af102d90b8e122]
link Organization to Skill--><g id="link_Organization_Skill"><path codeLine="20" d="M284.1,136.15 C275.52,151.64 266.13,168.04 257,183 C250.95,192.91 244.02,203.48 237.6,213 " fill="none" id="Organization-Skill" style="stroke:#181818;stroke-width:1.0;"/><polygon fill="#000000" points="267.4116,178.8443,274.6085,172.627,269.5796,169.5841,267.4116,178.8443" style="stroke:#000000;stroke-width:1.0;"/><text fill="#000000" font-family="sans-serif" font-size="13" lengthAdjust="spacing" textLength="23" x="279" y="179.0669">has</text><text fill="#000000" font-family="sans-serif" font-size="13" lengthAdjust="spacing" textLength="8" x="271.7178" y="156.5389">1</text><text fill="#000000" font-family="sans-serif" font-size="13" lengthAdjust="spacing" textLength="7" x="234.3331" y="201.9031">*</text></g><!--MD5=[2680d07b227df08b48694963c414e0fc]
@startuml
class HumanResourcesManager {
    name
    email
    phoneNumber
}

class Skill {
    name
}

class Organization {
    name
    vatNumber
    website
    phoneNumber
    email
}

HumanResourcesManager "1" - - "*" Skill : registers >
Organization "1" - - "*" Skill : has >
@enduml

PlantUML version 1.2022.7(Mon Aug 22 17:01:30 UTC 2022)
(GPL source distribution)
Java Runtime: OpenJDK Runtime Environment
JVM: OpenJDK 64-Bit Server VM
Default Encoding: UTF-8
Language: en
Country: null
--></g></svg>