<?xml version="1.0" encoding="us-ascii" standalone="no"?><svg xmlns="http://www.w3.org/2000/svg" xmlns:xlink="http://www.w3.org/1999/xlink" contentStyleType="text/css" height="533px" preserveAspectRatio="none" style="width:617px;height:533px;background:#FFFFFF;" version="1.1" viewBox="0 0 617 533" width="617px" zoomAndPan="magnify"><defs/><g><!--class RegisterSkillUI--><g id="elem_RegisterSkillUI"><rect codeLine="1" fill="#F1F1F1" height="103.8633" id="RegisterSkillUI" rx="2.5" ry="2.5" style="stroke:#181818;stroke-width:0.5;" width="180" x="168" y="7"/><ellipse cx="209.1" cy="23" fill="#ADD1B2" rx="11" ry="11" style="stroke:#181818;stroke-width:1.0;"/><path d="M211.8656,18.875 Q212.0219,18.6563 212.2094,18.5469 Q212.3969,18.4375 212.6156,18.4375 Q212.9906,18.4375 213.225,18.7031 Q213.4594,18.9531 213.4594,19.5625 L213.4594,21.0156 Q213.4594,21.625 213.225,21.8906 Q212.9906,22.1563 212.6156,22.1563 Q212.2719,22.1563 212.0688,21.9531 Q211.8656,21.7656 211.7563,21.25 Q211.7094,20.8906 211.5219,20.7031 Q211.1938,20.3281 210.5844,20.1094 Q209.975,19.8906 209.35,19.8906 Q208.5844,19.8906 207.9438,20.2188 Q207.3188,20.5469 206.8188,21.2969 Q206.3344,22.0469 206.3344,23.0781 L206.3344,24.1719 Q206.3344,25.4063 207.225,26.2344 Q208.1156,27.0469 209.7094,27.0469 Q210.6469,27.0469 211.3031,26.7969 Q211.6938,26.6406 212.1156,26.2031 Q212.3813,25.9375 212.5219,25.8594 Q212.6781,25.7813 212.8813,25.7813 Q213.2094,25.7813 213.4594,26.0469 Q213.725,26.2969 213.725,26.6406 Q213.725,26.9844 213.3813,27.3906 Q212.8813,27.9688 212.0844,28.2969 Q211.0063,28.75 209.7094,28.75 Q208.1938,28.75 206.9906,28.125 Q206.0063,27.625 205.3188,26.5625 Q204.6313,25.4844 204.6313,24.2031 L204.6313,23.0469 Q204.6313,21.7188 205.2406,20.5781 Q205.8656,19.4219 206.9594,18.8125 Q208.0531,18.1875 209.2875,18.1875 Q210.0219,18.1875 210.6625,18.3594 Q211.3188,18.5156 211.8656,18.875 Z " fill="#000000"/><text fill="#000000" font-family="sans-serif" font-size="14" lengthAdjust="spacing" textLength="90" x="228.9" y="28.7969">RegisterSkillUI</text><line style="stroke:#181818;stroke-width:0.5;" x1="169" x2="347" y1="39" y2="39"/><line style="stroke:#181818;stroke-width:0.5;" x1="169" x2="347" y1="47" y2="47"/><ellipse cx="179" cy="61.8105" fill="#84BE84" rx="3" ry="3" style="stroke:#038048;stroke-width:1.0;"/><text fill="#000000" font-family="sans-serif" font-size="14" lengthAdjust="spacing" textLength="31" x="188" y="66.1074">run()</text><rect fill="#F24D5C" height="6" style="stroke:#C82930;stroke-width:1.0;" width="6" x="176" y="77.4316"/><text fill="#000000" font-family="sans-serif" font-size="14" lengthAdjust="spacing" textLength="119" x="188" y="84.7285">requestSkillName()</text><rect fill="#F24D5C" height="6" style="stroke:#C82930;stroke-width:1.0;" width="6" x="176" y="96.0527"/><text fill="#000000" font-family="sans-serif" font-size="14" lengthAdjust="spacing" textLength="154" x="188" y="103.3496">requestSkillDescription()</text></g><!--class Skill--><g id="elem_Skill"><rect codeLine="7" fill="#F1F1F1" height="103.8633" id="Skill" rx="2.5" ry="2.5" style="stroke:#181818;stroke-width:0.5;" width="120" x="7" y="395"/><ellipse cx="50.35" cy="411" fill="#ADD1B2" rx="11" ry="11" style="stroke:#181818;stroke-width:1.0;"/><path d="M53.1156,406.875 Q53.2719,406.6563 53.4594,406.5469 Q53.6469,406.4375 53.8656,406.4375 Q54.2406,406.4375 54.475,406.7031 Q54.7094,406.9531 54.7094,407.5625 L54.7094,409.0156 Q54.7094,409.625 54.475,409.8906 Q54.2406,410.1563 53.8656,410.1563 Q53.5219,410.1563 53.3188,409.9531 Q53.1156,409.7656 53.0063,409.25 Q52.9594,408.8906 52.7719,408.7031 Q52.4438,408.3281 51.8344,408.1094 Q51.225,407.8906 50.6,407.8906 Q49.8344,407.8906 49.1938,408.2188 Q48.5688,408.5469 48.0688,409.2969 Q47.5844,410.0469 47.5844,411.0781 L47.5844,412.1719 Q47.5844,413.4063 48.475,414.2344 Q49.3656,415.0469 50.9594,415.0469 Q51.8969,415.0469 52.5531,414.7969 Q52.9438,414.6406 53.3656,414.2031 Q53.6313,413.9375 53.7719,413.8594 Q53.9281,413.7813 54.1313,413.7813 Q54.4594,413.7813 54.7094,414.0469 Q54.975,414.2969 54.975,414.6406 Q54.975,414.9844 54.6313,415.3906 Q54.1313,415.9688 53.3344,416.2969 Q52.2563,416.75 50.9594,416.75 Q49.4438,416.75 48.2406,416.125 Q47.2563,415.625 46.5688,414.5625 Q45.8813,413.4844 45.8813,412.2031 L45.8813,411.0469 Q45.8813,409.7188 46.4906,408.5781 Q47.1156,407.4219 48.2094,406.8125 Q49.3031,406.1875 50.5375,406.1875 Q51.2719,406.1875 51.9125,406.3594 Q52.5688,406.5156 53.1156,406.875 Z " fill="#000000"/><text fill="#000000" font-family="sans-serif" font-size="14" lengthAdjust="spacing" textLength="25" x="70.65" y="416.7969">Skill</text><line style="stroke:#181818;stroke-width:0.5;" x1="8" x2="126" y1="427" y2="427"/><rect fill="none" height="6" style="stroke:#C82930;stroke-width:1.0;" width="6" x="15" y="438.8105"/><text fill="#000000" font-family="sans-serif" font-size="14" lengthAdjust="spacing" textLength="58" x="27" y="446.1074">skillname</text><line style="stroke:#181818;stroke-width:0.5;" x1="8" x2="126" y1="453.6211" y2="453.6211"/><ellipse cx="18" cy="468.4316" fill="#84BE84" rx="3" ry="3" style="stroke:#038048;stroke-width:1.0;"/><text fill="#000000" font-family="sans-serif" font-size="14" lengthAdjust="spacing" textLength="94" x="27" y="472.7285">Skill(skillName)</text><ellipse cx="18" cy="487.0527" fill="#84BE84" rx="3" ry="3" style="stroke:#038048;stroke-width:1.0;"/><text fill="#000000" font-family="sans-serif" font-size="14" lengthAdjust="spacing" textLength="51" x="27" y="491.3496">isValid()</text></g><!--class RegisterSkillController--><g id="elem_RegisterSkillController"><rect codeLine="13" fill="#F1F1F1" height="103.8633" id="RegisterSkillController" rx="2.5" ry="2.5" style="stroke:#181818;stroke-width:0.5;" width="217" x="149.5" y="184"/><ellipse cx="184.75" cy="200" fill="#ADD1B2" rx="11" ry="11" style="stroke:#181818;stroke-width:1.0;"/><path d="M187.5156,195.875 Q187.6719,195.6563 187.8594,195.5469 Q188.0469,195.4375 188.2656,195.4375 Q188.6406,195.4375 188.875,195.7031 Q189.1094,195.9531 189.1094,196.5625 L189.1094,198.0156 Q189.1094,198.625 188.875,198.8906 Q188.6406,199.1563 188.2656,199.1563 Q187.9219,199.1563 187.7188,198.9531 Q187.5156,198.7656 187.4063,198.25 Q187.3594,197.8906 187.1719,197.7031 Q186.8438,197.3281 186.2344,197.1094 Q185.625,196.8906 185,196.8906 Q184.2344,196.8906 183.5938,197.2188 Q182.9688,197.5469 182.4688,198.2969 Q181.9844,199.0469 181.9844,200.0781 L181.9844,201.1719 Q181.9844,202.4063 182.875,203.2344 Q183.7656,204.0469 185.3594,204.0469 Q186.2969,204.0469 186.9531,203.7969 Q187.3438,203.6406 187.7656,203.2031 Q188.0313,202.9375 188.1719,202.8594 Q188.3281,202.7813 188.5313,202.7813 Q188.8594,202.7813 189.1094,203.0469 Q189.375,203.2969 189.375,203.6406 Q189.375,203.9844 189.0313,204.3906 Q188.5313,204.9688 187.7344,205.2969 Q186.6563,205.75 185.3594,205.75 Q183.8438,205.75 182.6406,205.125 Q181.6563,204.625 180.9688,203.5625 Q180.2813,202.4844 180.2813,201.2031 L180.2813,200.0469 Q180.2813,198.7188 180.8906,197.5781 Q181.5156,196.4219 182.6094,195.8125 Q183.7031,195.1875 184.9375,195.1875 Q185.6719,195.1875 186.3125,195.3594 Q186.9688,195.5156 187.5156,195.875 Z " fill="#000000"/><text fill="#000000" font-family="sans-serif" font-size="14" lengthAdjust="spacing" textLength="140" x="203.25" y="205.7969">RegisterSkillController</text><line style="stroke:#181818;stroke-width:0.5;" x1="150.5" x2="365.5" y1="216" y2="216"/><rect fill="none" height="6" style="stroke:#C82930;stroke-width:1.0;" width="6" x="157.5" y="227.8105"/><text fill="#000000" font-family="sans-serif" font-size="14" lengthAdjust="spacing" textLength="91" x="169.5" y="235.1074">skillRepository</text><line style="stroke:#181818;stroke-width:0.5;" x1="150.5" x2="365.5" y1="242.6211" y2="242.6211"/><ellipse cx="160.5" cy="257.4316" fill="#84BE84" rx="3" ry="3" style="stroke:#038048;stroke-width:1.0;"/><text fill="#000000" font-family="sans-serif" font-size="14" lengthAdjust="spacing" textLength="157" x="169.5" y="261.7285">RegisterSkillsController()</text><ellipse cx="160.5" cy="276.0527" fill="#84BE84" rx="3" ry="3" style="stroke:#038048;stroke-width:1.0;"/><text fill="#000000" font-family="sans-serif" font-size="14" lengthAdjust="spacing" textLength="191" x="169.5" y="280.3496">registerSkill(name,description)</text></g><!--class SkillsRepository--><g id="elem_SkillsRepository"><rect codeLine="19" fill="#F1F1F1" height="159.7266" id="SkillsRepository" rx="2.5" ry="2.5" style="stroke:#181818;stroke-width:0.5;" width="192" x="162" y="367"/><ellipse cx="204" cy="383" fill="#ADD1B2" rx="11" ry="11" style="stroke:#181818;stroke-width:1.0;"/><path d="M206.7656,378.875 Q206.9219,378.6563 207.1094,378.5469 Q207.2969,378.4375 207.5156,378.4375 Q207.8906,378.4375 208.125,378.7031 Q208.3594,378.9531 208.3594,379.5625 L208.3594,381.0156 Q208.3594,381.625 208.125,381.8906 Q207.8906,382.1563 207.5156,382.1563 Q207.1719,382.1563 206.9688,381.9531 Q206.7656,381.7656 206.6563,381.25 Q206.6094,380.8906 206.4219,380.7031 Q206.0938,380.3281 205.4844,380.1094 Q204.875,379.8906 204.25,379.8906 Q203.4844,379.8906 202.8438,380.2188 Q202.2188,380.5469 201.7188,381.2969 Q201.2344,382.0469 201.2344,383.0781 L201.2344,384.1719 Q201.2344,385.4063 202.125,386.2344 Q203.0156,387.0469 204.6094,387.0469 Q205.5469,387.0469 206.2031,386.7969 Q206.5938,386.6406 207.0156,386.2031 Q207.2813,385.9375 207.4219,385.8594 Q207.5781,385.7813 207.7813,385.7813 Q208.1094,385.7813 208.3594,386.0469 Q208.625,386.2969 208.625,386.6406 Q208.625,386.9844 208.2813,387.3906 Q207.7813,387.9688 206.9844,388.2969 Q205.9063,388.75 204.6094,388.75 Q203.0938,388.75 201.8906,388.125 Q200.9063,387.625 200.2188,386.5625 Q199.5313,385.4844 199.5313,384.2031 L199.5313,383.0469 Q199.5313,381.7188 200.1406,380.5781 Q200.7656,379.4219 201.8594,378.8125 Q202.9531,378.1875 204.1875,378.1875 Q204.9219,378.1875 205.5625,378.3594 Q206.2188,378.5156 206.7656,378.875 Z " fill="#000000"/><text fill="#000000" font-family="sans-serif" font-size="14" lengthAdjust="spacing" textLength="100" x="224" y="388.7969">SkillsRepository</text><line style="stroke:#181818;stroke-width:0.5;" x1="163" x2="353" y1="399" y2="399"/><rect fill="none" height="6" style="stroke:#C82930;stroke-width:1.0;" width="6" x="170" y="410.8105"/><text fill="#000000" font-family="sans-serif" font-size="14" lengthAdjust="spacing" textLength="30" x="182" y="418.1074">skills</text><line style="stroke:#181818;stroke-width:0.5;" x1="163" x2="353" y1="425.6211" y2="425.6211"/><ellipse cx="173" cy="440.4316" fill="#84BE84" rx="3" ry="3" style="stroke:#038048;stroke-width:1.0;"/><text fill="#000000" font-family="sans-serif" font-size="14" lengthAdjust="spacing" textLength="110" x="182" y="444.7285">SkillsRepository()</text><ellipse cx="173" cy="459.0527" fill="#84BE84" rx="3" ry="3" style="stroke:#038048;stroke-width:1.0;"/><text fill="#000000" font-family="sans-serif" font-size="14" lengthAdjust="spacing" textLength="166" x="182" y="463.3496">getSkillByName(skillName)</text><ellipse cx="173" cy="477.6738" fill="#84BE84" rx="3" ry="3" style="stroke:#038048;stroke-width:1.0;"/><text fill="#000000" font-family="sans-serif" font-size="14" lengthAdjust="spacing" textLength="57" x="182" y="481.9707">add(skill)</text><ellipse cx="173" cy="496.2949" fill="#84BE84" rx="3" ry="3" style="stroke:#038048;stroke-width:1.0;"/><text fill="#000000" font-family="sans-serif" font-size="14" lengthAdjust="spacing" textLength="107" x="182" y="500.5918">validateSkill(skill)</text><ellipse cx="173" cy="514.916" fill="#84BE84" rx="3" ry="3" style="stroke:#038048;stroke-width:1.0;"/><text fill="#000000" font-family="sans-serif" font-size="14" lengthAdjust="spacing" textLength="62" x="182" y="519.2129">getSkills()</text></g><!--class CollaboratorRepository--><g id="elem_CollaboratorRepository"><rect codeLine="28" fill="#F1F1F1" height="122.4844" id="CollaboratorRepository" rx="2.5" ry="2.5" style="stroke:#181818;stroke-width:0.5;" width="221" x="389.5" y="386"/><ellipse cx="423.85" cy="402" fill="#ADD1B2" rx="11" ry="11" style="stroke:#181818;stroke-width:1.0;"/><path d="M426.6156,397.875 Q426.7719,397.6563 426.9594,397.5469 Q427.1469,397.4375 427.3656,397.4375 Q427.7406,397.4375 427.975,397.7031 Q428.2094,397.9531 428.2094,398.5625 L428.2094,400.0156 Q428.2094,400.625 427.975,400.8906 Q427.7406,401.1563 427.3656,401.1563 Q427.0219,401.1563 426.8188,400.9531 Q426.6156,400.7656 426.5063,400.25 Q426.4594,399.8906 426.2719,399.7031 Q425.9438,399.3281 425.3344,399.1094 Q424.725,398.8906 424.1,398.8906 Q423.3344,398.8906 422.6938,399.2188 Q422.0688,399.5469 421.5688,400.2969 Q421.0844,401.0469 421.0844,402.0781 L421.0844,403.1719 Q421.0844,404.4063 421.975,405.2344 Q422.8656,406.0469 424.4594,406.0469 Q425.3969,406.0469 426.0531,405.7969 Q426.4438,405.6406 426.8656,405.2031 Q427.1313,404.9375 427.2719,404.8594 Q427.4281,404.7813 427.6313,404.7813 Q427.9594,404.7813 428.2094,405.0469 Q428.475,405.2969 428.475,405.6406 Q428.475,405.9844 428.1313,406.3906 Q427.6313,406.9688 426.8344,407.2969 Q425.7563,407.75 424.4594,407.75 Q422.9438,407.75 421.7406,407.125 Q420.7563,406.625 420.0688,405.5625 Q419.3813,404.4844 419.3813,403.2031 L419.3813,402.0469 Q419.3813,400.7188 419.9906,399.5781 Q420.6156,398.4219 421.7094,397.8125 Q422.8031,397.1875 424.0375,397.1875 Q424.7719,397.1875 425.4125,397.3594 Q426.0688,397.5156 426.6156,397.875 Z " fill="#000000"/><text fill="#000000" font-family="sans-serif" font-size="14" lengthAdjust="spacing" textLength="146" x="442.15" y="407.7969">CollaboratorRepository</text><line style="stroke:#181818;stroke-width:0.5;" x1="390.5" x2="609.5" y1="418" y2="418"/><line style="stroke:#181818;stroke-width:0.5;" x1="390.5" x2="609.5" y1="426" y2="426"/><ellipse cx="400.5" cy="440.8105" fill="#84BE84" rx="3" ry="3" style="stroke:#038048;stroke-width:1.0;"/><text fill="#000000" font-family="sans-serif" font-size="14" lengthAdjust="spacing" textLength="109" x="409.5" y="445.1074">add(collaborator)</text><ellipse cx="400.5" cy="459.4316" fill="#84BE84" rx="3" ry="3" style="stroke:#038048;stroke-width:1.0;"/><text fill="#000000" font-family="sans-serif" font-size="14" lengthAdjust="spacing" textLength="195" x="409.5" y="463.7285">getCollaboratorByName(name)</text><ellipse cx="400.5" cy="478.0527" fill="#84BE84" rx="3" ry="3" style="stroke:#038048;stroke-width:1.0;"/><text fill="#000000" font-family="sans-serif" font-size="14" lengthAdjust="spacing" textLength="130" x="409.5" y="482.3496">getAllCollaborators()</text><ellipse cx="400.5" cy="496.6738" fill="#84BE84" rx="3" ry="3" style="stroke:#038048;stroke-width:1.0;"/><text fill="#000000" font-family="sans-serif" font-size="14" lengthAdjust="spacing" textLength="115" x="409.5" y="500.9707">save(collaborator)</text></g><!--link RegisterSkillController to CollaboratorRepository--><g id="link_RegisterSkillController_CollaboratorRepository"><path codeLine="35" d="M317.2,288.13 C351.34,317.61 394.46,354.85 430.24,385.75 " fill="none" id="RegisterSkillController-CollaboratorRepository" style="stroke:#181818;stroke-width:1.0;"/><polygon fill="#000000" points="380.7842,330.768,375.8594,322.6318,372.0176,327.0804,380.7842,330.768" style="stroke:#000000;stroke-width:1.0;"/></g><!--link RegisterSkillUI to RegisterSkillController--><g id="link_RegisterSkillUI_RegisterSkillController"><path codeLine="36" d="M258,111.09 C258,133.99 258,160.94 258,183.85 " fill="none" id="RegisterSkillUI-RegisterSkillController" style="stroke:#181818;stroke-width:1.0;"/><polygon fill="#000000" points="263,152.5,265.9389,143.4549,260.0611,143.4549,263,152.5" style="stroke:#000000;stroke-width:1.0;"/></g><!--link RegisterSkillController to SkillsRepository--><g id="link_RegisterSkillController_SkillsRepository"><path codeLine="37" d="M258,288.13 C258,311.81 258,340.5 258,366.89 " fill="none" id="RegisterSkillController-SkillsRepository" style="stroke:#181818;stroke-width:1.0;"/><polygon fill="#000000" points="263,332.6455,265.9389,323.6004,260.0611,323.6004,263,332.6455" style="stroke:#000000;stroke-width:1.0;"/><text fill="#000000" font-family="sans-serif" font-size="13" lengthAdjust="spacing" textLength="28" x="272" y="333.0283">uses</text></g><!--link RegisterSkillController to Skill--><g id="link_RegisterSkillController_Skill"><path codeLine="38" d="M211.28,288.13 C181.68,320.51 143.54,362.25 113.9,394.68 " fill="none" id="RegisterSkillController-Skill" style="stroke:#181818;stroke-width:1.0;"/><polygon fill="#000000" points="181.6269,331.3363,189.8983,326.6423,185.5595,322.6769,181.6269,331.3363" style="stroke:#000000;stroke-width:1.0;"/><text fill="#000000" font-family="sans-serif" font-size="13" lengthAdjust="spacing" textLength="43" x="194" y="333.0283">creates</text></g><!--SRC=[VP9DJiCm48NtESKiWq8ka4KbA1isB8hetZYZoiB4hSUfL5NS7VyazSGbPENOxttpPcof1H7iyA38eNt_Kbf_lCAr0lyrTXpgXxXiBPv691S5R-8R_zf_GP9M7PqomVPJLJB2uzc4R2dy31wGAiIpccPgWZQAzaAhdaCM2RTcSDPeZNR6GaJiy6X8EMClYRDqKRPDwHkmN527N8zzxg9iWdA1PM6QSANgLkU0QKJFbpYyic4GVPysvurp681mo0PKieZFP-lx4f_62bysrxyol6GAXkB6ATt0Wdd5KnXu5j6jAH9dBB0-pzfDjUrAIEXWKvKlCCXNB_tEmCwYyUwsEXW9wH-RTwLtse6qw0SVnBy0]--></g></svg>