<?xml version="1.0" encoding="us-ascii" standalone="no"?><svg xmlns="http://www.w3.org/2000/svg" xmlns:xlink="http://www.w3.org/1999/xlink" contentStyleType="text/css" height="669px" preserveAspectRatio="none" style="width:2048px;height:669px;background:#FFFFFF;" version="1.1" viewBox="0 0 2048 669" width="2048px" zoomAndPan="magnify"><defs/><g><rect fill="#FFFFFF" height="483.3652" style="stroke:#181818;stroke-width:1.0;" width="10" x="17.5" y="93.6211"/><rect fill="#FFFFFF" height="31.291" style="stroke:#181818;stroke-width:1.0;" width="10" x="659.5" y="116.9121"/><rect fill="#FFFFFF" height="388.4922" style="stroke:#181818;stroke-width:1.0;" width="10" x="659.5" y="179.4941"/><rect fill="#FFFFFF" height="325.9102" style="stroke:#181818;stroke-width:1.0;" width="10" x="1257.5" y="210.7852"/><rect fill="#FFFFFF" height="31.291" style="stroke:#181818;stroke-width:1.0;" width="10" x="1444.5" y="242.0762"/><rect fill="#FFFFFF" height="31.291" style="stroke:#181818;stroke-width:1.0;" width="10" x="1716.5" y="304.6582"/><rect fill="#FFFFFF" height="31.291" style="stroke:#181818;stroke-width:1.0;" width="10" x="1839.5" y="367.2402"/><rect fill="#FFFFFF" height="75.582" style="stroke:#181818;stroke-width:1.0;" width="10" x="1931.5" y="429.8223"/><line style="stroke:#181818;stroke-width:0.5;stroke-dasharray:5.0,5.0;" x1="22" x2="22" y1="83.6211" y2="585.9863"/><line style="stroke:#181818;stroke-width:0.5;stroke-dasharray:5.0,5.0;" x1="664" x2="664" y1="83.6211" y2="585.9863"/><line style="stroke:#181818;stroke-width:0.5;stroke-dasharray:5.0,5.0;" x1="1262" x2="1262" y1="83.6211" y2="585.9863"/><line style="stroke:#181818;stroke-width:0.5;stroke-dasharray:5.0,5.0;" x1="1449" x2="1449" y1="83.6211" y2="585.9863"/><line style="stroke:#181818;stroke-width:0.5;stroke-dasharray:5.0,5.0;" x1="1575" x2="1575" y1="83.6211" y2="585.9863"/><line style="stroke:#181818;stroke-width:0.5;stroke-dasharray:5.0,5.0;" x1="1721" x2="1721" y1="83.6211" y2="585.9863"/><line style="stroke:#181818;stroke-width:0.5;stroke-dasharray:5.0,5.0;" x1="1844" x2="1844" y1="83.6211" y2="585.9863"/><line style="stroke:#181818;stroke-width:0.5;stroke-dasharray:5.0,5.0;" x1="1936" x2="1936" y1="83.6211" y2="585.9863"/><text fill="#000000" font-family="sans-serif" font-size="14" lengthAdjust="spacing" textLength="29" x="5" y="80.1074">User</text><ellipse cx="22.5" cy="13.5" fill="#E3E3E3" rx="8" ry="8" style="stroke:#181818;stroke-width:0.5;"/><path d="M22.5,21.5 L22.5,48.5 M9.5,29.5 L35.5,29.5 M22.5,48.5 L9.5,63.5 M22.5,48.5 L35.5,63.5 " fill="none" style="stroke:#181818;stroke-width:0.5;"/><text fill="#000000" font-family="sans-serif" font-size="14" lengthAdjust="spacing" textLength="29" x="5" y="600.0938">User</text><ellipse cx="22.5" cy="612.1074" fill="#E3E3E3" rx="8" ry="8" style="stroke:#181818;stroke-width:0.5;"/><path d="M22.5,620.1074 L22.5,647.1074 M9.5,628.1074 L35.5,628.1074 M22.5,647.1074 L9.5,662.1074 M22.5,647.1074 L35.5,662.1074 " fill="none" style="stroke:#181818;stroke-width:0.5;"/><rect fill="#E3E3E3" height="32.6211" rx="2.5" ry="2.5" style="stroke:#181818;stroke-width:0.5;" width="83" x="623" y="50"/><text fill="#000000" font-family="sans-serif" font-size="14" lengthAdjust="spacing" textLength="69" x="630" y="72.1074">ToDoListUI</text><rect fill="#E3E3E3" height="32.6211" rx="2.5" ry="2.5" style="stroke:#181818;stroke-width:0.5;" width="83" x="623" y="584.9863"/><text fill="#000000" font-family="sans-serif" font-size="14" lengthAdjust="spacing" textLength="69" x="630" y="607.0938">ToDoListUI</text><rect fill="#E3E3E3" height="32.6211" rx="2.5" ry="2.5" style="stroke:#181818;stroke-width:0.5;" width="133" x="1196" y="50"/><text fill="#000000" font-family="sans-serif" font-size="14" lengthAdjust="spacing" textLength="119" x="1203" y="72.1074">ToDoListController</text><rect fill="#E3E3E3" height="32.6211" rx="2.5" ry="2.5" style="stroke:#181818;stroke-width:0.5;" width="133" x="1196" y="584.9863"/><text fill="#000000" font-family="sans-serif" font-size="14" lengthAdjust="spacing" textLength="119" x="1203" y="607.0938">ToDoListController</text><rect fill="#E3E3E3" height="32.6211" rx="2.5" ry="2.5" style="stroke:#181818;stroke-width:0.5;" width="93" x="1403" y="50"/><text fill="#000000" font-family="sans-serif" font-size="14" lengthAdjust="spacing" textLength="79" x="1410" y="72.1074">Repositories</text><rect fill="#E3E3E3" height="32.6211" rx="2.5" ry="2.5" style="stroke:#181818;stroke-width:0.5;" width="93" x="1403" y="584.9863"/><text fill="#000000" font-family="sans-serif" font-size="14" lengthAdjust="spacing" textLength="79" x="1410" y="607.0938">Repositories</text><rect fill="#E3E3E3" height="32.6211" rx="2.5" ry="2.5" style="stroke:#181818;stroke-width:0.5;" width="139" x="1506" y="50"/><text fill="#000000" font-family="sans-serif" font-size="14" lengthAdjust="spacing" textLength="125" x="1513" y="72.1074">ToDoListRepository</text><rect fill="#E3E3E3" height="32.6211" rx="2.5" ry="2.5" style="stroke:#181818;stroke-width:0.5;" width="139" x="1506" y="584.9863"/><text fill="#000000" font-family="sans-serif" font-size="14" lengthAdjust="spacing" textLength="125" x="1513" y="607.0938">ToDoListRepository</text><rect fill="#E3E3E3" height="32.6211" rx="2.5" ry="2.5" style="stroke:#181818;stroke-width:0.5;" width="133" x="1655" y="50"/><text fill="#000000" font-family="sans-serif" font-size="14" lengthAdjust="spacing" textLength="119" x="1662" y="72.1074">ApplicationSession</text><rect fill="#E3E3E3" height="32.6211" rx="2.5" ry="2.5" style="stroke:#181818;stroke-width:0.5;" width="133" x="1655" y="584.9863"/><text fill="#000000" font-family="sans-serif" font-size="14" lengthAdjust="spacing" textLength="119" x="1662" y="607.0938">ApplicationSession</text><rect fill="#E3E3E3" height="32.6211" rx="2.5" ry="2.5" style="stroke:#181818;stroke-width:0.5;" width="93" x="1798" y="50"/><text fill="#000000" font-family="sans-serif" font-size="14" lengthAdjust="spacing" textLength="79" x="1805" y="72.1074">UserSession</text><rect fill="#E3E3E3" height="32.6211" rx="2.5" ry="2.5" style="stroke:#181818;stroke-width:0.5;" width="93" x="1798" y="584.9863"/><text fill="#000000" font-family="sans-serif" font-size="14" lengthAdjust="spacing" textLength="79" x="1805" y="607.0938">UserSession</text><rect fill="#E3E3E3" height="32.6211" rx="2.5" ry="2.5" style="stroke:#181818;stroke-width:0.5;" width="71" x="1901" y="50"/><text fill="#000000" font-family="sans-serif" font-size="14" lengthAdjust="spacing" textLength="57" x="1908" y="72.1074">ToDoList</text><rect fill="#E3E3E3" height="32.6211" rx="2.5" ry="2.5" style="stroke:#181818;stroke-width:0.5;" width="71" x="1901" y="584.9863"/><text fill="#000000" font-family="sans-serif" font-size="14" lengthAdjust="spacing" textLength="57" x="1908" y="607.0938">ToDoList</text><rect fill="#FFFFFF" height="483.3652" style="stroke:#181818;stroke-width:1.0;" width="10" x="17.5" y="93.6211"/><rect fill="#FFFFFF" height="31.291" style="stroke:#181818;stroke-width:1.0;" width="10" x="659.5" y="116.9121"/><rect fill="#FFFFFF" height="388.4922" style="stroke:#181818;stroke-width:1.0;" width="10" x="659.5" y="179.4941"/><rect fill="#FFFFFF" height="325.9102" style="stroke:#181818;stroke-width:1.0;" width="10" x="1257.5" y="210.7852"/><rect fill="#FFFFFF" height="31.291" style="stroke:#181818;stroke-width:1.0;" width="10" x="1444.5" y="242.0762"/><rect fill="#FFFFFF" height="31.291" style="stroke:#181818;stroke-width:1.0;" width="10" x="1716.5" y="304.6582"/><rect fill="#FFFFFF" height="31.291" style="stroke:#181818;stroke-width:1.0;" width="10" x="1839.5" y="367.2402"/><rect fill="#FFFFFF" height="75.582" style="stroke:#181818;stroke-width:1.0;" width="10" x="1931.5" y="429.8223"/><polygon fill="#181818" points="647.5,112.9121,657.5,116.9121,647.5,120.9121,651.5,116.9121" style="stroke:#181818;stroke-width:1.0;"/><line style="stroke:#181818;stroke-width:1.0;" x1="27.5" x2="653.5" y1="116.9121" y2="116.9121"/><text fill="#000000" font-family="sans-serif" font-size="13" font-weight="bold" lengthAdjust="spacing" textLength="7" x="34.5" y="111.6494">1</text><text fill="#000000" font-family="sans-serif" font-size="13" lengthAdjust="spacing" textLength="230" x="45.5" y="111.6494">requests to create a new to-do list entry</text><polygon fill="#181818" points="38.5,144.2031,28.5,148.2031,38.5,152.2031,34.5,148.2031" style="stroke:#181818;stroke-width:1.0;"/><line style="stroke:#181818;stroke-width:1.0;stroke-dasharray:2.0,2.0;" x1="32.5" x2="663.5" y1="148.2031" y2="148.2031"/><text fill="#000000" font-family="sans-serif" font-size="13" font-weight="bold" lengthAdjust="spacing" textLength="7" x="44.5" y="142.9404">2</text><text fill="#000000" font-family="sans-serif" font-size="13" lengthAdjust="spacing" textLength="567" x="55.5" y="142.9404">prompts for necessary details (e.g., task description, urgency, expected duration, location, status)</text><polygon fill="#181818" points="647.5,175.4941,657.5,179.4941,647.5,183.4941,651.5,179.4941" style="stroke:#181818;stroke-width:1.0;"/><line style="stroke:#181818;stroke-width:1.0;" x1="27.5" x2="653.5" y1="179.4941" y2="179.4941"/><text fill="#000000" font-family="sans-serif" font-size="13" font-weight="bold" lengthAdjust="spacing" textLength="7" x="34.5" y="174.2314">3</text><text fill="#000000" font-family="sans-serif" font-size="13" lengthAdjust="spacing" textLength="602" x="45.5" y="174.2314">provides to-do list information (task description, urgency, expected duration, location, status, user email)</text><polygon fill="#181818" points="1245.5,206.7852,1255.5,210.7852,1245.5,214.7852,1249.5,210.7852" style="stroke:#181818;stroke-width:1.0;"/><line style="stroke:#181818;stroke-width:1.0;" x1="669.5" x2="1251.5" y1="210.7852" y2="210.7852"/><text fill="#000000" font-family="sans-serif" font-size="13" font-weight="bold" lengthAdjust="spacing" textLength="7" x="676.5" y="205.5225">4</text><text fill="#000000" font-family="sans-serif" font-size="13" lengthAdjust="spacing" textLength="558" x="687.5" y="205.5225">addNewToDoListEntry(task description, urgency, expected duration, location, status, user email)</text><polygon fill="#181818" points="1432.5,238.0762,1442.5,242.0762,1432.5,246.0762,1436.5,242.0762" style="stroke:#181818;stroke-width:1.0;"/><line style="stroke:#181818;stroke-width:1.0;" x1="1267.5" x2="1438.5" y1="242.0762" y2="242.0762"/><text fill="#000000" font-family="sans-serif" font-size="13" font-weight="bold" lengthAdjust="spacing" textLength="7" x="1274.5" y="236.8135">5</text><text fill="#000000" font-family="sans-serif" font-size="13" lengthAdjust="spacing" textLength="147" x="1285.5" y="236.8135">getRepositoriesInstance()</text><polygon fill="#181818" points="1278.5,269.3672,1268.5,273.3672,1278.5,277.3672,1274.5,273.3672" style="stroke:#181818;stroke-width:1.0;"/><line style="stroke:#181818;stroke-width:1.0;stroke-dasharray:2.0,2.0;" x1="1272.5" x2="1448.5" y1="273.3672" y2="273.3672"/><text fill="#000000" font-family="sans-serif" font-size="13" font-weight="bold" lengthAdjust="spacing" textLength="7" x="1284.5" y="268.1045">6</text><text fill="#000000" font-family="sans-serif" font-size="13" lengthAdjust="spacing" textLength="110" x="1295.5" y="268.1045">toDoListRepository</text><polygon fill="#181818" points="1704.5,300.6582,1714.5,304.6582,1704.5,308.6582,1708.5,304.6582" style="stroke:#181818;stroke-width:1.0;"/><line style="stroke:#181818;stroke-width:1.0;" x1="1267.5" x2="1710.5" y1="304.6582" y2="304.6582"/><text fill="#000000" font-family="sans-serif" font-size="13" font-weight="bold" lengthAdjust="spacing" textLength="7" x="1274.5" y="299.3955">7</text><text fill="#000000" font-family="sans-serif" font-size="13" lengthAdjust="spacing" textLength="98" x="1285.5" y="299.3955">getAppInstance()</text><polygon fill="#181818" points="1278.5,331.9492,1268.5,335.9492,1278.5,339.9492,1274.5,335.9492" style="stroke:#181818;stroke-width:1.0;"/><line style="stroke:#181818;stroke-width:1.0;" x1="1272.5" x2="1720.5" y1="335.9492" y2="335.9492"/><text fill="#000000" font-family="sans-serif" font-size="13" font-weight="bold" lengthAdjust="spacing" textLength="7" x="1284.5" y="330.6865">8</text><text fill="#000000" font-family="sans-serif" font-size="13" lengthAdjust="spacing" textLength="115" x="1295.5" y="330.6865">getCurrentSession()</text><polygon fill="#181818" points="1827.5,363.2402,1837.5,367.2402,1827.5,371.2402,1831.5,367.2402" style="stroke:#181818;stroke-width:1.0;"/><line style="stroke:#181818;stroke-width:1.0;" x1="1267.5" x2="1833.5" y1="367.2402" y2="367.2402"/><text fill="#000000" font-family="sans-serif" font-size="13" font-weight="bold" lengthAdjust="spacing" textLength="7" x="1274.5" y="361.9775">9</text><text fill="#000000" font-family="sans-serif" font-size="13" lengthAdjust="spacing" textLength="128" x="1285.5" y="361.9775">getCurrentUserEmail()</text><polygon fill="#181818" points="1278.5,394.5313,1268.5,398.5313,1278.5,402.5313,1274.5,398.5313" style="stroke:#181818;stroke-width:1.0;"/><line style="stroke:#181818;stroke-width:1.0;stroke-dasharray:2.0,2.0;" x1="1272.5" x2="1843.5" y1="398.5313" y2="398.5313"/><text fill="#000000" font-family="sans-serif" font-size="13" font-weight="bold" lengthAdjust="spacing" textLength="14" x="1284.5" y="393.2686">10</text><text fill="#000000" font-family="sans-serif" font-size="13" lengthAdjust="spacing" textLength="60" x="1302.5" y="393.2686">user email</text><polygon fill="#181818" points="1919.5,425.8223,1929.5,429.8223,1919.5,433.8223,1923.5,429.8223" style="stroke:#181818;stroke-width:1.0;"/><line style="stroke:#181818;stroke-width:1.0;" x1="1267.5" x2="1925.5" y1="429.8223" y2="429.8223"/><text fill="#000000" font-family="sans-serif" font-size="13" font-weight="bold" lengthAdjust="spacing" textLength="14" x="1274.5" y="424.5596">11</text><text fill="#000000" font-family="sans-serif" font-size="13" lengthAdjust="spacing" textLength="542" x="1292.5" y="424.5596">createNewToDoList(task description, urgency, expected duration, location, status, user email)</text><line style="stroke:#181818;stroke-width:1.0;" x1="1941.5" x2="1983.5" y1="461.1133" y2="461.1133"/><line style="stroke:#181818;stroke-width:1.0;" x1="1983.5" x2="1983.5" y1="461.1133" y2="474.1133"/><line style="stroke:#181818;stroke-width:1.0;" x1="1942.5" x2="1983.5" y1="474.1133" y2="474.1133"/><polygon fill="#181818" points="1952.5,470.1133,1942.5,474.1133,1952.5,478.1133,1948.5,474.1133" style="stroke:#181818;stroke-width:1.0;"/><text fill="#000000" font-family="sans-serif" font-size="13" font-weight="bold" lengthAdjust="spacing" textLength="14" x="1948.5" y="455.8506">12</text><text fill="#000000" font-family="sans-serif" font-size="13" lengthAdjust="spacing" textLength="75" x="1966.5" y="455.8506">validate input</text><polygon fill="#181818" points="1586.5,501.4043,1576.5,505.4043,1586.5,509.4043,1582.5,505.4043" style="stroke:#181818;stroke-width:1.0;"/><line style="stroke:#181818;stroke-width:1.0;" x1="1580.5" x2="1935.5" y1="505.4043" y2="505.4043"/><text fill="#000000" font-family="sans-serif" font-size="13" font-weight="bold" lengthAdjust="spacing" textLength="14" x="1592.5" y="500.1416">13</text><text fill="#000000" font-family="sans-serif" font-size="13" lengthAdjust="spacing" textLength="147" x="1610.5" y="500.1416">addNewEntry(TODOLIST)</text><polygon fill="#181818" points="680.5,532.6953,670.5,536.6953,680.5,540.6953,676.5,536.6953" style="stroke:#181818;stroke-width:1.0;"/><line style="stroke:#181818;stroke-width:1.0;stroke-dasharray:2.0,2.0;" x1="674.5" x2="1261.5" y1="536.6953" y2="536.6953"/><text fill="#000000" font-family="sans-serif" font-size="13" font-weight="bold" lengthAdjust="spacing" textLength="14" x="686.5" y="531.4326">14</text><text fill="#000000" font-family="sans-serif" font-size="13" lengthAdjust="spacing" textLength="280" x="704.5" y="531.4326">notifies successful creation of the to-do list entry</text><polygon fill="#181818" points="38.5,563.9863,28.5,567.9863,38.5,571.9863,34.5,567.9863" style="stroke:#181818;stroke-width:1.0;"/><line style="stroke:#181818;stroke-width:1.0;stroke-dasharray:2.0,2.0;" x1="32.5" x2="663.5" y1="567.9863" y2="567.9863"/><text fill="#000000" font-family="sans-serif" font-size="13" font-weight="bold" lengthAdjust="spacing" textLength="14" x="44.5" y="562.7236">15</text><text fill="#000000" font-family="sans-serif" font-size="13" lengthAdjust="spacing" textLength="288" x="62.5" y="562.7236">confirms successful creation of the to-do list entry</text><!--SRC=[hLHBZk8m4Dtd52LM844VW4LBBPf59DIq21p0urI2XMDdR0ScjvzoGjAsafd5J7l1frpr_EhLnzw4gfbX5LHQQNurka9mfi74ZZSrupTMOkPQYM2GEwPA6JhOAylrGwWI2YOj9gnnMZNL3pG9uquRM5micWKm2vTiVqeeoWakQgOSBCxwNH-4TPUqTqZdhtTQEQEbVEBipgT3x7Z2Mbj1hmcqdKjecCSSFTekO6gEmzxgMWhEdD0gGslfgmjx-_oC_NooeKEspxBq-37FeN_v-7uyfDavyNg9EtFO2vNuJzYyaYgm9Ub_DcYT1QU16_HU31G-wFycro093P1KQWEKD04w5BxnA1vj2pKLkIQOWYgZa1DJPbh8qJ4XBIpnfNnPWsFsHZRBZQXzncjeJ8cAjsl0NpKr0UQGDuRrTrBpvo_hc6liAian914dGWJkWh13ua8HdQe3WUN_FKxUL070Yl9PHLgCOhns3KHKM9v_u6Cenjwhzwsl-mT71btJTYP_EWR49EnJObIY2osf8bZ5SRaQ0qUygCF7QtyYpCrNkcxQuaD8KB1vt84lzNl7aiRXR-JyM4ISo308tyNl6cEeNP-J4a04J2AGWS1pda8GFt9xh_WSas7-8ZPFuoZEDYZR79C9oC1cc5rIjn_Ae9- -lPMYlBwsHfZOo2VcTcTIv3wAbdRZ_XmnQP1nIFhX69ndopLbrAiq3BxIJXI-9Mt3_Tuf6jcBvgTU5-2kE5rc0Nu_GF4sureLmbJ_Z4bhuJS0]--></g></svg>