<?xml version="1.0" encoding="us-ascii" standalone="no"?><svg xmlns="http://www.w3.org/2000/svg" xmlns:xlink="http://www.w3.org/1999/xlink" contentStyleType="text/css" height="1329px" preserveAspectRatio="none" style="width:1854px;height:1329px;background:#FFFFFF;" version="1.1" viewBox="0 0 1854 1329" width="1854px" zoomAndPan="magnify"><defs/><g><rect fill="#FFFFFF" height="1134.6035" style="stroke:#181818;stroke-width:1.0;" width="10" x="78.5" y="93.6211"/><rect fill="#FFFFFF" height="373.4922" style="stroke:#181818;stroke-width:1.0;" width="10" x="458.5" y="116.9121"/><rect fill="#FFFFFF" height="48.582" style="stroke:#181818;stroke-width:1.0;" width="10" x="458.5" y="521.6953"/><rect fill="#FFFFFF" height="31.291" style="stroke:#181818;stroke-width:1.0;" width="10" x="458.5" y="601.5684"/><rect fill="#FFFFFF" height="564.0742" style="stroke:#181818;stroke-width:1.0;" width="10" x="458.5" y="664.1504"/><rect fill="#FFFFFF" height="300.9102" style="stroke:#181818;stroke-width:1.0;" width="10" x="890.5" y="158.2031"/><rect fill="#FFFFFF" height="541.7832" style="stroke:#181818;stroke-width:1.0;" width="10" x="890.5" y="695.4414"/><rect fill="#FFFFFF" height="90.543" style="stroke:#181818;stroke-width:1.0;" width="10" x="895.5" y="759.7324"/><rect fill="#FFFFFF" height="31.291" style="stroke:#181818;stroke-width:1.0;" width="10" x="1065.5" y="191.8242"/><rect fill="#FFFFFF" height="31.291" style="stroke:#181818;stroke-width:1.0;" width="10" x="1172.5" y="254.4063"/><rect fill="#FFFFFF" height="31.291" style="stroke:#181818;stroke-width:1.0;" width="10" x="1172.5" y="316.9883"/><rect fill="#FFFFFF" height="31.291" style="stroke:#181818;stroke-width:1.0;" width="10" x="1478.5" y="913.5664"/><rect fill="#FFFFFF" height="261.0762" style="stroke:#181818;stroke-width:1.0;" width="10" x="1595.5" y="976.1484"/><rect fill="#FFFFFF" height="42.291" style="stroke:#181818;stroke-width:1.0;" width="10" x="1600.5" y="1059.0605"/><rect fill="#FFFFFF" height="42.291" style="stroke:#181818;stroke-width:1.0;" width="10" x="1600.5" y="1147.6426"/><line style="stroke:#181818;stroke-width:0.5;stroke-dasharray:5.0,5.0;" x1="83" x2="83" y1="83.6211" y2="1246.2246"/><line style="stroke:#181818;stroke-width:0.5;stroke-dasharray:5.0,5.0;" x1="463" x2="463" y1="83.6211" y2="1246.2246"/><line style="stroke:#181818;stroke-width:0.5;stroke-dasharray:5.0,5.0;" x1="895" x2="895" y1="156.7227" y2="1246.2246"/><line style="stroke:#181818;stroke-width:0.5;stroke-dasharray:5.0,5.0;" x1="1070" x2="1070" y1="83.6211" y2="1246.2246"/><line style="stroke:#181818;stroke-width:0.5;stroke-dasharray:5.0,5.0;" x1="1177" x2="1177" y1="83.6211" y2="1246.2246"/><line style="stroke:#181818;stroke-width:0.5;stroke-dasharray:5.0,5.0;" x1="1319" x2="1319" y1="83.6211" y2="1246.2246"/><line style="stroke:#181818;stroke-width:0.5;stroke-dasharray:5.0,5.0;" x1="1483" x2="1483" y1="83.6211" y2="1246.2246"/><line style="stroke:#181818;stroke-width:0.5;stroke-dasharray:5.0,5.0;" x1="1600" x2="1600" y1="83.6211" y2="1246.2246"/><line style="stroke:#181818;stroke-width:0.5;stroke-dasharray:5.0,5.0;" x1="1811.5" x2="1811.5" y1="1015.959" y2="1246.2246"/><text fill="#000000" font-family="sans-serif" font-size="14" lengthAdjust="spacing" textLength="151" x="5" y="80.1074">Green Spaces Manager</text><ellipse cx="83.5" cy="13.5" fill="#E3E3E3" rx="8" ry="8" style="stroke:#181818;stroke-width:0.5;"/><path d="M83.5,21.5 L83.5,48.5 M70.5,29.5 L96.5,29.5 M83.5,48.5 L70.5,63.5 M83.5,48.5 L96.5,63.5 " fill="none" style="stroke:#181818;stroke-width:0.5;"/><text fill="#000000" font-family="sans-serif" font-size="14" lengthAdjust="spacing" textLength="151" x="5" y="1260.332">Green Spaces Manager</text><ellipse cx="83.5" cy="1272.3457" fill="#E3E3E3" rx="8" ry="8" style="stroke:#181818;stroke-width:0.5;"/><path d="M83.5,1280.3457 L83.5,1307.3457 M70.5,1288.3457 L96.5,1288.3457 M83.5,1307.3457 L70.5,1322.3457 M83.5,1307.3457 L96.5,1322.3457 " fill="none" style="stroke:#181818;stroke-width:0.5;"/><rect fill="#E3E3E3" height="32.6211" rx="2.5" ry="2.5" style="stroke:#181818;stroke-width:0.5;" width="145" x="391" y="50"/><text fill="#000000" font-family="sans-serif" font-size="14" lengthAdjust="spacing" textLength="131" x="398" y="72.1074">:AddEntryToDoListUI</text><rect fill="#E3E3E3" height="32.6211" rx="2.5" ry="2.5" style="stroke:#181818;stroke-width:0.5;" width="145" x="391" y="1245.2246"/><text fill="#000000" font-family="sans-serif" font-size="14" lengthAdjust="spacing" textLength="131" x="398" y="1267.332">:AddEntryToDoListUI</text><rect fill="#E3E3E3" height="32.6211" rx="2.5" ry="2.5" style="stroke:#181818;stroke-width:0.5;" width="195" x="798" y="1245.2246"/><text fill="#000000" font-family="sans-serif" font-size="14" lengthAdjust="spacing" textLength="181" x="805" y="1267.332">:AddEntryToDoListController</text><rect fill="#E3E3E3" height="32.6211" rx="2.5" ry="2.5" style="stroke:#181818;stroke-width:0.5;" width="97" x="1022" y="50"/><text fill="#000000" font-family="sans-serif" font-size="14" lengthAdjust="spacing" textLength="83" x="1029" y="72.1074">:Repositories</text><rect fill="#E3E3E3" height="32.6211" rx="2.5" ry="2.5" style="stroke:#181818;stroke-width:0.5;" width="97" x="1022" y="1245.2246"/><text fill="#000000" font-family="sans-serif" font-size="14" lengthAdjust="spacing" textLength="83" x="1029" y="1267.332">:Repositories</text><rect fill="#E3E3E3" height="51.2422" rx="2.5" ry="2.5" style="stroke:#181818;stroke-width:0.5;" width="97" x="1129" y="31.3789"/><text fill="#000000" font-family="sans-serif" font-size="14" lengthAdjust="spacing" textLength="74" x="1140.5" y="53.4863">repositories</text><text fill="#000000" font-family="sans-serif" font-size="14" lengthAdjust="spacing" textLength="83" x="1136" y="72.1074">:Repositories</text><rect fill="#E3E3E3" height="51.2422" rx="2.5" ry="2.5" style="stroke:#181818;stroke-width:0.5;" width="97" x="1129" y="1245.2246"/><text fill="#000000" font-family="sans-serif" font-size="14" lengthAdjust="spacing" textLength="74" x="1140.5" y="1267.332">repositories</text><text fill="#000000" font-family="sans-serif" font-size="14" lengthAdjust="spacing" textLength="83" x="1136" y="1285.9531">:Repositories</text><rect fill="#E3E3E3" height="51.2422" rx="2.5" ry="2.5" style="stroke:#181818;stroke-width:0.5;" width="166" x="1236" y="31.3789"/><text fill="#000000" font-family="sans-serif" font-size="14" lengthAdjust="spacing" textLength="145" x="1246.5" y="53.4863">greenSpaceRepository</text><text fill="#000000" font-family="sans-serif" font-size="14" lengthAdjust="spacing" textLength="152" x="1243" y="72.1074">:GreenSpaceRepository</text><rect fill="#E3E3E3" height="51.2422" rx="2.5" ry="2.5" style="stroke:#181818;stroke-width:0.5;" width="166" x="1236" y="1245.2246"/><text fill="#000000" font-family="sans-serif" font-size="14" lengthAdjust="spacing" textLength="145" x="1246.5" y="1267.332">greenSpaceRepository</text><text fill="#000000" font-family="sans-serif" font-size="14" lengthAdjust="spacing" textLength="152" x="1243" y="1285.9531">:GreenSpaceRepository</text><rect fill="#E3E3E3" height="51.2422" rx="2.5" ry="2.5" style="stroke:#181818;stroke-width:0.5;" width="143" x="1412" y="31.3789"/><text fill="#000000" font-family="sans-serif" font-size="14" lengthAdjust="spacing" textLength="120" x="1423.5" y="53.4863">toDoListRepository</text><text fill="#000000" font-family="sans-serif" font-size="14" lengthAdjust="spacing" textLength="129" x="1419" y="72.1074">:ToDoListRepository</text><rect fill="#E3E3E3" height="51.2422" rx="2.5" ry="2.5" style="stroke:#181818;stroke-width:0.5;" width="143" x="1412" y="1245.2246"/><text fill="#000000" font-family="sans-serif" font-size="14" lengthAdjust="spacing" textLength="120" x="1423.5" y="1267.332">toDoListRepository</text><text fill="#000000" font-family="sans-serif" font-size="14" lengthAdjust="spacing" textLength="129" x="1419" y="1285.9531">:ToDoListRepository</text><rect fill="#E3E3E3" height="32.6211" rx="2.5" ry="2.5" style="stroke:#181818;stroke-width:0.5;" width="71" x="1565" y="50"/><text fill="#000000" font-family="sans-serif" font-size="14" lengthAdjust="spacing" textLength="57" x="1572" y="72.1074">ToDoList</text><rect fill="#E3E3E3" height="32.6211" rx="2.5" ry="2.5" style="stroke:#181818;stroke-width:0.5;" width="71" x="1565" y="1245.2246"/><text fill="#000000" font-family="sans-serif" font-size="14" lengthAdjust="spacing" textLength="57" x="1572" y="1267.332">ToDoList</text><rect fill="#E3E3E3" height="32.6211" rx="2.5" ry="2.5" style="stroke:#181818;stroke-width:0.5;" width="74" x="1774.5" y="1245.2246"/><text fill="#000000" font-family="sans-serif" font-size="14" lengthAdjust="spacing" textLength="60" x="1781.5" y="1267.332">TDLEntry</text><rect fill="#FFFFFF" height="1134.6035" style="stroke:#181818;stroke-width:1.0;" width="10" x="78.5" y="93.6211"/><rect fill="#FFFFFF" height="373.4922" style="stroke:#181818;stroke-width:1.0;" width="10" x="458.5" y="116.9121"/><rect fill="#FFFFFF" height="48.582" style="stroke:#181818;stroke-width:1.0;" width="10" x="458.5" y="521.6953"/><rect fill="#FFFFFF" height="31.291" style="stroke:#181818;stroke-width:1.0;" width="10" x="458.5" y="601.5684"/><rect fill="#FFFFFF" height="564.0742" style="stroke:#181818;stroke-width:1.0;" width="10" x="458.5" y="664.1504"/><rect fill="#FFFFFF" height="300.9102" style="stroke:#181818;stroke-width:1.0;" width="10" x="890.5" y="158.2031"/><rect fill="#FFFFFF" height="541.7832" style="stroke:#181818;stroke-width:1.0;" width="10" x="890.5" y="695.4414"/><rect fill="#FFFFFF" height="90.543" style="stroke:#181818;stroke-width:1.0;" width="10" x="895.5" y="759.7324"/><rect fill="#FFFFFF" height="31.291" style="stroke:#181818;stroke-width:1.0;" width="10" x="1065.5" y="191.8242"/><rect fill="#FFFFFF" height="31.291" style="stroke:#181818;stroke-width:1.0;" width="10" x="1172.5" y="254.4063"/><rect fill="#FFFFFF" height="31.291" style="stroke:#181818;stroke-width:1.0;" width="10" x="1172.5" y="316.9883"/><rect fill="#FFFFFF" height="31.291" style="stroke:#181818;stroke-width:1.0;" width="10" x="1478.5" y="913.5664"/><rect fill="#FFFFFF" height="261.0762" style="stroke:#181818;stroke-width:1.0;" width="10" x="1595.5" y="976.1484"/><rect fill="#FFFFFF" height="42.291" style="stroke:#181818;stroke-width:1.0;" width="10" x="1600.5" y="1059.0605"/><rect fill="#FFFFFF" height="42.291" style="stroke:#181818;stroke-width:1.0;" width="10" x="1600.5" y="1147.6426"/><polygon fill="#181818" points="446.5,112.9121,456.5,116.9121,446.5,120.9121,450.5,116.9121" style="stroke:#181818;stroke-width:1.0;"/><line style="stroke:#181818;stroke-width:1.0;" x1="88.5" x2="452.5" y1="116.9121" y2="116.9121"/><text fill="#000000" font-family="sans-serif" font-size="13" font-weight="bold" lengthAdjust="spacing" textLength="7" x="95.5" y="111.6494">1</text><text fill="#000000" font-family="sans-serif" font-size="13" lengthAdjust="spacing" textLength="263" x="106.5" y="111.6494">requests adding a new entry to the To-Do List</text><polygon fill="#181818" points="786,144.2031,796,148.2031,786,152.2031,790,148.2031" style="stroke:#181818;stroke-width:1.0;"/><line style="stroke:#181818;stroke-width:1.0;" x1="468.5" x2="792" y1="148.2031" y2="148.2031"/><text fill="#000000" font-family="sans-serif" font-size="13" font-weight="bold" lengthAdjust="spacing" textLength="7" x="475.5" y="142.9404">2</text><text fill="#000000" font-family="sans-serif" font-size="13" lengthAdjust="spacing" textLength="36" x="486.5" y="142.9404">create</text><rect fill="#E3E3E3" height="32.6211" rx="2.5" ry="2.5" style="stroke:#181818;stroke-width:0.5;" width="195" x="798" y="124.9121"/><text fill="#000000" font-family="sans-serif" font-size="14" lengthAdjust="spacing" textLength="181" x="805" y="147.0195">:AddEntryToDoListController</text><polygon fill="#181818" points="1053.5,187.8242,1063.5,191.8242,1053.5,195.8242,1057.5,191.8242" style="stroke:#181818;stroke-width:1.0;"/><line style="stroke:#181818;stroke-width:1.0;" x1="900.5" x2="1059.5" y1="191.8242" y2="191.8242"/><text fill="#000000" font-family="sans-serif" font-size="13" font-weight="bold" lengthAdjust="spacing" textLength="7" x="907.5" y="186.5615">3</text><text fill="#000000" font-family="sans-serif" font-size="13" lengthAdjust="spacing" textLength="75" x="918.5" y="186.5615">getInstance()</text><polygon fill="#181818" points="911.5,219.1152,901.5,223.1152,911.5,227.1152,907.5,223.1152" style="stroke:#181818;stroke-width:1.0;"/><line style="stroke:#181818;stroke-width:1.0;stroke-dasharray:2.0,2.0;" x1="905.5" x2="1069.5" y1="223.1152" y2="223.1152"/><text fill="#000000" font-family="sans-serif" font-size="13" font-weight="bold" lengthAdjust="spacing" textLength="7" x="917.5" y="217.8525">4</text><text fill="#000000" font-family="sans-serif" font-size="13" lengthAdjust="spacing" textLength="67" x="928.5" y="217.8525">repositories</text><polygon fill="#181818" points="1160.5,250.4063,1170.5,254.4063,1160.5,258.4063,1164.5,254.4063" style="stroke:#181818;stroke-width:1.0;"/><line style="stroke:#181818;stroke-width:1.0;" x1="900.5" x2="1166.5" y1="254.4063" y2="254.4063"/><text fill="#000000" font-family="sans-serif" font-size="13" font-weight="bold" lengthAdjust="spacing" textLength="7" x="907.5" y="249.1436">5</text><text fill="#000000" font-family="sans-serif" font-size="13" lengthAdjust="spacing" textLength="160" x="918.5" y="249.1436">getGreenSpaceRepository()</text><polygon fill="#181818" points="911.5,281.6973,901.5,285.6973,911.5,289.6973,907.5,285.6973" style="stroke:#181818;stroke-width:1.0;"/><line style="stroke:#181818;stroke-width:1.0;" x1="905.5" x2="1176.5" y1="285.6973" y2="285.6973"/><text fill="#000000" font-family="sans-serif" font-size="13" font-weight="bold" lengthAdjust="spacing" textLength="7" x="917.5" y="280.4346">6</text><text fill="#000000" font-family="sans-serif" font-size="13" lengthAdjust="spacing" textLength="134" x="928.5" y="280.4346">GreenSpaceRepository</text><polygon fill="#181818" points="1160.5,312.9883,1170.5,316.9883,1160.5,320.9883,1164.5,316.9883" style="stroke:#181818;stroke-width:1.0;"/><line style="stroke:#181818;stroke-width:1.0;" x1="900.5" x2="1166.5" y1="316.9883" y2="316.9883"/><text fill="#000000" font-family="sans-serif" font-size="13" font-weight="bold" lengthAdjust="spacing" textLength="7" x="907.5" y="311.7256">7</text><text fill="#000000" font-family="sans-serif" font-size="13" lengthAdjust="spacing" textLength="139" x="918.5" y="311.7256">getToDoListRepository()</text><polygon fill="#181818" points="911.5,344.2793,901.5,348.2793,911.5,352.2793,907.5,348.2793" style="stroke:#181818;stroke-width:1.0;"/><line style="stroke:#181818;stroke-width:1.0;" x1="905.5" x2="1176.5" y1="348.2793" y2="348.2793"/><text fill="#000000" font-family="sans-serif" font-size="13" font-weight="bold" lengthAdjust="spacing" textLength="7" x="917.5" y="343.0166">8</text><text fill="#000000" font-family="sans-serif" font-size="13" lengthAdjust="spacing" textLength="113" x="928.5" y="343.0166">ToDoListRepository</text><polygon fill="#181818" points="878.5,375.5703,888.5,379.5703,878.5,383.5703,882.5,379.5703" style="stroke:#181818;stroke-width:1.0;"/><line style="stroke:#181818;stroke-width:1.0;" x1="468.5" x2="884.5" y1="379.5703" y2="379.5703"/><text fill="#000000" font-family="sans-serif" font-size="13" font-weight="bold" lengthAdjust="spacing" textLength="7" x="475.5" y="374.3076">9</text><text fill="#000000" font-family="sans-serif" font-size="13" lengthAdjust="spacing" textLength="119" x="486.5" y="374.3076">getGreenSpaceList()</text><rect fill="none" height="43.252" style="stroke:#000000;stroke-width:1.5;" width="201" x="795" y="387.5703"/><path d="M795,387.5703 L857,387.5703 L857,396.5703 L847,406.5703 L795,406.5703 L795,387.5703 " fill="#EEEEEE" style="stroke:#000000;stroke-width:2.0;"/><text fill="#000000" font-family="sans-serif" font-size="13" font-weight="bold" lengthAdjust="spacing" textLength="17" x="808" y="403.5986">ref</text><text fill="#000000" font-family="sans-serif" font-size="12" lengthAdjust="spacing" textLength="117" x="837" y="423.5195">Get Green Space List</text><polygon fill="#181818" points="479.5,455.1133,469.5,459.1133,479.5,463.1133,475.5,459.1133" style="stroke:#181818;stroke-width:1.0;"/><line style="stroke:#181818;stroke-width:1.0;stroke-dasharray:2.0,2.0;" x1="473.5" x2="894.5" y1="459.1133" y2="459.1133"/><text fill="#000000" font-family="sans-serif" font-size="13" font-weight="bold" lengthAdjust="spacing" textLength="14" x="485.5" y="453.8506">10</text><text fill="#000000" font-family="sans-serif" font-size="13" lengthAdjust="spacing" textLength="76" x="503.5" y="453.8506">greenSpaces</text><polygon fill="#181818" points="99.5,486.4043,89.5,490.4043,99.5,494.4043,95.5,490.4043" style="stroke:#181818;stroke-width:1.0;"/><line style="stroke:#181818;stroke-width:1.0;stroke-dasharray:2.0,2.0;" x1="93.5" x2="462.5" y1="490.4043" y2="490.4043"/><text fill="#000000" font-family="sans-serif" font-size="13" font-weight="bold" lengthAdjust="spacing" textLength="14" x="105.5" y="485.1416">11</text><text fill="#000000" font-family="sans-serif" font-size="13" lengthAdjust="spacing" textLength="300" x="123.5" y="485.1416">shows a list of green spaces and requests selection</text><polygon fill="#181818" points="446.5,517.6953,456.5,521.6953,446.5,525.6953,450.5,521.6953" style="stroke:#181818;stroke-width:1.0;"/><line style="stroke:#181818;stroke-width:1.0;" x1="88.5" x2="452.5" y1="521.6953" y2="521.6953"/><text fill="#000000" font-family="sans-serif" font-size="13" font-weight="bold" lengthAdjust="spacing" textLength="14" x="95.5" y="516.4326">12</text><text fill="#000000" font-family="sans-serif" font-size="13" lengthAdjust="spacing" textLength="128" x="113.5" y="516.4326">selects a green space</text><polygon fill="#181818" points="99.5,566.2773,89.5,570.2773,99.5,574.2773,95.5,570.2773" style="stroke:#181818;stroke-width:1.0;"/><line style="stroke:#181818;stroke-width:1.0;stroke-dasharray:2.0,2.0;" x1="93.5" x2="462.5" y1="570.2773" y2="570.2773"/><text fill="#000000" font-family="sans-serif" font-size="13" font-weight="bold" lengthAdjust="spacing" textLength="14" x="105.5" y="556.3691">13</text><text fill="#000000" font-family="sans-serif" font-size="13" lengthAdjust="spacing" textLength="324" x="123.5" y="547.7236">requests entry data (title, task description, urgency level</text><text fill="#000000" font-family="sans-serif" font-size="13" lengthAdjust="spacing" textLength="200" x="123.5" y="565.0146">(selectable), approximate duration)</text><polygon fill="#181818" points="446.5,597.5684,456.5,601.5684,446.5,605.5684,450.5,601.5684" style="stroke:#181818;stroke-width:1.0;"/><line style="stroke:#181818;stroke-width:1.0;" x1="88.5" x2="452.5" y1="601.5684" y2="601.5684"/><text fill="#000000" font-family="sans-serif" font-size="13" font-weight="bold" lengthAdjust="spacing" textLength="14" x="95.5" y="596.3057">14</text><text fill="#000000" font-family="sans-serif" font-size="13" lengthAdjust="spacing" textLength="76" x="113.5" y="596.3057">provides data</text><polygon fill="#181818" points="99.5,628.8594,89.5,632.8594,99.5,636.8594,95.5,632.8594" style="stroke:#181818;stroke-width:1.0;"/><line style="stroke:#181818;stroke-width:1.0;stroke-dasharray:2.0,2.0;" x1="93.5" x2="462.5" y1="632.8594" y2="632.8594"/><text fill="#000000" font-family="sans-serif" font-size="13" font-weight="bold" lengthAdjust="spacing" textLength="14" x="105.5" y="627.5967">15</text><text fill="#000000" font-family="sans-serif" font-size="13" lengthAdjust="spacing" textLength="230" x="123.5" y="627.5967">displays data and requests confirmation</text><polygon fill="#181818" points="446.5,660.1504,456.5,664.1504,446.5,668.1504,450.5,664.1504" style="stroke:#181818;stroke-width:1.0;"/><line style="stroke:#181818;stroke-width:1.0;" x1="88.5" x2="452.5" y1="664.1504" y2="664.1504"/><text fill="#000000" font-family="sans-serif" font-size="13" font-weight="bold" lengthAdjust="spacing" textLength="14" x="95.5" y="658.8877">16</text><text fill="#000000" font-family="sans-serif" font-size="13" lengthAdjust="spacing" textLength="78" x="113.5" y="658.8877">confirms data</text><polygon fill="#181818" points="878.5,691.4414,888.5,695.4414,878.5,699.4414,882.5,695.4414" style="stroke:#181818;stroke-width:1.0;"/><line style="stroke:#181818;stroke-width:1.0;" x1="468.5" x2="884.5" y1="695.4414" y2="695.4414"/><text fill="#000000" font-family="sans-serif" font-size="13" font-weight="bold" lengthAdjust="spacing" textLength="14" x="475.5" y="690.1787">17</text><text fill="#000000" font-family="sans-serif" font-size="13" lengthAdjust="spacing" textLength="385" x="493.5" y="690.1787">addEntry(entryTitle, entryDescription, entryUrgency, entryDuration)</text><line style="stroke:#181818;stroke-width:1.0;" x1="900.5" x2="947.5" y1="746.7324" y2="746.7324"/><line style="stroke:#181818;stroke-width:1.0;" x1="947.5" x2="947.5" y1="746.7324" y2="759.7324"/><line style="stroke:#181818;stroke-width:1.0;" x1="906.5" x2="947.5" y1="759.7324" y2="759.7324"/><polygon fill="#181818" points="916.5,755.7324,906.5,759.7324,916.5,763.7324,912.5,759.7324" style="stroke:#181818;stroke-width:1.0;"/><text fill="#000000" font-family="sans-serif" font-size="13" font-weight="bold" lengthAdjust="spacing" textLength="14" x="912.5" y="741.4697">18</text><text fill="#000000" font-family="sans-serif" font-size="13" lengthAdjust="spacing" textLength="133" x="930.5" y="741.4697">getGSMFromSession()</text><rect fill="none" height="43.252" style="stroke:#000000;stroke-width:1.5;" width="201" x="795" y="772.7324"/><path d="M795,772.7324 L857,772.7324 L857,781.7324 L847,791.7324 L795,791.7324 L795,772.7324 " fill="#EEEEEE" style="stroke:#000000;stroke-width:2.0;"/><text fill="#000000" font-family="sans-serif" font-size="13" font-weight="bold" lengthAdjust="spacing" textLength="17" x="808" y="788.7607">ref</text><text fill="#000000" font-family="sans-serif" font-size="12" lengthAdjust="spacing" textLength="48" x="871.5" y="808.6816">Get GSM</text><line style="stroke:#181818;stroke-width:1.0;stroke-dasharray:2.0,2.0;" x1="905.5" x2="947.5" y1="849.2754" y2="849.2754"/><line style="stroke:#181818;stroke-width:1.0;stroke-dasharray:2.0,2.0;" x1="947.5" x2="947.5" y1="849.2754" y2="862.2754"/><line style="stroke:#181818;stroke-width:1.0;stroke-dasharray:2.0,2.0;" x1="900.5" x2="947.5" y1="862.2754" y2="862.2754"/><polygon fill="#181818" points="910.5,858.2754,900.5,862.2754,910.5,866.2754,906.5,862.2754" style="stroke:#181818;stroke-width:1.0;"/><text fill="#000000" font-family="sans-serif" font-size="13" font-weight="bold" lengthAdjust="spacing" textLength="14" x="912.5" y="844.0127">19</text><text fill="#000000" font-family="sans-serif" font-size="13" lengthAdjust="spacing" textLength="25" x="930.5" y="844.0127">gsm</text><polygon fill="#181818" points="1466.5,909.5664,1476.5,913.5664,1466.5,917.5664,1470.5,913.5664" style="stroke:#181818;stroke-width:1.0;"/><line style="stroke:#181818;stroke-width:1.0;" x1="900.5" x2="1472.5" y1="913.5664" y2="913.5664"/><text fill="#000000" font-family="sans-serif" font-size="13" font-weight="bold" lengthAdjust="spacing" textLength="14" x="907.5" y="908.3037">20</text><text fill="#000000" font-family="sans-serif" font-size="13" lengthAdjust="spacing" textLength="148" x="925.5" y="908.3037">getToDoListByGSM(gsm)</text><polygon fill="#181818" points="911.5,940.8574,901.5,944.8574,911.5,948.8574,907.5,944.8574" style="stroke:#181818;stroke-width:1.0;"/><line style="stroke:#181818;stroke-width:1.0;stroke-dasharray:2.0,2.0;" x1="905.5" x2="1482.5" y1="944.8574" y2="944.8574"/><text fill="#000000" font-family="sans-serif" font-size="13" font-weight="bold" lengthAdjust="spacing" textLength="14" x="917.5" y="939.5947">21</text><text fill="#000000" font-family="sans-serif" font-size="13" lengthAdjust="spacing" textLength="48" x="935.5" y="939.5947">toDoList</text><polygon fill="#181818" points="1583.5,972.1484,1593.5,976.1484,1583.5,980.1484,1587.5,976.1484" style="stroke:#181818;stroke-width:1.0;"/><line style="stroke:#181818;stroke-width:1.0;" x1="900.5" x2="1589.5" y1="976.1484" y2="976.1484"/><text fill="#000000" font-family="sans-serif" font-size="13" font-weight="bold" lengthAdjust="spacing" textLength="14" x="907.5" y="970.8857">22</text><text fill="#000000" font-family="sans-serif" font-size="13" lengthAdjust="spacing" textLength="418" x="925.5" y="970.8857">addEntry(entryTitle, entryDescription, entryUrgency, entryDuration, gsm)</text><polygon fill="#181818" points="1762.5,1003.4395,1772.5,1007.4395,1762.5,1011.4395,1766.5,1007.4395" style="stroke:#181818;stroke-width:1.0;"/><line style="stroke:#181818;stroke-width:1.0;" x1="1605.5" x2="1768.5" y1="1007.4395" y2="1007.4395"/><text fill="#000000" font-family="sans-serif" font-size="13" font-weight="bold" lengthAdjust="spacing" textLength="14" x="1612.5" y="1002.1768">23</text><text fill="#000000" font-family="sans-serif" font-size="13" lengthAdjust="spacing" textLength="36" x="1630.5" y="1002.1768">create</text><rect fill="#E3E3E3" height="32.6211" rx="2.5" ry="2.5" style="stroke:#181818;stroke-width:0.5;" width="74" x="1774.5" y="984.1484"/><text fill="#000000" font-family="sans-serif" font-size="14" lengthAdjust="spacing" textLength="60" x="1781.5" y="1006.2559">TDLEntry</text><line style="stroke:#181818;stroke-width:1.0;" x1="1605.5" x2="1652.5" y1="1046.0605" y2="1046.0605"/><line style="stroke:#181818;stroke-width:1.0;" x1="1652.5" x2="1652.5" y1="1046.0605" y2="1059.0605"/><line style="stroke:#181818;stroke-width:1.0;" x1="1611.5" x2="1652.5" y1="1059.0605" y2="1059.0605"/><polygon fill="#181818" points="1621.5,1055.0605,1611.5,1059.0605,1621.5,1063.0605,1617.5,1059.0605" style="stroke:#181818;stroke-width:1.0;"/><text fill="#000000" font-family="sans-serif" font-size="13" font-weight="bold" lengthAdjust="spacing" textLength="14" x="1617.5" y="1040.7979">24</text><text fill="#000000" font-family="sans-serif" font-size="13" lengthAdjust="spacing" textLength="169" x="1635.5" y="1040.7979">validateEntry(TDLEntry entry)</text><line style="stroke:#181818;stroke-width:1.0;stroke-dasharray:2.0,2.0;" x1="1610.5" x2="1652.5" y1="1100.3516" y2="1100.3516"/><line style="stroke:#181818;stroke-width:1.0;stroke-dasharray:2.0,2.0;" x1="1652.5" x2="1652.5" y1="1100.3516" y2="1113.3516"/><line style="stroke:#181818;stroke-width:1.0;stroke-dasharray:2.0,2.0;" x1="1605.5" x2="1652.5" y1="1113.3516" y2="1113.3516"/><polygon fill="#181818" points="1615.5,1109.3516,1605.5,1113.3516,1615.5,1117.3516,1611.5,1113.3516" style="stroke:#181818;stroke-width:1.0;"/><text fill="#000000" font-family="sans-serif" font-size="13" font-weight="bold" lengthAdjust="spacing" textLength="14" x="1617.5" y="1095.0889">25</text><text fill="#000000" font-family="sans-serif" font-size="13" lengthAdjust="spacing" textLength="22" x="1635.5" y="1095.0889">true</text><line style="stroke:#181818;stroke-width:1.0;" x1="1605.5" x2="1652.5" y1="1134.6426" y2="1134.6426"/><line style="stroke:#181818;stroke-width:1.0;" x1="1652.5" x2="1652.5" y1="1134.6426" y2="1147.6426"/><line style="stroke:#181818;stroke-width:1.0;" x1="1611.5" x2="1652.5" y1="1147.6426" y2="1147.6426"/><polygon fill="#181818" points="1621.5,1143.6426,1611.5,1147.6426,1621.5,1151.6426,1617.5,1147.6426" style="stroke:#181818;stroke-width:1.0;"/><text fill="#000000" font-family="sans-serif" font-size="13" font-weight="bold" lengthAdjust="spacing" textLength="14" x="1617.5" y="1129.3799">26</text><text fill="#000000" font-family="sans-serif" font-size="13" lengthAdjust="spacing" textLength="147" x="1635.5" y="1129.3799">addEntry(TDLEntry entry)</text><line style="stroke:#181818;stroke-width:1.0;stroke-dasharray:2.0,2.0;" x1="1610.5" x2="1652.5" y1="1188.9336" y2="1188.9336"/><line style="stroke:#181818;stroke-width:1.0;stroke-dasharray:2.0,2.0;" x1="1652.5" x2="1652.5" y1="1188.9336" y2="1201.9336"/><line style="stroke:#181818;stroke-width:1.0;stroke-dasharray:2.0,2.0;" x1="1605.5" x2="1652.5" y1="1201.9336" y2="1201.9336"/><polygon fill="#181818" points="1615.5,1197.9336,1605.5,1201.9336,1615.5,1205.9336,1611.5,1201.9336" style="stroke:#181818;stroke-width:1.0;"/><text fill="#000000" font-family="sans-serif" font-size="13" font-weight="bold" lengthAdjust="spacing" textLength="14" x="1617.5" y="1183.6709">27</text><text fill="#000000" font-family="sans-serif" font-size="13" lengthAdjust="spacing" textLength="22" x="1635.5" y="1183.6709">true</text><polygon fill="#181818" points="94.5,1224.2246,84.5,1228.2246,94.5,1232.2246,90.5,1228.2246" style="stroke:#181818;stroke-width:1.0;"/><line style="stroke:#181818;stroke-width:1.0;stroke-dasharray:2.0,2.0;" x1="88.5" x2="462.5" y1="1228.2246" y2="1228.2246"/><text fill="#000000" font-family="sans-serif" font-size="13" font-weight="bold" lengthAdjust="spacing" textLength="14" x="100.5" y="1222.9619">28</text><text fill="#000000" font-family="sans-serif" font-size="13" lengthAdjust="spacing" textLength="171" x="118.5" y="1222.9619">displays successful operation</text><!--SRC=[pLRDRk8m4BxdAKQzB23w0Zsin9OkgWIh5QItNjna0Ak9dRKTMgG-_8xj93Z4XTLg3-j3rNXclldcr-XNBYgcM0cb53BRAraY65LZeZj9nR9NjiEDEHO82ZF3nAu85VIUvVADYnriMQ4nILXjfAZB5rH9ycNFSuIjbEP5lYSiCrB1pK8X2jWGCcfOCK7mwWQOXjbybH2euHclc31mSpVBymTXr36LSxdasZmzEiMdnojwzvA-P54qmFVfUdbciSPAQavyE6gdqrqSDzo6I47qJLHWyIo603-NixHliRE1kZXFu6IvY5mxXCLctGSmJJWzytHmwOpJ-PbngzT8pn905ovZJlhm8rtFvhF4LeWVc45NYeJ-mErNoZRSKUb_rQYD1fRdjjWC1Bu1MWWm4imU8PMtSmdMPG14fKg03e4Gb2t4P49mcKAIEacdwghahkonNzOaKXUotw5v59gQCSFHkBFfe6B5xBJiYQ7UDWHjiAVQTcOv_XbyIzpsWsSQAtYCjUkW7as7qT0Yh1XGZ5yVQ4Xes49_HMS8SvtCgG_ESsEH0XeAjo0Fg7nRX2mMQ23O8RxZMY6A_3pojeLFu-YB6d3qhMUvaR9j-plQQ_ADkXqAGWUvzTQW_TPY8ZzDXCQ2zYAd7WWGRT-7y-ELB60051-JZaBdmOzPpWo3aU6cm2aOfbyf0fqfNbdVKwZL3aLsX08FMC2p67cNxAN0yHHOLIdvpalhBAyLipRZypIqB4BYP7QW9QwT-_x0jke3uZdNLS6EtgQVh4oABLUbyn_hbX0pfD7O1JG-fJ9eCzQy3YENnzGdqFq_3nFeRfvy5bjvBrC3h_sDrPwFZu_1NJk3GUDlLj_fmTsWrkHWD1wONF5oUKO6yx9PHUMzSHaI3XZhSg0t6A1O9ZvD1JrOlMNqxKWaH-JdGYhi8nUbIu9WVxVlvYN6KQWJj-M_Q9ifN0jd-LauZaRpBayctODvITkHFh22quYWPzw-yfxME6fzdKtdetNYVYF6j7hvNLvdswNuVo9wMcN19jDrHejVR-i2P8NgqluAlWZZDm00]--></g></svg>