<?xml version="1.0" encoding="us-ascii" standalone="no"?><svg xmlns="http://www.w3.org/2000/svg" xmlns:xlink="http://www.w3.org/1999/xlink" contentStyleType="text/css" height="945px" preserveAspectRatio="none" style="width:1855px;height:945px;background:#FFFFFF;" version="1.1" viewBox="0 0 1855 945" width="1855px" zoomAndPan="magnify"><defs/><g><!--class ToDoList--><g id="elem_ToDoList"><rect codeLine="7" fill="#F1F1F1" height="290.0742" id="ToDoList" rx="2.5" ry="2.5" style="stroke:#181818;stroke-width:0.5;" width="845" x="1003" y="648"/><ellipse cx="1392.75" cy="664" fill="#ADD1B2" rx="11" ry="11" style="stroke:#181818;stroke-width:1.0;"/><path d="M1395.5156,659.875 Q1395.6719,659.6563 1395.8594,659.5469 Q1396.0469,659.4375 1396.2656,659.4375 Q1396.6406,659.4375 1396.875,659.7031 Q1397.1094,659.9531 1397.1094,660.5625 L1397.1094,662.0156 Q1397.1094,662.625 1396.875,662.8906 Q1396.6406,663.1563 1396.2656,663.1563 Q1395.9219,663.1563 1395.7188,662.9531 Q1395.5156,662.7656 1395.4063,662.25 Q1395.3594,661.8906 1395.1719,661.7031 Q1394.8438,661.3281 1394.2344,661.1094 Q1393.625,660.8906 1393,660.8906 Q1392.2344,660.8906 1391.5938,661.2188 Q1390.9688,661.5469 1390.4688,662.2969 Q1389.9844,663.0469 1389.9844,664.0781 L1389.9844,665.1719 Q1389.9844,666.4063 1390.875,667.2344 Q1391.7656,668.0469 1393.3594,668.0469 Q1394.2969,668.0469 1394.9531,667.7969 Q1395.3438,667.6406 1395.7656,667.2031 Q1396.0313,666.9375 1396.1719,666.8594 Q1396.3281,666.7813 1396.5313,666.7813 Q1396.8594,666.7813 1397.1094,667.0469 Q1397.375,667.2969 1397.375,667.6406 Q1397.375,667.9844 1397.0313,668.3906 Q1396.5313,668.9688 1395.7344,669.2969 Q1394.6563,669.75 1393.3594,669.75 Q1391.8438,669.75 1390.6406,669.125 Q1389.6563,668.625 1388.9688,667.5625 Q1388.2813,666.4844 1388.2813,665.2031 L1388.2813,664.0469 Q1388.2813,662.7188 1388.8906,661.5781 Q1389.5156,660.4219 1390.6094,659.8125 Q1391.7031,659.1875 1392.9375,659.1875 Q1393.6719,659.1875 1394.3125,659.3594 Q1394.9688,659.5156 1395.5156,659.875 Z " fill="#000000"/><text fill="#000000" font-family="sans-serif" font-size="14" lengthAdjust="spacing" textLength="57" x="1413.25" y="669.7969">ToDoList</text><line style="stroke:#181818;stroke-width:0.5;" x1="1004" x2="1847" y1="680" y2="680"/><text fill="#000000" font-family="sans-serif" font-size="14" lengthAdjust="spacing" textLength="147" x="1009" y="699.1074">-taskDescription: String</text><text fill="#000000" font-family="sans-serif" font-size="14" lengthAdjust="spacing" textLength="101" x="1009" y="717.7285">-urgency: String</text><text fill="#000000" font-family="sans-serif" font-size="14" lengthAdjust="spacing" textLength="139" x="1009" y="736.3496">-expectedDuration: int</text><text fill="#000000" font-family="sans-serif" font-size="14" lengthAdjust="spacing" textLength="161" x="1009" y="754.9707">-greenspaceName: String</text><text fill="#000000" font-family="sans-serif" font-size="14" lengthAdjust="spacing" textLength="112" x="1009" y="773.5918">-userEmail: String</text><text fill="#000000" font-family="sans-serif" font-size="14" lengthAdjust="spacing" textLength="88" x="1009" y="792.2129">-status: String</text><line style="stroke:#181818;stroke-width:0.5;" x1="1004" x2="1847" y1="799.7266" y2="799.7266"/><text fill="#000000" font-family="sans-serif" font-size="14" lengthAdjust="spacing" textLength="833" x="1009" y="818.834">+ToDoList(taskDescription: String, urgency: String, expectedDuration: int, greenspaceName: String, status: String, userEmail: String)</text><text fill="#000000" font-family="sans-serif" font-size="14" lengthAdjust="spacing" textLength="185" x="1009" y="837.4551">+getTaskDescription(): String</text><text fill="#000000" font-family="sans-serif" font-size="14" lengthAdjust="spacing" textLength="135" x="1009" y="856.0762">+getUrgency(): String</text><text fill="#000000" font-family="sans-serif" font-size="14" lengthAdjust="spacing" textLength="173" x="1009" y="874.6973">+getExpectedDuration(): int</text><text fill="#000000" font-family="sans-serif" font-size="14" lengthAdjust="spacing" textLength="197" x="1009" y="893.3184">+getGreenspaceName(): String</text><text fill="#000000" font-family="sans-serif" font-size="14" lengthAdjust="spacing" textLength="123" x="1009" y="911.9395">+getStatus(): String</text><text fill="#000000" font-family="sans-serif" font-size="14" lengthAdjust="spacing" textLength="146" x="1009" y="930.5605">+getUserEmail(): String</text></g><!--class ToDoListRepository--><g id="elem_ToDoListRepository"><rect codeLine="22" fill="#F1F1F1" height="159.7266" id="ToDoListRepository" rx="2.5" ry="2.5" style="stroke:#181818;stroke-width:0.5;" width="649" x="853" y="428"/><ellipse cx="1110.75" cy="444" fill="#ADD1B2" rx="11" ry="11" style="stroke:#181818;stroke-width:1.0;"/><path d="M1113.5156,439.875 Q1113.6719,439.6563 1113.8594,439.5469 Q1114.0469,439.4375 1114.2656,439.4375 Q1114.6406,439.4375 1114.875,439.7031 Q1115.1094,439.9531 1115.1094,440.5625 L1115.1094,442.0156 Q1115.1094,442.625 1114.875,442.8906 Q1114.6406,443.1563 1114.2656,443.1563 Q1113.9219,443.1563 1113.7188,442.9531 Q1113.5156,442.7656 1113.4063,442.25 Q1113.3594,441.8906 1113.1719,441.7031 Q1112.8438,441.3281 1112.2344,441.1094 Q1111.625,440.8906 1111,440.8906 Q1110.2344,440.8906 1109.5938,441.2188 Q1108.9688,441.5469 1108.4688,442.2969 Q1107.9844,443.0469 1107.9844,444.0781 L1107.9844,445.1719 Q1107.9844,446.4063 1108.875,447.2344 Q1109.7656,448.0469 1111.3594,448.0469 Q1112.2969,448.0469 1112.9531,447.7969 Q1113.3438,447.6406 1113.7656,447.2031 Q1114.0313,446.9375 1114.1719,446.8594 Q1114.3281,446.7813 1114.5313,446.7813 Q1114.8594,446.7813 1115.1094,447.0469 Q1115.375,447.2969 1115.375,447.6406 Q1115.375,447.9844 1115.0313,448.3906 Q1114.5313,448.9688 1113.7344,449.2969 Q1112.6563,449.75 1111.3594,449.75 Q1109.8438,449.75 1108.6406,449.125 Q1107.6563,448.625 1106.9688,447.5625 Q1106.2813,446.4844 1106.2813,445.2031 L1106.2813,444.0469 Q1106.2813,442.7188 1106.8906,441.5781 Q1107.5156,440.4219 1108.6094,439.8125 Q1109.7031,439.1875 1110.9375,439.1875 Q1111.6719,439.1875 1112.3125,439.3594 Q1112.9688,439.5156 1113.5156,439.875 Z " fill="#000000"/><text fill="#000000" font-family="sans-serif" font-size="14" lengthAdjust="spacing" textLength="125" x="1131.25" y="449.7969">ToDoListRepository</text><line style="stroke:#181818;stroke-width:0.5;" x1="854" x2="1501" y1="460" y2="460"/><text fill="#000000" font-family="sans-serif" font-size="14" lengthAdjust="spacing" textLength="167" x="859" y="479.1074">-toDoLists: List&lt;ToDoList&gt;</text><line style="stroke:#181818;stroke-width:0.5;" x1="854" x2="1501" y1="486.6211" y2="486.6211"/><text fill="#000000" font-family="sans-serif" font-size="14" lengthAdjust="spacing" textLength="293" x="859" y="505.7285">+add(toDoList: ToDoList): Optional&lt;ToDoList&gt;</text><text fill="#000000" font-family="sans-serif" font-size="14" lengthAdjust="spacing" textLength="220" x="859" y="524.3496">+getAllToDoLists(): List&lt;ToDoList&gt;</text><text fill="#000000" font-family="sans-serif" font-size="14" lengthAdjust="spacing" textLength="336" x="859" y="542.9707">+updateToDoListEntry(updatedEntry: ToDoList): void</text><text fill="#000000" font-family="sans-serif" font-size="14" lengthAdjust="spacing" textLength="435" x="859" y="561.5918">+findByTaskDescription(taskDescription: String): Optional&lt;ToDoList&gt;</text><text fill="#000000" font-family="sans-serif" font-size="14" lengthAdjust="spacing" textLength="637" x="859" y="580.2129">+findByUserEmailAndGreenSpaceName(userEmail: String, greenSpaceName: String): List&lt;ToDoList&gt;</text></g><!--class ToDoListController--><g id="elem_ToDoListController"><rect codeLine="30" fill="#F1F1F1" height="141.1055" id="ToDoListController" rx="2.5" ry="2.5" style="stroke:#181818;stroke-width:0.5;" width="1023" x="245" y="7"/><ellipse cx="692.75" cy="23" fill="#ADD1B2" rx="11" ry="11" style="stroke:#181818;stroke-width:1.0;"/><path d="M695.5156,18.875 Q695.6719,18.6563 695.8594,18.5469 Q696.0469,18.4375 696.2656,18.4375 Q696.6406,18.4375 696.875,18.7031 Q697.1094,18.9531 697.1094,19.5625 L697.1094,21.0156 Q697.1094,21.625 696.875,21.8906 Q696.6406,22.1563 696.2656,22.1563 Q695.9219,22.1563 695.7188,21.9531 Q695.5156,21.7656 695.4063,21.25 Q695.3594,20.8906 695.1719,20.7031 Q694.8438,20.3281 694.2344,20.1094 Q693.625,19.8906 693,19.8906 Q692.2344,19.8906 691.5938,20.2188 Q690.9688,20.5469 690.4688,21.2969 Q689.9844,22.0469 689.9844,23.0781 L689.9844,24.1719 Q689.9844,25.4063 690.875,26.2344 Q691.7656,27.0469 693.3594,27.0469 Q694.2969,27.0469 694.9531,26.7969 Q695.3438,26.6406 695.7656,26.2031 Q696.0313,25.9375 696.1719,25.8594 Q696.3281,25.7813 696.5313,25.7813 Q696.8594,25.7813 697.1094,26.0469 Q697.375,26.2969 697.375,26.6406 Q697.375,26.9844 697.0313,27.3906 Q696.5313,27.9688 695.7344,28.2969 Q694.6563,28.75 693.3594,28.75 Q691.8438,28.75 690.6406,28.125 Q689.6563,27.625 688.9688,26.5625 Q688.2813,25.4844 688.2813,24.2031 L688.2813,23.0469 Q688.2813,21.7188 688.8906,20.5781 Q689.5156,19.4219 690.6094,18.8125 Q691.7031,18.1875 692.9375,18.1875 Q693.6719,18.1875 694.3125,18.3594 Q694.9688,18.5156 695.5156,18.875 Z " fill="#000000"/><text fill="#000000" font-family="sans-serif" font-size="14" lengthAdjust="spacing" textLength="119" x="713.25" y="28.7969">ToDoListController</text><line style="stroke:#181818;stroke-width:0.5;" x1="246" x2="1267" y1="39" y2="39"/><text fill="#000000" font-family="sans-serif" font-size="14" lengthAdjust="spacing" textLength="258" x="251" y="58.1074">-toDoListRepository: ToDoListRepository</text><line style="stroke:#181818;stroke-width:0.5;" x1="246" x2="1267" y1="65.6211" y2="65.6211"/><text fill="#000000" font-family="sans-serif" font-size="14" lengthAdjust="spacing" textLength="137" x="251" y="84.7285">+ToDoListController()</text><text fill="#000000" font-family="sans-serif" font-size="14" lengthAdjust="spacing" textLength="1011" x="251" y="103.3496">+createToDoListEntry(taskDescription: String, urgency: String, expectedDuration: int, greenspaceName: String, status: String, email: String): Optional&lt;ToDoList&gt;</text><text fill="#000000" font-family="sans-serif" font-size="14" lengthAdjust="spacing" textLength="453" x="251" y="121.9707">+updateToDoListStatus(taskDescription: String, newStatus: String): void</text><text fill="#000000" font-family="sans-serif" font-size="14" lengthAdjust="spacing" textLength="257" x="251" y="140.5918">+getAllToDoListEntries(): List&lt;ToDoList&gt;</text></g><!--class Repositories--><g id="elem_Repositories"><rect codeLine="37" fill="#F1F1F1" height="103.8633" id="Repositories" rx="2.5" ry="2.5" style="stroke:#181818;stroke-width:0.5;" width="350" x="1303.5" y="25.5"/><ellipse cx="1434.75" cy="41.5" fill="#ADD1B2" rx="11" ry="11" style="stroke:#181818;stroke-width:1.0;"/><path d="M1437.5156,37.375 Q1437.6719,37.1563 1437.8594,37.0469 Q1438.0469,36.9375 1438.2656,36.9375 Q1438.6406,36.9375 1438.875,37.2031 Q1439.1094,37.4531 1439.1094,38.0625 L1439.1094,39.5156 Q1439.1094,40.125 1438.875,40.3906 Q1438.6406,40.6563 1438.2656,40.6563 Q1437.9219,40.6563 1437.7188,40.4531 Q1437.5156,40.2656 1437.4063,39.75 Q1437.3594,39.3906 1437.1719,39.2031 Q1436.8438,38.8281 1436.2344,38.6094 Q1435.625,38.3906 1435,38.3906 Q1434.2344,38.3906 1433.5938,38.7188 Q1432.9688,39.0469 1432.4688,39.7969 Q1431.9844,40.5469 1431.9844,41.5781 L1431.9844,42.6719 Q1431.9844,43.9063 1432.875,44.7344 Q1433.7656,45.5469 1435.3594,45.5469 Q1436.2969,45.5469 1436.9531,45.2969 Q1437.3438,45.1406 1437.7656,44.7031 Q1438.0313,44.4375 1438.1719,44.3594 Q1438.3281,44.2813 1438.5313,44.2813 Q1438.8594,44.2813 1439.1094,44.5469 Q1439.375,44.7969 1439.375,45.1406 Q1439.375,45.4844 1439.0313,45.8906 Q1438.5313,46.4688 1437.7344,46.7969 Q1436.6563,47.25 1435.3594,47.25 Q1433.8438,47.25 1432.6406,46.625 Q1431.6563,46.125 1430.9688,45.0625 Q1430.2813,43.9844 1430.2813,42.7031 L1430.2813,41.5469 Q1430.2813,40.2188 1430.8906,39.0781 Q1431.5156,37.9219 1432.6094,37.3125 Q1433.7031,36.6875 1434.9375,36.6875 Q1435.6719,36.6875 1436.3125,36.8594 Q1436.9688,37.0156 1437.5156,37.375 Z " fill="#000000"/><text fill="#000000" font-family="sans-serif" font-size="14" lengthAdjust="spacing" textLength="79" x="1455.25" y="47.2969">Repositories</text><line style="stroke:#181818;stroke-width:0.5;" x1="1304.5" x2="1652.5" y1="57.5" y2="57.5"/><line style="stroke:#181818;stroke-width:0.5;" x1="1304.5" x2="1652.5" y1="65.5" y2="65.5"/><text fill="#000000" font-family="sans-serif" font-size="14" lengthAdjust="spacing" textLength="215" x="1309.5" y="84.6074">+static getInstance(): Repositories</text><text fill="#000000" font-family="sans-serif" font-size="14" lengthAdjust="spacing" textLength="296" x="1309.5" y="103.2285">+getToDoListRepository(): ToDoListRepository</text><text fill="#000000" font-family="sans-serif" font-size="14" lengthAdjust="spacing" textLength="338" x="1309.5" y="121.8496">+getCollaboratorRepository(): CollaboratorRepository</text></g><!--class ToDoListUI--><g id="elem_ToDoListUI"><rect codeLine="43" fill="#F1F1F1" height="141.1055" id="ToDoListUI" rx="2.5" ry="2.5" style="stroke:#181818;stroke-width:0.5;" width="203" x="7" y="7"/><ellipse cx="69.75" cy="23" fill="#ADD1B2" rx="11" ry="11" style="stroke:#181818;stroke-width:1.0;"/><path d="M72.5156,18.875 Q72.6719,18.6563 72.8594,18.5469 Q73.0469,18.4375 73.2656,18.4375 Q73.6406,18.4375 73.875,18.7031 Q74.1094,18.9531 74.1094,19.5625 L74.1094,21.0156 Q74.1094,21.625 73.875,21.8906 Q73.6406,22.1563 73.2656,22.1563 Q72.9219,22.1563 72.7188,21.9531 Q72.5156,21.7656 72.4063,21.25 Q72.3594,20.8906 72.1719,20.7031 Q71.8438,20.3281 71.2344,20.1094 Q70.625,19.8906 70,19.8906 Q69.2344,19.8906 68.5938,20.2188 Q67.9688,20.5469 67.4688,21.2969 Q66.9844,22.0469 66.9844,23.0781 L66.9844,24.1719 Q66.9844,25.4063 67.875,26.2344 Q68.7656,27.0469 70.3594,27.0469 Q71.2969,27.0469 71.9531,26.7969 Q72.3438,26.6406 72.7656,26.2031 Q73.0313,25.9375 73.1719,25.8594 Q73.3281,25.7813 73.5313,25.7813 Q73.8594,25.7813 74.1094,26.0469 Q74.375,26.2969 74.375,26.6406 Q74.375,26.9844 74.0313,27.3906 Q73.5313,27.9688 72.7344,28.2969 Q71.6563,28.75 70.3594,28.75 Q68.8438,28.75 67.6406,28.125 Q66.6563,27.625 65.9688,26.5625 Q65.2813,25.4844 65.2813,24.2031 L65.2813,23.0469 Q65.2813,21.7188 65.8906,20.5781 Q66.5156,19.4219 67.6094,18.8125 Q68.7031,18.1875 69.9375,18.1875 Q70.6719,18.1875 71.3125,18.3594 Q71.9688,18.5156 72.5156,18.875 Z " fill="#000000"/><text fill="#000000" font-family="sans-serif" font-size="14" lengthAdjust="spacing" textLength="69" x="90.25" y="28.7969">ToDoListUI</text><line style="stroke:#181818;stroke-width:0.5;" x1="8" x2="209" y1="39" y2="39"/><text fill="#000000" font-family="sans-serif" font-size="14" lengthAdjust="spacing" textLength="191" x="13" y="58.1074">-controller: ToDoListController</text><text fill="#000000" font-family="sans-serif" font-size="14" lengthAdjust="spacing" textLength="117" x="13" y="76.7285">-scanner: Scanner</text><text fill="#000000" font-family="sans-serif" font-size="14" lengthAdjust="spacing" textLength="83" x="13" y="95.3496">-email: String</text><line style="stroke:#181818;stroke-width:0.5;" x1="8" x2="209" y1="102.8633" y2="102.8633"/><text fill="#000000" font-family="sans-serif" font-size="14" lengthAdjust="spacing" textLength="165" x="13" y="121.9707">+ToDoListUI(email: String)</text><text fill="#000000" font-family="sans-serif" font-size="14" lengthAdjust="spacing" textLength="73" x="13" y="140.5918">+run(): void</text></g><!--class UserSession--><g id="elem_UserSession"><rect codeLine="50" fill="#F1F1F1" height="66.6211" id="UserSession" rx="2.5" ry="2.5" style="stroke:#181818;stroke-width:0.5;" width="158" x="599.5" y="474.5"/><ellipse cx="635.65" cy="490.5" fill="#ADD1B2" rx="11" ry="11" style="stroke:#181818;stroke-width:1.0;"/><path d="M638.4156,486.375 Q638.5719,486.1563 638.7594,486.0469 Q638.9469,485.9375 639.1656,485.9375 Q639.5406,485.9375 639.775,486.2031 Q640.0094,486.4531 640.0094,487.0625 L640.0094,488.5156 Q640.0094,489.125 639.775,489.3906 Q639.5406,489.6563 639.1656,489.6563 Q638.8219,489.6563 638.6188,489.4531 Q638.4156,489.2656 638.3063,488.75 Q638.2594,488.3906 638.0719,488.2031 Q637.7438,487.8281 637.1344,487.6094 Q636.525,487.3906 635.9,487.3906 Q635.1344,487.3906 634.4938,487.7188 Q633.8688,488.0469 633.3688,488.7969 Q632.8844,489.5469 632.8844,490.5781 L632.8844,491.6719 Q632.8844,492.9063 633.775,493.7344 Q634.6656,494.5469 636.2594,494.5469 Q637.1969,494.5469 637.8531,494.2969 Q638.2438,494.1406 638.6656,493.7031 Q638.9313,493.4375 639.0719,493.3594 Q639.2281,493.2813 639.4313,493.2813 Q639.7594,493.2813 640.0094,493.5469 Q640.275,493.7969 640.275,494.1406 Q640.275,494.4844 639.9313,494.8906 Q639.4313,495.4688 638.6344,495.7969 Q637.5563,496.25 636.2594,496.25 Q634.7438,496.25 633.5406,495.625 Q632.5563,495.125 631.8688,494.0625 Q631.1813,492.9844 631.1813,491.7031 L631.1813,490.5469 Q631.1813,489.2188 631.7906,488.0781 Q632.4156,486.9219 633.5094,486.3125 Q634.6031,485.6875 635.8375,485.6875 Q636.5719,485.6875 637.2125,485.8594 Q637.8688,486.0156 638.4156,486.375 Z " fill="#000000"/><text fill="#000000" font-family="sans-serif" font-size="14" lengthAdjust="spacing" textLength="79" x="654.35" y="496.2969">UserSession</text><line style="stroke:#181818;stroke-width:0.5;" x1="600.5" x2="756.5" y1="506.5" y2="506.5"/><line style="stroke:#181818;stroke-width:0.5;" x1="600.5" x2="756.5" y1="514.5" y2="514.5"/><text fill="#000000" font-family="sans-serif" font-size="14" lengthAdjust="spacing" textLength="146" x="605.5" y="533.6074">+getUserEmail(): String</text></g><!--class ApplicationSession--><g id="elem_ApplicationSession"><rect codeLine="53" fill="#F1F1F1" height="85.2422" id="ApplicationSession" rx="2.5" ry="2.5" style="stroke:#181818;stroke-width:0.5;" width="267" x="638" y="245.5"/><ellipse cx="707.75" cy="261.5" fill="#ADD1B2" rx="11" ry="11" style="stroke:#181818;stroke-width:1.0;"/><path d="M710.5156,257.375 Q710.6719,257.1563 710.8594,257.0469 Q711.0469,256.9375 711.2656,256.9375 Q711.6406,256.9375 711.875,257.2031 Q712.1094,257.4531 712.1094,258.0625 L712.1094,259.5156 Q712.1094,260.125 711.875,260.3906 Q711.6406,260.6563 711.2656,260.6563 Q710.9219,260.6563 710.7188,260.4531 Q710.5156,260.2656 710.4063,259.75 Q710.3594,259.3906 710.1719,259.2031 Q709.8438,258.8281 709.2344,258.6094 Q708.625,258.3906 708,258.3906 Q707.2344,258.3906 706.5938,258.7188 Q705.9688,259.0469 705.4688,259.7969 Q704.9844,260.5469 704.9844,261.5781 L704.9844,262.6719 Q704.9844,263.9063 705.875,264.7344 Q706.7656,265.5469 708.3594,265.5469 Q709.2969,265.5469 709.9531,265.2969 Q710.3438,265.1406 710.7656,264.7031 Q711.0313,264.4375 711.1719,264.3594 Q711.3281,264.2813 711.5313,264.2813 Q711.8594,264.2813 712.1094,264.5469 Q712.375,264.7969 712.375,265.1406 Q712.375,265.4844 712.0313,265.8906 Q711.5313,266.4688 710.7344,266.7969 Q709.6563,267.25 708.3594,267.25 Q706.8438,267.25 705.6406,266.625 Q704.6563,266.125 703.9688,265.0625 Q703.2813,263.9844 703.2813,262.7031 L703.2813,261.5469 Q703.2813,260.2188 703.8906,259.0781 Q704.5156,257.9219 705.6094,257.3125 Q706.7031,256.6875 707.9375,256.6875 Q708.6719,256.6875 709.3125,256.8594 Q709.9688,257.0156 710.5156,257.375 Z " fill="#000000"/><text fill="#000000" font-family="sans-serif" font-size="14" lengthAdjust="spacing" textLength="119" x="728.25" y="267.2969">ApplicationSession</text><line style="stroke:#181818;stroke-width:0.5;" x1="639" x2="904" y1="277.5" y2="277.5"/><line style="stroke:#181818;stroke-width:0.5;" x1="639" x2="904" y1="285.5" y2="285.5"/><text fill="#000000" font-family="sans-serif" font-size="14" lengthAdjust="spacing" textLength="255" x="644" y="304.6074">+static getInstance(): ApplicationSession</text><text fill="#000000" font-family="sans-serif" font-size="14" lengthAdjust="spacing" textLength="223" x="644" y="323.2285">+getCurrentSession(): UserSession</text></g><!--class Collaborator--><g id="elem_Collaborator"><rect codeLine="57" fill="#F1F1F1" height="141.1055" id="Collaborator" rx="2.5" ry="2.5" style="stroke:#181818;stroke-width:0.5;" width="274" x="1537.5" y="437.5"/><ellipse cx="1631.25" cy="453.5" fill="#ADD1B2" rx="11" ry="11" style="stroke:#181818;stroke-width:1.0;"/><path d="M1634.0156,449.375 Q1634.1719,449.1563 1634.3594,449.0469 Q1634.5469,448.9375 1634.7656,448.9375 Q1635.1406,448.9375 1635.375,449.2031 Q1635.6094,449.4531 1635.6094,450.0625 L1635.6094,451.5156 Q1635.6094,452.125 1635.375,452.3906 Q1635.1406,452.6563 1634.7656,452.6563 Q1634.4219,452.6563 1634.2188,452.4531 Q1634.0156,452.2656 1633.9063,451.75 Q1633.8594,451.3906 1633.6719,451.2031 Q1633.3438,450.8281 1632.7344,450.6094 Q1632.125,450.3906 1631.5,450.3906 Q1630.7344,450.3906 1630.0938,450.7188 Q1629.4688,451.0469 1628.9688,451.7969 Q1628.4844,452.5469 1628.4844,453.5781 L1628.4844,454.6719 Q1628.4844,455.9063 1629.375,456.7344 Q1630.2656,457.5469 1631.8594,457.5469 Q1632.7969,457.5469 1633.4531,457.2969 Q1633.8438,457.1406 1634.2656,456.7031 Q1634.5313,456.4375 1634.6719,456.3594 Q1634.8281,456.2813 1635.0313,456.2813 Q1635.3594,456.2813 1635.6094,456.5469 Q1635.875,456.7969 1635.875,457.1406 Q1635.875,457.4844 1635.5313,457.8906 Q1635.0313,458.4688 1634.2344,458.7969 Q1633.1563,459.25 1631.8594,459.25 Q1630.3438,459.25 1629.1406,458.625 Q1628.1563,458.125 1627.4688,457.0625 Q1626.7813,455.9844 1626.7813,454.7031 L1626.7813,453.5469 Q1626.7813,452.2188 1627.3906,451.0781 Q1628.0156,449.9219 1629.1094,449.3125 Q1630.2031,448.6875 1631.4375,448.6875 Q1632.1719,448.6875 1632.8125,448.8594 Q1633.4688,449.0156 1634.0156,449.375 Z " fill="#000000"/><text fill="#000000" font-family="sans-serif" font-size="14" lengthAdjust="spacing" textLength="78" x="1651.75" y="459.2969">Collaborator</text><line style="stroke:#181818;stroke-width:0.5;" x1="1538.5" x2="1810.5" y1="469.5" y2="469.5"/><text fill="#000000" font-family="sans-serif" font-size="14" lengthAdjust="spacing" textLength="85" x="1543.5" y="488.6074">-name: String</text><text fill="#000000" font-family="sans-serif" font-size="14" lengthAdjust="spacing" textLength="83" x="1543.5" y="507.2285">-email: String</text><line style="stroke:#181818;stroke-width:0.5;" x1="1538.5" x2="1810.5" y1="514.7422" y2="514.7422"/><text fill="#000000" font-family="sans-serif" font-size="14" lengthAdjust="spacing" textLength="262" x="1543.5" y="533.8496">+Collaborator(name: String, email: String)</text><text fill="#000000" font-family="sans-serif" font-size="14" lengthAdjust="spacing" textLength="119" x="1543.5" y="552.4707">+getName(): String</text><text fill="#000000" font-family="sans-serif" font-size="14" lengthAdjust="spacing" textLength="117" x="1543.5" y="571.0918">+getEmail(): String</text></g><!--class CollaboratorRepository--><g id="elem_CollaboratorRepository"><rect codeLine="65" fill="#F1F1F1" height="159.7266" id="CollaboratorRepository" rx="2.5" ry="2.5" style="stroke:#181818;stroke-width:0.5;" width="403" x="1375" y="208"/><ellipse cx="1499.25" cy="224" fill="#ADD1B2" rx="11" ry="11" style="stroke:#181818;stroke-width:1.0;"/><path d="M1502.0156,219.875 Q1502.1719,219.6563 1502.3594,219.5469 Q1502.5469,219.4375 1502.7656,219.4375 Q1503.1406,219.4375 1503.375,219.7031 Q1503.6094,219.9531 1503.6094,220.5625 L1503.6094,222.0156 Q1503.6094,222.625 1503.375,222.8906 Q1503.1406,223.1563 1502.7656,223.1563 Q1502.4219,223.1563 1502.2188,222.9531 Q1502.0156,222.7656 1501.9063,222.25 Q1501.8594,221.8906 1501.6719,221.7031 Q1501.3438,221.3281 1500.7344,221.1094 Q1500.125,220.8906 1499.5,220.8906 Q1498.7344,220.8906 1498.0938,221.2188 Q1497.4688,221.5469 1496.9688,222.2969 Q1496.4844,223.0469 1496.4844,224.0781 L1496.4844,225.1719 Q1496.4844,226.4063 1497.375,227.2344 Q1498.2656,228.0469 1499.8594,228.0469 Q1500.7969,228.0469 1501.4531,227.7969 Q1501.8438,227.6406 1502.2656,227.2031 Q1502.5313,226.9375 1502.6719,226.8594 Q1502.8281,226.7813 1503.0313,226.7813 Q1503.3594,226.7813 1503.6094,227.0469 Q1503.875,227.2969 1503.875,227.6406 Q1503.875,227.9844 1503.5313,228.3906 Q1503.0313,228.9688 1502.2344,229.2969 Q1501.1563,229.75 1499.8594,229.75 Q1498.3438,229.75 1497.1406,229.125 Q1496.1563,228.625 1495.4688,227.5625 Q1494.7813,226.4844 1494.7813,225.2031 L1494.7813,224.0469 Q1494.7813,222.7188 1495.3906,221.5781 Q1496.0156,220.4219 1497.1094,219.8125 Q1498.2031,219.1875 1499.4375,219.1875 Q1500.1719,219.1875 1500.8125,219.3594 Q1501.4688,219.5156 1502.0156,219.875 Z " fill="#000000"/><text fill="#000000" font-family="sans-serif" font-size="14" lengthAdjust="spacing" textLength="146" x="1519.75" y="229.7969">CollaboratorRepository</text><line style="stroke:#181818;stroke-width:0.5;" x1="1376" x2="1777" y1="240" y2="240"/><text fill="#000000" font-family="sans-serif" font-size="14" lengthAdjust="spacing" textLength="211" x="1381" y="259.1074">-collaborators: List&lt;Collaborator&gt;</text><line style="stroke:#181818;stroke-width:0.5;" x1="1376" x2="1777" y1="266.6211" y2="266.6211"/><text fill="#000000" font-family="sans-serif" font-size="14" lengthAdjust="spacing" textLength="315" x="1381" y="285.7285">+addCollaborator(collaborator: Collaborator): void</text><text fill="#000000" font-family="sans-serif" font-size="14" lengthAdjust="spacing" textLength="338" x="1381" y="304.3496">+removeCollaborator(collaborator: Collaborator): void</text><text fill="#000000" font-family="sans-serif" font-size="14" lengthAdjust="spacing" textLength="391" x="1381" y="322.9707">+addSkillToCollaborator(collaboratorId: String, skill: Skill): void</text><text fill="#000000" font-family="sans-serif" font-size="14" lengthAdjust="spacing" textLength="333" x="1381" y="341.5918">+getCollaborator(collaboratorId: String): Collaborator</text><text fill="#000000" font-family="sans-serif" font-size="14" lengthAdjust="spacing" textLength="313" x="1381" y="360.2129">+assignSkill(collaboratorId: String, skill: Skill): void</text></g><!--link ToDoListController to Repositories--><g id="link_ToDoListController_Repositories"><path codeLine="76" d="M1268.21,78 C1280.23,78 1285.97,78 1297.37,78 " fill="none" id="ToDoListController-to-Repositories" style="stroke:#181818;stroke-width:1.0;stroke-dasharray:7.0,7.0;"/><polygon fill="#181818" points="1303.37,78,1294.37,74,1298.37,78,1294.37,82,1303.37,78" style="stroke:#181818;stroke-width:1.0;"/></g><!--link Repositories to ToDoListRepository--><g id="link_Repositories_ToDoListRepository"><path codeLine="77" d="M1339.25,129.86 C1339.25,204.14 1339.25,334.75 1339.25,421.84 " fill="none" id="Repositories-to-ToDoListRepository" style="stroke:#181818;stroke-width:1.0;"/><polygon fill="#181818" points="1339.25,427.84,1343.25,418.84,1339.25,422.84,1335.25,418.84,1339.25,427.84" style="stroke:#181818;stroke-width:1.0;"/></g><!--link Repositories to CollaboratorRepository--><g id="link_Repositories_CollaboratorRepository"><path codeLine="78" d="M1514.25,129.53 C1514.25,153.15 1514.25,175.62 1514.25,201.88 " fill="none" id="Repositories-to-CollaboratorRepository" style="stroke:#181818;stroke-width:1.0;"/><polygon fill="#181818" points="1514.25,207.88,1518.25,198.88,1514.25,202.88,1510.25,198.88,1514.25,207.88" style="stroke:#181818;stroke-width:1.0;"/></g><!--link CollaboratorRepository to Collaborator--><g id="link_CollaboratorRepository_Collaborator"><path codeLine="79" d="M1657.75,368.05 C1657.75,390.78 1657.75,409.35 1657.75,431.47 " fill="none" id="CollaboratorRepository-to-Collaborator" style="stroke:#181818;stroke-width:1.0;"/><polygon fill="#181818" points="1657.75,437.47,1661.75,428.47,1657.75,432.47,1653.75,428.47,1657.75,437.47" style="stroke:#181818;stroke-width:1.0;"/></g><!--link ToDoListUI to ToDoListController--><g id="link_ToDoListUI_ToDoListController"><path codeLine="80" d="M210.11,78 C221.06,78 226.67,78 238.81,78 " fill="none" id="ToDoListUI-to-ToDoListController" style="stroke:#181818;stroke-width:1.0;stroke-dasharray:7.0,7.0;"/><polygon fill="#181818" points="244.81,78,235.81,74,239.81,78,235.81,82,244.81,78" style="stroke:#181818;stroke-width:1.0;"/></g><!--link ToDoListRepository to ToDoList--><g id="link_ToDoListRepository_ToDoList"><path codeLine="81" d="M1252.5,588.15 C1252.5,606.83 1252.5,621.3 1252.5,641.84 " fill="none" id="ToDoListRepository-to-ToDoList" style="stroke:#181818;stroke-width:1.0;"/><polygon fill="#181818" points="1252.5,647.84,1256.5,638.84,1252.5,642.84,1248.5,638.84,1252.5,647.84" style="stroke:#181818;stroke-width:1.0;"/></g><!--link ApplicationSession to UserSession--><g id="link_ApplicationSession_UserSession"><path codeLine="82" d="M697.75,330.68 C697.75,372.66 697.75,429.91 697.75,468.43 " fill="none" id="ApplicationSession-to-UserSession" style="stroke:#181818;stroke-width:1.0;"/><polygon fill="#181818" points="697.75,474.43,701.75,465.43,697.75,469.43,693.75,465.43,697.75,474.43" style="stroke:#181818;stroke-width:1.0;"/></g><!--link ToDoListController to ApplicationSession--><g id="link_ToDoListController_ApplicationSession"><path codeLine="83" d="M771.5,148.18 C771.5,180.43 771.5,211.55 771.5,239.43 " fill="none" id="ToDoListController-to-ApplicationSession" style="stroke:#181818;stroke-width:1.0;stroke-dasharray:7.0,7.0;"/><polygon fill="#181818" points="771.5,245.43,775.5,236.43,771.5,240.43,767.5,236.43,771.5,245.43" style="stroke:#181818;stroke-width:1.0;"/></g><!--link ToDoListController to UserSession--><g id="link_ToDoListController_UserSession"><path codeLine="84" d="M618.75,148.11 C618.75,242.09 618.75,398.55 618.75,468.44 " fill="none" id="ToDoListController-to-UserSession" style="stroke:#181818;stroke-width:1.0;stroke-dasharray:7.0,7.0;"/><polygon fill="#181818" points="618.75,474.44,622.75,465.44,618.75,469.44,614.75,465.44,618.75,474.44" style="stroke:#181818;stroke-width:1.0;"/></g><!--link Collaborator to ToDoList--><g id="link_Collaborator_ToDoList"><path codeLine="85" d="M1674.5,578.82 C1674.5,599.92 1674.5,617.85 1674.5,641.89 " fill="none" id="Collaborator-to-ToDoList" style="stroke:#181818;stroke-width:1.0;stroke-dasharray:7.0,7.0;"/><polygon fill="#181818" points="1674.5,647.89,1678.5,638.89,1674.5,642.89,1670.5,638.89,1674.5,647.89" style="stroke:#181818;stroke-width:1.0;"/><text fill="#000000" font-family="sans-serif" font-size="13" lengthAdjust="spacing" textLength="127" x="1546.5" y="609.3783">creat To Do List Entry</text></g><!--SRC=[lLN9Rjim4BthAtHKu0Kz6uK1DpOA0qKBLCa7CDH48KoJ0aabLOl-UuVKOfAYqERIawHPtxnPf2zCD4IHQzuGUY4rbARZa2kWXeYQGwOd0_r2Ald6H9q_4wvz3MS2JDT0taZUsO-KJYhp8Zq5vKJhWp6AFRK6pbIAals4_4EMEKt-88_o2zCc_vLjSaFqvGYQAjOO9iKkBz5FrAXfLGs2Tfu4VZI87gfZgqXlp8H1UQq0XCOouIkvWXz2WpfT2UEUJ1jYMZq9LXESOW7AEaQoJWDPB-1OHodNSrXt2AC6yn02AEuybAX-x674ubC4nkejBqxvEO0KkvOEs2pF2CzJ_8vwznqQgPcHgkkxE8YnIFluE9hjCIAfgcBKxwO06FgRgvBmm1hp7pWV9GxRB6BRLCJ0A3a9exgYbrNk8yZoAbc5FizCL9-wcE65bY-1wuDC_1n4vVWj9tvddHs6eeo7ObvMpF2zn58avw02Xc_4xnBDyCRvvb_OyQ8APfpzju67ODWNo0sxEepc8aG1RsMGvTRgS8HigGnIWpGoFj67PiZroi5drCOv2tmNr2sERpRiwun_QvVi2bhVOpF8aqG2fGezqXh45ut4uzcD0fqwkqjqsvuuIeImsh9_iQSpk88hBsG1yILIhRiXZisH8plp9MYDFN0K_ULC79g6C-f6nVTA4pit7WXhbG9X1fcrz51CgNpo73qY_0V4bVlsXGZ65X8tENKsvrKdi4GNadggyKhwviEb3D3vFk6Kt8PTmLM-mhlTC5LvONPB5btFbRVGrXO_xIDOj7_mZWRS9iSEri85UrV6p3ATk8_RVRYSmK9lDllKIivi5fPmeQMnH-Rjw7QVMil4dzE7bYLMnkhzaK-LZiaI-xDWwGSBzcRhOSvt_Sy21VbHkadDtV_Y3m00]--></g></svg>