<?xml version="1.0" encoding="us-ascii" standalone="no"?><svg xmlns="http://www.w3.org/2000/svg" xmlns:xlink="http://www.w3.org/1999/xlink" contentStyleType="text/css" height="885px" preserveAspectRatio="none" style="width:938px;height:885px;background:#FFFFFF;" version="1.1" viewBox="0 0 938 885" width="938px" zoomAndPan="magnify"><defs/><g><!--class ApplicationSession--><g id="elem_ApplicationSession"><rect codeLine="10" fill="#F1F1F1" height="85.2422" id="ApplicationSession" rx="2.5" ry="2.5" style="stroke:#181818;stroke-width:0.5;" width="151" x="644.5" y="198.5"/><ellipse cx="659.5" cy="214.5" fill="#ADD1B2" rx="11" ry="11" style="stroke:#181818;stroke-width:1.0;"/><path d="M662.2656,210.375 Q662.4219,210.1563 662.6094,210.0469 Q662.7969,209.9375 663.0156,209.9375 Q663.3906,209.9375 663.625,210.2031 Q663.8594,210.4531 663.8594,211.0625 L663.8594,212.5156 Q663.8594,213.125 663.625,213.3906 Q663.3906,213.6563 663.0156,213.6563 Q662.6719,213.6563 662.4688,213.4531 Q662.2656,213.2656 662.1563,212.75 Q662.1094,212.3906 661.9219,212.2031 Q661.5938,211.8281 660.9844,211.6094 Q660.375,211.3906 659.75,211.3906 Q658.9844,211.3906 658.3438,211.7188 Q657.7188,212.0469 657.2188,212.7969 Q656.7344,213.5469 656.7344,214.5781 L656.7344,215.6719 Q656.7344,216.9063 657.625,217.7344 Q658.5156,218.5469 660.1094,218.5469 Q661.0469,218.5469 661.7031,218.2969 Q662.0938,218.1406 662.5156,217.7031 Q662.7813,217.4375 662.9219,217.3594 Q663.0781,217.2813 663.2813,217.2813 Q663.6094,217.2813 663.8594,217.5469 Q664.125,217.7969 664.125,218.1406 Q664.125,218.4844 663.7813,218.8906 Q663.2813,219.4688 662.4844,219.7969 Q661.4063,220.25 660.1094,220.25 Q658.5938,220.25 657.3906,219.625 Q656.4063,219.125 655.7188,218.0625 Q655.0313,216.9844 655.0313,215.7031 L655.0313,214.5469 Q655.0313,213.2188 655.6406,212.0781 Q656.2656,210.9219 657.3594,210.3125 Q658.4531,209.6875 659.6875,209.6875 Q660.4219,209.6875 661.0625,209.8594 Q661.7188,210.0156 662.2656,210.375 Z " fill="#000000"/><text fill="#000000" font-family="sans-serif" font-size="14" lengthAdjust="spacing" textLength="119" x="673.5" y="220.2969">ApplicationSession</text><line style="stroke:#181818;stroke-width:0.5;" x1="645.5" x2="794.5" y1="230.5" y2="230.5"/><line style="stroke:#181818;stroke-width:0.5;" x1="645.5" x2="794.5" y1="238.5" y2="238.5"/><text fill="#000000" font-family="sans-serif" font-size="14" lengthAdjust="spacing" textLength="128" x="650.5" y="257.6074">+static getInstance()</text><text fill="#000000" font-family="sans-serif" font-size="14" lengthAdjust="spacing" textLength="136" x="650.5" y="276.2285">+getCurrentSession()</text></g><!--class UserSession--><g id="elem_UserSession"><rect codeLine="15" fill="#F1F1F1" height="66.6211" id="UserSession" rx="2.5" ry="2.5" style="stroke:#181818;stroke-width:0.5;" width="113" x="743.5" y="427.5"/><ellipse cx="759.4" cy="443.5" fill="#ADD1B2" rx="11" ry="11" style="stroke:#181818;stroke-width:1.0;"/><path d="M762.1656,439.375 Q762.3219,439.1563 762.5094,439.0469 Q762.6969,438.9375 762.9156,438.9375 Q763.2906,438.9375 763.525,439.2031 Q763.7594,439.4531 763.7594,440.0625 L763.7594,441.5156 Q763.7594,442.125 763.525,442.3906 Q763.2906,442.6563 762.9156,442.6563 Q762.5719,442.6563 762.3688,442.4531 Q762.1656,442.2656 762.0563,441.75 Q762.0094,441.3906 761.8219,441.2031 Q761.4938,440.8281 760.8844,440.6094 Q760.275,440.3906 759.65,440.3906 Q758.8844,440.3906 758.2438,440.7188 Q757.6188,441.0469 757.1188,441.7969 Q756.6344,442.5469 756.6344,443.5781 L756.6344,444.6719 Q756.6344,445.9063 757.525,446.7344 Q758.4156,447.5469 760.0094,447.5469 Q760.9469,447.5469 761.6031,447.2969 Q761.9938,447.1406 762.4156,446.7031 Q762.6813,446.4375 762.8219,446.3594 Q762.9781,446.2813 763.1813,446.2813 Q763.5094,446.2813 763.7594,446.5469 Q764.025,446.7969 764.025,447.1406 Q764.025,447.4844 763.6813,447.8906 Q763.1813,448.4688 762.3844,448.7969 Q761.3063,449.25 760.0094,449.25 Q758.4938,449.25 757.2906,448.625 Q756.3063,448.125 755.6188,447.0625 Q754.9313,445.9844 754.9313,444.7031 L754.9313,443.5469 Q754.9313,442.2188 755.5406,441.0781 Q756.1656,439.9219 757.2594,439.3125 Q758.3531,438.6875 759.5875,438.6875 Q760.3219,438.6875 760.9625,438.8594 Q761.6188,439.0156 762.1656,439.375 Z " fill="#000000"/><text fill="#000000" font-family="sans-serif" font-size="14" lengthAdjust="spacing" textLength="79" x="773.6" y="449.2969">UserSession</text><line style="stroke:#181818;stroke-width:0.5;" x1="744.5" x2="855.5" y1="459.5" y2="459.5"/><line style="stroke:#181818;stroke-width:0.5;" x1="744.5" x2="855.5" y1="467.5" y2="467.5"/><text fill="#000000" font-family="sans-serif" font-size="14" lengthAdjust="spacing" textLength="101" x="749.5" y="486.6074">+getUserEmail()</text></g><!--class GreenSpace--><g id="elem_GreenSpace"><rect codeLine="19" fill="#F1F1F1" height="215.5898" id="GreenSpace" rx="2.5" ry="2.5" style="stroke:#181818;stroke-width:0.5;" width="433" x="226.5" y="353"/><ellipse cx="398.75" cy="369" fill="#ADD1B2" rx="11" ry="11" style="stroke:#181818;stroke-width:1.0;"/><path d="M401.5156,364.875 Q401.6719,364.6563 401.8594,364.5469 Q402.0469,364.4375 402.2656,364.4375 Q402.6406,364.4375 402.875,364.7031 Q403.1094,364.9531 403.1094,365.5625 L403.1094,367.0156 Q403.1094,367.625 402.875,367.8906 Q402.6406,368.1563 402.2656,368.1563 Q401.9219,368.1563 401.7188,367.9531 Q401.5156,367.7656 401.4063,367.25 Q401.3594,366.8906 401.1719,366.7031 Q400.8438,366.3281 400.2344,366.1094 Q399.625,365.8906 399,365.8906 Q398.2344,365.8906 397.5938,366.2188 Q396.9688,366.5469 396.4688,367.2969 Q395.9844,368.0469 395.9844,369.0781 L395.9844,370.1719 Q395.9844,371.4063 396.875,372.2344 Q397.7656,373.0469 399.3594,373.0469 Q400.2969,373.0469 400.9531,372.7969 Q401.3438,372.6406 401.7656,372.2031 Q402.0313,371.9375 402.1719,371.8594 Q402.3281,371.7813 402.5313,371.7813 Q402.8594,371.7813 403.1094,372.0469 Q403.375,372.2969 403.375,372.6406 Q403.375,372.9844 403.0313,373.3906 Q402.5313,373.9688 401.7344,374.2969 Q400.6563,374.75 399.3594,374.75 Q397.8438,374.75 396.6406,374.125 Q395.6563,373.625 394.9688,372.5625 Q394.2813,371.4844 394.2813,370.2031 L394.2813,369.0469 Q394.2813,367.7188 394.8906,366.5781 Q395.5156,365.4219 396.6094,364.8125 Q397.7031,364.1875 398.9375,364.1875 Q399.6719,364.1875 400.3125,364.3594 Q400.9688,364.5156 401.5156,364.875 Z " fill="#000000"/><text fill="#000000" font-family="sans-serif" font-size="14" lengthAdjust="spacing" textLength="80" x="419.25" y="374.7969">GreenSpace</text><line style="stroke:#181818;stroke-width:0.5;" x1="227.5" x2="658.5" y1="385" y2="385"/><text fill="#000000" font-family="sans-serif" font-size="14" lengthAdjust="spacing" textLength="85" x="232.5" y="404.1074">-name: String</text><text fill="#000000" font-family="sans-serif" font-size="14" lengthAdjust="spacing" textLength="85" x="232.5" y="422.7285">-area: double</text><text fill="#000000" font-family="sans-serif" font-size="14" lengthAdjust="spacing" textLength="152" x="232.5" y="441.3496">-type: GreenSpaceType</text><line style="stroke:#181818;stroke-width:0.5;" x1="227.5" x2="658.5" y1="448.8633" y2="448.8633"/><text fill="#000000" font-family="sans-serif" font-size="14" lengthAdjust="spacing" textLength="421" x="232.5" y="467.9707">+GreenSpace(name: String, area: double, type: GreenSpaceType)</text><text fill="#000000" font-family="sans-serif" font-size="14" lengthAdjust="spacing" textLength="365" x="232.5" y="486.5918">+registerGreenSpace(repo: GreenSpaceRepository): void</text><text fill="#000000" font-family="sans-serif" font-size="14" lengthAdjust="spacing" textLength="119" x="232.5" y="505.2129">+getName(): String</text><text fill="#000000" font-family="sans-serif" font-size="14" lengthAdjust="spacing" textLength="119" x="232.5" y="523.834">+getArea(): double</text><text fill="#000000" font-family="sans-serif" font-size="14" lengthAdjust="spacing" textLength="190" x="232.5" y="542.4551">+getType(): GreenSpaceType</text><text fill="#000000" font-family="sans-serif" font-size="14" font-style="italic" lengthAdjust="spacing" textLength="138" x="232.5" y="561.0762">+displayDetails(): void</text></g><!--class Garden--><g id="elem_Garden"><rect codeLine="32" fill="#F1F1F1" height="85.2422" id="Garden" rx="2.5" ry="2.5" style="stroke:#181818;stroke-width:0.5;" width="246" x="7" y="793"/><ellipse cx="101.75" cy="809" fill="#ADD1B2" rx="11" ry="11" style="stroke:#181818;stroke-width:1.0;"/><path d="M104.5156,804.875 Q104.6719,804.6563 104.8594,804.5469 Q105.0469,804.4375 105.2656,804.4375 Q105.6406,804.4375 105.875,804.7031 Q106.1094,804.9531 106.1094,805.5625 L106.1094,807.0156 Q106.1094,807.625 105.875,807.8906 Q105.6406,808.1563 105.2656,808.1563 Q104.9219,808.1563 104.7188,807.9531 Q104.5156,807.7656 104.4063,807.25 Q104.3594,806.8906 104.1719,806.7031 Q103.8438,806.3281 103.2344,806.1094 Q102.625,805.8906 102,805.8906 Q101.2344,805.8906 100.5938,806.2188 Q99.9688,806.5469 99.4688,807.2969 Q98.9844,808.0469 98.9844,809.0781 L98.9844,810.1719 Q98.9844,811.4063 99.875,812.2344 Q100.7656,813.0469 102.3594,813.0469 Q103.2969,813.0469 103.9531,812.7969 Q104.3438,812.6406 104.7656,812.2031 Q105.0313,811.9375 105.1719,811.8594 Q105.3281,811.7813 105.5313,811.7813 Q105.8594,811.7813 106.1094,812.0469 Q106.375,812.2969 106.375,812.6406 Q106.375,812.9844 106.0313,813.3906 Q105.5313,813.9688 104.7344,814.2969 Q103.6563,814.75 102.3594,814.75 Q100.8438,814.75 99.6406,814.125 Q98.6563,813.625 97.9688,812.5625 Q97.2813,811.4844 97.2813,810.2031 L97.2813,809.0469 Q97.2813,807.7188 97.8906,806.5781 Q98.5156,805.4219 99.6094,804.8125 Q100.7031,804.1875 101.9375,804.1875 Q102.6719,804.1875 103.3125,804.3594 Q103.9688,804.5156 104.5156,804.875 Z " fill="#000000"/><text fill="#000000" font-family="sans-serif" font-size="14" lengthAdjust="spacing" textLength="48" x="122.25" y="814.7969">Garden</text><line style="stroke:#181818;stroke-width:0.5;" x1="8" x2="252" y1="825" y2="825"/><line style="stroke:#181818;stroke-width:0.5;" x1="8" x2="252" y1="833" y2="833"/><text fill="#000000" font-family="sans-serif" font-size="14" lengthAdjust="spacing" textLength="234" x="13" y="852.1074">+Garden(name: String, area: double)</text><text fill="#000000" font-family="sans-serif" font-size="14" lengthAdjust="spacing" textLength="139" x="13" y="870.7285">+displayDetails(): void</text></g><!--class MediumSizedPark--><g id="elem_MediumSizedPark"><rect codeLine="37" fill="#F1F1F1" height="85.2422" id="MediumSizedPark" rx="2.5" ry="2.5" style="stroke:#181818;stroke-width:0.5;" width="310" x="288" y="793"/><ellipse cx="382.75" cy="809" fill="#ADD1B2" rx="11" ry="11" style="stroke:#181818;stroke-width:1.0;"/><path d="M385.5156,804.875 Q385.6719,804.6563 385.8594,804.5469 Q386.0469,804.4375 386.2656,804.4375 Q386.6406,804.4375 386.875,804.7031 Q387.1094,804.9531 387.1094,805.5625 L387.1094,807.0156 Q387.1094,807.625 386.875,807.8906 Q386.6406,808.1563 386.2656,808.1563 Q385.9219,808.1563 385.7188,807.9531 Q385.5156,807.7656 385.4063,807.25 Q385.3594,806.8906 385.1719,806.7031 Q384.8438,806.3281 384.2344,806.1094 Q383.625,805.8906 383,805.8906 Q382.2344,805.8906 381.5938,806.2188 Q380.9688,806.5469 380.4688,807.2969 Q379.9844,808.0469 379.9844,809.0781 L379.9844,810.1719 Q379.9844,811.4063 380.875,812.2344 Q381.7656,813.0469 383.3594,813.0469 Q384.2969,813.0469 384.9531,812.7969 Q385.3438,812.6406 385.7656,812.2031 Q386.0313,811.9375 386.1719,811.8594 Q386.3281,811.7813 386.5313,811.7813 Q386.8594,811.7813 387.1094,812.0469 Q387.375,812.2969 387.375,812.6406 Q387.375,812.9844 387.0313,813.3906 Q386.5313,813.9688 385.7344,814.2969 Q384.6563,814.75 383.3594,814.75 Q381.8438,814.75 380.6406,814.125 Q379.6563,813.625 378.9688,812.5625 Q378.2813,811.4844 378.2813,810.2031 L378.2813,809.0469 Q378.2813,807.7188 378.8906,806.5781 Q379.5156,805.4219 380.6094,804.8125 Q381.7031,804.1875 382.9375,804.1875 Q383.6719,804.1875 384.3125,804.3594 Q384.9688,804.5156 385.5156,804.875 Z " fill="#000000"/><text fill="#000000" font-family="sans-serif" font-size="14" lengthAdjust="spacing" textLength="112" x="403.25" y="814.7969">MediumSizedPark</text><line style="stroke:#181818;stroke-width:0.5;" x1="289" x2="597" y1="825" y2="825"/><line style="stroke:#181818;stroke-width:0.5;" x1="289" x2="597" y1="833" y2="833"/><text fill="#000000" font-family="sans-serif" font-size="14" lengthAdjust="spacing" textLength="298" x="294" y="852.1074">+MediumSizedPark(name: String, area: double)</text><text fill="#000000" font-family="sans-serif" font-size="14" lengthAdjust="spacing" textLength="139" x="294" y="870.7285">+displayDetails(): void</text></g><!--class LargeSizedPark--><g id="elem_LargeSizedPark"><rect codeLine="42" fill="#F1F1F1" height="85.2422" id="LargeSizedPark" rx="2.5" ry="2.5" style="stroke:#181818;stroke-width:0.5;" width="298" x="633" y="793"/><ellipse cx="727.75" cy="809" fill="#ADD1B2" rx="11" ry="11" style="stroke:#181818;stroke-width:1.0;"/><path d="M730.5156,804.875 Q730.6719,804.6563 730.8594,804.5469 Q731.0469,804.4375 731.2656,804.4375 Q731.6406,804.4375 731.875,804.7031 Q732.1094,804.9531 732.1094,805.5625 L732.1094,807.0156 Q732.1094,807.625 731.875,807.8906 Q731.6406,808.1563 731.2656,808.1563 Q730.9219,808.1563 730.7188,807.9531 Q730.5156,807.7656 730.4063,807.25 Q730.3594,806.8906 730.1719,806.7031 Q729.8438,806.3281 729.2344,806.1094 Q728.625,805.8906 728,805.8906 Q727.2344,805.8906 726.5938,806.2188 Q725.9688,806.5469 725.4688,807.2969 Q724.9844,808.0469 724.9844,809.0781 L724.9844,810.1719 Q724.9844,811.4063 725.875,812.2344 Q726.7656,813.0469 728.3594,813.0469 Q729.2969,813.0469 729.9531,812.7969 Q730.3438,812.6406 730.7656,812.2031 Q731.0313,811.9375 731.1719,811.8594 Q731.3281,811.7813 731.5313,811.7813 Q731.8594,811.7813 732.1094,812.0469 Q732.375,812.2969 732.375,812.6406 Q732.375,812.9844 732.0313,813.3906 Q731.5313,813.9688 730.7344,814.2969 Q729.6563,814.75 728.3594,814.75 Q726.8438,814.75 725.6406,814.125 Q724.6563,813.625 723.9688,812.5625 Q723.2813,811.4844 723.2813,810.2031 L723.2813,809.0469 Q723.2813,807.7188 723.8906,806.5781 Q724.5156,805.4219 725.6094,804.8125 Q726.7031,804.1875 727.9375,804.1875 Q728.6719,804.1875 729.3125,804.3594 Q729.9688,804.5156 730.5156,804.875 Z " fill="#000000"/><text fill="#000000" font-family="sans-serif" font-size="14" lengthAdjust="spacing" textLength="100" x="748.25" y="814.7969">LargeSizedPark</text><line style="stroke:#181818;stroke-width:0.5;" x1="634" x2="930" y1="825" y2="825"/><line style="stroke:#181818;stroke-width:0.5;" x1="634" x2="930" y1="833" y2="833"/><text fill="#000000" font-family="sans-serif" font-size="14" lengthAdjust="spacing" textLength="286" x="639" y="852.1074">+LargeSizedPark(name: String, area: double)</text><text fill="#000000" font-family="sans-serif" font-size="14" lengthAdjust="spacing" textLength="139" x="639" y="870.7285">+displayDetails(): void</text></g><!--class GreenSpaceRepository--><g id="elem_GreenSpaceRepository"><rect codeLine="47" fill="#F1F1F1" height="103.8633" id="GreenSpaceRepository" rx="2.5" ry="2.5" style="stroke:#181818;stroke-width:0.5;" width="333" x="276.5" y="189"/><ellipse cx="364.75" cy="205" fill="#ADD1B2" rx="11" ry="11" style="stroke:#181818;stroke-width:1.0;"/><path d="M367.5156,200.875 Q367.6719,200.6563 367.8594,200.5469 Q368.0469,200.4375 368.2656,200.4375 Q368.6406,200.4375 368.875,200.7031 Q369.1094,200.9531 369.1094,201.5625 L369.1094,203.0156 Q369.1094,203.625 368.875,203.8906 Q368.6406,204.1563 368.2656,204.1563 Q367.9219,204.1563 367.7188,203.9531 Q367.5156,203.7656 367.4063,203.25 Q367.3594,202.8906 367.1719,202.7031 Q366.8438,202.3281 366.2344,202.1094 Q365.625,201.8906 365,201.8906 Q364.2344,201.8906 363.5938,202.2188 Q362.9688,202.5469 362.4688,203.2969 Q361.9844,204.0469 361.9844,205.0781 L361.9844,206.1719 Q361.9844,207.4063 362.875,208.2344 Q363.7656,209.0469 365.3594,209.0469 Q366.2969,209.0469 366.9531,208.7969 Q367.3438,208.6406 367.7656,208.2031 Q368.0313,207.9375 368.1719,207.8594 Q368.3281,207.7813 368.5313,207.7813 Q368.8594,207.7813 369.1094,208.0469 Q369.375,208.2969 369.375,208.6406 Q369.375,208.9844 369.0313,209.3906 Q368.5313,209.9688 367.7344,210.2969 Q366.6563,210.75 365.3594,210.75 Q363.8438,210.75 362.6406,210.125 Q361.6563,209.625 360.9688,208.5625 Q360.2813,207.4844 360.2813,206.2031 L360.2813,205.0469 Q360.2813,203.7188 360.8906,202.5781 Q361.5156,201.4219 362.6094,200.8125 Q363.7031,200.1875 364.9375,200.1875 Q365.6719,200.1875 366.3125,200.3594 Q366.9688,200.5156 367.5156,200.875 Z " fill="#000000"/><text fill="#000000" font-family="sans-serif" font-size="14" lengthAdjust="spacing" textLength="148" x="385.25" y="210.7969">GreenSpaceRepository</text><line style="stroke:#181818;stroke-width:0.5;" x1="277.5" x2="608.5" y1="221" y2="221"/><text fill="#000000" font-family="sans-serif" font-size="14" lengthAdjust="spacing" textLength="215" x="282.5" y="240.1074">-greenSpaces: List&lt;GreenSpace&gt;</text><line style="stroke:#181818;stroke-width:0.5;" x1="277.5" x2="608.5" y1="247.6211" y2="247.6211"/><text fill="#000000" font-family="sans-serif" font-size="14" lengthAdjust="spacing" textLength="321" x="282.5" y="266.7285">+addGreenSpace(greenSpace: GreenSpace): void</text><text fill="#000000" font-family="sans-serif" font-size="14" lengthAdjust="spacing" textLength="251" x="282.5" y="285.3496">+getGreenSpaces(): List&lt;GreenSpace&gt;</text></g><!--class RegisterGreenSpaceController--><g id="elem_RegisterGreenSpaceController"><rect codeLine="54" fill="#F1F1F1" height="122.4844" id="RegisterGreenSpaceController" rx="2.5" ry="2.5" style="stroke:#181818;stroke-width:0.5;" width="410" x="376" y="7"/><ellipse cx="479.25" cy="23" fill="#ADD1B2" rx="11" ry="11" style="stroke:#181818;stroke-width:1.0;"/><path d="M482.0156,18.875 Q482.1719,18.6563 482.3594,18.5469 Q482.5469,18.4375 482.7656,18.4375 Q483.1406,18.4375 483.375,18.7031 Q483.6094,18.9531 483.6094,19.5625 L483.6094,21.0156 Q483.6094,21.625 483.375,21.8906 Q483.1406,22.1563 482.7656,22.1563 Q482.4219,22.1563 482.2188,21.9531 Q482.0156,21.7656 481.9063,21.25 Q481.8594,20.8906 481.6719,20.7031 Q481.3438,20.3281 480.7344,20.1094 Q480.125,19.8906 479.5,19.8906 Q478.7344,19.8906 478.0938,20.2188 Q477.4688,20.5469 476.9688,21.2969 Q476.4844,22.0469 476.4844,23.0781 L476.4844,24.1719 Q476.4844,25.4063 477.375,26.2344 Q478.2656,27.0469 479.8594,27.0469 Q480.7969,27.0469 481.4531,26.7969 Q481.8438,26.6406 482.2656,26.2031 Q482.5313,25.9375 482.6719,25.8594 Q482.8281,25.7813 483.0313,25.7813 Q483.3594,25.7813 483.6094,26.0469 Q483.875,26.2969 483.875,26.6406 Q483.875,26.9844 483.5313,27.3906 Q483.0313,27.9688 482.2344,28.2969 Q481.1563,28.75 479.8594,28.75 Q478.3438,28.75 477.1406,28.125 Q476.1563,27.625 475.4688,26.5625 Q474.7813,25.4844 474.7813,24.2031 L474.7813,23.0469 Q474.7813,21.7188 475.3906,20.5781 Q476.0156,19.4219 477.1094,18.8125 Q478.2031,18.1875 479.4375,18.1875 Q480.1719,18.1875 480.8125,18.3594 Q481.4688,18.5156 482.0156,18.875 Z " fill="#000000"/><text fill="#000000" font-family="sans-serif" font-size="14" lengthAdjust="spacing" textLength="195" x="499.75" y="28.7969">RegisterGreenSpaceController</text><line style="stroke:#181818;stroke-width:0.5;" x1="377" x2="785" y1="39" y2="39"/><text fill="#000000" font-family="sans-serif" font-size="14" lengthAdjust="spacing" textLength="190" x="382" y="58.1074">-repo: GreenSpaceRepository</text><line style="stroke:#181818;stroke-width:0.5;" x1="377" x2="785" y1="65.6211" y2="65.6211"/><text fill="#000000" font-family="sans-serif" font-size="14" lengthAdjust="spacing" textLength="398" x="382" y="84.7285">+RegisterGreenSpaceController(repo: GreenSpaceRepository)</text><text fill="#000000" font-family="sans-serif" font-size="14" lengthAdjust="spacing" textLength="345" x="382" y="103.3496">+registerGreenSpace(greenSpace: GreenSpace): void</text><text fill="#000000" font-family="sans-serif" font-size="14" lengthAdjust="spacing" textLength="266" x="382" y="121.9707">+getAllGreenSpaces(): List&lt;GreenSpace&gt;</text></g><!--class GreenSpaceType--><g id="elem_GreenSpaceType"><rect codeLine="62" fill="#F1F1F1" height="103.8633" id="GreenSpaceType" rx="2.5" ry="2.5" style="stroke:#181818;stroke-width:0.5;" width="157" x="364.5" y="629"/><ellipse cx="385.35" cy="645" fill="#EB937F" rx="11" ry="11" style="stroke:#181818;stroke-width:1.0;"/><path d="M384.2094,645.7969 L384.2094,648.2969 L388.5375,648.2969 L388.5375,647.375 Q388.5375,646.7656 388.7719,646.5 Q389.0219,646.2344 389.3969,646.2344 Q389.7719,646.2344 390.0063,646.5 Q390.2406,646.7656 390.2406,647.375 L390.2406,650 L382.2406,650 Q381.6156,650 381.35,649.7656 Q381.1,649.5313 381.1,649.1406 Q381.1,648.7656 381.3656,648.5313 Q381.6313,648.2969 382.2406,648.2969 L382.5063,648.2969 L382.5063,641.6406 L382.2406,641.6406 Q381.6156,641.6406 381.35,641.4063 Q381.1,641.1719 381.1,640.7813 Q381.1,640.4063 381.35,640.1719 Q381.6156,639.9375 382.2406,639.9375 L389.8656,639.9375 L389.8656,642.5313 Q389.8656,643.1406 389.6313,643.4063 Q389.4125,643.6563 389.0219,643.6563 Q388.6469,643.6563 388.4125,643.4063 Q388.1781,643.1406 388.1781,642.5313 L388.1781,641.6406 L384.2094,641.6406 L384.2094,644.0938 L385.6938,644.0938 Q385.6938,643.4375 385.8188,643.25 Q386.0844,642.8438 386.5531,642.8438 Q386.9281,642.8438 387.1625,643.1094 Q387.3969,643.3594 387.3969,643.9688 L387.3969,645.9375 Q387.3969,646.4844 387.2719,646.6719 Q387.0063,647.0625 386.5531,647.0625 Q386.0844,647.0625 385.8188,646.6563 Q385.6938,646.4688 385.6938,645.7969 L384.2094,645.7969 Z " fill="#000000"/><text fill="#000000" font-family="sans-serif" font-size="14" lengthAdjust="spacing" textLength="112" x="400.65" y="650.7969">GreenSpaceType</text><line style="stroke:#181818;stroke-width:0.5;" x1="365.5" x2="520.5" y1="661" y2="661"/><text fill="#000000" font-family="sans-serif" font-size="14" lengthAdjust="spacing" textLength="58" x="370.5" y="680.1074">GARDEN</text><text fill="#000000" font-family="sans-serif" font-size="14" lengthAdjust="spacing" textLength="145" x="370.5" y="698.7285">MEDIUM_SIZED_PARK</text><text fill="#000000" font-family="sans-serif" font-size="14" lengthAdjust="spacing" textLength="139" x="370.5" y="717.3496">LARGE_SIZED_PARK</text><line style="stroke:#181818;stroke-width:0.5;" x1="365.5" x2="520.5" y1="724.8633" y2="724.8633"/></g><!--class Repositories--><g id="elem_Repositories"><rect fill="#F1F1F1" height="48" id="Repositories" rx="2.5" ry="2.5" style="stroke:#181818;stroke-width:0.5;" width="111" x="112.5" y="217"/><ellipse cx="127.5" cy="233" fill="#ADD1B2" rx="11" ry="11" style="stroke:#181818;stroke-width:1.0;"/><path d="M130.2656,228.875 Q130.4219,228.6563 130.6094,228.5469 Q130.7969,228.4375 131.0156,228.4375 Q131.3906,228.4375 131.625,228.7031 Q131.8594,228.9531 131.8594,229.5625 L131.8594,231.0156 Q131.8594,231.625 131.625,231.8906 Q131.3906,232.1563 131.0156,232.1563 Q130.6719,232.1563 130.4688,231.9531 Q130.2656,231.7656 130.1563,231.25 Q130.1094,230.8906 129.9219,230.7031 Q129.5938,230.3281 128.9844,230.1094 Q128.375,229.8906 127.75,229.8906 Q126.9844,229.8906 126.3438,230.2188 Q125.7188,230.5469 125.2188,231.2969 Q124.7344,232.0469 124.7344,233.0781 L124.7344,234.1719 Q124.7344,235.4063 125.625,236.2344 Q126.5156,237.0469 128.1094,237.0469 Q129.0469,237.0469 129.7031,236.7969 Q130.0938,236.6406 130.5156,236.2031 Q130.7813,235.9375 130.9219,235.8594 Q131.0781,235.7813 131.2813,235.7813 Q131.6094,235.7813 131.8594,236.0469 Q132.125,236.2969 132.125,236.6406 Q132.125,236.9844 131.7813,237.3906 Q131.2813,237.9688 130.4844,238.2969 Q129.4063,238.75 128.1094,238.75 Q126.5938,238.75 125.3906,238.125 Q124.4063,237.625 123.7188,236.5625 Q123.0313,235.4844 123.0313,234.2031 L123.0313,233.0469 Q123.0313,231.7188 123.6406,230.5781 Q124.2656,229.4219 125.3594,228.8125 Q126.4531,228.1875 127.6875,228.1875 Q128.4219,228.1875 129.0625,228.3594 Q129.7188,228.5156 130.2656,228.875 Z " fill="#000000"/><text fill="#000000" font-family="sans-serif" font-size="14" lengthAdjust="spacing" textLength="79" x="141.5" y="238.7969">Repositories</text><line style="stroke:#181818;stroke-width:0.5;" x1="113.5" x2="222.5" y1="249" y2="249"/><line style="stroke:#181818;stroke-width:0.5;" x1="113.5" x2="222.5" y1="257" y2="257"/></g><!--class RegisterGreenSpaceUI--><g id="elem_RegisterGreenSpaceUI"><rect fill="#F1F1F1" height="48" id="RegisterGreenSpaceUI" rx="2.5" ry="2.5" style="stroke:#181818;stroke-width:0.5;" width="177" x="163.5" y="44"/><ellipse cx="178.5" cy="60" fill="#ADD1B2" rx="11" ry="11" style="stroke:#181818;stroke-width:1.0;"/><path d="M181.2656,55.875 Q181.4219,55.6563 181.6094,55.5469 Q181.7969,55.4375 182.0156,55.4375 Q182.3906,55.4375 182.625,55.7031 Q182.8594,55.9531 182.8594,56.5625 L182.8594,58.0156 Q182.8594,58.625 182.625,58.8906 Q182.3906,59.1563 182.0156,59.1563 Q181.6719,59.1563 181.4688,58.9531 Q181.2656,58.7656 181.1563,58.25 Q181.1094,57.8906 180.9219,57.7031 Q180.5938,57.3281 179.9844,57.1094 Q179.375,56.8906 178.75,56.8906 Q177.9844,56.8906 177.3438,57.2188 Q176.7188,57.5469 176.2188,58.2969 Q175.7344,59.0469 175.7344,60.0781 L175.7344,61.1719 Q175.7344,62.4063 176.625,63.2344 Q177.5156,64.0469 179.1094,64.0469 Q180.0469,64.0469 180.7031,63.7969 Q181.0938,63.6406 181.5156,63.2031 Q181.7813,62.9375 181.9219,62.8594 Q182.0781,62.7813 182.2813,62.7813 Q182.6094,62.7813 182.8594,63.0469 Q183.125,63.2969 183.125,63.6406 Q183.125,63.9844 182.7813,64.3906 Q182.2813,64.9688 181.4844,65.2969 Q180.4063,65.75 179.1094,65.75 Q177.5938,65.75 176.3906,65.125 Q175.4063,64.625 174.7188,63.5625 Q174.0313,62.4844 174.0313,61.2031 L174.0313,60.0469 Q174.0313,58.7188 174.6406,57.5781 Q175.2656,56.4219 176.3594,55.8125 Q177.4531,55.1875 178.6875,55.1875 Q179.4219,55.1875 180.0625,55.3594 Q180.7188,55.5156 181.2656,55.875 Z " fill="#000000"/><text fill="#000000" font-family="sans-serif" font-size="14" lengthAdjust="spacing" textLength="145" x="192.5" y="65.7969">RegisterGreenSpaceUI</text><line style="stroke:#181818;stroke-width:0.5;" x1="164.5" x2="339.5" y1="76" y2="76"/><line style="stroke:#181818;stroke-width:0.5;" x1="164.5" x2="339.5" y1="84" y2="84"/></g><!--link ApplicationSession to UserSession--><g id="link_ApplicationSession_UserSession"><path codeLine="68" d="M769.5,283.68 C769.5,325.66 769.5,382.91 769.5,421.43 " fill="none" id="ApplicationSession-to-UserSession" style="stroke:#181818;stroke-width:1.0;"/><polygon fill="#181818" points="769.5,427.43,773.5,418.43,769.5,422.43,765.5,418.43,769.5,427.43" style="stroke:#181818;stroke-width:1.0;"/><text fill="#000000" font-family="sans-serif" font-size="13" lengthAdjust="spacing" textLength="72" x="696.5" y="351.5783">userSession</text><text fill="#000000" font-family="sans-serif" font-size="13" lengthAdjust="spacing" textLength="7" x="755.8063" y="416.2417">1</text></g><!--link RegisterGreenSpaceController to ApplicationSession--><g id="link_RegisterGreenSpaceController_ApplicationSession"><path codeLine="70" d="M715.25,129.48 C715.25,152.3 715.25,171.67 715.25,192.44 " fill="none" id="RegisterGreenSpaceController-to-ApplicationSession" style="stroke:#181818;stroke-width:1.0;stroke-dasharray:7.0,7.0;"/><polygon fill="#181818" points="715.25,198.44,719.25,189.44,715.25,193.44,711.25,189.44,715.25,198.44" style="stroke:#181818;stroke-width:1.0;"/></g><!--link RegisterGreenSpaceController to UserSession--><g id="link_RegisterGreenSpaceController_UserSession"><path codeLine="71" d="M786.09,68 C809.96,68 826,68 826,68 C826,68 826,326.45 826,421.49 " fill="none" id="RegisterGreenSpaceController-to-UserSession" style="stroke:#181818;stroke-width:1.0;stroke-dasharray:7.0,7.0;"/><polygon fill="#181818" points="826,427.49,830,418.49,826,422.49,822,418.49,826,427.49" style="stroke:#181818;stroke-width:1.0;"/></g><!--link Repositories to Repositories--><g id="link_Repositories_Repositories"><path codeLine="73" d="M203.5,216.72 C203.5,209.27 203.5,203 203.5,203 C203.5,203 251.5,203 251.5,203 C251.5,203 251.5,279 251.5,279 C251.5,279 168,279 168,279 C168,279 168,278.73 168,271.28 " fill="none" id="Repositories-to-Repositories" style="stroke:#181818;stroke-width:1.0;"/><polygon fill="#181818" points="168,265.28,164,274.28,168,270.28,172,274.28,168,265.28" style="stroke:#181818;stroke-width:1.0;"/><text fill="#000000" font-family="sans-serif" font-size="13" lengthAdjust="spacing" textLength="49" x="211.75" y="278.7783">instance</text></g><!--link RegisterGreenSpaceUI to RegisterGreenSpaceController--><g id="link_RegisterGreenSpaceUI_RegisterGreenSpaceController"><path codeLine="75" d="M340.6,68 C351.83,68 357.66,68 369.81,68 " fill="none" id="RegisterGreenSpaceUI-to-RegisterGreenSpaceController" style="stroke:#181818;stroke-width:1.0;stroke-dasharray:7.0,7.0;"/><polygon fill="#181818" points="375.81,68,366.81,64,370.81,68,366.81,72,375.81,68" style="stroke:#181818;stroke-width:1.0;"/></g><!--link RegisterGreenSpaceController to Repositories--><g id="link_RegisterGreenSpaceController_Repositories"><path codeLine="77" d="M375.85,111 C278.65,111 183.5,111 183.5,111 C183.5,111 183.5,173.26 183.5,210.85 " fill="none" id="RegisterGreenSpaceController-to-Repositories" style="stroke:#181818;stroke-width:1.0;stroke-dasharray:7.0,7.0;"/><polygon fill="#181818" points="183.5,216.85,187.5,207.85,183.5,211.85,179.5,207.85,183.5,216.85" style="stroke:#181818;stroke-width:1.0;"/><text fill="#000000" font-family="sans-serif" font-size="13" lengthAdjust="spacing" textLength="67" x="158.75" y="107.0283">repositories</text></g><!--link Repositories to GreenSpaceRepository--><g id="link_Repositories_GreenSpaceRepository"><path codeLine="79" d="M223.65,241 C239.42,241 251.46,241 270.25,241 " fill="none" id="Repositories-to-GreenSpaceRepository" style="stroke:#181818;stroke-width:1.0;"/><polygon fill="#181818" points="276.25,241,267.25,237,271.25,241,267.25,245,276.25,241" style="stroke:#181818;stroke-width:1.0;"/><text fill="#000000" font-family="sans-serif" font-size="13" lengthAdjust="spacing" textLength="7" x="261.5355" y="237.6529">1</text></g><!--link RegisterGreenSpaceController to GreenSpaceRepository--><g id="link_RegisterGreenSpaceController_GreenSpaceRepository"><path codeLine="81" d="M492.75,129.48 C492.75,148.9 492.75,164.17 492.75,182.87 " fill="none" id="RegisterGreenSpaceController-to-GreenSpaceRepository" style="stroke:#181818;stroke-width:1.0;stroke-dasharray:7.0,7.0;"/><polygon fill="#181818" points="492.75,188.87,496.75,179.87,492.75,183.87,488.75,179.87,492.75,188.87" style="stroke:#181818;stroke-width:1.0;"/><text fill="#000000" font-family="sans-serif" font-size="13" lengthAdjust="spacing" textLength="28" x="463.75" y="155.2083">uses</text></g><!--link GreenSpaceType to Garden--><g id="link_GreenSpaceType_Garden"><path codeLine="83" d="M364.42,681 C307.22,681 239.75,681 239.75,681 C239.75,681 239.75,741.14 239.75,786.87 " fill="none" id="GreenSpaceType-to-Garden" style="stroke:#181818;stroke-width:1.0;"/><polygon fill="#181818" points="239.75,792.87,243.75,783.87,239.75,787.87,235.75,783.87,239.75,792.87" style="stroke:#181818;stroke-width:1.0;"/><text fill="#000000" font-family="sans-serif" font-size="13" lengthAdjust="spacing" textLength="39" x="206.15" y="677.0283">can be</text></g><!--link GreenSpaceType to MediumSizedPark--><g id="link_GreenSpaceType_MediumSizedPark"><path codeLine="84" d="M443,733.31 C443,752.74 443,768.53 443,786.99 " fill="none" id="GreenSpaceType-to-MediumSizedPark" style="stroke:#181818;stroke-width:1.0;"/><polygon fill="#181818" points="443,792.99,447,783.99,443,787.99,439,783.99,443,792.99" style="stroke:#181818;stroke-width:1.0;"/><text fill="#000000" font-family="sans-serif" font-size="13" lengthAdjust="spacing" textLength="39" x="403" y="759.1783">can be</text></g><!--link GreenSpaceType to LargeSizedPark--><g id="link_GreenSpaceType_LargeSizedPark"><path codeLine="85" d="M521.58,681 C578.78,681 646.25,681 646.25,681 C646.25,681 646.25,741.14 646.25,786.87 " fill="none" id="GreenSpaceType-to-LargeSizedPark" style="stroke:#181818;stroke-width:1.0;"/><polygon fill="#181818" points="646.25,792.87,650.25,783.87,646.25,787.87,642.25,783.87,646.25,792.87" style="stroke:#181818;stroke-width:1.0;"/><text fill="#000000" font-family="sans-serif" font-size="13" lengthAdjust="spacing" textLength="39" x="599.85" y="677.0283">can be</text></g><!--link GreenSpace to GreenSpaceType--><g id="link_GreenSpace_GreenSpaceType"><path codeLine="87" d="M443,569.07 C443,589.93 443,604.89 443,622.93 " fill="none" id="GreenSpace-to-GreenSpaceType" style="stroke:#181818;stroke-width:1.0;"/><polygon fill="#181818" points="443,628.93,447,619.93,443,623.93,439,619.93,443,628.93" style="stroke:#181818;stroke-width:1.0;"/><text fill="#000000" font-family="sans-serif" font-size="13" lengthAdjust="spacing" textLength="21" x="421" y="595.0283">has</text><text fill="#000000" font-family="sans-serif" font-size="13" lengthAdjust="spacing" textLength="7" x="435.5297" y="617.848">1</text></g><!--link GreenSpaceRepository to GreenSpace--><g id="link_GreenSpaceRepository_GreenSpace"><path codeLine="89" d="M443,293.14 C443,311.18 443,326.13 443,346.98 " fill="none" id="GreenSpaceRepository-to-GreenSpace" style="stroke:#181818;stroke-width:1.0;"/><polygon fill="#181818" points="443,352.98,447,343.98,443,347.98,439,343.98,443,352.98" style="stroke:#181818;stroke-width:1.0;"/><text fill="#000000" font-family="sans-serif" font-size="13" lengthAdjust="spacing" textLength="79" x="444" y="319.0883">GreenSpaces</text><text fill="#000000" font-family="sans-serif" font-size="13" lengthAdjust="spacing" textLength="7" x="435.5516" y="314.9652">1</text><text fill="#000000" font-family="sans-serif" font-size="13" lengthAdjust="spacing" textLength="5" x="437.8242" y="341.8402">*</text></g><!--SRC=[hLHBR-8m4BxdLunwWjs2kjTeXHGLX52Xgc2vxAKQaccmC4vaExjYg_xtjTCyd4T33-L2vfldD_viTM8YHObdI34yOKmxVU44aaAD8kRagIf07J5A_Z8HmmjovNeu4wGlAK6Qy8ir-do9rCV4SpmXHwK2hIKxP9fMOI9sx1_1dUTvkGk2DEKiHCsCXvGoV_3gWVbz1wKD749CUYNCjmXfD2vS1hlFf2IXYoJZUIjBxXN9TYsJOE756HbtOvUIIEpCMgW8dO30C_cmCoEBk81G4leG9Td1BEiTidHz9_sNiRsYMOsEt6AtZJgtlILAWf9YfZH9fvIaD773jyPMJ2VoClRXJyAYckgZwJeQDqZaU63wMznXakEsiyLRTAp_5GzAImprcmcDc4evNkQapHhLgEnRRnDbHFNItys17PHihzNTKCIoirLEz8JoL3LeuL_GQOtIN8zEeoRy1NtwZh5IO5mvbGzheuEVTVYi51b6aIEEEiKznOumQbS-KwTsDT-sex_xH6YPS4woclDZHPP33fKP4lJ7j-2JH0FEFy6LH7PkYRuWjmosyyLZ_hbPp5VxpVDkzNinVtuAjWyvkWwsouKBcd8zRzbaCeER7pUDDyc7hBOyRt3Lq-civucydhDlTYWMoqY16QXX-y2ArxLlbFqAfhF1Oxn6eDDEEcPtDhkiVaLTvTnxf_9bcpwjKxRdKhnMFeGeu41z8Us7PoYszNHKeKvi9OTMkWz7RCpe4B3XUTetDmrSzIllFm00]--></g></svg>