<?xml version="1.0" encoding="us-ascii" standalone="no"?><svg xmlns="http://www.w3.org/2000/svg" xmlns:xlink="http://www.w3.org/1999/xlink" contentStyleType="text/css" height="1093px" preserveAspectRatio="none" style="width:1962px;height:1093px;background:#FFFFFF;" version="1.1" viewBox="0 0 1962 1093" width="1962px" zoomAndPan="magnify"><defs/><g><!--class ApplicationSession--><g id="elem_ApplicationSession"><rect codeLine="8" fill="#F1F1F1" height="85.2422" id="ApplicationSession" rx="2.5" ry="2.5" style="stroke:#181818;stroke-width:0.5;" width="151" x="1682" y="375.5"/><ellipse cx="1697" cy="391.5" fill="#ADD1B2" rx="11" ry="11" style="stroke:#181818;stroke-width:1.0;"/><path d="M1699.7656,387.375 Q1699.9219,387.1563 1700.1094,387.0469 Q1700.2969,386.9375 1700.5156,386.9375 Q1700.8906,386.9375 1701.125,387.2031 Q1701.3594,387.4531 1701.3594,388.0625 L1701.3594,389.5156 Q1701.3594,390.125 1701.125,390.3906 Q1700.8906,390.6563 1700.5156,390.6563 Q1700.1719,390.6563 1699.9688,390.4531 Q1699.7656,390.2656 1699.6563,389.75 Q1699.6094,389.3906 1699.4219,389.2031 Q1699.0938,388.8281 1698.4844,388.6094 Q1697.875,388.3906 1697.25,388.3906 Q1696.4844,388.3906 1695.8438,388.7188 Q1695.2188,389.0469 1694.7188,389.7969 Q1694.2344,390.5469 1694.2344,391.5781 L1694.2344,392.6719 Q1694.2344,393.9063 1695.125,394.7344 Q1696.0156,395.5469 1697.6094,395.5469 Q1698.5469,395.5469 1699.2031,395.2969 Q1699.5938,395.1406 1700.0156,394.7031 Q1700.2813,394.4375 1700.4219,394.3594 Q1700.5781,394.2813 1700.7813,394.2813 Q1701.1094,394.2813 1701.3594,394.5469 Q1701.625,394.7969 1701.625,395.1406 Q1701.625,395.4844 1701.2813,395.8906 Q1700.7813,396.4688 1699.9844,396.7969 Q1698.9063,397.25 1697.6094,397.25 Q1696.0938,397.25 1694.8906,396.625 Q1693.9063,396.125 1693.2188,395.0625 Q1692.5313,393.9844 1692.5313,392.7031 L1692.5313,391.5469 Q1692.5313,390.2188 1693.1406,389.0781 Q1693.7656,387.9219 1694.8594,387.3125 Q1695.9531,386.6875 1697.1875,386.6875 Q1697.9219,386.6875 1698.5625,386.8594 Q1699.2188,387.0156 1699.7656,387.375 Z " fill="#000000"/><text fill="#000000" font-family="sans-serif" font-size="14" lengthAdjust="spacing" textLength="119" x="1711" y="397.2969">ApplicationSession</text><line style="stroke:#181818;stroke-width:0.5;" x1="1683" x2="1832" y1="407.5" y2="407.5"/><line style="stroke:#181818;stroke-width:0.5;" x1="1683" x2="1832" y1="415.5" y2="415.5"/><text fill="#000000" font-family="sans-serif" font-size="14" lengthAdjust="spacing" textLength="128" x="1688" y="434.6074">+static getInstance()</text><text fill="#000000" font-family="sans-serif" font-size="14" lengthAdjust="spacing" textLength="136" x="1688" y="453.2285">+getCurrentSession()</text></g><!--class UserSession--><g id="elem_UserSession"><rect codeLine="14" fill="#F1F1F1" height="66.6211" id="UserSession" rx="2.5" ry="2.5" style="stroke:#181818;stroke-width:0.5;" width="113" x="1765" y="781.5"/><ellipse cx="1780.9" cy="797.5" fill="#ADD1B2" rx="11" ry="11" style="stroke:#181818;stroke-width:1.0;"/><path d="M1783.6656,793.375 Q1783.8219,793.1563 1784.0094,793.0469 Q1784.1969,792.9375 1784.4156,792.9375 Q1784.7906,792.9375 1785.025,793.2031 Q1785.2594,793.4531 1785.2594,794.0625 L1785.2594,795.5156 Q1785.2594,796.125 1785.025,796.3906 Q1784.7906,796.6563 1784.4156,796.6563 Q1784.0719,796.6563 1783.8688,796.4531 Q1783.6656,796.2656 1783.5563,795.75 Q1783.5094,795.3906 1783.3219,795.2031 Q1782.9938,794.8281 1782.3844,794.6094 Q1781.775,794.3906 1781.15,794.3906 Q1780.3844,794.3906 1779.7438,794.7188 Q1779.1188,795.0469 1778.6188,795.7969 Q1778.1344,796.5469 1778.1344,797.5781 L1778.1344,798.6719 Q1778.1344,799.9063 1779.025,800.7344 Q1779.9156,801.5469 1781.5094,801.5469 Q1782.4469,801.5469 1783.1031,801.2969 Q1783.4938,801.1406 1783.9156,800.7031 Q1784.1813,800.4375 1784.3219,800.3594 Q1784.4781,800.2813 1784.6813,800.2813 Q1785.0094,800.2813 1785.2594,800.5469 Q1785.525,800.7969 1785.525,801.1406 Q1785.525,801.4844 1785.1813,801.8906 Q1784.6813,802.4688 1783.8844,802.7969 Q1782.8063,803.25 1781.5094,803.25 Q1779.9938,803.25 1778.7906,802.625 Q1777.8063,802.125 1777.1188,801.0625 Q1776.4313,799.9844 1776.4313,798.7031 L1776.4313,797.5469 Q1776.4313,796.2188 1777.0406,795.0781 Q1777.6656,793.9219 1778.7594,793.3125 Q1779.8531,792.6875 1781.0875,792.6875 Q1781.8219,792.6875 1782.4625,792.8594 Q1783.1188,793.0156 1783.6656,793.375 Z " fill="#000000"/><text fill="#000000" font-family="sans-serif" font-size="14" lengthAdjust="spacing" textLength="79" x="1795.1" y="803.2969">UserSession</text><line style="stroke:#181818;stroke-width:0.5;" x1="1766" x2="1877" y1="813.5" y2="813.5"/><line style="stroke:#181818;stroke-width:0.5;" x1="1766" x2="1877" y1="821.5" y2="821.5"/><text fill="#000000" font-family="sans-serif" font-size="14" lengthAdjust="spacing" textLength="101" x="1771" y="840.6074">+getUserEmail()</text></g><!--class GreenSpace--><g id="elem_GreenSpace"><rect codeLine="19" fill="#F1F1F1" height="215.5898" id="GreenSpace" rx="2.5" ry="2.5" style="stroke:#181818;stroke-width:0.5;" width="493" x="1024" y="707"/><ellipse cx="1226.25" cy="723" fill="#ADD1B2" rx="11" ry="11" style="stroke:#181818;stroke-width:1.0;"/><path d="M1229.0156,718.875 Q1229.1719,718.6563 1229.3594,718.5469 Q1229.5469,718.4375 1229.7656,718.4375 Q1230.1406,718.4375 1230.375,718.7031 Q1230.6094,718.9531 1230.6094,719.5625 L1230.6094,721.0156 Q1230.6094,721.625 1230.375,721.8906 Q1230.1406,722.1563 1229.7656,722.1563 Q1229.4219,722.1563 1229.2188,721.9531 Q1229.0156,721.7656 1228.9063,721.25 Q1228.8594,720.8906 1228.6719,720.7031 Q1228.3438,720.3281 1227.7344,720.1094 Q1227.125,719.8906 1226.5,719.8906 Q1225.7344,719.8906 1225.0938,720.2188 Q1224.4688,720.5469 1223.9688,721.2969 Q1223.4844,722.0469 1223.4844,723.0781 L1223.4844,724.1719 Q1223.4844,725.4063 1224.375,726.2344 Q1225.2656,727.0469 1226.8594,727.0469 Q1227.7969,727.0469 1228.4531,726.7969 Q1228.8438,726.6406 1229.2656,726.2031 Q1229.5313,725.9375 1229.6719,725.8594 Q1229.8281,725.7813 1230.0313,725.7813 Q1230.3594,725.7813 1230.6094,726.0469 Q1230.875,726.2969 1230.875,726.6406 Q1230.875,726.9844 1230.5313,727.3906 Q1230.0313,727.9688 1229.2344,728.2969 Q1228.1563,728.75 1226.8594,728.75 Q1225.3438,728.75 1224.1406,728.125 Q1223.1563,727.625 1222.4688,726.5625 Q1221.7813,725.4844 1221.7813,724.2031 L1221.7813,723.0469 Q1221.7813,721.7188 1222.3906,720.5781 Q1223.0156,719.4219 1224.1094,718.8125 Q1225.2031,718.1875 1226.4375,718.1875 Q1227.1719,718.1875 1227.8125,718.3594 Q1228.4688,718.5156 1229.0156,718.875 Z " fill="#000000"/><text fill="#000000" font-family="sans-serif" font-size="14" lengthAdjust="spacing" textLength="80" x="1246.75" y="728.7969">GreenSpace</text><line style="stroke:#181818;stroke-width:0.5;" x1="1025" x2="1516" y1="739" y2="739"/><text fill="#000000" font-family="sans-serif" font-size="14" lengthAdjust="spacing" textLength="85" x="1030" y="758.1074">-name: String</text><text fill="#000000" font-family="sans-serif" font-size="14" lengthAdjust="spacing" textLength="85" x="1030" y="776.7285">-area: double</text><text fill="#000000" font-family="sans-serif" font-size="14" lengthAdjust="spacing" textLength="152" x="1030" y="795.3496">-type: GreenSpaceType</text><line style="stroke:#181818;stroke-width:0.5;" x1="1025" x2="1516" y1="802.8633" y2="802.8633"/><text fill="#000000" font-family="sans-serif" font-size="14" lengthAdjust="spacing" textLength="421" x="1030" y="821.9707">+GreenSpace(name: String, area: double, type: GreenSpaceType)</text><text fill="#000000" font-family="sans-serif" font-size="14" lengthAdjust="spacing" textLength="481" x="1030" y="840.5918">+registerGreenSpace(greenSpaceRepository: GreenSpaceRepository): void</text><text fill="#000000" font-family="sans-serif" font-size="14" lengthAdjust="spacing" textLength="119" x="1030" y="859.2129">+getName(): String</text><text fill="#000000" font-family="sans-serif" font-size="14" lengthAdjust="spacing" textLength="119" x="1030" y="877.834">+getArea(): double</text><text fill="#000000" font-family="sans-serif" font-size="14" lengthAdjust="spacing" textLength="190" x="1030" y="896.4551">+getType(): GreenSpaceType</text><text fill="#000000" font-family="sans-serif" font-size="14" font-style="italic" lengthAdjust="spacing" textLength="138" x="1030" y="915.0762">+displayDetails(): void</text></g><!--class Collaborator--><g id="elem_Collaborator"><rect codeLine="31" fill="#F1F1F1" height="457.6641" id="Collaborator" rx="2.5" ry="2.5" style="stroke:#181818;stroke-width:0.5;" width="1164" x="411.5" y="189"/><ellipse cx="950.25" cy="205" fill="#ADD1B2" rx="11" ry="11" style="stroke:#181818;stroke-width:1.0;"/><path d="M953.0156,200.875 Q953.1719,200.6563 953.3594,200.5469 Q953.5469,200.4375 953.7656,200.4375 Q954.1406,200.4375 954.375,200.7031 Q954.6094,200.9531 954.6094,201.5625 L954.6094,203.0156 Q954.6094,203.625 954.375,203.8906 Q954.1406,204.1563 953.7656,204.1563 Q953.4219,204.1563 953.2188,203.9531 Q953.0156,203.7656 952.9063,203.25 Q952.8594,202.8906 952.6719,202.7031 Q952.3438,202.3281 951.7344,202.1094 Q951.125,201.8906 950.5,201.8906 Q949.7344,201.8906 949.0938,202.2188 Q948.4688,202.5469 947.9688,203.2969 Q947.4844,204.0469 947.4844,205.0781 L947.4844,206.1719 Q947.4844,207.4063 948.375,208.2344 Q949.2656,209.0469 950.8594,209.0469 Q951.7969,209.0469 952.4531,208.7969 Q952.8438,208.6406 953.2656,208.2031 Q953.5313,207.9375 953.6719,207.8594 Q953.8281,207.7813 954.0313,207.7813 Q954.3594,207.7813 954.6094,208.0469 Q954.875,208.2969 954.875,208.6406 Q954.875,208.9844 954.5313,209.3906 Q954.0313,209.9688 953.2344,210.2969 Q952.1563,210.75 950.8594,210.75 Q949.3438,210.75 948.1406,210.125 Q947.1563,209.625 946.4688,208.5625 Q945.7813,207.4844 945.7813,206.2031 L945.7813,205.0469 Q945.7813,203.7188 946.3906,202.5781 Q947.0156,201.4219 948.1094,200.8125 Q949.2031,200.1875 950.4375,200.1875 Q951.1719,200.1875 951.8125,200.3594 Q952.4688,200.5156 953.0156,200.875 Z " fill="#000000"/><text fill="#000000" font-family="sans-serif" font-size="14" lengthAdjust="spacing" textLength="78" x="970.75" y="210.7969">Collaborator</text><line style="stroke:#181818;stroke-width:0.5;" x1="412.5" x2="1574.5" y1="221" y2="221"/><text fill="#000000" font-family="sans-serif" font-size="14" lengthAdjust="spacing" textLength="85" x="417.5" y="240.1074">-name: String</text><text fill="#000000" font-family="sans-serif" font-size="14" lengthAdjust="spacing" textLength="158" x="417.5" y="258.7285">-birthdayDate: LocalDate</text><text fill="#000000" font-family="sans-serif" font-size="14" lengthAdjust="spacing" textLength="170" x="417.5" y="277.3496">-admissionDate: LocalDate</text><text fill="#000000" font-family="sans-serif" font-size="14" lengthAdjust="spacing" textLength="101" x="417.5" y="295.9707">-address: String</text><text fill="#000000" font-family="sans-serif" font-size="14" lengthAdjust="spacing" textLength="139" x="417.5" y="314.5918">-phoneNumber: String</text><text fill="#000000" font-family="sans-serif" font-size="14" lengthAdjust="spacing" textLength="83" x="417.5" y="333.2129">-email: String</text><text fill="#000000" font-family="sans-serif" font-size="14" lengthAdjust="spacing" textLength="131" x="417.5" y="351.834">-taxpayerNumber: int</text><text fill="#000000" font-family="sans-serif" font-size="14" lengthAdjust="spacing" textLength="101" x="417.5" y="370.4551">-BINumber: long</text><text fill="#000000" font-family="sans-serif" font-size="14" lengthAdjust="spacing" textLength="69" x="417.5" y="389.0762">-job: String</text><line style="stroke:#181818;stroke-width:0.5;" x1="412.5" x2="1574.5" y1="396.5898" y2="396.5898"/><text fill="#000000" font-family="sans-serif" font-size="14" lengthAdjust="spacing" textLength="1152" x="417.5" y="415.6973">+Collaborator(name: String, birthdayDate: LocalDate, admissionDate: LocalDate, address: String, phoneNumber: String, email: String, taxpayerNumber: int, BINumber: long, job: String)</text><text fill="#000000" font-family="sans-serif" font-size="14" lengthAdjust="spacing" textLength="176" x="417.5" y="434.3184">+equals(o: Object): boolean</text><text fill="#000000" font-family="sans-serif" font-size="14" lengthAdjust="spacing" textLength="138" x="417.5" y="452.9395">+clone(): Collaborator</text><text fill="#000000" font-family="sans-serif" font-size="14" lengthAdjust="spacing" textLength="119" x="417.5" y="471.5605">+getName(): String</text><text fill="#000000" font-family="sans-serif" font-size="14" lengthAdjust="spacing" textLength="192" x="417.5" y="490.1816">+getBirthdayDate(): LocalDate</text><text fill="#000000" font-family="sans-serif" font-size="14" lengthAdjust="spacing" textLength="204" x="417.5" y="508.8027">+getAdmissionDate(): LocalDate</text><text fill="#000000" font-family="sans-serif" font-size="14" lengthAdjust="spacing" textLength="135" x="417.5" y="527.4238">+getAddress(): String</text><text fill="#000000" font-family="sans-serif" font-size="14" lengthAdjust="spacing" textLength="173" x="417.5" y="546.0449">+getPhoneNumber(): String</text><text fill="#000000" font-family="sans-serif" font-size="14" lengthAdjust="spacing" textLength="117" x="417.5" y="564.666">+getEmail(): String</text><text fill="#000000" font-family="sans-serif" font-size="14" lengthAdjust="spacing" textLength="169" x="417.5" y="583.2871">+getTaxpayerNumber(): int</text><text fill="#000000" font-family="sans-serif" font-size="14" lengthAdjust="spacing" textLength="134" x="417.5" y="601.9082">+getBINumber(): long</text><text fill="#000000" font-family="sans-serif" font-size="14" lengthAdjust="spacing" textLength="105" x="417.5" y="620.5293">+getJob(): String</text><text fill="#000000" font-family="sans-serif" font-size="14" lengthAdjust="spacing" textLength="147" x="417.5" y="639.1504">+addJob(job: Job): void</text></g><!--class CollaboratorRepository--><g id="elem_CollaboratorRepository"><rect codeLine="56" fill="#F1F1F1" height="159.7266" id="CollaboratorRepository" rx="2.5" ry="2.5" style="stroke:#181818;stroke-width:0.5;" width="369" x="7" y="338"/><ellipse cx="114.25" cy="354" fill="#ADD1B2" rx="11" ry="11" style="stroke:#181818;stroke-width:1.0;"/><path d="M117.0156,349.875 Q117.1719,349.6563 117.3594,349.5469 Q117.5469,349.4375 117.7656,349.4375 Q118.1406,349.4375 118.375,349.7031 Q118.6094,349.9531 118.6094,350.5625 L118.6094,352.0156 Q118.6094,352.625 118.375,352.8906 Q118.1406,353.1563 117.7656,353.1563 Q117.4219,353.1563 117.2188,352.9531 Q117.0156,352.7656 116.9063,352.25 Q116.8594,351.8906 116.6719,351.7031 Q116.3438,351.3281 115.7344,351.1094 Q115.125,350.8906 114.5,350.8906 Q113.7344,350.8906 113.0938,351.2188 Q112.4688,351.5469 111.9688,352.2969 Q111.4844,353.0469 111.4844,354.0781 L111.4844,355.1719 Q111.4844,356.4063 112.375,357.2344 Q113.2656,358.0469 114.8594,358.0469 Q115.7969,358.0469 116.4531,357.7969 Q116.8438,357.6406 117.2656,357.2031 Q117.5313,356.9375 117.6719,356.8594 Q117.8281,356.7813 118.0313,356.7813 Q118.3594,356.7813 118.6094,357.0469 Q118.875,357.2969 118.875,357.6406 Q118.875,357.9844 118.5313,358.3906 Q118.0313,358.9688 117.2344,359.2969 Q116.1563,359.75 114.8594,359.75 Q113.3438,359.75 112.1406,359.125 Q111.1563,358.625 110.4688,357.5625 Q109.7813,356.4844 109.7813,355.2031 L109.7813,354.0469 Q109.7813,352.7188 110.3906,351.5781 Q111.0156,350.4219 112.1094,349.8125 Q113.2031,349.1875 114.4375,349.1875 Q115.1719,349.1875 115.8125,349.3594 Q116.4688,349.5156 117.0156,349.875 Z " fill="#000000"/><text fill="#000000" font-family="sans-serif" font-size="14" lengthAdjust="spacing" textLength="146" x="134.75" y="359.7969">CollaboratorRepository</text><line style="stroke:#181818;stroke-width:0.5;" x1="8" x2="375" y1="370" y2="370"/><text fill="#000000" font-family="sans-serif" font-size="14" lengthAdjust="spacing" textLength="207" x="13" y="389.1074">-List&lt;Collaborator&gt; collaborators</text><line style="stroke:#181818;stroke-width:0.5;" x1="8" x2="375" y1="396.6211" y2="396.6211"/><text fill="#000000" font-family="sans-serif" font-size="14" lengthAdjust="spacing" textLength="281" x="13" y="415.7285">+addCollaborator(collaborator: Collaborator)</text><text fill="#000000" font-family="sans-serif" font-size="14" lengthAdjust="spacing" textLength="304" x="13" y="434.3496">+removeCollaborator(collaborator: Collaborator)</text><text fill="#000000" font-family="sans-serif" font-size="14" lengthAdjust="spacing" textLength="357" x="13" y="452.9707">+addSkillToCollaborator(collaboratorId: String, skill: Skill)</text><text fill="#000000" font-family="sans-serif" font-size="14" lengthAdjust="spacing" textLength="333" x="13" y="471.5918">+getCollaborator(collaboratorId: String): Collaborator</text><text fill="#000000" font-family="sans-serif" font-size="14" lengthAdjust="spacing" textLength="279" x="13" y="490.2129">+assignSkill(collaboratorId: String, skill: Skill)</text></g><!--class GreenSpaceRepository--><g id="elem_GreenSpaceRepository"><rect codeLine="65" fill="#F1F1F1" height="103.8633" id="GreenSpaceRepository" rx="2.5" ry="2.5" style="stroke:#181818;stroke-width:0.5;" width="333" x="1104" y="983"/><ellipse cx="1192.25" cy="999" fill="#ADD1B2" rx="11" ry="11" style="stroke:#181818;stroke-width:1.0;"/><path d="M1195.0156,994.875 Q1195.1719,994.6563 1195.3594,994.5469 Q1195.5469,994.4375 1195.7656,994.4375 Q1196.1406,994.4375 1196.375,994.7031 Q1196.6094,994.9531 1196.6094,995.5625 L1196.6094,997.0156 Q1196.6094,997.625 1196.375,997.8906 Q1196.1406,998.1563 1195.7656,998.1563 Q1195.4219,998.1563 1195.2188,997.9531 Q1195.0156,997.7656 1194.9063,997.25 Q1194.8594,996.8906 1194.6719,996.7031 Q1194.3438,996.3281 1193.7344,996.1094 Q1193.125,995.8906 1192.5,995.8906 Q1191.7344,995.8906 1191.0938,996.2188 Q1190.4688,996.5469 1189.9688,997.2969 Q1189.4844,998.0469 1189.4844,999.0781 L1189.4844,1000.1719 Q1189.4844,1001.4063 1190.375,1002.2344 Q1191.2656,1003.0469 1192.8594,1003.0469 Q1193.7969,1003.0469 1194.4531,1002.7969 Q1194.8438,1002.6406 1195.2656,1002.2031 Q1195.5313,1001.9375 1195.6719,1001.8594 Q1195.8281,1001.7813 1196.0313,1001.7813 Q1196.3594,1001.7813 1196.6094,1002.0469 Q1196.875,1002.2969 1196.875,1002.6406 Q1196.875,1002.9844 1196.5313,1003.3906 Q1196.0313,1003.9688 1195.2344,1004.2969 Q1194.1563,1004.75 1192.8594,1004.75 Q1191.3438,1004.75 1190.1406,1004.125 Q1189.1563,1003.625 1188.4688,1002.5625 Q1187.7813,1001.4844 1187.7813,1000.2031 L1187.7813,999.0469 Q1187.7813,997.7188 1188.3906,996.5781 Q1189.0156,995.4219 1190.1094,994.8125 Q1191.2031,994.1875 1192.4375,994.1875 Q1193.1719,994.1875 1193.8125,994.3594 Q1194.4688,994.5156 1195.0156,994.875 Z " fill="#000000"/><text fill="#000000" font-family="sans-serif" font-size="14" lengthAdjust="spacing" textLength="148" x="1212.75" y="1004.7969">GreenSpaceRepository</text><line style="stroke:#181818;stroke-width:0.5;" x1="1105" x2="1436" y1="1015" y2="1015"/><text fill="#000000" font-family="sans-serif" font-size="14" lengthAdjust="spacing" textLength="215" x="1110" y="1034.1074">-greenSpaces: List&lt;GreenSpace&gt;</text><line style="stroke:#181818;stroke-width:0.5;" x1="1105" x2="1436" y1="1041.6211" y2="1041.6211"/><text fill="#000000" font-family="sans-serif" font-size="14" lengthAdjust="spacing" textLength="321" x="1110" y="1060.7285">+addGreenSpace(greenSpace: GreenSpace): void</text><text fill="#000000" font-family="sans-serif" font-size="14" lengthAdjust="spacing" textLength="251" x="1110" y="1079.3496">+getGreenSpaces(): List&lt;GreenSpace&gt;</text></g><!--class RegisterGreenSpaceController--><g id="elem_RegisterGreenSpaceController"><rect codeLine="71" fill="#F1F1F1" height="122.4844" id="RegisterGreenSpaceController" rx="2.5" ry="2.5" style="stroke:#181818;stroke-width:0.5;" width="526" x="1429.5" y="7"/><ellipse cx="1590.75" cy="23" fill="#ADD1B2" rx="11" ry="11" style="stroke:#181818;stroke-width:1.0;"/><path d="M1593.5156,18.875 Q1593.6719,18.6563 1593.8594,18.5469 Q1594.0469,18.4375 1594.2656,18.4375 Q1594.6406,18.4375 1594.875,18.7031 Q1595.1094,18.9531 1595.1094,19.5625 L1595.1094,21.0156 Q1595.1094,21.625 1594.875,21.8906 Q1594.6406,22.1563 1594.2656,22.1563 Q1593.9219,22.1563 1593.7188,21.9531 Q1593.5156,21.7656 1593.4063,21.25 Q1593.3594,20.8906 1593.1719,20.7031 Q1592.8438,20.3281 1592.2344,20.1094 Q1591.625,19.8906 1591,19.8906 Q1590.2344,19.8906 1589.5938,20.2188 Q1588.9688,20.5469 1588.4688,21.2969 Q1587.9844,22.0469 1587.9844,23.0781 L1587.9844,24.1719 Q1587.9844,25.4063 1588.875,26.2344 Q1589.7656,27.0469 1591.3594,27.0469 Q1592.2969,27.0469 1592.9531,26.7969 Q1593.3438,26.6406 1593.7656,26.2031 Q1594.0313,25.9375 1594.1719,25.8594 Q1594.3281,25.7813 1594.5313,25.7813 Q1594.8594,25.7813 1595.1094,26.0469 Q1595.375,26.2969 1595.375,26.6406 Q1595.375,26.9844 1595.0313,27.3906 Q1594.5313,27.9688 1593.7344,28.2969 Q1592.6563,28.75 1591.3594,28.75 Q1589.8438,28.75 1588.6406,28.125 Q1587.6563,27.625 1586.9688,26.5625 Q1586.2813,25.4844 1586.2813,24.2031 L1586.2813,23.0469 Q1586.2813,21.7188 1586.8906,20.5781 Q1587.5156,19.4219 1588.6094,18.8125 Q1589.7031,18.1875 1590.9375,18.1875 Q1591.6719,18.1875 1592.3125,18.3594 Q1592.9688,18.5156 1593.5156,18.875 Z " fill="#000000"/><text fill="#000000" font-family="sans-serif" font-size="14" lengthAdjust="spacing" textLength="195" x="1611.25" y="28.7969">RegisterGreenSpaceController</text><line style="stroke:#181818;stroke-width:0.5;" x1="1430.5" x2="1954.5" y1="39" y2="39"/><text fill="#000000" font-family="sans-serif" font-size="14" lengthAdjust="spacing" textLength="306" x="1435.5" y="58.1074">-greenSpaceRepository: GreenSpaceRepository</text><line style="stroke:#181818;stroke-width:0.5;" x1="1430.5" x2="1954.5" y1="65.6211" y2="65.6211"/><text fill="#000000" font-family="sans-serif" font-size="14" lengthAdjust="spacing" textLength="514" x="1435.5" y="84.7285">+RegisterGreenSpaceController(greenSpaceRepository: GreenSpaceRepository)</text><text fill="#000000" font-family="sans-serif" font-size="14" lengthAdjust="spacing" textLength="345" x="1435.5" y="103.3496">+registerGreenSpace(greenSpace: GreenSpace): void</text><text fill="#000000" font-family="sans-serif" font-size="14" lengthAdjust="spacing" textLength="266" x="1435.5" y="121.9707">+getAllGreenSpaces(): List&lt;GreenSpace&gt;</text></g><!--class RegisterGreenSpaceUI--><g id="elem_RegisterGreenSpaceUI"><rect fill="#F1F1F1" height="48" id="RegisterGreenSpaceUI" rx="2.5" ry="2.5" style="stroke:#181818;stroke-width:0.5;" width="177" x="1217" y="44"/><ellipse cx="1232" cy="60" fill="#ADD1B2" rx="11" ry="11" style="stroke:#181818;stroke-width:1.0;"/><path d="M1234.7656,55.875 Q1234.9219,55.6563 1235.1094,55.5469 Q1235.2969,55.4375 1235.5156,55.4375 Q1235.8906,55.4375 1236.125,55.7031 Q1236.3594,55.9531 1236.3594,56.5625 L1236.3594,58.0156 Q1236.3594,58.625 1236.125,58.8906 Q1235.8906,59.1563 1235.5156,59.1563 Q1235.1719,59.1563 1234.9688,58.9531 Q1234.7656,58.7656 1234.6563,58.25 Q1234.6094,57.8906 1234.4219,57.7031 Q1234.0938,57.3281 1233.4844,57.1094 Q1232.875,56.8906 1232.25,56.8906 Q1231.4844,56.8906 1230.8438,57.2188 Q1230.2188,57.5469 1229.7188,58.2969 Q1229.2344,59.0469 1229.2344,60.0781 L1229.2344,61.1719 Q1229.2344,62.4063 1230.125,63.2344 Q1231.0156,64.0469 1232.6094,64.0469 Q1233.5469,64.0469 1234.2031,63.7969 Q1234.5938,63.6406 1235.0156,63.2031 Q1235.2813,62.9375 1235.4219,62.8594 Q1235.5781,62.7813 1235.7813,62.7813 Q1236.1094,62.7813 1236.3594,63.0469 Q1236.625,63.2969 1236.625,63.6406 Q1236.625,63.9844 1236.2813,64.3906 Q1235.7813,64.9688 1234.9844,65.2969 Q1233.9063,65.75 1232.6094,65.75 Q1231.0938,65.75 1229.8906,65.125 Q1228.9063,64.625 1228.2188,63.5625 Q1227.5313,62.4844 1227.5313,61.2031 L1227.5313,60.0469 Q1227.5313,58.7188 1228.1406,57.5781 Q1228.7656,56.4219 1229.8594,55.8125 Q1230.9531,55.1875 1232.1875,55.1875 Q1232.9219,55.1875 1233.5625,55.3594 Q1234.2188,55.5156 1234.7656,55.875 Z " fill="#000000"/><text fill="#000000" font-family="sans-serif" font-size="14" lengthAdjust="spacing" textLength="145" x="1246" y="65.7969">RegisterGreenSpaceUI</text><line style="stroke:#181818;stroke-width:0.5;" x1="1218" x2="1393" y1="76" y2="76"/><line style="stroke:#181818;stroke-width:0.5;" x1="1218" x2="1393" y1="84" y2="84"/></g><!--link ApplicationSession to UserSession--><g id="link_ApplicationSession_UserSession"><path codeLine="78" d="M1799,460.86 C1799,540.46 1799,703.54 1799,775.47 " fill="none" id="ApplicationSession-to-UserSession" style="stroke:#181818;stroke-width:1.0;"/><polygon fill="#181818" points="1799,781.47,1803,772.47,1799,776.47,1795,772.47,1799,781.47" style="stroke:#181818;stroke-width:1.0;"/><text fill="#000000" font-family="sans-serif" font-size="13" lengthAdjust="spacing" textLength="72" x="1726" y="617.1983">userSession</text><text fill="#000000" font-family="sans-serif" font-size="13" lengthAdjust="spacing" textLength="7" x="1786.8813" y="770.2896">1</text></g><!--link RegisterGreenSpaceController to ApplicationSession--><g id="link_RegisterGreenSpaceController_ApplicationSession"><path codeLine="79" d="M1757.5,129.37 C1757.5,199.94 1757.5,307.97 1757.5,369.45 " fill="none" id="RegisterGreenSpaceController-to-ApplicationSession" style="stroke:#181818;stroke-width:1.0;stroke-dasharray:7.0,7.0;"/><polygon fill="#181818" points="1757.5,375.45,1761.5,366.45,1757.5,370.45,1753.5,366.45,1757.5,375.45" style="stroke:#181818;stroke-width:1.0;"/></g><!--link RegisterGreenSpaceController to UserSession--><g id="link_RegisterGreenSpaceController_UserSession"><path codeLine="80" d="M1855.5,129.13 C1855.5,279.83 1855.5,659.34 1855.5,775.43 " fill="none" id="RegisterGreenSpaceController-to-UserSession" style="stroke:#181818;stroke-width:1.0;stroke-dasharray:7.0,7.0;"/><polygon fill="#181818" points="1855.5,781.43,1859.5,772.43,1855.5,776.43,1851.5,772.43,1855.5,781.43" style="stroke:#181818;stroke-width:1.0;"/></g><!--link RegisterGreenSpaceUI to RegisterGreenSpaceController--><g id="link_RegisterGreenSpaceUI_RegisterGreenSpaceController"><path codeLine="81" d="M1394.29,68 C1405.33,68 1411.03,68 1423.15,68 " fill="none" id="RegisterGreenSpaceUI-to-RegisterGreenSpaceController" style="stroke:#181818;stroke-width:1.0;stroke-dasharray:7.0,7.0;"/><polygon fill="#181818" points="1429.15,68,1420.15,64,1424.15,68,1420.15,72,1429.15,68" style="stroke:#181818;stroke-width:1.0;"/></g><!--link RegisterGreenSpaceController to CollaboratorRepository--><g id="link_RegisterGreenSpaceController_CollaboratorRepository"><path codeLine="82" d="M1429.33,111 C998.85,111 191.5,111 191.5,111 C191.5,111 191.5,240.78 191.5,331.74 " fill="none" id="RegisterGreenSpaceController-to-CollaboratorRepository" style="stroke:#181818;stroke-width:1.0;stroke-dasharray:7.0,7.0;"/><polygon fill="#181818" points="191.5,337.74,195.5,328.74,191.5,332.74,187.5,328.74,191.5,337.74" style="stroke:#181818;stroke-width:1.0;"/></g><!--link CollaboratorRepository to Collaborator--><g id="link_CollaboratorRepository_Collaborator"><path codeLine="84" d="M376.25,418 C387.58,418 393.24,418 405.18,418 " fill="none" id="CollaboratorRepository-to-Collaborator" style="stroke:#181818;stroke-width:1.0;"/><polygon fill="#181818" points="411.18,418,402.18,414,406.18,418,402.18,422,411.18,418" style="stroke:#181818;stroke-width:1.0;"/></g><!--link Collaborator to GreenSpace--><g id="link_Collaborator_GreenSpace"><path codeLine="85" d="M1270.5,647.21 C1270.5,667.84 1270.5,682.02 1270.5,700.82 " fill="none" id="Collaborator-to-GreenSpace" style="stroke:#181818;stroke-width:1.0;stroke-dasharray:7.0,7.0;"/><polygon fill="#181818" points="1270.5,706.82,1274.5,697.82,1270.5,701.82,1266.5,697.82,1270.5,706.82" style="stroke:#181818;stroke-width:1.0;"/></g><!--link RegisterGreenSpaceController to GreenSpace--><g id="link_RegisterGreenSpaceController_GreenSpace"><path codeLine="86" d="M1628.75,129.27 C1628.75,295.92 1628.75,745 1628.75,745 C1628.75,745 1585.42,745 1523.36,745 " fill="none" id="RegisterGreenSpaceController-to-GreenSpace" style="stroke:#181818;stroke-width:1.0;stroke-dasharray:7.0,7.0;"/><polygon fill="#181818" points="1517.36,745,1526.36,749,1522.36,745,1526.36,741,1517.36,745" style="stroke:#181818;stroke-width:1.0;"/></g><!--link GreenSpace to GreenSpaceRepository--><g id="link_GreenSpace_GreenSpaceRepository"><path codeLine="87" d="M1270.5,923.07 C1270.5,943.93 1270.5,958.89 1270.5,976.93 " fill="none" id="GreenSpace-to-GreenSpaceRepository" style="stroke:#181818;stroke-width:1.0;stroke-dasharray:7.0,7.0;"/><polygon fill="#181818" points="1270.5,982.93,1274.5,973.93,1270.5,977.93,1266.5,973.93,1270.5,982.93" style="stroke:#181818;stroke-width:1.0;"/></g><!--SRC=[bLPVRzem47_Ffx3wCj12jRsY2OcoQMAgkgd01t2IQt1nxCnskh6gtttda60dc41v8RdV_VtT-PmFUiT4IHKjI265JBTA5a2CgY1oI4dJ7SrXPVOSY8BKK95pNq5lQIR_C96J9ygrZt0cmEnB8ANaU_iImgGoM-a1AQTQpurHBAaCB5CfLkmVa4zHL2DaNfQSfTGm141h_8jU8uA_ZqGR5ASa1xCK-2nI68qR26MBIYaGfZ52vArrkT6W-hxGm8g_5PHnN_Ux0X0h90N8GNL212rWIbQOiSWR4LL0foIJLO9K7KIssAbdliRt9fOJZdnVSSTD7FJGrgSWPzg0ybpbnyT7AALcHggzR-wauobvaInpbJzW5gDnfwPQFiTyhDmhh9RRJAmyKDqhJRHHD3Llg9enNNAw_me6MTMZDkwHt8Nad2PIKSngYDw4uT1aw8WQXEvbIhbzRCdF2bOtynoSAMnspsMvbG8UgY81rKF0Za1FPkZVakv1jGPCc0QvMxOoBe_gppBfaUbNsclwcUBYitN5_PBYK3Lnjv0uL4FSIp_sCsz73NvNUCv7Saf-9i-u3x2BYPGSg6WKKZIjny4lyl9mtNbrMxpRjyFy-GoSrQcv24NuvLW9mSrPFmNM7QQiHjllG-9B1noRNYC_P7BY3tjbnJMn-31u1jmHFPw6UppcNtoT6KczD-sYT4RCr-asncsGGhx0Euqmp6h7E5_BiuRBp8sSjhhuQl_ypNpPDZnDo1VBHUtkofY1FHuWsQrEF5CruqvzvaeFBbj_2vuiLWVL0thY-fZUuya-NqXX5DO8Af3cfGtVP33azJttnJMNpY0FSywleEBqgYUJoOpSVBxnhsmo9PLtWGyoTtix2tr0NBJP30ROB0dg33cv725yxACeB9zq3JfQjJiNvt9eJzVxkkaYNah_0G00]--></g></svg>