<?xml version="1.0" encoding="us-ascii" standalone="no"?><svg xmlns="http://www.w3.org/2000/svg" xmlns:xlink="http://www.w3.org/1999/xlink" contentStyleType="text/css" height="794px" preserveAspectRatio="none" style="width:2373px;height:794px;background:#FFFFFF;" version="1.1" viewBox="0 0 2373 794" width="2373px" zoomAndPan="magnify"><defs/><g><rect fill="#FFFFFF" height="599.5293" style="stroke:#181818;stroke-width:1.0;" width="10" x="97.5" y="93.6211"/><rect fill="#FFFFFF" height="576.2383" style="stroke:#181818;stroke-width:1.0;" width="10" x="431.5" y="116.9121"/><rect fill="#FFFFFF" height="451.0742" style="stroke:#181818;stroke-width:1.0;" width="10" x="692.5" y="210.7852"/><rect fill="#FFFFFF" height="31.291" style="stroke:#181818;stroke-width:1.0;" width="10" x="853.5" y="242.0762"/><rect fill="#FFFFFF" height="31.291" style="stroke:#181818;stroke-width:1.0;" width="10" x="999.5" y="304.6582"/><rect fill="#FFFFFF" height="31.291" style="stroke:#181818;stroke-width:1.0;" width="10" x="1494.5" y="367.2402"/><rect fill="#FFFFFF" height="31.291" style="stroke:#181818;stroke-width:1.0;" width="10" x="1680.5" y="429.8223"/><rect fill="#FFFFFF" height="31.291" style="stroke:#181818;stroke-width:1.0;" width="10" x="1900" y="492.4043"/><rect fill="#FFFFFF" height="75.582" style="stroke:#181818;stroke-width:1.0;" width="10" x="2101.5" y="554.9863"/><line style="stroke:#181818;stroke-width:0.5;stroke-dasharray:5.0,5.0;" x1="102" x2="102" y1="83.6211" y2="711.1504"/><line style="stroke:#181818;stroke-width:0.5;stroke-dasharray:5.0,5.0;" x1="436" x2="436" y1="83.6211" y2="711.1504"/><line style="stroke:#181818;stroke-width:0.5;stroke-dasharray:5.0,5.0;" x1="697" x2="697" y1="83.6211" y2="711.1504"/><line style="stroke:#181818;stroke-width:0.5;stroke-dasharray:5.0,5.0;" x1="858" x2="858" y1="83.6211" y2="711.1504"/><line style="stroke:#181818;stroke-width:0.5;stroke-dasharray:5.0,5.0;" x1="1004" x2="1004" y1="83.6211" y2="711.1504"/><line style="stroke:#181818;stroke-width:0.5;stroke-dasharray:5.0,5.0;" x1="1263" x2="1263" y1="83.6211" y2="711.1504"/><line style="stroke:#181818;stroke-width:0.5;stroke-dasharray:5.0,5.0;" x1="1499" x2="1499" y1="83.6211" y2="711.1504"/><line style="stroke:#181818;stroke-width:0.5;stroke-dasharray:5.0,5.0;" x1="1685" x2="1685" y1="83.6211" y2="711.1504"/><line style="stroke:#181818;stroke-width:0.5;stroke-dasharray:5.0,5.0;" x1="1905" x2="1905" y1="83.6211" y2="711.1504"/><line style="stroke:#181818;stroke-width:0.5;stroke-dasharray:5.0,5.0;" x1="2106" x2="2106" y1="83.6211" y2="711.1504"/><line style="stroke:#181818;stroke-width:0.5;stroke-dasharray:5.0,5.0;" x1="2287" x2="2287" y1="83.6211" y2="711.1504"/><text fill="#000000" font-family="sans-serif" font-size="14" lengthAdjust="spacing" textLength="189" x="5" y="80.1074">Green Space Manager (GSM)</text><ellipse cx="102.5" cy="13.5" fill="#E3E3E3" rx="8" ry="8" style="stroke:#181818;stroke-width:0.5;"/><path d="M102.5,21.5 L102.5,48.5 M89.5,29.5 L115.5,29.5 M102.5,48.5 L89.5,63.5 M102.5,48.5 L115.5,63.5 " fill="none" style="stroke:#181818;stroke-width:0.5;"/><text fill="#000000" font-family="sans-serif" font-size="14" lengthAdjust="spacing" textLength="189" x="5" y="725.2578">Green Space Manager (GSM)</text><ellipse cx="102.5" cy="737.2715" fill="#E3E3E3" rx="8" ry="8" style="stroke:#181818;stroke-width:0.5;"/><path d="M102.5,745.2715 L102.5,772.2715 M89.5,753.2715 L115.5,753.2715 M102.5,772.2715 L89.5,787.2715 M102.5,772.2715 L115.5,787.2715 " fill="none" style="stroke:#181818;stroke-width:0.5;"/><rect fill="#E3E3E3" height="32.6211" rx="2.5" ry="2.5" style="stroke:#181818;stroke-width:0.5;" width="159" x="357" y="50"/><text fill="#000000" font-family="sans-serif" font-size="14" lengthAdjust="spacing" textLength="145" x="364" y="72.1074">RegisterGreenSpaceUI</text><rect fill="#E3E3E3" height="32.6211" rx="2.5" ry="2.5" style="stroke:#181818;stroke-width:0.5;" width="159" x="357" y="710.1504"/><text fill="#000000" font-family="sans-serif" font-size="14" lengthAdjust="spacing" textLength="145" x="364" y="732.2578">RegisterGreenSpaceUI</text><rect fill="#E3E3E3" height="32.6211" rx="2.5" ry="2.5" style="stroke:#181818;stroke-width:0.5;" width="209" x="593" y="50"/><text fill="#000000" font-family="sans-serif" font-size="14" lengthAdjust="spacing" textLength="195" x="600" y="72.1074">RegisterGreenSpaceController</text><rect fill="#E3E3E3" height="32.6211" rx="2.5" ry="2.5" style="stroke:#181818;stroke-width:0.5;" width="209" x="593" y="710.1504"/><text fill="#000000" font-family="sans-serif" font-size="14" lengthAdjust="spacing" textLength="195" x="600" y="732.2578">RegisterGreenSpaceController</text><rect fill="#E3E3E3" height="32.6211" rx="2.5" ry="2.5" style="stroke:#181818;stroke-width:0.5;" width="93" x="812" y="50"/><text fill="#000000" font-family="sans-serif" font-size="14" lengthAdjust="spacing" textLength="79" x="819" y="72.1074">Repositories</text><rect fill="#E3E3E3" height="32.6211" rx="2.5" ry="2.5" style="stroke:#181818;stroke-width:0.5;" width="93" x="812" y="710.1504"/><text fill="#000000" font-family="sans-serif" font-size="14" lengthAdjust="spacing" textLength="79" x="819" y="732.2578">Repositories</text><rect fill="#E3E3E3" height="32.6211" rx="2.5" ry="2.5" style="stroke:#181818;stroke-width:0.5;" width="179" x="915" y="50"/><text fill="#000000" font-family="sans-serif" font-size="14" lengthAdjust="spacing" textLength="165" x="922" y="72.1074">repositories : Repositories</text><rect fill="#E3E3E3" height="32.6211" rx="2.5" ry="2.5" style="stroke:#181818;stroke-width:0.5;" width="179" x="915" y="710.1504"/><text fill="#000000" font-family="sans-serif" font-size="14" lengthAdjust="spacing" textLength="165" x="922" y="732.2578">repositories : Repositories</text><rect fill="#E3E3E3" height="32.6211" rx="2.5" ry="2.5" style="stroke:#181818;stroke-width:0.5;" width="319" x="1104" y="50"/><text fill="#000000" font-family="sans-serif" font-size="14" lengthAdjust="spacing" textLength="305" x="1111" y="72.1074">greenSpaceRepository : GreenSpaceRepository</text><rect fill="#E3E3E3" height="32.6211" rx="2.5" ry="2.5" style="stroke:#181818;stroke-width:0.5;" width="319" x="1104" y="710.1504"/><text fill="#000000" font-family="sans-serif" font-size="14" lengthAdjust="spacing" textLength="305" x="1111" y="732.2578">greenSpaceRepository : GreenSpaceRepository</text><rect fill="#E3E3E3" height="32.6211" rx="2.5" ry="2.5" style="stroke:#181818;stroke-width:0.5;" width="133" x="1433" y="50"/><text fill="#000000" font-family="sans-serif" font-size="14" lengthAdjust="spacing" textLength="119" x="1440" y="72.1074">ApplicationSession</text><rect fill="#E3E3E3" height="32.6211" rx="2.5" ry="2.5" style="stroke:#181818;stroke-width:0.5;" width="133" x="1433" y="710.1504"/><text fill="#000000" font-family="sans-serif" font-size="14" lengthAdjust="spacing" textLength="119" x="1440" y="732.2578">ApplicationSession</text><rect fill="#E3E3E3" height="32.6211" rx="2.5" ry="2.5" style="stroke:#181818;stroke-width:0.5;" width="219" x="1576" y="50"/><text fill="#000000" font-family="sans-serif" font-size="14" lengthAdjust="spacing" textLength="205" x="1583" y="72.1074">appSession : ApplicationSession</text><rect fill="#E3E3E3" height="32.6211" rx="2.5" ry="2.5" style="stroke:#181818;stroke-width:0.5;" width="219" x="1576" y="710.1504"/><text fill="#000000" font-family="sans-serif" font-size="14" lengthAdjust="spacing" textLength="205" x="1583" y="732.2578">appSession : ApplicationSession</text><rect fill="#E3E3E3" height="32.6211" rx="2.5" ry="2.5" style="stroke:#181818;stroke-width:0.5;" width="200" x="1805" y="50"/><text fill="#000000" font-family="sans-serif" font-size="14" lengthAdjust="spacing" textLength="186" x="1812" y="72.1074">currentSession : UserSession</text><rect fill="#E3E3E3" height="32.6211" rx="2.5" ry="2.5" style="stroke:#181818;stroke-width:0.5;" width="200" x="1805" y="710.1504"/><text fill="#000000" font-family="sans-serif" font-size="14" lengthAdjust="spacing" textLength="186" x="1812" y="732.2578">currentSession : UserSession</text><rect fill="#E3E3E3" height="32.6211" rx="2.5" ry="2.5" style="stroke:#181818;stroke-width:0.5;" width="183" x="2015" y="50"/><text fill="#000000" font-family="sans-serif" font-size="14" lengthAdjust="spacing" textLength="169" x="2022" y="72.1074">greenSpace : GreenSpace</text><rect fill="#E3E3E3" height="32.6211" rx="2.5" ry="2.5" style="stroke:#181818;stroke-width:0.5;" width="183" x="2015" y="710.1504"/><text fill="#000000" font-family="sans-serif" font-size="14" lengthAdjust="spacing" textLength="169" x="2022" y="732.2578">greenSpace : GreenSpace</text><rect fill="#E3E3E3" height="32.6211" rx="2.5" ry="2.5" style="stroke:#181818;stroke-width:0.5;" width="159" x="2208" y="50"/><text fill="#000000" font-family="sans-serif" font-size="14" lengthAdjust="spacing" textLength="145" x="2215" y="72.1074">greenSpaceRepository</text><rect fill="#E3E3E3" height="32.6211" rx="2.5" ry="2.5" style="stroke:#181818;stroke-width:0.5;" width="159" x="2208" y="710.1504"/><text fill="#000000" font-family="sans-serif" font-size="14" lengthAdjust="spacing" textLength="145" x="2215" y="732.2578">greenSpaceRepository</text><rect fill="#FFFFFF" height="599.5293" style="stroke:#181818;stroke-width:1.0;" width="10" x="97.5" y="93.6211"/><rect fill="#FFFFFF" height="576.2383" style="stroke:#181818;stroke-width:1.0;" width="10" x="431.5" y="116.9121"/><rect fill="#FFFFFF" height="451.0742" style="stroke:#181818;stroke-width:1.0;" width="10" x="692.5" y="210.7852"/><rect fill="#FFFFFF" height="31.291" style="stroke:#181818;stroke-width:1.0;" width="10" x="853.5" y="242.0762"/><rect fill="#FFFFFF" height="31.291" style="stroke:#181818;stroke-width:1.0;" width="10" x="999.5" y="304.6582"/><rect fill="#FFFFFF" height="31.291" style="stroke:#181818;stroke-width:1.0;" width="10" x="1494.5" y="367.2402"/><rect fill="#FFFFFF" height="31.291" style="stroke:#181818;stroke-width:1.0;" width="10" x="1680.5" y="429.8223"/><rect fill="#FFFFFF" height="31.291" style="stroke:#181818;stroke-width:1.0;" width="10" x="1900" y="492.4043"/><rect fill="#FFFFFF" height="75.582" style="stroke:#181818;stroke-width:1.0;" width="10" x="2101.5" y="554.9863"/><polygon fill="#181818" points="419.5,112.9121,429.5,116.9121,419.5,120.9121,423.5,116.9121" style="stroke:#181818;stroke-width:1.0;"/><line style="stroke:#181818;stroke-width:1.0;" x1="107.5" x2="425.5" y1="116.9121" y2="116.9121"/><text fill="#000000" font-family="sans-serif" font-size="13" font-weight="bold" lengthAdjust="spacing" textLength="7" x="114.5" y="111.6494">1</text><text fill="#000000" font-family="sans-serif" font-size="13" lengthAdjust="spacing" textLength="187" x="125.5" y="111.6494">requests to register green space</text><polygon fill="#181818" points="118.5,144.2031,108.5,148.2031,118.5,152.2031,114.5,148.2031" style="stroke:#181818;stroke-width:1.0;"/><line style="stroke:#181818;stroke-width:1.0;stroke-dasharray:2.0,2.0;" x1="112.5" x2="430.5" y1="148.2031" y2="148.2031"/><text fill="#000000" font-family="sans-serif" font-size="13" font-weight="bold" lengthAdjust="spacing" textLength="7" x="124.5" y="142.9404">2</text><text fill="#000000" font-family="sans-serif" font-size="13" lengthAdjust="spacing" textLength="289" x="135.5" y="142.9404">prompts for required fields (e.g., name, area, type)</text><polygon fill="#181818" points="419.5,175.4941,429.5,179.4941,419.5,183.4941,423.5,179.4941" style="stroke:#181818;stroke-width:1.0;"/><line style="stroke:#181818;stroke-width:1.0;" x1="107.5" x2="425.5" y1="179.4941" y2="179.4941"/><text fill="#000000" font-family="sans-serif" font-size="13" font-weight="bold" lengthAdjust="spacing" textLength="7" x="114.5" y="174.2314">3</text><text fill="#000000" font-family="sans-serif" font-size="13" lengthAdjust="spacing" textLength="274" x="125.5" y="174.2314">provides green space details (name, area, type)</text><polygon fill="#181818" points="680.5,206.7852,690.5,210.7852,680.5,214.7852,684.5,210.7852" style="stroke:#181818;stroke-width:1.0;"/><line style="stroke:#181818;stroke-width:1.0;" x1="441.5" x2="686.5" y1="210.7852" y2="210.7852"/><text fill="#000000" font-family="sans-serif" font-size="13" font-weight="bold" lengthAdjust="spacing" textLength="7" x="448.5" y="205.5225">4</text><text fill="#000000" font-family="sans-serif" font-size="13" lengthAdjust="spacing" textLength="221" x="459.5" y="205.5225">registerGreenSpace(name, area, type)</text><polygon fill="#181818" points="841.5,238.0762,851.5,242.0762,841.5,246.0762,845.5,242.0762" style="stroke:#181818;stroke-width:1.0;"/><line style="stroke:#181818;stroke-width:1.0;" x1="702.5" x2="847.5" y1="242.0762" y2="242.0762"/><text fill="#000000" font-family="sans-serif" font-size="13" font-weight="bold" lengthAdjust="spacing" textLength="7" x="709.5" y="236.8135">5</text><text fill="#000000" font-family="sans-serif" font-size="13" lengthAdjust="spacing" textLength="75" x="720.5" y="236.8135">getInstance()</text><polygon fill="#181818" points="713.5,269.3672,703.5,273.3672,713.5,277.3672,709.5,273.3672" style="stroke:#181818;stroke-width:1.0;"/><line style="stroke:#181818;stroke-width:1.0;stroke-dasharray:2.0,2.0;" x1="707.5" x2="857.5" y1="273.3672" y2="273.3672"/><text fill="#000000" font-family="sans-serif" font-size="13" font-weight="bold" lengthAdjust="spacing" textLength="7" x="719.5" y="268.1045">6</text><text fill="#000000" font-family="sans-serif" font-size="13" lengthAdjust="spacing" textLength="67" x="730.5" y="268.1045">repositories</text><polygon fill="#181818" points="987.5,300.6582,997.5,304.6582,987.5,308.6582,991.5,304.6582" style="stroke:#181818;stroke-width:1.0;"/><line style="stroke:#181818;stroke-width:1.0;" x1="702.5" x2="993.5" y1="304.6582" y2="304.6582"/><text fill="#000000" font-family="sans-serif" font-size="13" font-weight="bold" lengthAdjust="spacing" textLength="7" x="709.5" y="299.3955">7</text><text fill="#000000" font-family="sans-serif" font-size="13" lengthAdjust="spacing" textLength="160" x="720.5" y="299.3955">getGreenSpaceRepository()</text><polygon fill="#181818" points="713.5,331.9492,703.5,335.9492,713.5,339.9492,709.5,335.9492" style="stroke:#181818;stroke-width:1.0;"/><line style="stroke:#181818;stroke-width:1.0;stroke-dasharray:2.0,2.0;" x1="707.5" x2="1003.5" y1="335.9492" y2="335.9492"/><text fill="#000000" font-family="sans-serif" font-size="13" font-weight="bold" lengthAdjust="spacing" textLength="7" x="719.5" y="330.6865">8</text><text fill="#000000" font-family="sans-serif" font-size="13" lengthAdjust="spacing" textLength="131" x="730.5" y="330.6865">greenSpaceRepository</text><polygon fill="#181818" points="1482.5,363.2402,1492.5,367.2402,1482.5,371.2402,1486.5,367.2402" style="stroke:#181818;stroke-width:1.0;"/><line style="stroke:#181818;stroke-width:1.0;" x1="702.5" x2="1488.5" y1="367.2402" y2="367.2402"/><text fill="#000000" font-family="sans-serif" font-size="13" font-weight="bold" lengthAdjust="spacing" textLength="7" x="709.5" y="361.9775">9</text><text fill="#000000" font-family="sans-serif" font-size="13" lengthAdjust="spacing" textLength="75" x="720.5" y="361.9775">getInstance()</text><polygon fill="#181818" points="713.5,394.5313,703.5,398.5313,713.5,402.5313,709.5,398.5313" style="stroke:#181818;stroke-width:1.0;"/><line style="stroke:#181818;stroke-width:1.0;" x1="707.5" x2="1498.5" y1="398.5313" y2="398.5313"/><text fill="#000000" font-family="sans-serif" font-size="13" font-weight="bold" lengthAdjust="spacing" textLength="14" x="719.5" y="393.2686">10</text><text fill="#000000" font-family="sans-serif" font-size="13" lengthAdjust="spacing" textLength="68" x="737.5" y="393.2686">appSession</text><polygon fill="#181818" points="1668.5,425.8223,1678.5,429.8223,1668.5,433.8223,1672.5,429.8223" style="stroke:#181818;stroke-width:1.0;"/><line style="stroke:#181818;stroke-width:1.0;" x1="702.5" x2="1674.5" y1="429.8223" y2="429.8223"/><text fill="#000000" font-family="sans-serif" font-size="13" font-weight="bold" lengthAdjust="spacing" textLength="14" x="709.5" y="424.5596">11</text><text fill="#000000" font-family="sans-serif" font-size="13" lengthAdjust="spacing" textLength="115" x="727.5" y="424.5596">getCurrentSession()</text><polygon fill="#181818" points="713.5,457.1133,703.5,461.1133,713.5,465.1133,709.5,461.1133" style="stroke:#181818;stroke-width:1.0;"/><line style="stroke:#181818;stroke-width:1.0;stroke-dasharray:2.0,2.0;" x1="707.5" x2="1684.5" y1="461.1133" y2="461.1133"/><text fill="#000000" font-family="sans-serif" font-size="13" font-weight="bold" lengthAdjust="spacing" textLength="14" x="719.5" y="455.8506">12</text><text fill="#000000" font-family="sans-serif" font-size="13" lengthAdjust="spacing" textLength="87" x="737.5" y="455.8506">currentSession</text><polygon fill="#181818" points="1888,488.4043,1898,492.4043,1888,496.4043,1892,492.4043" style="stroke:#181818;stroke-width:1.0;"/><line style="stroke:#181818;stroke-width:1.0;" x1="702.5" x2="1894" y1="492.4043" y2="492.4043"/><text fill="#000000" font-family="sans-serif" font-size="13" font-weight="bold" lengthAdjust="spacing" textLength="14" x="709.5" y="487.1416">13</text><text fill="#000000" font-family="sans-serif" font-size="13" lengthAdjust="spacing" textLength="86" x="727.5" y="487.1416">getUserEmail()</text><polygon fill="#181818" points="713.5,519.6953,703.5,523.6953,713.5,527.6953,709.5,523.6953" style="stroke:#181818;stroke-width:1.0;"/><line style="stroke:#181818;stroke-width:1.0;stroke-dasharray:2.0,2.0;" x1="707.5" x2="1904" y1="523.6953" y2="523.6953"/><text fill="#000000" font-family="sans-serif" font-size="13" font-weight="bold" lengthAdjust="spacing" textLength="14" x="719.5" y="518.4326">14</text><text fill="#000000" font-family="sans-serif" font-size="13" lengthAdjust="spacing" textLength="31" x="737.5" y="518.4326">email</text><polygon fill="#181818" points="2089.5,550.9863,2099.5,554.9863,2089.5,558.9863,2093.5,554.9863" style="stroke:#181818;stroke-width:1.0;"/><line style="stroke:#181818;stroke-width:1.0;" x1="702.5" x2="2095.5" y1="554.9863" y2="554.9863"/><text fill="#000000" font-family="sans-serif" font-size="13" font-weight="bold" lengthAdjust="spacing" textLength="14" x="709.5" y="549.7236">15</text><text fill="#000000" font-family="sans-serif" font-size="13" lengthAdjust="spacing" textLength="205" x="727.5" y="549.7236">new GreenSpace(name, area, type)</text><line style="stroke:#181818;stroke-width:1.0;" x1="2111.5" x2="2153.5" y1="586.2773" y2="586.2773"/><line style="stroke:#181818;stroke-width:1.0;" x1="2153.5" x2="2153.5" y1="586.2773" y2="599.2773"/><line style="stroke:#181818;stroke-width:1.0;" x1="2112.5" x2="2153.5" y1="599.2773" y2="599.2773"/><polygon fill="#181818" points="2122.5,595.2773,2112.5,599.2773,2122.5,603.2773,2118.5,599.2773" style="stroke:#181818;stroke-width:1.0;"/><text fill="#000000" font-family="sans-serif" font-size="13" font-weight="bold" lengthAdjust="spacing" textLength="14" x="2118.5" y="581.0146">16</text><text fill="#000000" font-family="sans-serif" font-size="13" lengthAdjust="spacing" textLength="85" x="2136.5" y="581.0146">validate details</text><polygon fill="#181818" points="2275.5,626.5684,2285.5,630.5684,2275.5,634.5684,2279.5,630.5684" style="stroke:#181818;stroke-width:1.0;"/><line style="stroke:#181818;stroke-width:1.0;" x1="2106.5" x2="2281.5" y1="630.5684" y2="630.5684"/><text fill="#000000" font-family="sans-serif" font-size="13" font-weight="bold" lengthAdjust="spacing" textLength="14" x="2113.5" y="625.3057">17</text><text fill="#000000" font-family="sans-serif" font-size="13" lengthAdjust="spacing" textLength="103" x="2131.5" y="625.3057">save(greenSpace)</text><polygon fill="#181818" points="452.5,657.8594,442.5,661.8594,452.5,665.8594,448.5,661.8594" style="stroke:#181818;stroke-width:1.0;"/><line style="stroke:#181818;stroke-width:1.0;stroke-dasharray:2.0,2.0;" x1="446.5" x2="696.5" y1="661.8594" y2="661.8594"/><text fill="#000000" font-family="sans-serif" font-size="13" font-weight="bold" lengthAdjust="spacing" textLength="14" x="458.5" y="656.5967">18</text><text fill="#000000" font-family="sans-serif" font-size="13" lengthAdjust="spacing" textLength="130" x="476.5" y="656.5967">registration successful</text><polygon fill="#181818" points="113.5,689.1504,103.5,693.1504,113.5,697.1504,109.5,693.1504" style="stroke:#181818;stroke-width:1.0;"/><line style="stroke:#181818;stroke-width:1.0;stroke-dasharray:2.0,2.0;" x1="107.5" x2="435.5" y1="693.1504" y2="693.1504"/><text fill="#000000" font-family="sans-serif" font-size="13" font-weight="bold" lengthAdjust="spacing" textLength="14" x="119.5" y="687.8877">19</text><text fill="#000000" font-family="sans-serif" font-size="13" lengthAdjust="spacing" textLength="130" x="137.5" y="687.8877">registration successful</text><!--SRC=[ZPN1Rk8m48RlFCM84qZG1-1G2I64aDfTHCfvvKs6r6fYfxP3nTjtx9349d6BBrYE_y__s3E3_k2YOegLK4eXqtSbImIZQfpexal5qW-MOsAk1OB2r32H5_u6_Suo-SL53cTMQ9nCM6sagCl_g6YU6gbWkbE80X9Y8RmoGJm5irtoEfy2qq2J2R4CJtd5X87f4NEk3IedSwhJtkqyxN_Rk972A5aKg9nWytPykPTKKdDonL6xBTt2DU4sD38VAfIdW1KC08UNzLkeo3ixFPoKkv7bvW96FeJ4TLKLF6M6Iv6WrlJZXF_MXqEuaLNLRGCT654DH6cj50hJ2qyQbQz8jaco_XiBCWYj2UYutVv93klDrgK0lp23xfadG8Cci7ocnoIXmiyQjT5W9CsRrmI71crnJj0XwFtTWXqaNnB5mbPGKUfMH3bJjbaaLvZ1cMEHQPZXK_wq0C5AN01Jo1PWhXNEXsQ8Sk4PlR9d038qZ1U4YG1QByyksLn8zqav8csLNMWkKxjbEnoEi2C9IgVaQFP2KpKIVXxeEkHOPWSxxHYZB_rW-cmFj1a-VauRYQsKnlfOniV2SFKryErOdj6nceiP7X9RXxQW7hfRLtdtdknYcmWhw4inviD1HdsqDZP1PSRC331sE2-TcR34OuQYVfe6u2pPth0jgIHYRcxDOc2eMVSyeQN4h8nHMZTzUw675_W53vLQODBlKFT6FVpzOHTMyCpgRrtX5staZq2p2yxwR_C1nRk7cD7cBlesQdkESgqUT9sczCxdkhzS3zWtcg23_aJmrBO3- -wefty3]--></g></svg>