<?xml version="1.0" encoding="us-ascii" standalone="no"?><svg xmlns="http://www.w3.org/2000/svg" xmlns:xlink="http://www.w3.org/1999/xlink" contentStyleType="text/css" height="845px" preserveAspectRatio="none" style="width:1958px;height:845px;background:#FFFFFF;" version="1.1" viewBox="0 0 1958 845" width="1958px" zoomAndPan="magnify"><defs/><g><!--class RegisterCollaboratorUI--><g id="elem_RegisterCollaboratorUI"><rect codeLine="1" fill="#F1F1F1" height="122.4844" id="RegisterCollaboratorUI" rx="2.5" ry="2.5" style="stroke:#181818;stroke-width:0.5;" width="209" x="1263.5" y="7"/><ellipse cx="1293.8" cy="23" fill="#ADD1B2" rx="11" ry="11" style="stroke:#181818;stroke-width:1.0;"/><path d="M1296.5656,18.875 Q1296.7219,18.6563 1296.9094,18.5469 Q1297.0969,18.4375 1297.3156,18.4375 Q1297.6906,18.4375 1297.925,18.7031 Q1298.1594,18.9531 1298.1594,19.5625 L1298.1594,21.0156 Q1298.1594,21.625 1297.925,21.8906 Q1297.6906,22.1563 1297.3156,22.1563 Q1296.9719,22.1563 1296.7688,21.9531 Q1296.5656,21.7656 1296.4563,21.25 Q1296.4094,20.8906 1296.2219,20.7031 Q1295.8938,20.3281 1295.2844,20.1094 Q1294.675,19.8906 1294.05,19.8906 Q1293.2844,19.8906 1292.6438,20.2188 Q1292.0188,20.5469 1291.5188,21.2969 Q1291.0344,22.0469 1291.0344,23.0781 L1291.0344,24.1719 Q1291.0344,25.4063 1291.925,26.2344 Q1292.8156,27.0469 1294.4094,27.0469 Q1295.3469,27.0469 1296.0031,26.7969 Q1296.3938,26.6406 1296.8156,26.2031 Q1297.0813,25.9375 1297.2219,25.8594 Q1297.3781,25.7813 1297.5813,25.7813 Q1297.9094,25.7813 1298.1594,26.0469 Q1298.425,26.2969 1298.425,26.6406 Q1298.425,26.9844 1298.0813,27.3906 Q1297.5813,27.9688 1296.7844,28.2969 Q1295.7063,28.75 1294.4094,28.75 Q1292.8938,28.75 1291.6906,28.125 Q1290.7063,27.625 1290.0188,26.5625 Q1289.3313,25.4844 1289.3313,24.2031 L1289.3313,23.0469 Q1289.3313,21.7188 1289.9406,20.5781 Q1290.5656,19.4219 1291.6594,18.8125 Q1292.7531,18.1875 1293.9875,18.1875 Q1294.7219,18.1875 1295.3625,18.3594 Q1296.0188,18.5156 1296.5656,18.875 Z " fill="#000000"/><text fill="#000000" font-family="sans-serif" font-size="14" lengthAdjust="spacing" textLength="143" x="1311.2" y="28.7969">RegisterCollaboratorUI</text><line style="stroke:#181818;stroke-width:0.5;" x1="1264.5" x2="1471.5" y1="39" y2="39"/><line style="stroke:#181818;stroke-width:0.5;" x1="1264.5" x2="1471.5" y1="47" y2="47"/><ellipse cx="1274.5" cy="61.8105" fill="#84BE84" rx="3" ry="3" style="stroke:#038048;stroke-width:1.0;"/><text fill="#000000" font-family="sans-serif" font-size="14" lengthAdjust="spacing" textLength="31" x="1283.5" y="66.1074">run()</text><rect fill="#F24D5C" height="6" style="stroke:#C82930;stroke-width:1.0;" width="6" x="1271.5" y="77.4316"/><text fill="#000000" font-family="sans-serif" font-size="14" lengthAdjust="spacing" textLength="183" x="1283.5" y="84.7285">requestStringInput(message)</text><rect fill="#F24D5C" height="6" style="stroke:#C82930;stroke-width:1.0;" width="6" x="1271.5" y="96.0527"/><text fill="#000000" font-family="sans-serif" font-size="14" lengthAdjust="spacing" textLength="176" x="1283.5" y="103.3496">requestDateInput(message)</text><rect fill="#F24D5C" height="6" style="stroke:#C82930;stroke-width:1.0;" width="6" x="1271.5" y="114.6738"/><text fill="#000000" font-family="sans-serif" font-size="14" lengthAdjust="spacing" textLength="80" x="1283.5" y="121.9707">requestJob()</text></g><!--class Job--><g id="elem_Job"><rect codeLine="8" fill="#F1F1F1" height="103.8633" id="Job" rx="2.5" ry="2.5" style="stroke:#181818;stroke-width:0.5;" width="138" x="515" y="735"/><ellipse cx="568.75" cy="751" fill="#ADD1B2" rx="11" ry="11" style="stroke:#181818;stroke-width:1.0;"/><path d="M571.5156,746.875 Q571.6719,746.6563 571.8594,746.5469 Q572.0469,746.4375 572.2656,746.4375 Q572.6406,746.4375 572.875,746.7031 Q573.1094,746.9531 573.1094,747.5625 L573.1094,749.0156 Q573.1094,749.625 572.875,749.8906 Q572.6406,750.1563 572.2656,750.1563 Q571.9219,750.1563 571.7188,749.9531 Q571.5156,749.7656 571.4063,749.25 Q571.3594,748.8906 571.1719,748.7031 Q570.8438,748.3281 570.2344,748.1094 Q569.625,747.8906 569,747.8906 Q568.2344,747.8906 567.5938,748.2188 Q566.9688,748.5469 566.4688,749.2969 Q565.9844,750.0469 565.9844,751.0781 L565.9844,752.1719 Q565.9844,753.4063 566.875,754.2344 Q567.7656,755.0469 569.3594,755.0469 Q570.2969,755.0469 570.9531,754.7969 Q571.3438,754.6406 571.7656,754.2031 Q572.0313,753.9375 572.1719,753.8594 Q572.3281,753.7813 572.5313,753.7813 Q572.8594,753.7813 573.1094,754.0469 Q573.375,754.2969 573.375,754.6406 Q573.375,754.9844 573.0313,755.3906 Q572.5313,755.9688 571.7344,756.2969 Q570.6563,756.75 569.3594,756.75 Q567.8438,756.75 566.6406,756.125 Q565.6563,755.625 564.9688,754.5625 Q564.2813,753.4844 564.2813,752.2031 L564.2813,751.0469 Q564.2813,749.7188 564.8906,748.5781 Q565.5156,747.4219 566.6094,746.8125 Q567.7031,746.1875 568.9375,746.1875 Q569.6719,746.1875 570.3125,746.3594 Q570.9688,746.5156 571.5156,746.875 Z " fill="#000000"/><text fill="#000000" font-family="sans-serif" font-size="14" lengthAdjust="spacing" textLength="22" x="589.25" y="756.7969">Job</text><line style="stroke:#181818;stroke-width:0.5;" x1="516" x2="652" y1="767" y2="767"/><rect fill="none" height="6" style="stroke:#C82930;stroke-width:1.0;" width="6" x="523" y="778.8105"/><text fill="#000000" font-family="sans-serif" font-size="14" lengthAdjust="spacing" textLength="65" x="535" y="786.1074">title: string</text><rect fill="none" height="6" style="stroke:#C82930;stroke-width:1.0;" width="6" x="523" y="797.4316"/><text fill="#000000" font-family="sans-serif" font-size="14" lengthAdjust="spacing" textLength="112" x="535" y="804.7285">description: string</text><line style="stroke:#181818;stroke-width:0.5;" x1="516" x2="652" y1="812.2422" y2="812.2422"/><ellipse cx="526" cy="827.0527" fill="#84BE84" rx="3" ry="3" style="stroke:#038048;stroke-width:1.0;"/><text fill="#000000" font-family="sans-serif" font-size="14" lengthAdjust="spacing" textLength="97" x="535" y="831.3496">Job(title: string)</text></g><!--class Collaborator--><g id="elem_Collaborator"><rect codeLine="14" fill="#F1F1F1" height="271.4531" id="Collaborator" rx="2.5" ry="2.5" style="stroke:#181818;stroke-width:0.5;" width="1154" x="7" y="385"/><ellipse cx="540.75" cy="401" fill="#ADD1B2" rx="11" ry="11" style="stroke:#181818;stroke-width:1.0;"/><path d="M543.5156,396.875 Q543.6719,396.6563 543.8594,396.5469 Q544.0469,396.4375 544.2656,396.4375 Q544.6406,396.4375 544.875,396.7031 Q545.1094,396.9531 545.1094,397.5625 L545.1094,399.0156 Q545.1094,399.625 544.875,399.8906 Q544.6406,400.1563 544.2656,400.1563 Q543.9219,400.1563 543.7188,399.9531 Q543.5156,399.7656 543.4063,399.25 Q543.3594,398.8906 543.1719,398.7031 Q542.8438,398.3281 542.2344,398.1094 Q541.625,397.8906 541,397.8906 Q540.2344,397.8906 539.5938,398.2188 Q538.9688,398.5469 538.4688,399.2969 Q537.9844,400.0469 537.9844,401.0781 L537.9844,402.1719 Q537.9844,403.4063 538.875,404.2344 Q539.7656,405.0469 541.3594,405.0469 Q542.2969,405.0469 542.9531,404.7969 Q543.3438,404.6406 543.7656,404.2031 Q544.0313,403.9375 544.1719,403.8594 Q544.3281,403.7813 544.5313,403.7813 Q544.8594,403.7813 545.1094,404.0469 Q545.375,404.2969 545.375,404.6406 Q545.375,404.9844 545.0313,405.3906 Q544.5313,405.9688 543.7344,406.2969 Q542.6563,406.75 541.3594,406.75 Q539.8438,406.75 538.6406,406.125 Q537.6563,405.625 536.9688,404.5625 Q536.2813,403.4844 536.2813,402.2031 L536.2813,401.0469 Q536.2813,399.7188 536.8906,398.5781 Q537.5156,397.4219 538.6094,396.8125 Q539.7031,396.1875 540.9375,396.1875 Q541.6719,396.1875 542.3125,396.3594 Q542.9688,396.5156 543.5156,396.875 Z " fill="#000000"/><text fill="#000000" font-family="sans-serif" font-size="14" lengthAdjust="spacing" textLength="78" x="561.25" y="406.7969">Collaborator</text><line style="stroke:#181818;stroke-width:0.5;" x1="8" x2="1160" y1="417" y2="417"/><rect fill="none" height="6" style="stroke:#C82930;stroke-width:1.0;" width="6" x="15" y="428.8105"/><text fill="#000000" font-family="sans-serif" font-size="14" lengthAdjust="spacing" textLength="78" x="27" y="436.1074">name: string</text><rect fill="none" height="6" style="stroke:#C82930;stroke-width:1.0;" width="6" x="15" y="447.4316"/><text fill="#000000" font-family="sans-serif" font-size="14" lengthAdjust="spacing" textLength="96" x="27" y="454.7285">birthDate: Date</text><rect fill="none" height="6" style="stroke:#C82930;stroke-width:1.0;" width="6" x="15" y="466.0527"/><text fill="#000000" font-family="sans-serif" font-size="14" lengthAdjust="spacing" textLength="131" x="27" y="473.3496">admissionDate: Date</text><rect fill="none" height="6" style="stroke:#C82930;stroke-width:1.0;" width="6" x="15" y="484.6738"/><text fill="#000000" font-family="sans-serif" font-size="14" lengthAdjust="spacing" textLength="94" x="27" y="491.9707">address: string</text><rect fill="none" height="6" style="stroke:#C82930;stroke-width:1.0;" width="6" x="15" y="503.2949"/><text fill="#000000" font-family="sans-serif" font-size="14" lengthAdjust="spacing" textLength="84" x="27" y="510.5918">mobile: string</text><rect fill="none" height="6" style="stroke:#C82930;stroke-width:1.0;" width="6" x="15" y="521.916"/><text fill="#000000" font-family="sans-serif" font-size="14" lengthAdjust="spacing" textLength="76" x="27" y="529.2129">email: string</text><rect fill="none" height="6" style="stroke:#C82930;stroke-width:1.0;" width="6" x="15" y="540.5371"/><text fill="#000000" font-family="sans-serif" font-size="14" lengthAdjust="spacing" textLength="146" x="27" y="547.834">taxpayerNumber: string</text><rect fill="none" height="6" style="stroke:#C82930;stroke-width:1.0;" width="6" x="15" y="559.1582"/><text fill="#000000" font-family="sans-serif" font-size="14" lengthAdjust="spacing" textLength="111" x="27" y="566.4551">idDocType: string</text><rect fill="none" height="6" style="stroke:#C82930;stroke-width:1.0;" width="6" x="15" y="577.7793"/><text fill="#000000" font-family="sans-serif" font-size="14" lengthAdjust="spacing" textLength="103" x="27" y="585.0762">idNumber: string</text><rect fill="none" height="6" style="stroke:#C82930;stroke-width:1.0;" width="6" x="15" y="596.4004"/><text fill="#000000" font-family="sans-serif" font-size="14" lengthAdjust="spacing" textLength="49" x="27" y="603.6973">job: Job</text><rect fill="none" height="6" style="stroke:#C82930;stroke-width:1.0;" width="6" x="15" y="615.0215"/><text fill="#000000" font-family="sans-serif" font-size="14" lengthAdjust="spacing" textLength="103" x="27" y="622.3184">password: string</text><line style="stroke:#181818;stroke-width:0.5;" x1="8" x2="1160" y1="629.832" y2="629.832"/><ellipse cx="18" cy="644.6426" fill="#84BE84" rx="3" ry="3" style="stroke:#038048;stroke-width:1.0;"/><text fill="#000000" font-family="sans-serif" font-size="14" lengthAdjust="spacing" textLength="1128" x="27" y="648.9395">Collaborator(name: string, birthDate: Date, admissionDate: Date, address: string, mobile: string, email: string, taxpayerNumber: string, idDocType: string, idNumber: string, job: Job)</text></g><!--class EmailService--><g id="elem_EmailService"><rect codeLine="29" fill="#F1F1F1" height="85.2422" id="EmailService" rx="2.5" ry="2.5" style="stroke:#181818;stroke-width:0.5;" width="343" x="1196.5" y="478"/><ellipse cx="1323.25" cy="494" fill="#ADD1B2" rx="11" ry="11" style="stroke:#181818;stroke-width:1.0;"/><path d="M1326.0156,489.875 Q1326.1719,489.6563 1326.3594,489.5469 Q1326.5469,489.4375 1326.7656,489.4375 Q1327.1406,489.4375 1327.375,489.7031 Q1327.6094,489.9531 1327.6094,490.5625 L1327.6094,492.0156 Q1327.6094,492.625 1327.375,492.8906 Q1327.1406,493.1563 1326.7656,493.1563 Q1326.4219,493.1563 1326.2188,492.9531 Q1326.0156,492.7656 1325.9063,492.25 Q1325.8594,491.8906 1325.6719,491.7031 Q1325.3438,491.3281 1324.7344,491.1094 Q1324.125,490.8906 1323.5,490.8906 Q1322.7344,490.8906 1322.0938,491.2188 Q1321.4688,491.5469 1320.9688,492.2969 Q1320.4844,493.0469 1320.4844,494.0781 L1320.4844,495.1719 Q1320.4844,496.4063 1321.375,497.2344 Q1322.2656,498.0469 1323.8594,498.0469 Q1324.7969,498.0469 1325.4531,497.7969 Q1325.8438,497.6406 1326.2656,497.2031 Q1326.5313,496.9375 1326.6719,496.8594 Q1326.8281,496.7813 1327.0313,496.7813 Q1327.3594,496.7813 1327.6094,497.0469 Q1327.875,497.2969 1327.875,497.6406 Q1327.875,497.9844 1327.5313,498.3906 Q1327.0313,498.9688 1326.2344,499.2969 Q1325.1563,499.75 1323.8594,499.75 Q1322.3438,499.75 1321.1406,499.125 Q1320.1563,498.625 1319.4688,497.5625 Q1318.7813,496.4844 1318.7813,495.2031 L1318.7813,494.0469 Q1318.7813,492.7188 1319.3906,491.5781 Q1320.0156,490.4219 1321.1094,489.8125 Q1322.2031,489.1875 1323.4375,489.1875 Q1324.1719,489.1875 1324.8125,489.3594 Q1325.4688,489.5156 1326.0156,489.875 Z " fill="#000000"/><text fill="#000000" font-family="sans-serif" font-size="14" lengthAdjust="spacing" textLength="81" x="1343.75" y="499.7969">EmailService</text><line style="stroke:#181818;stroke-width:0.5;" x1="1197.5" x2="1538.5" y1="510" y2="510"/><line style="stroke:#181818;stroke-width:0.5;" x1="1197.5" x2="1538.5" y1="518" y2="518"/><ellipse cx="1207.5" cy="532.8105" fill="#84BE84" rx="3" ry="3" style="stroke:#038048;stroke-width:1.0;"/><text fill="#000000" font-family="sans-serif" font-size="14" lengthAdjust="spacing" textLength="317" x="1216.5" y="537.1074">sendPasswordByEmail(recipientEmail: string): void</text><rect fill="#F24D5C" height="6" style="stroke:#C82930;stroke-width:1.0;" width="6" x="1204.5" y="548.4316"/><text fill="#000000" font-family="sans-serif" font-size="14" lengthAdjust="spacing" textLength="171" x="1216.5" y="555.7285">generatePassword(): string</text></g><!--class RegisterCollaboratorController--><g id="elem_RegisterCollaboratorController"><rect codeLine="34" fill="#F1F1F1" height="103.8633" id="RegisterCollaboratorController" rx="2.5" ry="2.5" style="stroke:#181818;stroke-width:0.5;" width="366" x="1185" y="202"/><ellipse cx="1267.25" cy="218" fill="#ADD1B2" rx="11" ry="11" style="stroke:#181818;stroke-width:1.0;"/><path d="M1270.0156,213.875 Q1270.1719,213.6563 1270.3594,213.5469 Q1270.5469,213.4375 1270.7656,213.4375 Q1271.1406,213.4375 1271.375,213.7031 Q1271.6094,213.9531 1271.6094,214.5625 L1271.6094,216.0156 Q1271.6094,216.625 1271.375,216.8906 Q1271.1406,217.1563 1270.7656,217.1563 Q1270.4219,217.1563 1270.2188,216.9531 Q1270.0156,216.7656 1269.9063,216.25 Q1269.8594,215.8906 1269.6719,215.7031 Q1269.3438,215.3281 1268.7344,215.1094 Q1268.125,214.8906 1267.5,214.8906 Q1266.7344,214.8906 1266.0938,215.2188 Q1265.4688,215.5469 1264.9688,216.2969 Q1264.4844,217.0469 1264.4844,218.0781 L1264.4844,219.1719 Q1264.4844,220.4063 1265.375,221.2344 Q1266.2656,222.0469 1267.8594,222.0469 Q1268.7969,222.0469 1269.4531,221.7969 Q1269.8438,221.6406 1270.2656,221.2031 Q1270.5313,220.9375 1270.6719,220.8594 Q1270.8281,220.7813 1271.0313,220.7813 Q1271.3594,220.7813 1271.6094,221.0469 Q1271.875,221.2969 1271.875,221.6406 Q1271.875,221.9844 1271.5313,222.3906 Q1271.0313,222.9688 1270.2344,223.2969 Q1269.1563,223.75 1267.8594,223.75 Q1266.3438,223.75 1265.1406,223.125 Q1264.1563,222.625 1263.4688,221.5625 Q1262.7813,220.4844 1262.7813,219.2031 L1262.7813,218.0469 Q1262.7813,216.7188 1263.3906,215.5781 Q1264.0156,214.4219 1265.1094,213.8125 Q1266.2031,213.1875 1267.4375,213.1875 Q1268.1719,213.1875 1268.8125,213.3594 Q1269.4688,213.5156 1270.0156,213.875 Z " fill="#000000"/><text fill="#000000" font-family="sans-serif" font-size="14" lengthAdjust="spacing" textLength="193" x="1287.75" y="223.7969">RegisterCollaboratorController</text><line style="stroke:#181818;stroke-width:0.5;" x1="1186" x2="1550" y1="234" y2="234"/><rect fill="none" height="6" style="stroke:#C82930;stroke-width:1.0;" width="6" x="1193" y="245.8105"/><text fill="#000000" font-family="sans-serif" font-size="14" lengthAdjust="spacing" textLength="297" x="1205" y="253.1074">collaboratorRepository: CollaboratorRepository</text><rect fill="none" height="6" style="stroke:#C82930;stroke-width:1.0;" width="6" x="1193" y="264.4316"/><text fill="#000000" font-family="sans-serif" font-size="14" lengthAdjust="spacing" textLength="169" x="1205" y="271.7285">emailService: EmailService</text><line style="stroke:#181818;stroke-width:0.5;" x1="1186" x2="1550" y1="279.2422" y2="279.2422"/><ellipse cx="1196" cy="294.0527" fill="#84BE84" rx="3" ry="3" style="stroke:#038048;stroke-width:1.0;"/><text fill="#000000" font-family="sans-serif" font-size="14" lengthAdjust="spacing" textLength="340" x="1205" y="298.3496">registerCollaborator(collaborator: Collaborator): string</text></g><!--class CollaboratorRepository--><g id="elem_CollaboratorRepository"><rect codeLine="40" fill="#F1F1F1" height="85.2422" id="CollaboratorRepository" rx="2.5" ry="2.5" style="stroke:#181818;stroke-width:0.5;" width="376" x="1575" y="478"/><ellipse cx="1685.75" cy="494" fill="#ADD1B2" rx="11" ry="11" style="stroke:#181818;stroke-width:1.0;"/><path d="M1688.5156,489.875 Q1688.6719,489.6563 1688.8594,489.5469 Q1689.0469,489.4375 1689.2656,489.4375 Q1689.6406,489.4375 1689.875,489.7031 Q1690.1094,489.9531 1690.1094,490.5625 L1690.1094,492.0156 Q1690.1094,492.625 1689.875,492.8906 Q1689.6406,493.1563 1689.2656,493.1563 Q1688.9219,493.1563 1688.7188,492.9531 Q1688.5156,492.7656 1688.4063,492.25 Q1688.3594,491.8906 1688.1719,491.7031 Q1687.8438,491.3281 1687.2344,491.1094 Q1686.625,490.8906 1686,490.8906 Q1685.2344,490.8906 1684.5938,491.2188 Q1683.9688,491.5469 1683.4688,492.2969 Q1682.9844,493.0469 1682.9844,494.0781 L1682.9844,495.1719 Q1682.9844,496.4063 1683.875,497.2344 Q1684.7656,498.0469 1686.3594,498.0469 Q1687.2969,498.0469 1687.9531,497.7969 Q1688.3438,497.6406 1688.7656,497.2031 Q1689.0313,496.9375 1689.1719,496.8594 Q1689.3281,496.7813 1689.5313,496.7813 Q1689.8594,496.7813 1690.1094,497.0469 Q1690.375,497.2969 1690.375,497.6406 Q1690.375,497.9844 1690.0313,498.3906 Q1689.5313,498.9688 1688.7344,499.2969 Q1687.6563,499.75 1686.3594,499.75 Q1684.8438,499.75 1683.6406,499.125 Q1682.6563,498.625 1681.9688,497.5625 Q1681.2813,496.4844 1681.2813,495.2031 L1681.2813,494.0469 Q1681.2813,492.7188 1681.8906,491.5781 Q1682.5156,490.4219 1683.6094,489.8125 Q1684.7031,489.1875 1685.9375,489.1875 Q1686.6719,489.1875 1687.3125,489.3594 Q1687.9688,489.5156 1688.5156,489.875 Z " fill="#000000"/><text fill="#000000" font-family="sans-serif" font-size="14" lengthAdjust="spacing" textLength="146" x="1706.25" y="499.7969">CollaboratorRepository</text><line style="stroke:#181818;stroke-width:0.5;" x1="1576" x2="1950" y1="510" y2="510"/><rect fill="none" height="6" style="stroke:#C82930;stroke-width:1.0;" width="6" x="1583" y="521.8105"/><text fill="#000000" font-family="sans-serif" font-size="14" lengthAdjust="spacing" textLength="206" x="1595" y="529.1074">collaborators: List&lt;Collaborator&gt;</text><line style="stroke:#181818;stroke-width:0.5;" x1="1576" x2="1950" y1="536.6211" y2="536.6211"/><ellipse cx="1586" cy="551.4316" fill="#84BE84" rx="3" ry="3" style="stroke:#038048;stroke-width:1.0;"/><text fill="#000000" font-family="sans-serif" font-size="14" lengthAdjust="spacing" textLength="350" x="1595" y="555.7285">add(collaborator: Collaborator): Optional&lt;Collaborator&gt;</text></g><!--link RegisterCollaboratorUI to RegisterCollaboratorController--><g id="link_RegisterCollaboratorUI_RegisterCollaboratorController"><path codeLine="44" d="M1368,129.25 C1368,152.73 1368,179.35 1368,201.87 " fill="none" id="RegisterCollaboratorUI-RegisterCollaboratorController" style="stroke:#181818;stroke-width:1.0;"/><polygon fill="#000000" points="1373,170.5,1375.9389,161.4549,1370.0611,161.4549,1373,170.5" style="stroke:#000000;stroke-width:1.0;"/></g><!--link Collaborator to Job--><g id="link_Collaborator_Job"><path codeLine="45" d="M584,656.07 C584,684.15 584,712.09 584,734.82 " fill="none" id="Collaborator-Job" style="stroke:#181818;stroke-width:1.0;"/><polygon fill="#000000" points="589,700.6455,591.9389,691.6004,586.0611,691.6004,589,700.6455" style="stroke:#000000;stroke-width:1.0;"/><text fill="#000000" font-family="sans-serif" font-size="13" lengthAdjust="spacing" textLength="32" x="598" y="701.0283">has a</text></g><!--link RegisterCollaboratorController to CollaboratorRepository--><g id="link_RegisterCollaboratorController_CollaboratorRepository"><path codeLine="46" d="M1444.63,306.31 C1519.34,356.34 1631.54,431.47 1700.86,477.89 " fill="none" id="RegisterCollaboratorController-CollaboratorRepository" style="stroke:#181818;stroke-width:1.0;"/><polygon fill="#000000" points="1517.1546,348.4275,1511.2741,340.9528,1508.0037,345.8368,1517.1546,348.4275" style="stroke:#000000;stroke-width:1.0;"/><text fill="#000000" font-family="sans-serif" font-size="13" lengthAdjust="spacing" textLength="28" x="1522" y="351.0283">uses</text></g><!--link RegisterCollaboratorController to EmailService--><g id="link_RegisterCollaboratorController_EmailService"><path codeLine="47" d="M1368,306.31 C1368,356.34 1368,431.47 1368,477.89 " fill="none" id="RegisterCollaboratorController-EmailService" style="stroke:#181818;stroke-width:1.0;"/><polygon fill="#000000" points="1373,350.6455,1375.9389,341.6004,1370.0611,341.6004,1373,350.6455" style="stroke:#000000;stroke-width:1.0;"/><text fill="#000000" font-family="sans-serif" font-size="13" lengthAdjust="spacing" textLength="28" x="1382" y="351.0283">uses</text></g><!--link RegisterCollaboratorController to Collaborator--><g id="link_RegisterCollaboratorController_Collaborator"><path codeLine="48" d="M1216.37,306.15 C1148.94,328.91 1066.04,356.87 982.74,384.98 " fill="none" id="RegisterCollaboratorController-Collaborator" style="stroke:#181818;stroke-width:1.0;"/><polygon fill="#000000" points="1115.2624,347.244,1124.7724,347.137,1122.8932,341.5676,1115.2624,347.244" style="stroke:#000000;stroke-width:1.0;"/><text fill="#000000" font-family="sans-serif" font-size="13" lengthAdjust="spacing" textLength="43" x="1129" y="351.0283">creates</text></g><!--SRC=[ZLJBReCm4Bpp5JuInVo0LUNG98TMLLibxGSOM2MkmAPhapQgykyro4biGnuS4DxrxEoCrnGLrvgiO2Eq0PohgkAvGcuKVZwHluJOPugjJ2VzPuRmtO8sQuD2Rfvaqvgq1gtv1i8D2sxWIlfPvRRY8KcAdjuk7LT6Z30LCA9x1XShGHSe6YEK33BJ3fa62A-gB-PKNl8whfuBDDkkOKQwjuloiXPQMyQHJ8bML5IbLhaOD0ur5rKKC_otuNl0rxRE0QEaA1Ug-DWtC8YFRlzIEUiySCl6olvHM4Oc-KQalW4qrax7PDDOCOt4qb0dlI2H3jNHWJ1wqkITvB8hlmRSYGAEGqaqoFBT2NxSzrjIX48q0gHP-WrD6DafKJgJDY31MW57R3evsNKY7BiFSoKDsZMSXwdmqYjeb1RsOyy2myznVoQS61P8Sy9mX3prgKA2aVR7-KVRjeVwOjaUVCZCDMAF_JhlMtybUHMX3yc5_md9CdBBMqPcIN1pUr3tXs1aopNXDd-ZH8-uu04ZhGPzPurWxkv5Mc3GFoC5Wfst3leF]--></g></svg>