<?xml version="1.0" encoding="us-ascii" standalone="no"?><svg xmlns="http://www.w3.org/2000/svg" xmlns:xlink="http://www.w3.org/1999/xlink" contentStyleType="text/css" height="878px" preserveAspectRatio="none" style="width:2224px;height:878px;background:#FFFFFF;" version="1.1" viewBox="0 0 2224 878" width="2224px" zoomAndPan="magnify"><defs/><g><text fill="#000000" font-family="sans-serif" font-size="14" font-weight="bold" lengthAdjust="spacing" textLength="177" x="1024.5" y="30.1074">Collaborator Registration</text><rect fill="#FFFFFF" height="653.1602" style="stroke:#181818;stroke-width:1.0;" width="10" x="106" y="133.2422"/><rect fill="#FFFFFF" height="613.8691" style="stroke:#181818;stroke-width:1.0;" width="10" x="341" y="156.5332"/><rect fill="#FFFFFF" height="31.291" style="stroke:#181818;stroke-width:1.0;" width="10" x="1086" y="232.1152"/><rect fill="#FFFFFF" height="337.541" style="stroke:#181818;stroke-width:1.0;" width="10" x="1086" y="401.5703"/><rect fill="#FFFFFF" height="31.291" style="stroke:#181818;stroke-width:1.0;" width="10" x="1881" y="551.3652"/><rect fill="#FFFFFF" height="31.291" style="stroke:#181818;stroke-width:1.0;" width="10" x="2017" y="613.9473"/><rect fill="#FFFFFF" height="31.291" style="stroke:#181818;stroke-width:1.0;" width="10" x="2154.5" y="676.5293"/><rect fill="none" height="361.832" style="stroke:#000000;stroke-width:1.5;" width="2207" x="10" y="416.5703"/><line style="stroke:#181818;stroke-width:0.5;stroke-dasharray:5.0,5.0;" x1="111" x2="111" y1="123.2422" y2="795.4023"/><line style="stroke:#181818;stroke-width:0.5;stroke-dasharray:5.0,5.0;" x1="345.5" x2="345.5" y1="123.2422" y2="795.4023"/><line style="stroke:#181818;stroke-width:0.5;stroke-dasharray:5.0,5.0;" x1="1090.5" x2="1090.5" y1="123.2422" y2="795.4023"/><line style="stroke:#181818;stroke-width:0.5;stroke-dasharray:5.0,5.0;" x1="1886" x2="1886" y1="123.2422" y2="795.4023"/><line style="stroke:#181818;stroke-width:0.5;stroke-dasharray:5.0,5.0;" x1="2022" x2="2022" y1="123.2422" y2="795.4023"/><line style="stroke:#181818;stroke-width:0.5;stroke-dasharray:5.0,5.0;" x1="2159" x2="2159" y1="123.2422" y2="795.4023"/><text fill="#000000" font-family="sans-serif" font-size="14" lengthAdjust="spacing" textLength="176" x="20" y="119.7285">Human Resources Manager</text><ellipse cx="111" cy="53.1211" fill="#E3E3E3" rx="8" ry="8" style="stroke:#181818;stroke-width:0.5;"/><path d="M111,61.1211 L111,88.1211 M98,69.1211 L124,69.1211 M111,88.1211 L98,103.1211 M111,88.1211 L124,103.1211 " fill="none" style="stroke:#181818;stroke-width:0.5;"/><text fill="#000000" font-family="sans-serif" font-size="14" lengthAdjust="spacing" textLength="176" x="20" y="809.5098">Human Resources Manager</text><ellipse cx="111" cy="821.5234" fill="#E3E3E3" rx="8" ry="8" style="stroke:#181818;stroke-width:0.5;"/><path d="M111,829.5234 L111,856.5234 M98,837.5234 L124,837.5234 M111,856.5234 L98,871.5234 M111,856.5234 L124,871.5234 " fill="none" style="stroke:#181818;stroke-width:0.5;"/><rect fill="#E3E3E3" height="32.6211" rx="2.5" ry="2.5" style="stroke:#181818;stroke-width:0.5;" width="157" x="267.5" y="89.6211"/><text fill="#000000" font-family="sans-serif" font-size="14" lengthAdjust="spacing" textLength="143" x="274.5" y="111.7285">RegisterCollaboratorUI</text><rect fill="#E3E3E3" height="32.6211" rx="2.5" ry="2.5" style="stroke:#181818;stroke-width:0.5;" width="157" x="267.5" y="794.4023"/><text fill="#000000" font-family="sans-serif" font-size="14" lengthAdjust="spacing" textLength="143" x="274.5" y="816.5098">RegisterCollaboratorUI</text><rect fill="#E3E3E3" height="32.6211" rx="2.5" ry="2.5" style="stroke:#181818;stroke-width:0.5;" width="207" x="987.5" y="89.6211"/><text fill="#000000" font-family="sans-serif" font-size="14" lengthAdjust="spacing" textLength="193" x="994.5" y="111.7285">RegisterCollaboratorController</text><rect fill="#E3E3E3" height="32.6211" rx="2.5" ry="2.5" style="stroke:#181818;stroke-width:0.5;" width="207" x="987.5" y="794.4023"/><text fill="#000000" font-family="sans-serif" font-size="14" lengthAdjust="spacing" textLength="193" x="994.5" y="816.5098">RegisterCollaboratorController</text><rect fill="#E3E3E3" height="32.6211" rx="2.5" ry="2.5" style="stroke:#181818;stroke-width:0.5;" width="92" x="1840" y="89.6211"/><text fill="#000000" font-family="sans-serif" font-size="14" lengthAdjust="spacing" textLength="78" x="1847" y="111.7285">Collaborator</text><rect fill="#E3E3E3" height="32.6211" rx="2.5" ry="2.5" style="stroke:#181818;stroke-width:0.5;" width="92" x="1840" y="794.4023"/><text fill="#000000" font-family="sans-serif" font-size="14" lengthAdjust="spacing" textLength="78" x="1847" y="816.5098">Collaborator</text><rect fill="#E3E3E3" height="32.6211" rx="2.5" ry="2.5" style="stroke:#181818;stroke-width:0.5;" width="160" x="1942" y="89.6211"/><text fill="#000000" font-family="sans-serif" font-size="14" lengthAdjust="spacing" textLength="146" x="1949" y="111.7285">CollaboratorRepository</text><rect fill="#E3E3E3" height="32.6211" rx="2.5" ry="2.5" style="stroke:#181818;stroke-width:0.5;" width="160" x="1942" y="794.4023"/><text fill="#000000" font-family="sans-serif" font-size="14" lengthAdjust="spacing" textLength="146" x="1949" y="816.5098">CollaboratorRepository</text><rect fill="#E3E3E3" height="32.6211" rx="2.5" ry="2.5" style="stroke:#181818;stroke-width:0.5;" width="95" x="2112" y="89.6211"/><text fill="#000000" font-family="sans-serif" font-size="14" lengthAdjust="spacing" textLength="81" x="2119" y="111.7285">EmailService</text><rect fill="#E3E3E3" height="32.6211" rx="2.5" ry="2.5" style="stroke:#181818;stroke-width:0.5;" width="95" x="2112" y="794.4023"/><text fill="#000000" font-family="sans-serif" font-size="14" lengthAdjust="spacing" textLength="81" x="2119" y="816.5098">EmailService</text><rect fill="#FFFFFF" height="653.1602" style="stroke:#181818;stroke-width:1.0;" width="10" x="106" y="133.2422"/><rect fill="#FFFFFF" height="613.8691" style="stroke:#181818;stroke-width:1.0;" width="10" x="341" y="156.5332"/><rect fill="#FFFFFF" height="31.291" style="stroke:#181818;stroke-width:1.0;" width="10" x="1086" y="232.1152"/><rect fill="#FFFFFF" height="337.541" style="stroke:#181818;stroke-width:1.0;" width="10" x="1086" y="401.5703"/><rect fill="#FFFFFF" height="31.291" style="stroke:#181818;stroke-width:1.0;" width="10" x="1881" y="551.3652"/><rect fill="#FFFFFF" height="31.291" style="stroke:#181818;stroke-width:1.0;" width="10" x="2017" y="613.9473"/><rect fill="#FFFFFF" height="31.291" style="stroke:#181818;stroke-width:1.0;" width="10" x="2154.5" y="676.5293"/><polygon fill="#181818" points="329,152.5332,339,156.5332,329,160.5332,333,156.5332" style="stroke:#181818;stroke-width:1.0;"/><line style="stroke:#181818;stroke-width:1.0;" x1="116" x2="335" y1="156.5332" y2="156.5332"/><text fill="#000000" font-family="sans-serif" font-size="13" font-weight="bold" lengthAdjust="spacing" textLength="7" x="123" y="151.2705">1</text><text fill="#000000" font-family="sans-serif" font-size="13" lengthAdjust="spacing" textLength="177" x="134" y="151.2705">solicita registro de colaborador</text><line style="stroke:#181818;stroke-width:1.0;" x1="351" x2="393" y1="187.8242" y2="187.8242"/><line style="stroke:#181818;stroke-width:1.0;" x1="393" x2="393" y1="187.8242" y2="200.8242"/><line style="stroke:#181818;stroke-width:1.0;" x1="352" x2="393" y1="200.8242" y2="200.8242"/><polygon fill="#181818" points="362,196.8242,352,200.8242,362,204.8242,358,200.8242" style="stroke:#181818;stroke-width:1.0;"/><text fill="#000000" font-family="sans-serif" font-size="13" font-weight="bold" lengthAdjust="spacing" textLength="7" x="358" y="182.5615">2</text><text fill="#000000" font-family="sans-serif" font-size="13" lengthAdjust="spacing" textLength="168" x="369" y="182.5615">Solicita categoria de trabalho</text><polygon fill="#181818" points="1074,228.1152,1084,232.1152,1074,236.1152,1078,232.1152" style="stroke:#181818;stroke-width:1.0;"/><line style="stroke:#181818;stroke-width:1.0;" x1="351" x2="1080" y1="232.1152" y2="232.1152"/><text fill="#000000" font-family="sans-serif" font-size="13" font-weight="bold" lengthAdjust="spacing" textLength="7" x="358" y="226.8525">3</text><text fill="#000000" font-family="sans-serif" font-size="13" lengthAdjust="spacing" textLength="71" x="369" y="226.8525">requestJob()</text><polygon fill="#181818" points="362,259.4063,352,263.4063,362,267.4063,358,263.4063" style="stroke:#181818;stroke-width:1.0;"/><line style="stroke:#181818;stroke-width:1.0;stroke-dasharray:2.0,2.0;" x1="356" x2="1090" y1="263.4063" y2="263.4063"/><text fill="#000000" font-family="sans-serif" font-size="13" font-weight="bold" lengthAdjust="spacing" textLength="7" x="368" y="258.1436">4</text><text fill="#000000" font-family="sans-serif" font-size="13" lengthAdjust="spacing" textLength="106" x="379" y="258.1436">lista de categorias</text><polygon fill="#181818" points="127,290.6973,117,294.6973,127,298.6973,123,294.6973" style="stroke:#181818;stroke-width:1.0;"/><line style="stroke:#181818;stroke-width:1.0;" x1="121" x2="340" y1="294.6973" y2="294.6973"/><text fill="#000000" font-family="sans-serif" font-size="13" font-weight="bold" lengthAdjust="spacing" textLength="7" x="133" y="289.4346">5</text><text fill="#000000" font-family="sans-serif" font-size="13" lengthAdjust="spacing" textLength="114" x="144" y="289.4346">Seleciona categoria</text><polygon fill="#181818" points="329,321.9883,339,325.9883,329,329.9883,333,325.9883" style="stroke:#181818;stroke-width:1.0;"/><line style="stroke:#181818;stroke-width:1.0;" x1="116" x2="335" y1="325.9883" y2="325.9883"/><text fill="#000000" font-family="sans-serif" font-size="13" font-weight="bold" lengthAdjust="spacing" textLength="7" x="123" y="320.7256">6</text><text fill="#000000" font-family="sans-serif" font-size="13" lengthAdjust="spacing" textLength="163" x="134" y="320.7256">Insere dados do colaborador</text><line style="stroke:#181818;stroke-width:1.0;" x1="351" x2="393" y1="357.2793" y2="357.2793"/><line style="stroke:#181818;stroke-width:1.0;" x1="393" x2="393" y1="357.2793" y2="370.2793"/><line style="stroke:#181818;stroke-width:1.0;" x1="352" x2="393" y1="370.2793" y2="370.2793"/><polygon fill="#181818" points="362,366.2793,352,370.2793,362,374.2793,358,370.2793" style="stroke:#181818;stroke-width:1.0;"/><text fill="#000000" font-family="sans-serif" font-size="13" font-weight="bold" lengthAdjust="spacing" textLength="7" x="358" y="352.0166">7</text><text fill="#000000" font-family="sans-serif" font-size="13" lengthAdjust="spacing" textLength="167" x="369" y="352.0166">Obt&#233;m dados do colaborador</text><polygon fill="#181818" points="1074,397.5703,1084,401.5703,1074,405.5703,1078,401.5703" style="stroke:#181818;stroke-width:1.0;"/><line style="stroke:#181818;stroke-width:1.0;" x1="351" x2="1080" y1="401.5703" y2="401.5703"/><text fill="#000000" font-family="sans-serif" font-size="13" font-weight="bold" lengthAdjust="spacing" textLength="7" x="358" y="396.3076">8</text><text fill="#000000" font-family="sans-serif" font-size="13" lengthAdjust="spacing" textLength="705" x="369" y="396.3076">registerCollaborator(name, birthDate, admissionDate, address, mobile, email, taxpayerNumber, idDocType, idNumber, job)</text><path d="M10,416.5703 L71,416.5703 L71,425.8613 L61,435.8613 L10,435.8613 L10,416.5703 " fill="#EEEEEE" style="stroke:#000000;stroke-width:1.5;"/><rect fill="none" height="361.832" style="stroke:#000000;stroke-width:1.5;" width="2207" x="10" y="416.5703"/><text fill="#000000" font-family="sans-serif" font-size="13" font-weight="bold" lengthAdjust="spacing" textLength="16" x="25" y="431.5986">alt</text><text fill="#000000" font-family="sans-serif" font-size="11" font-weight="bold" lengthAdjust="spacing" textLength="94" x="86" y="430.4404">[Dados Inv&#225;lidos]</text><polygon fill="#181818" points="362,455.1523,352,459.1523,362,463.1523,358,459.1523" style="stroke:#181818;stroke-width:1.0;"/><line style="stroke:#181818;stroke-width:1.0;stroke-dasharray:2.0,2.0;" x1="356" x2="1085" y1="459.1523" y2="459.1523"/><text fill="#000000" font-family="sans-serif" font-size="13" font-weight="bold" lengthAdjust="spacing" textLength="7" x="368" y="453.8896">9</text><text fill="#000000" font-family="sans-serif" font-size="13" lengthAdjust="spacing" textLength="328" x="379" y="453.8896">Erro: formato de e-mail inv&#225;lido ou outros dados inv&#225;lidos</text><line style="stroke:#000000;stroke-width:1.0;stroke-dasharray:2.0,2.0;" x1="10" x2="2217" y1="468.1523" y2="468.1523"/><text fill="#000000" font-family="sans-serif" font-size="11" font-weight="bold" lengthAdjust="spacing" textLength="86" x="15" y="480.0225">[Dados V&#225;lidos]</text><line style="stroke:#181818;stroke-width:1.0;" x1="1096" x2="1138" y1="507.0742" y2="507.0742"/><line style="stroke:#181818;stroke-width:1.0;" x1="1138" x2="1138" y1="507.0742" y2="520.0742"/><line style="stroke:#181818;stroke-width:1.0;" x1="1097" x2="1138" y1="520.0742" y2="520.0742"/><polygon fill="#181818" points="1107,516.0742,1097,520.0742,1107,524.0742,1103,520.0742" style="stroke:#181818;stroke-width:1.0;"/><text fill="#000000" font-family="sans-serif" font-size="13" font-weight="bold" lengthAdjust="spacing" textLength="14" x="1103" y="501.8115">10</text><text fill="#000000" font-family="sans-serif" font-size="13" lengthAdjust="spacing" textLength="120" x="1121" y="501.8115">Gera senha aleat&#243;ria</text><polygon fill="#181818" points="1869,547.3652,1879,551.3652,1869,555.3652,1873,551.3652" style="stroke:#181818;stroke-width:1.0;"/><line style="stroke:#181818;stroke-width:1.0;" x1="1096" x2="1875" y1="551.3652" y2="551.3652"/><text fill="#000000" font-family="sans-serif" font-size="13" font-weight="bold" lengthAdjust="spacing" textLength="14" x="1103" y="546.1025">11</text><text fill="#000000" font-family="sans-serif" font-size="13" lengthAdjust="spacing" textLength="748" x="1121" y="546.1025">new Collaborator(name, birthDate, admissionDate, address, mobile, email taxpayerNumber, idDocType, idNumber, job, password)</text><polygon fill="#181818" points="1107,578.6563,1097,582.6563,1107,586.6563,1103,582.6563" style="stroke:#181818;stroke-width:1.0;"/><line style="stroke:#181818;stroke-width:1.0;stroke-dasharray:2.0,2.0;" x1="1101" x2="1885" y1="582.6563" y2="582.6563"/><text fill="#000000" font-family="sans-serif" font-size="13" font-weight="bold" lengthAdjust="spacing" textLength="14" x="1113" y="577.3936">12</text><text fill="#000000" font-family="sans-serif" font-size="13" lengthAdjust="spacing" textLength="113" x="1131" y="577.3936">returns Collaborator</text><polygon fill="#181818" points="2005,609.9473,2015,613.9473,2005,617.9473,2009,613.9473" style="stroke:#181818;stroke-width:1.0;"/><line style="stroke:#181818;stroke-width:1.0;" x1="1096" x2="2011" y1="613.9473" y2="613.9473"/><text fill="#000000" font-family="sans-serif" font-size="13" font-weight="bold" lengthAdjust="spacing" textLength="14" x="1103" y="608.6846">13</text><text fill="#000000" font-family="sans-serif" font-size="13" lengthAdjust="spacing" textLength="96" x="1121" y="608.6846">add(collaborator)</text><polygon fill="#181818" points="1107,641.2383,1097,645.2383,1107,649.2383,1103,645.2383" style="stroke:#181818;stroke-width:1.0;"/><line style="stroke:#181818;stroke-width:1.0;stroke-dasharray:2.0,2.0;" x1="1101" x2="2021" y1="645.2383" y2="645.2383"/><text fill="#000000" font-family="sans-serif" font-size="13" font-weight="bold" lengthAdjust="spacing" textLength="14" x="1113" y="639.9756">14</text><text fill="#000000" font-family="sans-serif" font-size="13" lengthAdjust="spacing" textLength="102" x="1131" y="639.9756">Colaborador salvo</text><polygon fill="#181818" points="2142.5,672.5293,2152.5,676.5293,2142.5,680.5293,2146.5,676.5293" style="stroke:#181818;stroke-width:1.0;"/><line style="stroke:#181818;stroke-width:1.0;" x1="1096" x2="2148.5" y1="676.5293" y2="676.5293"/><text fill="#000000" font-family="sans-serif" font-size="13" font-weight="bold" lengthAdjust="spacing" textLength="14" x="1103" y="671.2666">15</text><text fill="#000000" font-family="sans-serif" font-size="13" lengthAdjust="spacing" textLength="272" x="1121" y="671.2666">sendPasswordByEmail(collaborator.getEmail())</text><polygon fill="#181818" points="1107,703.8203,1097,707.8203,1107,711.8203,1103,707.8203" style="stroke:#181818;stroke-width:1.0;"/><line style="stroke:#181818;stroke-width:1.0;stroke-dasharray:2.0,2.0;" x1="1101" x2="2158.5" y1="707.8203" y2="707.8203"/><text fill="#000000" font-family="sans-serif" font-size="13" font-weight="bold" lengthAdjust="spacing" textLength="14" x="1113" y="702.5576">16</text><text fill="#000000" font-family="sans-serif" font-size="13" lengthAdjust="spacing" textLength="80" x="1131" y="702.5576">Email enviado</text><polygon fill="#181818" points="362,735.1113,352,739.1113,362,743.1113,358,739.1113" style="stroke:#181818;stroke-width:1.0;"/><line style="stroke:#181818;stroke-width:1.0;stroke-dasharray:2.0,2.0;" x1="356" x2="1090" y1="739.1113" y2="739.1113"/><text fill="#000000" font-family="sans-serif" font-size="13" font-weight="bold" lengthAdjust="spacing" textLength="14" x="368" y="733.8486">17</text><text fill="#000000" font-family="sans-serif" font-size="13" lengthAdjust="spacing" textLength="183" x="386" y="733.8486">Sucesso: colaborador registado</text><polygon fill="#181818" points="127,766.4023,117,770.4023,127,774.4023,123,770.4023" style="stroke:#181818;stroke-width:1.0;"/><line style="stroke:#181818;stroke-width:1.0;stroke-dasharray:2.0,2.0;" x1="121" x2="345" y1="770.4023" y2="770.4023"/><text fill="#000000" font-family="sans-serif" font-size="13" font-weight="bold" lengthAdjust="spacing" textLength="14" x="133" y="765.1396">18</text><text fill="#000000" font-family="sans-serif" font-size="13" lengthAdjust="spacing" textLength="183" x="151" y="765.1396">Sucesso: colaborador registado</text><!--SRC=[hLJDSjf03BxxAJGvaHd80t3eeI7Jq9d-33IzoxO2swnNTBM6yZWzzjn7o8jLknXiWvFsK8Q3LjOdVVfs9NaoReCUAwZOSR7sN144NrCcfoyRB9vmHSkmjmIUYe1kPRi1iiQITyQju16jK9PX7TZLLKu-ou892hjbQp5dZu4zB6Xb9AXjs6bm4NrNztM5JZy9rxuWWG_ejAY_0XIuNpIdJ0i6KvWDkW1NXppakyaVvWdnCFzxw2sxuFNS56cFVMWNqWIsZfT35xHXCMhi4oWU-y5t5Hgx9Byr1QMGv4Xwc2q6wdHzic3oHbkRWh3LF07rEfAK32L1mOVYfT8w9L4XieVv4RSyuWhzjc9lC0BrAdAqQsu2Mo6cclzxJHBUSpwwRfDsf6fDc3H5h39AUKz592jf2DmKFBMd1CbIeS-Ymp2xR7_kX3n1gQqAbDphl6tsKnwUVrMlHVKxlNmX8uSLZI4tFgndocSCM5P6H0aUZwKdaR5EJswiEYZUuHW2_jZWdlp7D0HZCEMCYo_x3KNpwFp6-R2c6Te0iqHxxhRFFwrHCmFz3QXzvprFuP5zfOoZwZI97C0SaS2r_XKcZHIcpKawhasbho_LwSlqZZo2a5iZe2KCpx_Z5GrXMXcdu6W7_q7OVzPrh4jBPCU-l4xSEYftPlV0khEO9XTl8jJUoIMgVSu3hSTHdyOEHaK7TqOaxOFeYSP5uTlsgOAWtV9PrHRUBvrMo3JUJ_cv4U3jFZbxN6vM50xUwpDQXnqKNScw87RmajiQvNPEgWKFlDDbhLjTL9ZE63P3Dv2gCmtnInpNiqNnUhhpVBe6LPCNrb0_xWy0]--></g></svg>