<?xml version="1.0" encoding="UTF-8" standalone="no"?><svg xmlns="http://www.w3.org/2000/svg" xmlns:xlink="http://www.w3.org/1999/xlink" contentStyleType="text/css" height="474px" preserveAspectRatio="none" style="width:245px;height:474px;background:#FFFFFF;" version="1.1" viewBox="0 0 245 474" width="245px" zoomAndPan="magnify"><defs/><g><!--MD5=[17e00d5ea56ecd111f381cd1084c4da3]
class HumanResourcesManager--><g id="elem_HumanResourcesManager"><rect codeLine="1" fill="#F1F1F1" height="48" id="HumanResourcesManager" rx="2.5" ry="2.5" style="stroke:#181818;stroke-width:0.5;" width="216" x="12.5" y="7"/><ellipse cx="27.5" cy="23" fill="#ADD1B2" rx="11" ry="11" style="stroke:#181818;stroke-width:1.0;"/><path d="M30.4688,28.6406 Q29.8906,28.9375 29.25,29.0781 Q28.6094,29.2344 27.9063,29.2344 Q25.4063,29.2344 24.0781,27.5938 Q22.7656,25.9375 22.7656,22.8125 Q22.7656,19.6875 24.0781,18.0313 Q25.4063,16.375 27.9063,16.375 Q28.6094,16.375 29.25,16.5313 Q29.9063,16.6875 30.4688,16.9844 L30.4688,19.7031 Q29.8438,19.125 29.25,18.8594 Q28.6563,18.5781 28.0313,18.5781 Q26.6875,18.5781 26,19.6563 Q25.3125,20.7188 25.3125,22.8125 Q25.3125,24.9063 26,25.9844 Q26.6875,27.0469 28.0313,27.0469 Q28.6563,27.0469 29.25,26.7813 Q29.8438,26.5 30.4688,25.9219 L30.4688,28.6406 Z " fill="#000000"/><text fill="#000000" font-family="sans-serif" font-size="14" lengthAdjust="spacing" textLength="184" x="41.5" y="27.8467">HumanResourcesManager</text><line style="stroke:#181818;stroke-width:0.5;" x1="13.5" x2="227.5" y1="39" y2="39"/><line style="stroke:#181818;stroke-width:0.5;" x1="13.5" x2="227.5" y1="47" y2="47"/></g><!--MD5=[3fd616f346a44cd59a91eb10b19e157c]
class User--><g id="elem_User"><rect codeLine="5" fill="#F1F1F1" height="178.375" id="User" rx="2.5" ry="2.5" style="stroke:#181818;stroke-width:0.5;" width="227" x="7" y="132"/><ellipse cx="100.25" cy="148" fill="#ADD1B2" rx="11" ry="11" style="stroke:#181818;stroke-width:1.0;"/><path d="M103.2188,153.6406 Q102.6406,153.9375 102,154.0781 Q101.3594,154.2344 100.6563,154.2344 Q98.1563,154.2344 96.8281,152.5938 Q95.5156,150.9375 95.5156,147.8125 Q95.5156,144.6875 96.8281,143.0313 Q98.1563,141.375 100.6563,141.375 Q101.3594,141.375 102,141.5313 Q102.6563,141.6875 103.2188,141.9844 L103.2188,144.7031 Q102.5938,144.125 102,143.8594 Q101.4063,143.5781 100.7813,143.5781 Q99.4375,143.5781 98.75,144.6563 Q98.0625,145.7188 98.0625,147.8125 Q98.0625,149.9063 98.75,150.9844 Q99.4375,152.0469 100.7813,152.0469 Q101.4063,152.0469 102,151.7813 Q102.5938,151.5 103.2188,150.9219 L103.2188,153.6406 Z " fill="#000000"/><text fill="#000000" font-family="sans-serif" font-size="14" lengthAdjust="spacing" textLength="32" x="120.75" y="152.8467">User</text><line style="stroke:#181818;stroke-width:0.5;" x1="8" x2="233" y1="164" y2="164"/><text fill="#000000" font-family="sans-serif" font-size="14" lengthAdjust="spacing" textLength="40" x="13" y="180.9951">Name</text><text fill="#000000" font-family="sans-serif" font-size="14" lengthAdjust="spacing" textLength="80" x="13" y="197.292">DateOfBirth</text><text fill="#000000" font-family="sans-serif" font-size="14" lengthAdjust="spacing" textLength="119" x="13" y="213.5889">DateOfAdmission</text><text fill="#000000" font-family="sans-serif" font-size="14" lengthAdjust="spacing" textLength="57" x="13" y="229.8857">Address</text><text fill="#000000" font-family="sans-serif" font-size="14" lengthAdjust="spacing" textLength="100" x="13" y="246.1826">PhoneNumber</text><text fill="#000000" font-family="sans-serif" font-size="14" lengthAdjust="spacing" textLength="36" x="13" y="262.4795">Email</text><text fill="#000000" font-family="sans-serif" font-size="14" lengthAdjust="spacing" textLength="215" x="13" y="278.7764">IdentificationDocumentNumber</text><text fill="#000000" font-family="sans-serif" font-size="14" lengthAdjust="spacing" textLength="117" x="13" y="295.0732">TaxPayerNumber</text><line style="stroke:#181818;stroke-width:0.5;" x1="8" x2="233" y1="302.375" y2="302.375"/></g><!--MD5=[b8e0354e0f3f5cbf52553869b78c0afa]
class Job--><g id="elem_Job"><rect codeLine="16" fill="#F1F1F1" height="80.5938" id="Job" rx="2.5" ry="2.5" style="stroke:#181818;stroke-width:0.5;" width="91" x="9" y="387"/><ellipse cx="41.1" cy="403" fill="#ADD1B2" rx="11" ry="11" style="stroke:#181818;stroke-width:1.0;"/><path d="M44.0688,408.6406 Q43.4906,408.9375 42.85,409.0781 Q42.2094,409.2344 41.5063,409.2344 Q39.0063,409.2344 37.6781,407.5938 Q36.3656,405.9375 36.3656,402.8125 Q36.3656,399.6875 37.6781,398.0313 Q39.0063,396.375 41.5063,396.375 Q42.2094,396.375 42.85,396.5313 Q43.5063,396.6875 44.0688,396.9844 L44.0688,399.7031 Q43.4438,399.125 42.85,398.8594 Q42.2563,398.5781 41.6313,398.5781 Q40.2875,398.5781 39.6,399.6563 Q38.9125,400.7188 38.9125,402.8125 Q38.9125,404.9063 39.6,405.9844 Q40.2875,407.0469 41.6313,407.0469 Q42.2563,407.0469 42.85,406.7813 Q43.4438,406.5 44.0688,405.9219 L44.0688,408.6406 Z " fill="#000000"/><text fill="#000000" font-family="sans-serif" font-size="14" lengthAdjust="spacing" textLength="21" x="58.9" y="407.8467">Job</text><line style="stroke:#181818;stroke-width:0.5;" x1="10" x2="99" y1="419" y2="419"/><text fill="#000000" font-family="sans-serif" font-size="14" lengthAdjust="spacing" textLength="29" x="15" y="435.9951">Title</text><text fill="#000000" font-family="sans-serif" font-size="14" lengthAdjust="spacing" textLength="79" x="15" y="452.292">Description</text><line style="stroke:#181818;stroke-width:0.5;" x1="10" x2="99" y1="459.5938" y2="459.5938"/></g><!--MD5=[bdf662e7ebf319cf8f4f527e53a85987]
class UserPortal--><g id="elem_UserPortal"><rect codeLine="21" fill="#F1F1F1" height="48" id="UserPortal" rx="2.5" ry="2.5" style="stroke:#181818;stroke-width:0.5;" width="103" x="135" y="403.5"/><ellipse cx="150" cy="419.5" fill="#ADD1B2" rx="11" ry="11" style="stroke:#181818;stroke-width:1.0;"/><path d="M152.9688,425.1406 Q152.3906,425.4375 151.75,425.5781 Q151.1094,425.7344 150.4063,425.7344 Q147.9063,425.7344 146.5781,424.0938 Q145.2656,422.4375 145.2656,419.3125 Q145.2656,416.1875 146.5781,414.5313 Q147.9063,412.875 150.4063,412.875 Q151.1094,412.875 151.75,413.0313 Q152.4063,413.1875 152.9688,413.4844 L152.9688,416.2031 Q152.3438,415.625 151.75,415.3594 Q151.1563,415.0781 150.5313,415.0781 Q149.1875,415.0781 148.5,416.1563 Q147.8125,417.2188 147.8125,419.3125 Q147.8125,421.4063 148.5,422.4844 Q149.1875,423.5469 150.5313,423.5469 Q151.1563,423.5469 151.75,423.2813 Q152.3438,423 152.9688,422.4219 L152.9688,425.1406 Z " fill="#000000"/><text fill="#000000" font-family="sans-serif" font-size="14" lengthAdjust="spacing" textLength="71" x="164" y="424.3467">UserPortal</text><line style="stroke:#181818;stroke-width:0.5;" x1="136" x2="237" y1="435.5" y2="435.5"/><line style="stroke:#181818;stroke-width:0.5;" x1="136" x2="237" y1="443.5" y2="443.5"/></g><!--MD5=[41b801615a054f1b09640d50c5c2cc68]
link HumanResourcesManager to User--><g id="link_HumanResourcesManager_User"><path codeLine="24" d="M120.5,55.05 C120.5,74.47 120.5,103.53 120.5,131.88 " fill="none" id="HumanResourcesManager-User" style="stroke:#181818;stroke-width:1.0;"/><polygon fill="#000000" points="125.5,98.5664,128.4389,89.5213,122.5611,89.5213,125.5,98.5664" style="stroke:#000000;stroke-width:1.0;"/><text fill="#000000" font-family="sans-serif" font-size="13" lengthAdjust="spacing" textLength="56" x="134.5" y="98.0669">registers</text><text fill="#000000" font-family="sans-serif" font-size="13" lengthAdjust="spacing" textLength="8" x="111.475" y="75.2186">1</text><text fill="#000000" font-family="sans-serif" font-size="13" lengthAdjust="spacing" textLength="7" x="113.2102" y="120.9355">*</text></g><!--MD5=[18ec5c9f1348f978072b96d5f00cf6e9]
link User to Job--><g id="link_User_Job"><path codeLine="25" d="M92.03,310.21 C83.41,336.91 74.38,364.91 67.33,386.75 " fill="none" id="User-Job" style="stroke:#181818;stroke-width:1.0;"/><polygon fill="#000000" points="85.9644,353.3248,91.5392,345.6194,85.9454,343.8142,85.9644,353.3248" style="stroke:#000000;stroke-width:1.0;"/><text fill="#000000" font-family="sans-serif" font-size="13" lengthAdjust="spacing" textLength="35" x="96.5" y="353.0669">has a</text><text fill="#000000" font-family="sans-serif" font-size="13" lengthAdjust="spacing" textLength="7" x="82.2826" y="330.5775">*</text><text fill="#000000" font-family="sans-serif" font-size="13" lengthAdjust="spacing" textLength="8" x="60.7925" y="375.8701">1</text></g><!--MD5=[676e30cf8fcfe5a79acd83be108a6aac]
link User to UserPortal--><g id="link_User_UserPortal"><path codeLine="26" d="M148.97,310.21 C159.99,344.37 171.71,380.66 179.06,403.44 " fill="none" id="User-UserPortal" style="stroke:#181818;stroke-width:1.0;"/><polygon fill="#000000" points="169.0357,353.3247,169.0544,343.8142,163.4607,345.6195,169.0357,353.3247" style="stroke:#000000;stroke-width:1.0;"/><text fill="#000000" font-family="sans-serif" font-size="13" lengthAdjust="spacing" textLength="44" x="176.5" y="353.0669">entries</text><text fill="#000000" font-family="sans-serif" font-size="13" lengthAdjust="spacing" textLength="8" x="143.0729" y="330.5775">1</text><text fill="#000000" font-family="sans-serif" font-size="13" lengthAdjust="spacing" textLength="8" x="168.1285" y="392.4367">1</text></g><!--MD5=[9b651c0a319ff43921c82751a247a246]
@startuml
class HumanResourcesManager {

}

class User {
    Name
    DateOfBirth
    DateOfAdmission
    Address
    PhoneNumber
    Email
    IdentificationDocumentNumber
    TaxPayerNumber
}

class Job {
    Title
    Description
}

class UserPortal {

}
HumanResourcesManager "1" - - "*" User : registers >
User "*" - - "1" Job : has a >
User "1" - - "1" UserPortal : entries >
@enduml

PlantUML version 1.2022.7(Mon Aug 22 17:01:30 UTC 2022)
(GPL source distribution)
Java Runtime: OpenJDK Runtime Environment
JVM: OpenJDK 64-Bit Server VM
Default Encoding: UTF-8
Language: en
Country: null
--></g></svg>