<?xml version="1.0" encoding="UTF-8" standalone="no"?><svg xmlns="http://www.w3.org/2000/svg" xmlns:xlink="http://www.w3.org/1999/xlink" contentStyleType="text/css" height="600px" preserveAspectRatio="none" style="width:241px;height:600px;background:#FFFFFF;" version="1.1" viewBox="0 0 241 600" width="241px" zoomAndPan="magnify"><defs/><g><!--MD5=[17e00d5ea56ecd111f381cd1084c4da3]
class HumanResourcesManager--><g id="elem_HumanResourcesManager"><rect codeLine="1" fill="#F1F1F1" height="48" id="HumanResourcesManager" rx="2.5" ry="2.5" style="stroke:#181818;stroke-width:0.5;" width="216" x="12.5" y="7"/><ellipse cx="27.5" cy="23" fill="#ADD1B2" rx="11" ry="11" style="stroke:#181818;stroke-width:1.0;"/><path d="M30.4688,28.6406 Q29.8906,28.9375 29.25,29.0781 Q28.6094,29.2344 27.9063,29.2344 Q25.4063,29.2344 24.0781,27.5938 Q22.7656,25.9375 22.7656,22.8125 Q22.7656,19.6875 24.0781,18.0313 Q25.4063,16.375 27.9063,16.375 Q28.6094,16.375 29.25,16.5313 Q29.9063,16.6875 30.4688,16.9844 L30.4688,19.7031 Q29.8438,19.125 29.25,18.8594 Q28.6563,18.5781 28.0313,18.5781 Q26.6875,18.5781 26,19.6563 Q25.3125,20.7188 25.3125,22.8125 Q25.3125,24.9063 26,25.9844 Q26.6875,27.0469 28.0313,27.0469 Q28.6563,27.0469 29.25,26.7813 Q29.8438,26.5 30.4688,25.9219 L30.4688,28.6406 Z " fill="#000000"/><text fill="#000000" font-family="sans-serif" font-size="14" lengthAdjust="spacing" textLength="184" x="41.5" y="27.8467">HumanResourcesManager</text><line style="stroke:#181818;stroke-width:0.5;" x1="13.5" x2="227.5" y1="39" y2="39"/><line style="stroke:#181818;stroke-width:0.5;" x1="13.5" x2="227.5" y1="47" y2="47"/></g><!--MD5=[3fd616f346a44cd59a91eb10b19e157c]
class User--><g id="elem_User"><rect codeLine="5" fill="#F1F1F1" height="178.375" id="User" rx="2.5" ry="2.5" style="stroke:#181818;stroke-width:0.5;" width="227" x="7" y="290"/><ellipse cx="100.25" cy="306" fill="#ADD1B2" rx="11" ry="11" style="stroke:#181818;stroke-width:1.0;"/><path d="M103.2188,311.6406 Q102.6406,311.9375 102,312.0781 Q101.3594,312.2344 100.6563,312.2344 Q98.1563,312.2344 96.8281,310.5938 Q95.5156,308.9375 95.5156,305.8125 Q95.5156,302.6875 96.8281,301.0313 Q98.1563,299.375 100.6563,299.375 Q101.3594,299.375 102,299.5313 Q102.6563,299.6875 103.2188,299.9844 L103.2188,302.7031 Q102.5938,302.125 102,301.8594 Q101.4063,301.5781 100.7813,301.5781 Q99.4375,301.5781 98.75,302.6563 Q98.0625,303.7188 98.0625,305.8125 Q98.0625,307.9063 98.75,308.9844 Q99.4375,310.0469 100.7813,310.0469 Q101.4063,310.0469 102,309.7813 Q102.5938,309.5 103.2188,308.9219 L103.2188,311.6406 Z " fill="#000000"/><text fill="#000000" font-family="sans-serif" font-size="14" lengthAdjust="spacing" textLength="32" x="120.75" y="310.8467">User</text><line style="stroke:#181818;stroke-width:0.5;" x1="8" x2="233" y1="322" y2="322"/><text fill="#000000" font-family="sans-serif" font-size="14" lengthAdjust="spacing" textLength="40" x="13" y="338.9951">Name</text><text fill="#000000" font-family="sans-serif" font-size="14" lengthAdjust="spacing" textLength="80" x="13" y="355.292">DateOfBirth</text><text fill="#000000" font-family="sans-serif" font-size="14" lengthAdjust="spacing" textLength="119" x="13" y="371.5889">DateOfAdmission</text><text fill="#000000" font-family="sans-serif" font-size="14" lengthAdjust="spacing" textLength="57" x="13" y="387.8857">Address</text><text fill="#000000" font-family="sans-serif" font-size="14" lengthAdjust="spacing" textLength="100" x="13" y="404.1826">PhoneNumber</text><text fill="#000000" font-family="sans-serif" font-size="14" lengthAdjust="spacing" textLength="36" x="13" y="420.4795">Email</text><text fill="#000000" font-family="sans-serif" font-size="14" lengthAdjust="spacing" textLength="215" x="13" y="436.7764">IdentificationDocumentNumber</text><text fill="#000000" font-family="sans-serif" font-size="14" lengthAdjust="spacing" textLength="117" x="13" y="453.0732">TaxPayerNumber</text><line style="stroke:#181818;stroke-width:0.5;" x1="8" x2="233" y1="460.375" y2="460.375"/></g><!--MD5=[42e1add689e888dd7b55d3ee3f1dd6d7]
class Skill--><g id="elem_Skill"><rect codeLine="16" fill="#F1F1F1" height="80.5938" id="Skill" rx="2.5" ry="2.5" style="stroke:#181818;stroke-width:0.5;" width="91" x="75" y="132"/><ellipse cx="104.85" cy="148" fill="#ADD1B2" rx="11" ry="11" style="stroke:#181818;stroke-width:1.0;"/><path d="M107.8188,153.6406 Q107.2406,153.9375 106.6,154.0781 Q105.9594,154.2344 105.2563,154.2344 Q102.7563,154.2344 101.4281,152.5938 Q100.1156,150.9375 100.1156,147.8125 Q100.1156,144.6875 101.4281,143.0313 Q102.7563,141.375 105.2563,141.375 Q105.9594,141.375 106.6,141.5313 Q107.2563,141.6875 107.8188,141.9844 L107.8188,144.7031 Q107.1938,144.125 106.6,143.8594 Q106.0063,143.5781 105.3813,143.5781 Q104.0375,143.5781 103.35,144.6563 Q102.6625,145.7188 102.6625,147.8125 Q102.6625,149.9063 103.35,150.9844 Q104.0375,152.0469 105.3813,152.0469 Q106.0063,152.0469 106.6,151.7813 Q107.1938,151.5 107.8188,150.9219 L107.8188,153.6406 Z " fill="#000000"/><text fill="#000000" font-family="sans-serif" font-size="14" lengthAdjust="spacing" textLength="26" x="122.15" y="152.8467">Skill</text><line style="stroke:#181818;stroke-width:0.5;" x1="76" x2="165" y1="164" y2="164"/><text fill="#000000" font-family="sans-serif" font-size="14" lengthAdjust="spacing" textLength="29" x="81" y="180.9951">Title</text><text fill="#000000" font-family="sans-serif" font-size="14" lengthAdjust="spacing" textLength="79" x="81" y="197.292">Description</text><line style="stroke:#181818;stroke-width:0.5;" x1="76" x2="165" y1="204.5938" y2="204.5938"/></g><!--MD5=[bdf662e7ebf319cf8f4f527e53a85987]
class UserPortal--><g id="elem_UserPortal"><rect codeLine="21" fill="#F1F1F1" height="48" id="UserPortal" rx="2.5" ry="2.5" style="stroke:#181818;stroke-width:0.5;" width="103" x="69" y="545"/><ellipse cx="84" cy="561" fill="#ADD1B2" rx="11" ry="11" style="stroke:#181818;stroke-width:1.0;"/><path d="M86.9688,566.6406 Q86.3906,566.9375 85.75,567.0781 Q85.1094,567.2344 84.4063,567.2344 Q81.9063,567.2344 80.5781,565.5938 Q79.2656,563.9375 79.2656,560.8125 Q79.2656,557.6875 80.5781,556.0313 Q81.9063,554.375 84.4063,554.375 Q85.1094,554.375 85.75,554.5313 Q86.4063,554.6875 86.9688,554.9844 L86.9688,557.7031 Q86.3438,557.125 85.75,556.8594 Q85.1563,556.5781 84.5313,556.5781 Q83.1875,556.5781 82.5,557.6563 Q81.8125,558.7188 81.8125,560.8125 Q81.8125,562.9063 82.5,563.9844 Q83.1875,565.0469 84.5313,565.0469 Q85.1563,565.0469 85.75,564.7813 Q86.3438,564.5 86.9688,563.9219 L86.9688,566.6406 Z " fill="#000000"/><text fill="#000000" font-family="sans-serif" font-size="14" lengthAdjust="spacing" textLength="71" x="98" y="565.8467">UserPortal</text><line style="stroke:#181818;stroke-width:0.5;" x1="70" x2="171" y1="577" y2="577"/><line style="stroke:#181818;stroke-width:0.5;" x1="70" x2="171" y1="585" y2="585"/></g><!--MD5=[6f28e58bd08eeb2113be648be8ec5f74]
link HumanResourcesManager to Skill--><g id="link_HumanResourcesManager_Skill"><path codeLine="24" d="M120.5,55.04 C120.5,75.85 120.5,106.94 120.5,131.77 " fill="none" id="HumanResourcesManager-Skill" style="stroke:#181818;stroke-width:1.0;"/><polygon fill="#000000" points="125.5,98.5664,128.4389,89.5213,122.5611,89.5213,125.5,98.5664" style="stroke:#000000;stroke-width:1.0;"/><text fill="#000000" font-family="sans-serif" font-size="13" lengthAdjust="spacing" textLength="41" x="134.5" y="98.0669">assign</text><text fill="#000000" font-family="sans-serif" font-size="13" lengthAdjust="spacing" textLength="8" x="111.475" y="75.206">1</text><text fill="#000000" font-family="sans-serif" font-size="13" lengthAdjust="spacing" textLength="7" x="112.9203" y="120.8934">*</text></g><!--MD5=[28b0b07b295f301b24d02d04c913263e]
link Skill to User--><g id="link_Skill_User"><path codeLine="25" d="M120.5,213.42 C120.5,235.27 120.5,263.26 120.5,289.94 " fill="none" id="Skill-User" style="stroke:#181818;stroke-width:1.0;"/><polygon fill="#000000" points="125.5,256.5664,128.4389,247.5213,122.5611,247.5213,125.5,256.5664" style="stroke:#000000;stroke-width:1.0;"/><text fill="#000000" font-family="sans-serif" font-size="13" lengthAdjust="spacing" textLength="13" x="134.5" y="256.0669">to</text><text fill="#000000" font-family="sans-serif" font-size="13" lengthAdjust="spacing" textLength="7" x="112.9859" y="232.6382">*</text><text fill="#000000" font-family="sans-serif" font-size="13" lengthAdjust="spacing" textLength="8" x="112.1688" y="279.0005">1</text></g><!--MD5=[676e30cf8fcfe5a79acd83be108a6aac]
link User to UserPortal--><g id="link_User_UserPortal"><path codeLine="26" d="M120.5,468.22 C120.5,496.46 120.5,525.4 120.5,544.79 " fill="none" id="User-UserPortal" style="stroke:#181818;stroke-width:1.0;"/><polygon fill="#000000" points="125.5,511.5664,128.4389,502.5213,122.5611,502.5213,125.5,511.5664" style="stroke:#000000;stroke-width:1.0;"/><text fill="#000000" font-family="sans-serif" font-size="13" lengthAdjust="spacing" textLength="44" x="134.5" y="511.0669">entries</text><text fill="#000000" font-family="sans-serif" font-size="13" lengthAdjust="spacing" textLength="8" x="112.1563" y="488.5884">1</text><text fill="#000000" font-family="sans-serif" font-size="13" lengthAdjust="spacing" textLength="8" x="111.475" y="533.7482">1</text></g><!--MD5=[f2ffd02aab47dd1f202b7752e6f7bb52]
@startuml
class HumanResourcesManager {

}

class  User{
    Name
    DateOfBirth
    DateOfAdmission
    Address
    PhoneNumber
    Email
    IdentificationDocumentNumber
    TaxPayerNumber
}

class Skill {
    Title
    Description
}

class UserPortal {

}
HumanResourcesManager "1" - - "*" Skill : assign >
Skill "*" - - "1" User : to >
User "1" - - "1" UserPortal : entries >
@enduml

PlantUML version 1.2022.7(Mon Aug 22 17:01:30 UTC 2022)
(GPL source distribution)
Java Runtime: OpenJDK Runtime Environment
JVM: OpenJDK 64-Bit Server VM
Default Encoding: UTF-8
Language: en
Country: null
--></g></svg>