<?xml version="1.0" encoding="us-ascii" standalone="no"?><svg xmlns="http://www.w3.org/2000/svg" xmlns:xlink="http://www.w3.org/1999/xlink" contentStyleType="text/css" height="440px" preserveAspectRatio="none" style="width:723px;height:440px;background:#FFFFFF;" version="1.1" viewBox="0 0 723 440" width="723px" zoomAndPan="magnify"><defs/><g><text fill="#000000" font-family="sans-serif" font-size="14" font-weight="bold" lengthAdjust="spacing" textLength="396" x="165.75" y="30.1074">System Sequence Diagram (SSD) - Register Green Space</text><rect fill="#FFFFFF" height="205.7461" style="stroke:#181818;stroke-width:1.0;" width="10" x="97.5" y="133.2422"/><rect fill="#FFFFFF" height="31.291" style="stroke:#181818;stroke-width:1.0;" width="10" x="424.5" y="156.5332"/><rect fill="#FFFFFF" height="119.873" style="stroke:#181818;stroke-width:1.0;" width="10" x="424.5" y="219.1152"/><line style="stroke:#181818;stroke-width:0.5;stroke-dasharray:5.0,5.0;" x1="102" x2="102" y1="123.2422" y2="356.9883"/><line style="stroke:#181818;stroke-width:0.5;stroke-dasharray:5.0,5.0;" x1="429.5" x2="429.5" y1="123.2422" y2="356.9883"/><text fill="#000000" font-family="sans-serif" font-size="14" lengthAdjust="spacing" textLength="189" x="5" y="119.7285">Green Space Manager (GSM)</text><ellipse cx="102.5" cy="53.1211" fill="#E3E3E3" rx="8" ry="8" style="stroke:#181818;stroke-width:0.5;"/><path d="M102.5,61.1211 L102.5,88.1211 M89.5,69.1211 L115.5,69.1211 M102.5,88.1211 L89.5,103.1211 M102.5,88.1211 L115.5,103.1211 " fill="none" style="stroke:#181818;stroke-width:0.5;"/><text fill="#000000" font-family="sans-serif" font-size="14" lengthAdjust="spacing" textLength="189" x="5" y="371.0957">Green Space Manager (GSM)</text><ellipse cx="102.5" cy="383.1094" fill="#E3E3E3" rx="8" ry="8" style="stroke:#181818;stroke-width:0.5;"/><path d="M102.5,391.1094 L102.5,418.1094 M89.5,399.1094 L115.5,399.1094 M102.5,418.1094 L89.5,433.1094 M102.5,418.1094 L115.5,433.1094 " fill="none" style="stroke:#181818;stroke-width:0.5;"/><rect fill="#E3E3E3" height="32.6211" rx="2.5" ry="2.5" style="stroke:#181818;stroke-width:0.5;" width="64" x="397.5" y="89.6211"/><text fill="#000000" font-family="sans-serif" font-size="14" lengthAdjust="spacing" textLength="50" x="404.5" y="111.7285">:System</text><rect fill="#E3E3E3" height="32.6211" rx="2.5" ry="2.5" style="stroke:#181818;stroke-width:0.5;" width="64" x="397.5" y="355.9883"/><text fill="#000000" font-family="sans-serif" font-size="14" lengthAdjust="spacing" textLength="50" x="404.5" y="378.0957">:System</text><rect fill="#FFFFFF" height="205.7461" style="stroke:#181818;stroke-width:1.0;" width="10" x="97.5" y="133.2422"/><rect fill="#FFFFFF" height="31.291" style="stroke:#181818;stroke-width:1.0;" width="10" x="424.5" y="156.5332"/><rect fill="#FFFFFF" height="119.873" style="stroke:#181818;stroke-width:1.0;" width="10" x="424.5" y="219.1152"/><polygon fill="#181818" points="412.5,152.5332,422.5,156.5332,412.5,160.5332,416.5,156.5332" style="stroke:#181818;stroke-width:1.0;"/><line style="stroke:#181818;stroke-width:1.0;" x1="107.5" x2="418.5" y1="156.5332" y2="156.5332"/><text fill="#000000" font-family="sans-serif" font-size="13" font-weight="bold" lengthAdjust="spacing" textLength="7" x="114.5" y="151.2705">1</text><text fill="#000000" font-family="sans-serif" font-size="13" lengthAdjust="spacing" textLength="180" x="125.5" y="151.2705">request to register green space</text><polygon fill="#181818" points="118.5,183.8242,108.5,187.8242,118.5,191.8242,114.5,187.8242" style="stroke:#181818;stroke-width:1.0;"/><line style="stroke:#181818;stroke-width:1.0;stroke-dasharray:2.0,2.0;" x1="112.5" x2="428.5" y1="187.8242" y2="187.8242"/><text fill="#000000" font-family="sans-serif" font-size="13" font-weight="bold" lengthAdjust="spacing" textLength="7" x="124.5" y="182.5615">2</text><text fill="#000000" font-family="sans-serif" font-size="13" lengthAdjust="spacing" textLength="282" x="135.5" y="182.5615">prompt for required fields (e.g., name, area, type)</text><polygon fill="#181818" points="412.5,215.1152,422.5,219.1152,412.5,223.1152,416.5,219.1152" style="stroke:#181818;stroke-width:1.0;"/><line style="stroke:#181818;stroke-width:1.0;" x1="107.5" x2="418.5" y1="219.1152" y2="219.1152"/><text fill="#000000" font-family="sans-serif" font-size="13" font-weight="bold" lengthAdjust="spacing" textLength="7" x="114.5" y="213.8525">3</text><text fill="#000000" font-family="sans-serif" font-size="13" lengthAdjust="spacing" textLength="267" x="125.5" y="213.8525">provide green space details (name, area, type)</text><line style="stroke:#181818;stroke-width:1.0;" x1="434.5" x2="476.5" y1="250.4063" y2="250.4063"/><line style="stroke:#181818;stroke-width:1.0;" x1="476.5" x2="476.5" y1="250.4063" y2="263.4063"/><line style="stroke:#181818;stroke-width:1.0;" x1="435.5" x2="476.5" y1="263.4063" y2="263.4063"/><polygon fill="#181818" points="445.5,259.4063,435.5,263.4063,445.5,267.4063,441.5,263.4063" style="stroke:#181818;stroke-width:1.0;"/><text fill="#000000" font-family="sans-serif" font-size="13" font-weight="bold" lengthAdjust="spacing" textLength="7" x="441.5" y="245.1436">4</text><text fill="#000000" font-family="sans-serif" font-size="13" lengthAdjust="spacing" textLength="264" x="452.5" y="245.1436">validate details and create green space object</text><line style="stroke:#181818;stroke-width:1.0;" x1="434.5" x2="476.5" y1="294.6973" y2="294.6973"/><line style="stroke:#181818;stroke-width:1.0;" x1="476.5" x2="476.5" y1="294.6973" y2="307.6973"/><line style="stroke:#181818;stroke-width:1.0;" x1="435.5" x2="476.5" y1="307.6973" y2="307.6973"/><polygon fill="#181818" points="445.5,303.6973,435.5,307.6973,445.5,311.6973,441.5,307.6973" style="stroke:#181818;stroke-width:1.0;"/><text fill="#000000" font-family="sans-serif" font-size="13" font-weight="bold" lengthAdjust="spacing" textLength="7" x="441.5" y="289.4346">5</text><text fill="#000000" font-family="sans-serif" font-size="13" lengthAdjust="spacing" textLength="179" x="452.5" y="289.4346">store green space in repository</text><polygon fill="#181818" points="113.5,334.9883,103.5,338.9883,113.5,342.9883,109.5,338.9883" style="stroke:#181818;stroke-width:1.0;"/><line style="stroke:#181818;stroke-width:1.0;stroke-dasharray:2.0,2.0;" x1="107.5" x2="428.5" y1="338.9883" y2="338.9883"/><text fill="#000000" font-family="sans-serif" font-size="13" font-weight="bold" lengthAdjust="spacing" textLength="7" x="119.5" y="333.7256">6</text><text fill="#000000" font-family="sans-serif" font-size="13" lengthAdjust="spacing" textLength="176" x="130.5" y="333.7256">confirm successful registration</text><!--SRC=[XPB1Ri8m38RlVGgB4qZ00t3O2OdJBiiJcCGD7cdI9IvJttvkAQXCiELanRy__x5JpXnRpDX0asAofvmQ0iaTLUMUQT6UqPEHFX1aieBHXxcWdD2bRuuUQWo5gafOL6hw8jI0eQ-EeYNOC_f1lZHclu8DV91dLMGuPA88HljeBNQIOjSSAMji9MLOpFBmZb6zP5WUpFjg0LX0Wqfz25jkCGeiTjV6O_8QZYI-eD2eha2F1h1vkvdSwSFKPX6GfE5ap8-DosXigBbJRbYOpaJPA73Wxg3LGRO2jTeVm9p9GSqKN84bRVrs3H4RMWDcmZL8tz9gX3bwskEtMSLVsD7Se9OASb3-S_A_tcVu2mPsW_R6nEZ0Ab0UMwRZftw7lqX55_XOmr4dqgR2ckbV3z2cM7FMlzLPIwNKNPZMab4unLV3cbqDc_u1]--></g></svg>