<?xml version="1.0" encoding="us-ascii" standalone="no"?><svg xmlns="http://www.w3.org/2000/svg" xmlns:xlink="http://www.w3.org/1999/xlink" contentStyleType="text/css" height="493px" preserveAspectRatio="none" style="width:546px;height:493px;background:#FFFFFF;" version="1.1" viewBox="0 0 546 493" width="546px" zoomAndPan="magnify"><defs/><g><text fill="#000000" font-family="sans-serif" font-size="14" font-weight="bold" lengthAdjust="spacing" textLength="351" x="96.75" y="30.1074">System Sequence Diagram (SSD) - Alternative One</text><rect fill="#FFFFFF" height="259.6191" style="stroke:#181818;stroke-width:1.0;" width="10" x="78.5" y="133.2422"/><rect fill="#FFFFFF" height="31.291" style="stroke:#181818;stroke-width:1.0;" width="10" x="503.5" y="156.5332"/><rect fill="#FFFFFF" height="48.582" style="stroke:#181818;stroke-width:1.0;" width="10" x="503.5" y="219.1152"/><rect fill="#FFFFFF" height="31.291" style="stroke:#181818;stroke-width:1.0;" width="10" x="503.5" y="298.9883"/><rect fill="#FFFFFF" height="31.291" style="stroke:#181818;stroke-width:1.0;" width="10" x="503.5" y="361.5703"/><line style="stroke:#181818;stroke-width:0.5;stroke-dasharray:5.0,5.0;" x1="83" x2="83" y1="123.2422" y2="410.8613"/><line style="stroke:#181818;stroke-width:0.5;stroke-dasharray:5.0,5.0;" x1="508.5" x2="508.5" y1="123.2422" y2="410.8613"/><text fill="#000000" font-family="sans-serif" font-size="14" lengthAdjust="spacing" textLength="151" x="5" y="119.7285">Green Spaces Manager</text><ellipse cx="83.5" cy="53.1211" fill="#E3E3E3" rx="8" ry="8" style="stroke:#181818;stroke-width:0.5;"/><path d="M83.5,61.1211 L83.5,88.1211 M70.5,69.1211 L96.5,69.1211 M83.5,88.1211 L70.5,103.1211 M83.5,88.1211 L96.5,103.1211 " fill="none" style="stroke:#181818;stroke-width:0.5;"/><text fill="#000000" font-family="sans-serif" font-size="14" lengthAdjust="spacing" textLength="151" x="5" y="424.9688">Green Spaces Manager</text><ellipse cx="83.5" cy="436.9824" fill="#E3E3E3" rx="8" ry="8" style="stroke:#181818;stroke-width:0.5;"/><path d="M83.5,444.9824 L83.5,471.9824 M70.5,452.9824 L96.5,452.9824 M83.5,471.9824 L70.5,486.9824 M83.5,471.9824 L96.5,486.9824 " fill="none" style="stroke:#181818;stroke-width:0.5;"/><rect fill="#E3E3E3" height="32.6211" rx="2.5" ry="2.5" style="stroke:#181818;stroke-width:0.5;" width="64" x="476.5" y="89.6211"/><text fill="#000000" font-family="sans-serif" font-size="14" lengthAdjust="spacing" textLength="50" x="483.5" y="111.7285">:System</text><rect fill="#E3E3E3" height="32.6211" rx="2.5" ry="2.5" style="stroke:#181818;stroke-width:0.5;" width="64" x="476.5" y="409.8613"/><text fill="#000000" font-family="sans-serif" font-size="14" lengthAdjust="spacing" textLength="50" x="483.5" y="431.9688">:System</text><rect fill="#FFFFFF" height="259.6191" style="stroke:#181818;stroke-width:1.0;" width="10" x="78.5" y="133.2422"/><rect fill="#FFFFFF" height="31.291" style="stroke:#181818;stroke-width:1.0;" width="10" x="503.5" y="156.5332"/><rect fill="#FFFFFF" height="48.582" style="stroke:#181818;stroke-width:1.0;" width="10" x="503.5" y="219.1152"/><rect fill="#FFFFFF" height="31.291" style="stroke:#181818;stroke-width:1.0;" width="10" x="503.5" y="298.9883"/><rect fill="#FFFFFF" height="31.291" style="stroke:#181818;stroke-width:1.0;" width="10" x="503.5" y="361.5703"/><polygon fill="#181818" points="491.5,152.5332,501.5,156.5332,491.5,160.5332,495.5,156.5332" style="stroke:#181818;stroke-width:1.0;"/><line style="stroke:#181818;stroke-width:1.0;" x1="88.5" x2="497.5" y1="156.5332" y2="156.5332"/><text fill="#000000" font-family="sans-serif" font-size="13" font-weight="bold" lengthAdjust="spacing" textLength="7" x="95.5" y="151.2705">1</text><text fill="#000000" font-family="sans-serif" font-size="13" lengthAdjust="spacing" textLength="257" x="106.5" y="151.2705">requests to add a new task to the To-Do List</text><polygon fill="#181818" points="99.5,183.8242,89.5,187.8242,99.5,191.8242,95.5,187.8242" style="stroke:#181818;stroke-width:1.0;"/><line style="stroke:#181818;stroke-width:1.0;stroke-dasharray:2.0,2.0;" x1="93.5" x2="507.5" y1="187.8242" y2="187.8242"/><text fill="#000000" font-family="sans-serif" font-size="13" font-weight="bold" lengthAdjust="spacing" textLength="7" x="105.5" y="182.5615">2</text><text fill="#000000" font-family="sans-serif" font-size="13" lengthAdjust="spacing" textLength="338" x="116.5" y="182.5615">displays a list of green spaces and prompts to choose one</text><polygon fill="#181818" points="491.5,215.1152,501.5,219.1152,491.5,223.1152,495.5,219.1152" style="stroke:#181818;stroke-width:1.0;"/><line style="stroke:#181818;stroke-width:1.0;" x1="88.5" x2="497.5" y1="219.1152" y2="219.1152"/><text fill="#000000" font-family="sans-serif" font-size="13" font-weight="bold" lengthAdjust="spacing" textLength="7" x="95.5" y="213.8525">3</text><text fill="#000000" font-family="sans-serif" font-size="13" lengthAdjust="spacing" textLength="128" x="106.5" y="213.8525">selects a green space</text><polygon fill="#181818" points="99.5,263.6973,89.5,267.6973,99.5,271.6973,95.5,267.6973" style="stroke:#181818;stroke-width:1.0;"/><line style="stroke:#181818;stroke-width:1.0;stroke-dasharray:2.0,2.0;" x1="93.5" x2="507.5" y1="267.6973" y2="267.6973"/><text fill="#000000" font-family="sans-serif" font-size="13" font-weight="bold" lengthAdjust="spacing" textLength="7" x="105.5" y="253.7891">4</text><text fill="#000000" font-family="sans-serif" font-size="13" lengthAdjust="spacing" textLength="376" x="116.5" y="245.1436">prompts for task details (title, task description, degree of urgency</text><text fill="#000000" font-family="sans-serif" font-size="13" lengthAdjust="spacing" textLength="200" x="116.5" y="262.4346">(selectable), approximate duration)</text><polygon fill="#181818" points="491.5,294.9883,501.5,298.9883,491.5,302.9883,495.5,298.9883" style="stroke:#181818;stroke-width:1.0;"/><line style="stroke:#181818;stroke-width:1.0;" x1="88.5" x2="497.5" y1="298.9883" y2="298.9883"/><text fill="#000000" font-family="sans-serif" font-size="13" font-weight="bold" lengthAdjust="spacing" textLength="7" x="95.5" y="293.7256">5</text><text fill="#000000" font-family="sans-serif" font-size="13" lengthAdjust="spacing" textLength="153" x="106.5" y="293.7256">enters/selects task details</text><polygon fill="#181818" points="99.5,326.2793,89.5,330.2793,99.5,334.2793,95.5,330.2793" style="stroke:#181818;stroke-width:1.0;"/><line style="stroke:#181818;stroke-width:1.0;stroke-dasharray:2.0,2.0;" x1="93.5" x2="507.5" y1="330.2793" y2="330.2793"/><text fill="#000000" font-family="sans-serif" font-size="13" font-weight="bold" lengthAdjust="spacing" textLength="7" x="105.5" y="325.0166">6</text><text fill="#000000" font-family="sans-serif" font-size="13" lengthAdjust="spacing" textLength="273" x="116.5" y="325.0166">displays entered data and asks for confirmation</text><polygon fill="#181818" points="491.5,357.5703,501.5,361.5703,491.5,365.5703,495.5,361.5703" style="stroke:#181818;stroke-width:1.0;"/><line style="stroke:#181818;stroke-width:1.0;" x1="88.5" x2="497.5" y1="361.5703" y2="361.5703"/><text fill="#000000" font-family="sans-serif" font-size="13" font-weight="bold" lengthAdjust="spacing" textLength="7" x="95.5" y="356.3076">7</text><text fill="#000000" font-family="sans-serif" font-size="13" lengthAdjust="spacing" textLength="142" x="106.5" y="356.3076">confirms the task details</text><polygon fill="#181818" points="94.5,388.8613,84.5,392.8613,94.5,396.8613,90.5,392.8613" style="stroke:#181818;stroke-width:1.0;"/><line style="stroke:#181818;stroke-width:1.0;stroke-dasharray:2.0,2.0;" x1="88.5" x2="507.5" y1="392.8613" y2="392.8613"/><text fill="#000000" font-family="sans-serif" font-size="13" font-weight="bold" lengthAdjust="spacing" textLength="7" x="100.5" y="387.5986">8</text><text fill="#000000" font-family="sans-serif" font-size="13" lengthAdjust="spacing" textLength="183" x="111.5" y="387.5986">indicates task addition success</text><!--SRC=[dP8nZzim38Lt_meYKm8aw9wXG840j_JGmHrluKcCGyIcN96-k_pxKd8S16rlI3t94lNUzoZgcMN4Z0CCIL8uvJGGM9weqTl9YE6C7RLswGao1KFf-li2FM5CxomT7B5NQXfZyzBseaO3jFHh8Wa41yQkbA_Rzh217NphZRAWyHl13_5hE5cIQNYbxEjWASFgAHC9j8v02iyepf5NW0fFxNFZxiQ1HnI3rNwsguVpiehm6nhLwWRyymNilYveUu_ZS6eAbW1Z10IXTp3KSzcn4y7Fj3ia-CvgLU0ckNZ0zRjAxbozcEmXieuzNjGrUxyDwGXTJQDp6fG8e_TxdDt3AIKbIDw88XVfdqv_yYlr_Y35uqxxSz2_81U0epUxfevaoBt2khxXTjdKa7aqJhBrds9LuaovyuUzm8kiPmvyxMcp1HnTzeE7uXwdZENUvf5K93uP-cK9Tm_sGBRR0rGvYX3HiBRTzUR88ScHyr097m6ytjCw8V-9nn8vUDKrdqyV5mpGAVXuw6SuTrjbgdy3]--></g></svg>