<?xml version="1.0" encoding="UTF-8" standalone="no"?><svg xmlns="http://www.w3.org/2000/svg" xmlns:xlink="http://www.w3.org/1999/xlink" contentStyleType="text/css" height="713px" preserveAspectRatio="none" style="width:418px;height:713px;background:#FFFFFF;" version="1.1" viewBox="0 0 418 713" width="418px" zoomAndPan="magnify"><defs/><g><!--MD5=[17e00d5ea56ecd111f381cd1084c4da3]
class HumanResourcesManager--><g id="elem_HumanResourcesManager"><rect codeLine="1" fill="#F1F1F1" height="96.8906" id="HumanResourcesManager" rx="2.5" ry="2.5" style="stroke:#181818;stroke-width:0.5;" width="216" x="7" y="23"/><ellipse cx="22" cy="39" fill="#ADD1B2" rx="11" ry="11" style="stroke:#181818;stroke-width:1.0;"/><path d="M24.9688,44.6406 Q24.3906,44.9375 23.75,45.0781 Q23.1094,45.2344 22.4063,45.2344 Q19.9063,45.2344 18.5781,43.5938 Q17.2656,41.9375 17.2656,38.8125 Q17.2656,35.6875 18.5781,34.0313 Q19.9063,32.375 22.4063,32.375 Q23.1094,32.375 23.75,32.5313 Q24.4063,32.6875 24.9688,32.9844 L24.9688,35.7031 Q24.3438,35.125 23.75,34.8594 Q23.1563,34.5781 22.5313,34.5781 Q21.1875,34.5781 20.5,35.6563 Q19.8125,36.7188 19.8125,38.8125 Q19.8125,40.9063 20.5,41.9844 Q21.1875,43.0469 22.5313,43.0469 Q23.1563,43.0469 23.75,42.7813 Q24.3438,42.5 24.9688,41.9219 L24.9688,44.6406 Z " fill="#000000"/><text fill="#000000" font-family="sans-serif" font-size="14" lengthAdjust="spacing" textLength="184" x="36" y="43.8467">HumanResourcesManager</text><line style="stroke:#181818;stroke-width:0.5;" x1="8" x2="222" y1="55" y2="55"/><text fill="#000000" font-family="sans-serif" font-size="14" lengthAdjust="spacing" textLength="39" x="13" y="71.9951">name</text><text fill="#000000" font-family="sans-serif" font-size="14" lengthAdjust="spacing" textLength="36" x="13" y="88.292">email</text><text fill="#000000" font-family="sans-serif" font-size="14" lengthAdjust="spacing" textLength="100" x="13" y="104.5889">phoneNumber</text><line style="stroke:#181818;stroke-width:0.5;" x1="8" x2="222" y1="111.8906" y2="111.8906"/></g><!--MD5=[42e1add689e888dd7b55d3ee3f1dd6d7]
class Skill--><g id="elem_Skill"><rect codeLine="7" fill="#F1F1F1" height="80.5938" id="Skill" rx="2.5" ry="2.5" style="stroke:#181818;stroke-width:0.5;" width="89" x="166.5" y="213"/><ellipse cx="195.45" cy="229" fill="#ADD1B2" rx="11" ry="11" style="stroke:#181818;stroke-width:1.0;"/><path d="M198.4188,234.6406 Q197.8406,234.9375 197.2,235.0781 Q196.5594,235.2344 195.8563,235.2344 Q193.3563,235.2344 192.0281,233.5938 Q190.7156,231.9375 190.7156,228.8125 Q190.7156,225.6875 192.0281,224.0313 Q193.3563,222.375 195.8563,222.375 Q196.5594,222.375 197.2,222.5313 Q197.8563,222.6875 198.4188,222.9844 L198.4188,225.7031 Q197.7938,225.125 197.2,224.8594 Q196.6063,224.5781 195.9813,224.5781 Q194.6375,224.5781 193.95,225.6563 Q193.2625,226.7188 193.2625,228.8125 Q193.2625,230.9063 193.95,231.9844 Q194.6375,233.0469 195.9813,233.0469 Q196.6063,233.0469 197.2,232.7813 Q197.7938,232.5 198.4188,231.9219 L198.4188,234.6406 Z " fill="#000000"/><text fill="#000000" font-family="sans-serif" font-size="14" lengthAdjust="spacing" textLength="26" x="212.55" y="233.8467">Skill</text><line style="stroke:#181818;stroke-width:0.5;" x1="167.5" x2="254.5" y1="245" y2="245"/><text fill="#000000" font-family="sans-serif" font-size="14" lengthAdjust="spacing" textLength="25" x="172.5" y="261.9951">title</text><text fill="#000000" font-family="sans-serif" font-size="14" lengthAdjust="spacing" textLength="77" x="172.5" y="278.292">description</text><line style="stroke:#181818;stroke-width:0.5;" x1="167.5" x2="254.5" y1="285.5938" y2="285.5938"/></g><!--MD5=[3fd616f346a44cd59a91eb10b19e157c]
class User--><g id="elem_User"><rect codeLine="12" fill="#F1F1F1" height="178.375" id="User" rx="2.5" ry="2.5" style="stroke:#181818;stroke-width:0.5;" width="227" x="97.5" y="371"/><ellipse cx="190.75" cy="387" fill="#ADD1B2" rx="11" ry="11" style="stroke:#181818;stroke-width:1.0;"/><path d="M193.7188,392.6406 Q193.1406,392.9375 192.5,393.0781 Q191.8594,393.2344 191.1563,393.2344 Q188.6563,393.2344 187.3281,391.5938 Q186.0156,389.9375 186.0156,386.8125 Q186.0156,383.6875 187.3281,382.0313 Q188.6563,380.375 191.1563,380.375 Q191.8594,380.375 192.5,380.5313 Q193.1563,380.6875 193.7188,380.9844 L193.7188,383.7031 Q193.0938,383.125 192.5,382.8594 Q191.9063,382.5781 191.2813,382.5781 Q189.9375,382.5781 189.25,383.6563 Q188.5625,384.7188 188.5625,386.8125 Q188.5625,388.9063 189.25,389.9844 Q189.9375,391.0469 191.2813,391.0469 Q191.9063,391.0469 192.5,390.7813 Q193.0938,390.5 193.7188,389.9219 L193.7188,392.6406 Z " fill="#000000"/><text fill="#000000" font-family="sans-serif" font-size="14" lengthAdjust="spacing" textLength="32" x="211.25" y="391.8467">User</text><line style="stroke:#181818;stroke-width:0.5;" x1="98.5" x2="323.5" y1="403" y2="403"/><text fill="#000000" font-family="sans-serif" font-size="14" lengthAdjust="spacing" textLength="39" x="103.5" y="419.9951">name</text><text fill="#000000" font-family="sans-serif" font-size="14" lengthAdjust="spacing" textLength="78" x="103.5" y="436.292">dateOfBirth</text><text fill="#000000" font-family="sans-serif" font-size="14" lengthAdjust="spacing" textLength="117" x="103.5" y="452.5889">dateOfAdmission</text><text fill="#000000" font-family="sans-serif" font-size="14" lengthAdjust="spacing" textLength="56" x="103.5" y="468.8857">address</text><text fill="#000000" font-family="sans-serif" font-size="14" lengthAdjust="spacing" textLength="100" x="103.5" y="485.1826">phoneNumber</text><text fill="#000000" font-family="sans-serif" font-size="14" lengthAdjust="spacing" textLength="36" x="103.5" y="501.4795">email</text><text fill="#000000" font-family="sans-serif" font-size="14" lengthAdjust="spacing" textLength="215" x="103.5" y="517.7764">identificationDocumentNumber</text><text fill="#000000" font-family="sans-serif" font-size="14" lengthAdjust="spacing" textLength="113" x="103.5" y="534.0732">taxpayerNumber</text><line style="stroke:#181818;stroke-width:0.5;" x1="98.5" x2="323.5" y1="541.375" y2="541.375"/></g><!--MD5=[b8e0354e0f3f5cbf52553869b78c0afa]
class Job--><g id="elem_Job"><rect codeLine="23" fill="#F1F1F1" height="80.5938" id="Job" rx="2.5" ry="2.5" style="stroke:#181818;stroke-width:0.5;" width="89" x="317.5" y="626"/><ellipse cx="348.7" cy="642" fill="#ADD1B2" rx="11" ry="11" style="stroke:#181818;stroke-width:1.0;"/><path d="M351.6688,647.6406 Q351.0906,647.9375 350.45,648.0781 Q349.8094,648.2344 349.1063,648.2344 Q346.6063,648.2344 345.2781,646.5938 Q343.9656,644.9375 343.9656,641.8125 Q343.9656,638.6875 345.2781,637.0313 Q346.6063,635.375 349.1063,635.375 Q349.8094,635.375 350.45,635.5313 Q351.1063,635.6875 351.6688,635.9844 L351.6688,638.7031 Q351.0438,638.125 350.45,637.8594 Q349.8563,637.5781 349.2313,637.5781 Q347.8875,637.5781 347.2,638.6563 Q346.5125,639.7188 346.5125,641.8125 Q346.5125,643.9063 347.2,644.9844 Q347.8875,646.0469 349.2313,646.0469 Q349.8563,646.0469 350.45,645.7813 Q351.0438,645.5 351.6688,644.9219 L351.6688,647.6406 Z " fill="#000000"/><text fill="#000000" font-family="sans-serif" font-size="14" lengthAdjust="spacing" textLength="21" x="366.3" y="646.8467">Job</text><line style="stroke:#181818;stroke-width:0.5;" x1="318.5" x2="405.5" y1="658" y2="658"/><text fill="#000000" font-family="sans-serif" font-size="14" lengthAdjust="spacing" textLength="25" x="323.5" y="674.9951">title</text><text fill="#000000" font-family="sans-serif" font-size="14" lengthAdjust="spacing" textLength="77" x="323.5" y="691.292">description</text><line style="stroke:#181818;stroke-width:0.5;" x1="318.5" x2="405.5" y1="698.5938" y2="698.5938"/></g><!--MD5=[bdf662e7ebf319cf8f4f527e53a85987]
class UserPortal--><g id="elem_UserPortal"><rect codeLine="28" fill="#F1F1F1" height="48" id="UserPortal" rx="2.5" ry="2.5" style="stroke:#181818;stroke-width:0.5;" width="103" x="159.5" y="642.5"/><ellipse cx="174.5" cy="658.5" fill="#ADD1B2" rx="11" ry="11" style="stroke:#181818;stroke-width:1.0;"/><path d="M177.4688,664.1406 Q176.8906,664.4375 176.25,664.5781 Q175.6094,664.7344 174.9063,664.7344 Q172.4063,664.7344 171.0781,663.0938 Q169.7656,661.4375 169.7656,658.3125 Q169.7656,655.1875 171.0781,653.5313 Q172.4063,651.875 174.9063,651.875 Q175.6094,651.875 176.25,652.0313 Q176.9063,652.1875 177.4688,652.4844 L177.4688,655.2031 Q176.8438,654.625 176.25,654.3594 Q175.6563,654.0781 175.0313,654.0781 Q173.6875,654.0781 173,655.1563 Q172.3125,656.2188 172.3125,658.3125 Q172.3125,660.4063 173,661.4844 Q173.6875,662.5469 175.0313,662.5469 Q175.6563,662.5469 176.25,662.2813 Q176.8438,662 177.4688,661.4219 L177.4688,664.1406 Z " fill="#000000"/><text fill="#000000" font-family="sans-serif" font-size="14" lengthAdjust="spacing" textLength="71" x="188.5" y="663.3467">UserPortal</text><line style="stroke:#181818;stroke-width:0.5;" x1="160.5" x2="261.5" y1="674.5" y2="674.5"/><line style="stroke:#181818;stroke-width:0.5;" x1="160.5" x2="261.5" y1="682.5" y2="682.5"/></g><!--MD5=[86c7c362de55a38b660185a1328fe18d]
class Organization--><g id="elem_Organization"><rect codeLine="31" fill="#F1F1F1" height="129.4844" id="Organization" rx="2.5" ry="2.5" style="stroke:#181818;stroke-width:0.5;" width="119" x="292.5" y="7"/><ellipse cx="307.5" cy="23" fill="#ADD1B2" rx="11" ry="11" style="stroke:#181818;stroke-width:1.0;"/><path d="M310.4688,28.6406 Q309.8906,28.9375 309.25,29.0781 Q308.6094,29.2344 307.9063,29.2344 Q305.4063,29.2344 304.0781,27.5938 Q302.7656,25.9375 302.7656,22.8125 Q302.7656,19.6875 304.0781,18.0313 Q305.4063,16.375 307.9063,16.375 Q308.6094,16.375 309.25,16.5313 Q309.9063,16.6875 310.4688,16.9844 L310.4688,19.7031 Q309.8438,19.125 309.25,18.8594 Q308.6563,18.5781 308.0313,18.5781 Q306.6875,18.5781 306,19.6563 Q305.3125,20.7188 305.3125,22.8125 Q305.3125,24.9063 306,25.9844 Q306.6875,27.0469 308.0313,27.0469 Q308.6563,27.0469 309.25,26.7813 Q309.8438,26.5 310.4688,25.9219 L310.4688,28.6406 Z " fill="#000000"/><text fill="#000000" font-family="sans-serif" font-size="14" lengthAdjust="spacing" textLength="87" x="321.5" y="27.8467">Organization</text><line style="stroke:#181818;stroke-width:0.5;" x1="293.5" x2="410.5" y1="39" y2="39"/><text fill="#000000" font-family="sans-serif" font-size="14" lengthAdjust="spacing" textLength="39" x="298.5" y="55.9951">name</text><text fill="#000000" font-family="sans-serif" font-size="14" lengthAdjust="spacing" textLength="75" x="298.5" y="72.292">vatNumber</text><text fill="#000000" font-family="sans-serif" font-size="14" lengthAdjust="spacing" textLength="54" x="298.5" y="88.5889">website</text><text fill="#000000" font-family="sans-serif" font-size="14" lengthAdjust="spacing" textLength="100" x="298.5" y="104.8857">phoneNumber</text><text fill="#000000" font-family="sans-serif" font-size="14" lengthAdjust="spacing" textLength="36" x="298.5" y="121.1826">email</text><line style="stroke:#181818;stroke-width:0.5;" x1="293.5" x2="410.5" y1="128.4844" y2="128.4844"/></g><!--MD5=[6f28e58bd08eeb2113be648be8ec5f74]
link HumanResourcesManager to Skill--><g id="link_HumanResourcesManager_Skill"><path codeLine="39" d="M103.78,120.23 C101.43,140.6 102.13,164.01 112,183 C123.57,205.27 145.91,221.89 166.45,233.29 " fill="none" id="HumanResourcesManager-Skill" style="stroke:#181818;stroke-width:1.0;"/><polygon fill="#000000" points="119.424,178.9395,117.6094,169.6037,112.4685,172.4533,119.424,178.9395" style="stroke:#000000;stroke-width:1.0;"/><text fill="#000000" font-family="sans-serif" font-size="13" lengthAdjust="spacing" textLength="41" x="126" y="179.0669">assign</text><text fill="#000000" font-family="sans-serif" font-size="13" lengthAdjust="spacing" textLength="8" x="93.7348" y="139.8691">1</text><text fill="#000000" font-family="sans-serif" font-size="13" lengthAdjust="spacing" textLength="7" x="151.4917" y="225.8121">*</text></g><!--MD5=[6f28e58bd08eeb2113be648be8ec5f74]
link HumanResourcesManager to Skill--><g id="link_HumanResourcesManager_Skill"><path codeLine="45" d="M145.75,120.37 C154.6,134.82 164.02,150.87 172,166 C179.92,181.01 187.78,197.94 194.34,212.82 " fill="none" id="HumanResourcesManager-Skill-1" style="stroke:#181818;stroke-width:1.0;"/><polygon fill="#000000" points="187.3262,178.9923,185.7196,169.6185,180.5166,172.3531,187.3262,178.9923" style="stroke:#000000;stroke-width:1.0;"/><text fill="#000000" font-family="sans-serif" font-size="13" lengthAdjust="spacing" textLength="56" x="194" y="179.0669">registers</text><text fill="#000000" font-family="sans-serif" font-size="13" lengthAdjust="spacing" textLength="8" x="141.3445" y="140.0279">1</text><text fill="#000000" font-family="sans-serif" font-size="13" lengthAdjust="spacing" textLength="7" x="184.001" y="201.9517">*</text></g><!--MD5=[41b801615a054f1b09640d50c5c2cc68]
link HumanResourcesManager to User--><g id="link_HumanResourcesManager_User"><path codeLine="40" d="M93.54,120.36 C76.16,166.05 57.63,236.28 78,294 C87.67,321.41 104.04,347.62 122.05,370.75 " fill="none" id="HumanResourcesManager-User" style="stroke:#181818;stroke-width:1.0;"/><polygon fill="#000000" points="83.5657,258.5343,85.4624,249.2148,79.6223,249.8798,83.5657,258.5343" style="stroke:#000000;stroke-width:1.0;"/><text fill="#000000" font-family="sans-serif" font-size="13" lengthAdjust="spacing" textLength="56" x="92" y="258.0669">registers</text><text fill="#000000" font-family="sans-serif" font-size="13" lengthAdjust="spacing" textLength="8" x="82.1188" y="140.0165">1</text><text fill="#000000" font-family="sans-serif" font-size="13" lengthAdjust="spacing" textLength="7" x="107.394" y="359.7948">*</text></g><!--MD5=[28b0b07b295f301b24d02d04c913263e]
link Skill to User--><g id="link_Skill_User"><path codeLine="41" d="M211,294.42 C211,316.27 211,344.26 211,370.94 " fill="none" id="Skill-User" style="stroke:#181818;stroke-width:1.0;"/><polygon fill="#000000" points="216,337.5664,218.9389,328.5213,213.0611,328.5213,216,337.5664" style="stroke:#000000;stroke-width:1.0;"/><text fill="#000000" font-family="sans-serif" font-size="13" lengthAdjust="spacing" textLength="13" x="225" y="337.0669">to</text><text fill="#000000" font-family="sans-serif" font-size="13" lengthAdjust="spacing" textLength="7" x="203.4859" y="313.6382">*</text><text fill="#000000" font-family="sans-serif" font-size="13" lengthAdjust="spacing" textLength="8" x="202.6688" y="360.0005">1</text></g><!--MD5=[18ec5c9f1348f978072b96d5f00cf6e9]
link User to Job--><g id="link_User_Job"><path codeLine="42" d="M272.84,549.34 C284.07,564.99 295.78,581.05 307,596 C314.3,605.72 322.33,616.06 329.94,625.71 " fill="none" id="User-Job" style="stroke:#181818;stroke-width:1.0;"/><polygon fill="#000000" points="314.994,591.5709,311.9315,582.5669,307.224,586.0866,314.994,591.5709" style="stroke:#000000;stroke-width:1.0;"/><text fill="#000000" font-family="sans-serif" font-size="13" lengthAdjust="spacing" textLength="35" x="321" y="592.0669">has a</text><text fill="#000000" font-family="sans-serif" font-size="13" lengthAdjust="spacing" textLength="7" x="270.6713" y="569.4164">*</text><text fill="#000000" font-family="sans-serif" font-size="13" lengthAdjust="spacing" textLength="8" x="315.9676" y="614.8235">1</text></g><!--MD5=[676e30cf8fcfe5a79acd83be108a6aac]
link User to UserPortal--><g id="link_User_UserPortal"><path codeLine="43" d="M207.93,549.23 C207.7,564.81 207.67,580.88 208,596 C208.33,611.46 209.08,628.83 209.75,642.34 " fill="none" id="User-UserPortal" style="stroke:#181818;stroke-width:1.0;"/><polygon fill="#000000" points="213.0977,592.5655,215.8593,583.4647,209.9826,583.5795,213.0977,592.5655" style="stroke:#000000;stroke-width:1.0;"/><text fill="#000000" font-family="sans-serif" font-size="13" lengthAdjust="spacing" textLength="44" x="222" y="592.0669">entries</text><text fill="#000000" font-family="sans-serif" font-size="13" lengthAdjust="spacing" textLength="8" x="199.3445" y="569.2973">1</text><text fill="#000000" font-family="sans-serif" font-size="13" lengthAdjust="spacing" textLength="8" x="200.4047" y="631.311">1</text></g><!--MD5=[2fe11634cee263372cce630557c1e8d6]
link Organization to Job--><g id="link_Organization_Job"><path codeLine="44" d="M353.26,136.06 C355.12,232.02 358.66,419.61 361,579 C361.22,594.32 361.43,611.16 361.59,625.88 " fill="none" id="Organization-Job" style="stroke:#181818;stroke-width:1.0;"/><polygon fill="#000000" points="362.085,337.5657,364.8697,328.4719,358.9927,328.5719,362.085,337.5657" style="stroke:#000000;stroke-width:1.0;"/><text fill="#000000" font-family="sans-serif" font-size="13" lengthAdjust="spacing" textLength="23" x="371" y="337.0669">has</text><text fill="#000000" font-family="sans-serif" font-size="13" lengthAdjust="spacing" textLength="8" x="344.9432" y="156.4385">1</text><text fill="#000000" font-family="sans-serif" font-size="13" lengthAdjust="spacing" textLength="7" x="353.9424" y="615.0217">*</text></g><!--MD5=[6fb76a030decfddf78af102d90b8e122]
link Organization to Skill--><g id="link_Organization_Skill"><path codeLine="46" d="M302.09,136.21 C282.05,161.8 259.57,190.5 241.96,212.98 " fill="none" id="Organization-Skill" style="stroke:#181818;stroke-width:1.0;"/><polygon fill="#000000" points="278.9169,178.5027,286.808,173.1941,282.1806,169.5697,278.9169,178.5027" style="stroke:#000000;stroke-width:1.0;"/><text fill="#000000" font-family="sans-serif" font-size="13" lengthAdjust="spacing" textLength="23" x="291" y="179.0669">has</text><text fill="#000000" font-family="sans-serif" font-size="13" lengthAdjust="spacing" textLength="8" x="287.8567" y="156.6059">1</text><text fill="#000000" font-family="sans-serif" font-size="13" lengthAdjust="spacing" textLength="7" x="239.6797" y="201.8398">*</text></g><!--MD5=[74bcaba2f25c6d04c3deaf0effc8471e]
@startuml
class HumanResourcesManager {
    name
    email
    phoneNumber
}

class Skill {
    title
    description
}

class User {
    name
    dateOfBirth
    dateOfAdmission
    address
    phoneNumber
    email
    identificationDocumentNumber
    taxpayerNumber
}

class Job {
    title
    description
}

class UserPortal {
}

class Organization {
    name
    vatNumber
    website
    phoneNumber
    email
}

HumanResourcesManager "1" - - "*" Skill : assign >
HumanResourcesManager "1" - - "*" User : registers >
Skill "*" - - "1" User : to >
User "*" - - "1" Job : has a >
User "1" - - "1" UserPortal : entries >
Organization "1" - - "*" Job : has >
HumanResourcesManager "1" - - "*" Skill : registers >
Organization "1" - - "*" Skill : has >
@enduml

PlantUML version 1.2022.7(Mon Aug 22 17:01:30 UTC 2022)
(GPL source distribution)
Java Runtime: OpenJDK Runtime Environment
JVM: OpenJDK 64-Bit Server VM
Default Encoding: UTF-8
Language: en
Country: null
--></g></svg>